<?xml version="1.0" encoding="UTF-8" ?>
<svg version="1.1" width="7250" height="1470" xmlns="http://www.w3.org/2000/svg" shape-rendering="crispEdges">
<rect x="0" y="0" width="7250" height="25" fill="#000000" />
<rect x="0" y="25" width="55" height="1445" fill="#000000" />
<rect x="55" y="25" width="5" height="5" fill="#04150E" />
<rect x="60" y="25" width="7140" height="5" fill="#072417" />
<rect x="7200" y="25" width="5" height="5" fill="#03110B" />
<rect x="7205" y="25" width="45" height="1445" fill="#000000" />
<rect x="55" y="30" width="5" height="1375" fill="#146A44" />
<rect x="60" y="30" width="7140" height="80" fill="#22B573" />
<rect x="7200" y="30" width="5" height="1375" fill="#105536" />
<rect x="60" y="110" width="75" height="1295" fill="#22B573" />
<rect x="135" y="110" width="5" height="5" fill="#12623E" />
<rect x="140" y="110" width="6950" height="5" fill="#05180F" />
<rect x="7090" y="110" width="5" height="5" fill="#198756" />
<rect x="7095" y="110" width="105" height="1295" fill="#22B573" />
<rect x="135" y="115" width="5" height="1210" fill="#105536" />
<rect x="140" y="115" width="6950" height="70" fill="#000000" />
<rect x="7090" y="115" width="5" height="1210" fill="#188051" />
<rect x="140" y="185" width="70" height="1140" fill="#000000" />
<rect x="210" y="185" width="5" height="5" fill="#0E0E0E" />
<rect x="7015" y="185" width="75" height="1140" fill="#000000" />
<rect x="210" y="190" width="5" height="1060" fill="#1E1E1E" />
<rect x="210" y="1250" width="5" height="5" fill="#080808" />
<rect x="210" y="1255" width="6805" height="70" fill="#000000" />
<rect x="135" y="1325" width="5" height="5" fill="#16754A" />
<rect x="140" y="1325" width="6950" height="5" fill="#0B3C26" />
<rect x="7090" y="1325" width="5" height="5" fill="#1B925C" />
<rect x="135" y="1330" width="6960" height="75" fill="#22B573" />
<rect x="55" y="1405" width="5" height="5" fill="#0B3924" />
<rect x="60" y="1405" width="7140" height="5" fill="#12613D" />
<rect x="7200" y="1405" width="5" height="5" fill="#092D1D" />
<rect x="55" y="1410" width="7150" height="60" fill="#000000" />
</svg>