<?xml version="1.0" encoding="UTF-8" ?>
<svg version="1.1" width="1735" height="1445" xmlns="http://www.w3.org/2000/svg" shape-rendering="crispEdges">
<rect x="335" y="35" width="5" height="120" fill="#0F0F0F" />
<rect x="340" y="35" width="300" height="130" fill="#000000" />
<rect x="640" y="35" width="5" height="125" fill="#1E1E1E" />
<rect x="1090" y="35" width="5" height="120" fill="#D2D2D2" />
<rect x="1095" y="35" width="305" height="125" fill="#000000" />
<rect x="1400" y="35" width="5" height="120" fill="#B4B4B4" />
<rect x="180" y="155" width="5" height="5" fill="#D5D5D5" />
<rect x="185" y="155" width="150" height="5" fill="#999999" />
<rect x="335" y="155" width="5" height="5" fill="#0A0A0A" />
<rect x="940" y="155" width="5" height="160" fill="#F0F0F0" />
<rect x="945" y="155" width="150" height="160" fill="#000000" />
<rect x="1400" y="155" width="5" height="5" fill="#8E8E8E" />
<rect x="1405" y="155" width="150" height="5" fill="#999999" />
<rect x="1555" y="155" width="5" height="5" fill="#B1B1B1" />
<rect x="180" y="160" width="5" height="155" fill="#969696" />
<rect x="185" y="160" width="150" height="155" fill="#000000" />
<rect x="335" y="160" width="5" height="5" fill="#020202" />
<rect x="640" y="160" width="5" height="5" fill="#090909" />
<rect x="645" y="160" width="150" height="5" fill="#333333" />
<rect x="795" y="160" width="5" height="5" fill="#ABABAB" />
<rect x="1095" y="160" width="5" height="155" fill="#000000" />
<rect x="1100" y="160" width="5" height="5" fill="#7D2323" />
<rect x="1105" y="160" width="295" height="635" fill="#FF0000" />
<rect x="1400" y="160" width="5" height="5" fill="#914646" />
<rect x="1405" y="160" width="150" height="155" fill="#000000" />
<rect x="1555" y="160" width="5" height="155" fill="#3C3C3C" />
<rect x="335" y="165" width="5" height="150" fill="#1E1E1E" />
<rect x="340" y="165" width="5" height="5" fill="#FF6F6F" />
<rect x="345" y="165" width="295" height="5" fill="#FF6666" />
<rect x="640" y="165" width="5" height="5" fill="#2E1C1C" />
<rect x="645" y="165" width="150" height="150" fill="#000000" />
<rect x="795" y="165" width="5" height="150" fill="#969696" />
<rect x="1100" y="165" width="5" height="150" fill="#B15757" />
<rect x="1400" y="165" width="5" height="150" fill="#A05555" />
<rect x="340" y="170" width="5" height="145" fill="#FF0F0F" />
<rect x="345" y="170" width="295" height="145" fill="#FF0000" />
<rect x="640" y="170" width="5" height="145" fill="#381A1A" />
<rect x="1560" y="305" width="155" height="5" fill="#AAAAAA" />
<rect x="1715" y="305" width="5" height="5" fill="#E6E6E6" />
<rect x="1560" y="310" width="155" height="320" fill="#000000" />
<rect x="1715" y="310" width="5" height="155" fill="#B4B4B4" />
<rect x="30" y="315" width="5" height="5" fill="#979797" />
<rect x="35" y="315" width="145" height="5" fill="#777777" />
<rect x="180" y="315" width="5" height="5" fill="#464646" />
<rect x="185" y="315" width="5" height="5" fill="#070000" />
<rect x="190" y="315" width="145" height="5" fill="#110000" />
<rect x="335" y="315" width="5" height="5" fill="#2D1C1C" />
<rect x="340" y="315" width="5" height="5" fill="#FF6969" />
<rect x="345" y="315" width="140" height="5" fill="#FF8888" />
<rect x="485" y="315" width="5" height="5" fill="#FFADAD" />
<rect x="490" y="315" width="5" height="5" fill="#FFC7C7" />
<rect x="495" y="315" width="145" height="5" fill="#FF8888" />
<rect x="640" y="315" width="5" height="5" fill="#512626" />
<rect x="645" y="315" width="145" height="5" fill="#110000" />
<rect x="790" y="315" width="5" height="5" fill="#070000" />
<rect x="795" y="315" width="5" height="5" fill="#323232" />
<rect x="800" y="315" width="140" height="5" fill="#555555" />
<rect x="940" y="315" width="5" height="5" fill="#535353" />
<rect x="945" y="315" width="5" height="5" fill="#532B2B" />
<rect x="950" y="315" width="150" height="5" fill="#B05B5B" />
<rect x="1100" y="315" width="5" height="5" fill="#E75656" />
<rect x="1400" y="315" width="5" height="5" fill="#BF3838" />
<rect x="1405" y="315" width="150" height="5" fill="#550000" />
<rect x="1555" y="315" width="5" height="5" fill="#6E2D2D" />
<rect x="30" y="320" width="5" height="155" fill="#3C3C3C" />
<rect x="35" y="320" width="150" height="315" fill="#000000" />
<rect x="185" y="320" width="5" height="5" fill="#881F1F" />
<rect x="190" y="320" width="150" height="315" fill="#FF0000" />
<rect x="340" y="320" width="5" height="150" fill="#FFB4B4" />
<rect x="345" y="320" width="295" height="155" fill="#FFFFFF" />
<rect x="640" y="320" width="5" height="155" fill="#FF1E1E" />
<rect x="645" y="320" width="145" height="635" fill="#FF0000" />
<rect x="790" y="320" width="5" height="5" fill="#791010" />
<rect x="795" y="320" width="150" height="155" fill="#000000" />
<rect x="945" y="320" width="5" height="155" fill="#800808" />
<rect x="950" y="320" width="155" height="630" fill="#FF0000" />
<rect x="1400" y="320" width="155" height="305" fill="#FF0000" />
<rect x="1555" y="320" width="5" height="5" fill="#F93636" />
<rect x="185" y="325" width="5" height="150" fill="#8C2323" />
<rect x="790" y="325" width="5" height="150" fill="#A73E3E" />
<rect x="1555" y="325" width="5" height="300" fill="#FF3C3C" />
<rect x="1715" y="465" width="5" height="10" fill="#A9A9A9" />
<rect x="340" y="470" width="5" height="5" fill="#FFC4C4" />
<rect x="30" y="475" width="5" height="5" fill="#0E0E0E" />
<rect x="185" y="475" width="5" height="5" fill="#710808" />
<rect x="340" y="475" width="5" height="5" fill="#FFA9A9" />
<rect x="345" y="475" width="150" height="155" fill="#FFFFFF" />
<rect x="495" y="475" width="5" height="5" fill="#FFABAB" />
<rect x="500" y="475" width="140" height="5" fill="#FF9999" />
<rect x="640" y="475" width="5" height="5" fill="#FF1212" />
<rect x="790" y="475" width="160" height="640" fill="#FF0000" />
<rect x="1715" y="475" width="5" height="155" fill="#B4B4B4" />
<rect x="30" y="480" width="5" height="155" fill="#3C3C3C" />
<rect x="185" y="480" width="5" height="155" fill="#8C2323" />
<rect x="340" y="480" width="5" height="150" fill="#FF8787" />
<rect x="495" y="480" width="5" height="150" fill="#FF2D2D" />
<rect x="500" y="480" width="145" height="475" fill="#FF0000" />
<rect x="1400" y="625" width="5" height="170" fill="#FF0000" />
<rect x="1405" y="625" width="5" height="5" fill="#FD3D3D" />
<rect x="1410" y="625" width="145" height="5" fill="#F76F6F" />
<rect x="1555" y="625" width="5" height="5" fill="#F58D8D" />
<rect x="340" y="630" width="5" height="5" fill="#FF4848" />
<rect x="345" y="630" width="150" height="5" fill="#FF8888" />
<rect x="495" y="630" width="5" height="5" fill="#FF1818" />
<rect x="1405" y="630" width="5" height="155" fill="#B84040" />
<rect x="1410" y="630" width="150" height="160" fill="#000000" />
<rect x="1560" y="630" width="5" height="5" fill="#282828" />
<rect x="1565" y="630" width="150" height="5" fill="#AAAAAA" />
<rect x="1715" y="630" width="5" height="5" fill="#E6E6E6" />
<rect x="30" y="635" width="5" height="5" fill="#979797" />
<rect x="35" y="635" width="150" height="5" fill="#777777" />
<rect x="185" y="635" width="5" height="5" fill="#482525" />
<rect x="190" y="635" width="145" height="5" fill="#6C1717" />
<rect x="335" y="635" width="5" height="5" fill="#BA0B0B" />
<rect x="340" y="635" width="160" height="160" fill="#FF0000" />
<rect x="1560" y="635" width="5" height="155" fill="#3C3C3C" />
<rect x="185" y="640" width="5" height="155" fill="#2D2D2D" />
<rect x="190" y="640" width="145" height="155" fill="#000000" />
<rect x="335" y="640" width="5" height="155" fill="#870000" />
<rect x="1405" y="785" width="5" height="5" fill="#A22A2A" />
<rect x="1405" y="790" width="5" height="5" fill="#780000" />
<rect x="1410" y="790" width="5" height="5" fill="#484848" />
<rect x="1415" y="790" width="145" height="5" fill="#888888" />
<rect x="1560" y="790" width="5" height="5" fill="#A4A4A4" />
<rect x="185" y="795" width="5" height="5" fill="#737373" />
<rect x="190" y="795" width="145" height="5" fill="#555555" />
<rect x="335" y="795" width="5" height="5" fill="#913737" />
<rect x="340" y="795" width="5" height="5" fill="#CE2424" />
<rect x="345" y="795" width="150" height="5" fill="#D22828" />
<rect x="495" y="795" width="5" height="160" fill="#FF0000" />
<rect x="1105" y="795" width="145" height="155" fill="#FF0000" />
<rect x="1250" y="795" width="5" height="5" fill="#FE1313" />
<rect x="1255" y="795" width="150" height="5" fill="#AA0000" />
<rect x="1405" y="795" width="5" height="5" fill="#500000" />
<rect x="1410" y="795" width="5" height="155" fill="#878787" />
<rect x="340" y="800" width="5" height="160" fill="#4B4B4B" />
<rect x="345" y="800" width="150" height="160" fill="#000000" />
<rect x="1250" y="800" width="5" height="150" fill="#FB3838" />
<rect x="1255" y="800" width="155" height="150" fill="#000000" />
<rect x="950" y="950" width="150" height="165" fill="#FF0000" />
<rect x="1100" y="950" width="5" height="5" fill="#EB3D3D" />
<rect x="1105" y="950" width="145" height="5" fill="#B85252" />
<rect x="1250" y="950" width="5" height="5" fill="#AB5D5D" />
<rect x="1255" y="950" width="5" height="5" fill="#727272" />
<rect x="1260" y="950" width="150" height="5" fill="#CCCCCC" />
<rect x="1410" y="950" width="5" height="5" fill="#E7E7E7" />
<rect x="495" y="955" width="5" height="5" fill="#DD1111" />
<rect x="500" y="955" width="150" height="5" fill="#F52929" />
<rect x="650" y="955" width="5" height="5" fill="#FD1919" />
<rect x="655" y="955" width="135" height="160" fill="#FF0000" />
<rect x="1100" y="955" width="5" height="160" fill="#B84040" />
<rect x="1105" y="955" width="150" height="160" fill="#000000" />
<rect x="1255" y="955" width="5" height="160" fill="#0F0F0F" />
<rect x="490" y="960" width="5" height="160" fill="#D2D2D2" />
<rect x="495" y="960" width="155" height="160" fill="#000000" />
<rect x="650" y="960" width="5" height="155" fill="#D75F5F" />
<rect x="650" y="1115" width="5" height="5" fill="#5D2525" />
<rect x="655" y="1115" width="150" height="5" fill="#9B2424" />
<rect x="805" y="1115" width="5" height="5" fill="#FA1B1B" />
<rect x="810" y="1115" width="150" height="155" fill="#FF0000" />
<rect x="960" y="1115" width="5" height="5" fill="#C30404" />
<rect x="965" y="1115" width="135" height="5" fill="#800909" />
<rect x="1100" y="1115" width="5" height="5" fill="#440C0C" />
<rect x="1105" y="1115" width="5" height="5" fill="#101010" />
<rect x="1110" y="1115" width="5" height="5" fill="#E1E1E1" />
<rect x="1115" y="1115" width="140" height="5" fill="#EEEEEE" />
<rect x="1255" y="1115" width="5" height="5" fill="#EFEFEF" />
<rect x="490" y="1120" width="5" height="5" fill="#F3F3F3" />
<rect x="495" y="1120" width="150" height="5" fill="#BBBBBB" />
<rect x="645" y="1120" width="5" height="5" fill="#A5A5A5" />
<rect x="650" y="1120" width="155" height="155" fill="#000000" />
<rect x="805" y="1120" width="5" height="150" fill="#F12E2E" />
<rect x="960" y="1120" width="5" height="150" fill="#870000" />
<rect x="965" y="1120" width="145" height="155" fill="#000000" />
<rect x="1110" y="1120" width="5" height="155" fill="#F0F0F0" />
<rect x="645" y="1125" width="5" height="150" fill="#E1E1E1" />
<rect x="805" y="1270" width="5" height="5" fill="#C92D2D" />
<rect x="810" y="1270" width="140" height="5" fill="#EB1F1F" />
<rect x="950" y="1270" width="5" height="5" fill="#DC1010" />
<rect x="955" y="1270" width="5" height="5" fill="#CC0000" />
<rect x="960" y="1270" width="5" height="5" fill="#6C0000" />
<rect x="645" y="1275" width="5" height="5" fill="#E7E7E7" />
<rect x="650" y="1275" width="150" height="5" fill="#333333" />
<rect x="800" y="1275" width="5" height="5" fill="#151515" />
<rect x="805" y="1275" width="150" height="145" fill="#000000" />
<rect x="955" y="1275" width="5" height="5" fill="#181818" />
<rect x="960" y="1275" width="150" height="5" fill="#666666" />
<rect x="1110" y="1275" width="5" height="5" fill="#F6F6F6" />
<rect x="800" y="1280" width="5" height="135" fill="#696969" />
<rect x="955" y="1280" width="5" height="135" fill="#3C3C3C" />
<rect x="800" y="1415" width="5" height="5" fill="#4D4D4D" />
<rect x="955" y="1415" width="5" height="5" fill="#2C2C2C" />
<rect x="960" y="1415" width="25" height="5" fill="#BBBBBB" />
</svg>