<?xml version="1.0" encoding="UTF-8"?>
<svg id="Ebene_1" data-name="Ebene 1" xmlns="http://www.w3.org/2000/svg" viewBox="0 0 94.65 19.88">
  <defs>
    <style>
      .cls-1 {
        fill: #020202;
      }

      .cls-2 {
        fill: #fff;
      }

      .cls-3 {
        fill: red;
      }

      .cls-4 {
        fill: #603813;
      }
    </style>
  </defs>
  <g>
    <rect class="cls-4" x=".5" y=".5" width="93.65" height="18.88"/>
    <path d="M93.65,1v17.88H1V1h92.65M94.65,0H0v19.88h94.65V0h0Z"/>
  </g>
  <g>
    <rect class="cls-2" x="2.54" y="2.56" width="89.18" height="14.79"/>
    <path d="M91.22,3.06v13.79H3.04V3.06h88.17M92.22,2.06H2.04v15.79h90.17V2.06h0Z"/>
  </g>
  <g>
    <rect class="cls-1" x="4.17" y="6.57" width=".56" height=".64"/>
    <polygon points="5.22 6.07 3.67 6.07 3.67 7.71 5.22 7.71 5.22 6.07 5.22 6.07"/>
  </g>
  <g>
    <rect class="cls-1" x="4.17" y="8.16" width=".56" height=".64"/>
    <polygon points="5.22 7.66 3.67 7.66 3.67 9.3 5.22 9.3 5.22 7.66 5.22 7.66"/>
  </g>
  <g>
    <rect class="cls-1" x="5.7" y="9.78" width=".56" height=".64"/>
    <polygon points="6.76 9.28 5.2 9.28 5.2 10.92 6.76 10.92 6.76 9.28 6.76 9.28"/>
  </g>
  <g>
    <rect class="cls-1" x="7.24" y="11.41" width=".56" height=".64"/>
    <polygon points="8.3 10.91 6.74 10.91 6.74 12.55 8.3 12.55 8.3 10.91 8.3 10.91"/>
  </g>
  <g>
    <rect class="cls-1" x="8.76" y="13.04" width=".56" height=".64"/>
    <polygon points="9.82 12.54 8.26 12.54 8.26 14.18 9.82 14.18 9.82 12.54 9.82 12.54"/>
  </g>
  <g>
    <rect class="cls-1" x="11.81" y="16.21" width=".56" height=".64"/>
    <polygon points="12.87 15.71 11.31 15.71 11.31 17.35 12.87 17.35 12.87 15.71 12.87 15.71"/>
  </g>
  <g>
    <rect class="cls-1" x="13.31" y="14.62" width=".56" height=".64"/>
    <polygon points="14.37 14.12 12.81 14.12 12.81 15.76 14.37 15.76 14.37 14.12 14.37 14.12"/>
  </g>
  <g>
    <rect class="cls-1" x="10.3" y="14.63" width=".56" height=".64"/>
    <polygon points="11.35 14.13 9.8 14.13 9.8 15.77 11.35 15.77 11.35 14.13 11.35 14.13"/>
  </g>
  <g>
    <rect class="cls-1" x="14.79" y="12.98" width=".56" height=".64"/>
    <polygon points="15.85 12.48 14.29 12.48 14.29 14.12 15.85 14.12 15.85 12.48 15.85 12.48"/>
  </g>
  <g>
    <rect class="cls-1" x="16.31" y="11.32" width=".56" height=".64"/>
    <polygon points="17.37 10.82 15.81 10.82 15.81 12.46 17.37 12.46 17.37 10.82 17.37 10.82"/>
  </g>
  <g>
    <rect class="cls-1" x="17.82" y="9.72" width=".56" height=".64"/>
    <polygon points="18.88 9.22 17.32 9.22 17.32 10.86 18.88 10.86 18.88 9.22 18.88 9.22"/>
  </g>
  <g>
    <rect class="cls-1" x="19.33" y="8.1" width=".56" height=".64"/>
    <polygon points="20.39 7.6 18.83 7.6 18.83 9.24 20.39 9.24 20.39 7.6 20.39 7.6"/>
  </g>
  <g>
    <rect class="cls-1" x="19.33" y="6.48" width=".56" height=".64"/>
    <polygon points="20.39 5.98 18.83 5.98 18.83 7.62 20.39 7.62 20.39 5.98 20.39 5.98"/>
  </g>
  <g>
    <rect class="cls-1" x="5.67" y="4.96" width=".56" height=".64"/>
    <polygon points="6.73 4.46 5.17 4.46 5.17 6.1 6.73 6.1 6.73 4.46 6.73 4.46"/>
  </g>
  <g>
    <rect class="cls-1" x="7.18" y="3.39" width=".56" height=".64"/>
    <polygon points="8.24 2.89 6.68 2.89 6.68 4.53 8.24 4.53 8.24 2.89 8.24 2.89"/>
  </g>
  <g>
    <rect class="cls-1" x="8.69" y="3.39" width=".56" height=".64"/>
    <polygon points="9.75 2.89 8.19 2.89 8.19 4.53 9.75 4.53 9.75 2.89 9.75 2.89"/>
  </g>
  <g>
    <rect class="cls-1" x="10.2" y="4.99" width=".56" height=".64"/>
    <polygon points="11.26 4.49 9.71 4.49 9.71 6.13 11.26 6.13 11.26 4.49 11.26 4.49"/>
  </g>
  <g>
    <rect class="cls-1" x="11.72" y="6.56" width=".56" height=".64"/>
    <polygon points="12.78 6.06 11.22 6.06 11.22 7.7 12.78 7.7 12.78 6.06 12.78 6.06"/>
  </g>
  <g>
    <rect class="cls-1" x="13.23" y="4.93" width=".56" height=".64"/>
    <polygon points="14.29 4.43 12.73 4.43 12.73 6.07 14.29 6.07 14.29 4.43 14.29 4.43"/>
  </g>
  <g>
    <rect class="cls-1" x="14.72" y="3.36" width=".56" height=".64"/>
    <polygon points="15.77 2.86 14.22 2.86 14.22 4.51 15.77 4.51 15.77 2.86 15.77 2.86"/>
  </g>
  <g>
    <rect class="cls-1" x="16.2" y="3.36" width=".56" height=".64"/>
    <polygon points="17.26 2.86 15.7 2.86 15.7 4.51 17.26 4.51 17.26 2.86 17.26 2.86"/>
  </g>
  <g>
    <rect class="cls-1" x="17.77" y="4.96" width=".56" height=".64"/>
    <polygon points="18.83 4.46 17.27 4.46 17.27 6.1 18.83 6.1 18.83 4.46 18.83 4.46"/>
  </g>
  <g>
    <rect class="cls-3" x="7.23" y="5.05" width="1.98" height="2.26"/>
    <path class="cls-3" d="M8.71,5.55v1.26h-.98v-1.26h.98M9.71,4.55h-2.98v3.26h2.98v-3.26h0Z"/>
  </g>
  <g>
    <rect class="cls-3" x="5.72" y="6.59" width="4.99" height="2.2"/>
    <path class="cls-3" d="M10.22,7.09v1.2h-3.99v-1.2h3.99M11.22,6.09h-5.99v3.2h5.99v-3.2h0Z"/>
  </g>
  <g>
    <rect class="cls-3" x="7.2" y="8.16" width="9.61" height="2.26"/>
    <path class="cls-3" d="M16.32,8.66v1.26H7.7v-1.26h8.61M17.32,7.66H6.7v3.26h10.61v-3.26h0Z"/>
  </g>
  <g>
    <rect class="cls-3" x="10.33" y="11.38" width="3.47" height="2.26"/>
    <path class="cls-3" d="M13.29,11.88v1.26h-2.47v-1.26h2.47M14.29,10.88h-4.47v3.26h4.47v-3.26h0Z"/>
  </g>
  <g>
    <rect class="cls-3" x="8.76" y="11.21" width=".85" height=".83"/>
    <polygon class="cls-3" points="10.12 10.71 8.26 10.71 8.26 12.54 10.12 12.54 10.12 10.71 10.12 10.71"/>
  </g>
  <g>
    <rect class="cls-3" x="14.44" y="11.14" width=".85" height=".83"/>
    <polygon class="cls-3" points="15.79 10.64 13.94 10.64 13.94 12.47 15.79 12.47 15.79 10.64 15.79 10.64"/>
  </g>
  <g>
    <rect class="cls-3" x="11.86" y="14.39" width=".55" height=".83"/>
    <polygon class="cls-3" points="12.91 13.89 11.36 13.89 11.36 15.72 12.91 15.72 12.91 13.89 12.91 13.89"/>
  </g>
  <g>
    <rect class="cls-3" x="13.26" y="6.58" width="5.06" height="2.12"/>
    <path class="cls-3" d="M17.83,7.08v1.12h-4.06v-1.12h4.06M18.83,6.08h-6.06v3.12h6.06v-3.12h0Z"/>
  </g>
  <g>
    <rect class="cls-3" x="14.8" y="4.98" width="1.96" height=".83"/>
    <polygon class="cls-3" points="17.26 4.48 14.3 4.48 14.3 6.31 17.26 6.31 17.26 4.48 17.26 4.48"/>
  </g>
  <g>
    <rect class="cls-2" x="7.24" y="6.57" width=".53" height=".61"/>
    <polygon class="cls-2" points="8.27 6.07 6.74 6.07 6.74 7.68 8.27 7.68 8.27 6.07 8.27 6.07"/>
  </g>
  <g>
    <rect class="cls-2" x="7.25" y="8.14" width=".53" height=".61"/>
    <polygon class="cls-2" points="8.27 7.64 6.75 7.64 6.75 9.25 8.27 9.25 8.27 7.64 8.27 7.64"/>
  </g>
  <g>
    <rect class="cls-2" x="8.68" y="6.57" width=".53" height=".61"/>
    <polygon class="cls-2" points="9.71 6.07 8.18 6.07 8.18 7.69 9.71 7.69 9.71 6.07 9.71 6.07"/>
  </g>
  <g>
    <rect class="cls-1" x="21.65" y="6.6" width=".56" height=".62"/>
    <polygon points="22.72 6.1 21.15 6.1 21.15 7.72 22.72 7.72 22.72 6.1 22.72 6.1"/>
  </g>
  <g>
    <rect class="cls-1" x="21.65" y="8.17" width=".56" height=".62"/>
    <polygon points="22.72 7.67 21.15 7.67 21.15 9.29 22.72 9.29 22.72 7.67 22.72 7.67"/>
  </g>
  <g>
    <rect class="cls-1" x="23.19" y="9.78" width=".56" height=".62"/>
    <polygon points="24.26 9.28 22.69 9.28 22.69 10.9 24.26 10.9 24.26 9.28 24.26 9.28"/>
  </g>
  <g>
    <rect class="cls-1" x="24.74" y="11.38" width=".56" height=".62"/>
    <polygon points="25.8 10.88 24.24 10.88 24.24 12.5 25.8 12.5 25.8 10.88 25.8 10.88"/>
  </g>
  <g>
    <rect class="cls-1" x="26.26" y="12.99" width=".56" height=".62"/>
    <polygon points="27.33 12.49 25.76 12.49 25.76 14.11 27.33 14.11 27.33 12.49 27.33 12.49"/>
  </g>
  <g>
    <rect class="cls-1" x="29.33" y="16.12" width=".56" height=".62"/>
    <polygon points="30.4 15.63 28.83 15.63 28.83 17.25 30.4 17.25 30.4 15.63 30.4 15.63"/>
  </g>
  <g>
    <rect class="cls-1" x="30.83" y="14.55" width=".56" height=".62"/>
    <polygon points="31.9 14.05 30.33 14.05 30.33 15.67 31.9 15.67 31.9 14.05 31.9 14.05"/>
  </g>
  <g>
    <rect class="cls-1" x="27.81" y="14.56" width=".56" height=".62"/>
    <polygon points="28.87 14.06 27.31 14.06 27.31 15.68 28.87 15.68 28.87 14.06 28.87 14.06"/>
  </g>
  <g>
    <rect class="cls-1" x="32.32" y="12.93" width=".56" height=".62"/>
    <polygon points="33.39 12.43 31.82 12.43 31.82 14.05 33.39 14.05 33.39 12.43 33.39 12.43"/>
  </g>
  <g>
    <rect class="cls-1" x="33.84" y="11.29" width=".56" height=".62"/>
    <polygon points="34.91 10.79 33.34 10.79 33.34 12.41 34.91 12.41 34.91 10.79 34.91 10.79"/>
  </g>
  <g>
    <rect class="cls-1" x="35.36" y="9.72" width=".56" height=".62"/>
    <polygon points="36.42 9.22 34.86 9.22 34.86 10.84 36.42 10.84 36.42 9.22 36.42 9.22"/>
  </g>
  <g>
    <rect class="cls-1" x="36.88" y="8.11" width=".56" height=".62"/>
    <polygon points="37.94 7.61 36.38 7.61 36.38 9.23 37.94 9.23 37.94 7.61 37.94 7.61"/>
  </g>
  <g>
    <rect class="cls-1" x="36.88" y="6.51" width=".56" height=".62"/>
    <polygon points="37.94 6.01 36.38 6.01 36.38 7.63 37.94 7.63 37.94 6.01 37.94 6.01"/>
  </g>
  <g>
    <rect class="cls-1" x="23.16" y="5.01" width=".56" height=".62"/>
    <polygon points="24.22 4.51 22.66 4.51 22.66 6.13 24.22 6.13 24.22 4.51 24.22 4.51"/>
  </g>
  <g>
    <rect class="cls-1" x="24.68" y="3.46" width=".56" height=".62"/>
    <polygon points="25.74 2.96 24.18 2.96 24.18 4.59 25.74 4.59 25.74 2.96 25.74 2.96"/>
  </g>
  <g>
    <rect class="cls-1" x="26.2" y="3.46" width=".56" height=".62"/>
    <polygon points="27.26 2.96 25.7 2.96 25.7 4.59 27.26 4.59 27.26 2.96 27.26 2.96"/>
  </g>
  <g>
    <rect class="cls-1" x="27.72" y="5.04" width=".56" height=".62"/>
    <polygon points="28.78 4.54 27.22 4.54 27.22 6.16 28.78 6.16 28.78 4.54 28.78 4.54"/>
  </g>
  <g>
    <rect class="cls-1" x="29.23" y="6.59" width=".56" height=".62"/>
    <polygon points="30.3 6.09 28.73 6.09 28.73 7.71 30.3 7.71 30.3 6.09 30.3 6.09"/>
  </g>
  <g>
    <rect class="cls-1" x="30.75" y="4.98" width=".56" height=".62"/>
    <polygon points="31.82 4.48 30.25 4.48 30.25 6.1 31.82 6.1 31.82 4.48 31.82 4.48"/>
  </g>
  <g>
    <rect class="cls-1" x="32.25" y="3.44" width=".56" height=".62"/>
    <polygon points="33.31 2.94 31.75 2.94 31.75 4.56 33.31 4.56 33.31 2.94 33.31 2.94"/>
  </g>
  <g>
    <rect class="cls-1" x="33.74" y="3.44" width=".56" height=".62"/>
    <polygon points="34.8 2.94 33.24 2.94 33.24 4.56 34.8 4.56 34.8 2.94 34.8 2.94"/>
  </g>
  <g>
    <rect class="cls-1" x="35.31" y="5.01" width=".56" height=".62"/>
    <polygon points="36.37 4.51 34.81 4.51 34.81 6.13 36.37 6.13 36.37 4.51 36.37 4.51"/>
  </g>
  <g>
    <rect class="cls-3" x="24.72" y="5.1" width="1.99" height="2.22"/>
    <path class="cls-3" d="M26.22,5.6v1.22h-.99v-1.22h.99M27.22,4.6h-2.99v3.22h2.99v-3.22h0Z"/>
  </g>
  <g>
    <rect class="cls-3" x="23.22" y="6.62" width="5.02" height="2.16"/>
    <path class="cls-3" d="M27.73,7.12v1.16h-4.02v-1.16h4.02M28.73,6.12h-6.02v3.16h6.02v-3.16h0Z"/>
  </g>
  <g>
    <rect class="cls-3" x="24.7" y="8.17" width="9.66" height="2.22"/>
    <path class="cls-3" d="M33.86,8.67v1.22h-8.66v-1.22h8.66M34.86,7.67h-10.66v3.22h10.66v-3.22h0Z"/>
  </g>
  <g>
    <rect class="cls-3" x="27.84" y="11.35" width="3.48" height="2.22"/>
    <path class="cls-3" d="M30.82,11.85v1.22h-2.48v-1.22h2.48M31.82,10.85h-4.48v3.22h4.48v-3.22h0Z"/>
  </g>
  <g>
    <rect class="cls-3" x="26.27" y="11.18" width=".86" height=".81"/>
    <polygon class="cls-3" points="27.63 10.68 25.77 10.68 25.77 12.49 27.63 12.49 27.63 10.68 27.63 10.68"/>
  </g>
  <g>
    <rect class="cls-3" x="31.97" y="11.11" width=".86" height=".81"/>
    <polygon class="cls-3" points="33.33 10.61 31.47 10.61 31.47 12.42 33.33 12.42 33.33 10.61 33.33 10.61"/>
  </g>
  <g>
    <rect class="cls-3" x="29.37" y="14.32" width=".56" height=".81"/>
    <polygon class="cls-3" points="30.43 13.82 28.87 13.82 28.87 15.63 30.43 15.63 30.43 13.82 30.43 13.82"/>
  </g>
  <g>
    <rect class="cls-3" x="30.79" y="6.61" width="5.09" height="2.08"/>
    <path class="cls-3" d="M35.38,7.11v1.08h-4.09v-1.08h4.09M36.38,6.11h-6.09v3.08h6.09v-3.08h0Z"/>
  </g>
  <g>
    <rect class="cls-3" x="32.33" y="5.03" width="1.97" height=".81"/>
    <polygon class="cls-3" points="34.8 4.53 31.83 4.53 31.83 6.34 34.8 6.34 34.8 4.53 34.8 4.53"/>
  </g>
  <g>
    <rect class="cls-2" x="24.74" y="6.6" width=".53" height=".59"/>
    <polygon class="cls-2" points="25.77 6.1 24.24 6.1 24.24 7.69 25.77 7.69 25.77 6.1 25.77 6.1"/>
  </g>
  <g>
    <rect class="cls-2" x="24.75" y="8.15" width=".53" height=".59"/>
    <polygon class="cls-2" points="25.78 7.65 24.25 7.65 24.25 9.25 25.78 9.25 25.78 7.65 25.78 7.65"/>
  </g>
  <g>
    <rect class="cls-2" x="26.19" y="6.6" width=".53" height=".59"/>
    <polygon class="cls-2" points="27.22 6.1 25.69 6.1 25.69 7.7 27.22 7.7 27.22 6.1 27.22 6.1"/>
  </g>
  <g>
    <rect class="cls-1" x="39.12" y="6.38" width=".56" height=".62"/>
    <polygon points="40.19 5.88 38.62 5.88 38.62 7.5 40.19 7.5 40.19 5.88 40.19 5.88"/>
  </g>
  <g>
    <rect class="cls-1" x="39.12" y="7.95" width=".56" height=".62"/>
    <polygon points="40.19 7.45 38.62 7.45 38.62 9.07 40.19 9.07 40.19 7.45 40.19 7.45"/>
  </g>
  <g>
    <rect class="cls-1" x="40.66" y="9.55" width=".56" height=".62"/>
    <polygon points="41.72 9.05 40.16 9.05 40.16 10.67 41.72 10.67 41.72 9.05 41.72 9.05"/>
  </g>
  <g>
    <rect class="cls-1" x="42.21" y="11.16" width=".56" height=".62"/>
    <polygon points="43.27 10.66 41.71 10.66 41.71 12.28 43.27 12.28 43.27 10.66 43.27 10.66"/>
  </g>
  <g>
    <rect class="cls-1" x="43.73" y="12.77" width=".56" height=".62"/>
    <polygon points="44.8 12.27 43.23 12.27 43.23 13.89 44.8 13.89 44.8 12.27 44.8 12.27"/>
  </g>
  <g>
    <rect class="cls-1" x="46.8" y="15.9" width=".56" height=".62"/>
    <polygon points="47.86 15.4 46.3 15.4 46.3 17.02 47.86 17.02 47.86 15.4 47.86 15.4"/>
  </g>
  <g>
    <rect class="cls-1" x="48.3" y="14.33" width=".56" height=".62"/>
    <polygon points="49.37 13.83 47.8 13.83 47.8 15.45 49.37 15.45 49.37 13.83 49.37 13.83"/>
  </g>
  <g>
    <rect class="cls-1" x="45.28" y="14.34" width=".56" height=".62"/>
    <polygon points="46.34 13.84 44.78 13.84 44.78 15.46 46.34 15.46 46.34 13.84 46.34 13.84"/>
  </g>
  <g>
    <rect class="cls-1" x="49.79" y="12.71" width=".56" height=".62"/>
    <polygon points="50.86 12.21 49.29 12.21 49.29 13.83 50.86 13.83 50.86 12.21 50.86 12.21"/>
  </g>
  <g>
    <rect class="cls-1" x="51.31" y="11.07" width=".56" height=".62"/>
    <polygon points="52.38 10.57 50.81 10.57 50.81 12.19 52.38 12.19 52.38 10.57 52.38 10.57"/>
  </g>
  <g>
    <rect class="cls-1" x="52.83" y="9.49" width=".56" height=".62"/>
    <polygon points="53.89 8.99 52.33 8.99 52.33 10.61 53.89 10.61 53.89 8.99 53.89 8.99"/>
  </g>
  <g>
    <rect class="cls-1" x="54.35" y="7.89" width=".56" height=".62"/>
    <polygon points="55.41 7.39 53.85 7.39 53.85 9.01 55.41 9.01 55.41 7.39 55.41 7.39"/>
  </g>
  <g>
    <rect class="cls-1" x="54.35" y="6.29" width=".56" height=".62"/>
    <polygon points="55.41 5.79 53.85 5.79 53.85 7.41 55.41 7.41 55.41 5.79 55.41 5.79"/>
  </g>
  <g>
    <rect class="cls-1" x="40.63" y="4.79" width=".56" height=".62"/>
    <polygon points="41.69 4.29 40.13 4.29 40.13 5.91 41.69 5.91 41.69 4.29 41.69 4.29"/>
  </g>
  <g>
    <rect class="cls-1" x="42.15" y="3.24" width=".56" height=".62"/>
    <polygon points="43.21 2.74 41.65 2.74 41.65 4.36 43.21 4.36 43.21 2.74 43.21 2.74"/>
  </g>
  <g>
    <rect class="cls-1" x="43.67" y="3.24" width=".56" height=".62"/>
    <polygon points="44.73 2.74 43.17 2.74 43.17 4.36 44.73 4.36 44.73 2.74 44.73 2.74"/>
  </g>
  <g>
    <rect class="cls-1" x="45.18" y="4.82" width=".56" height=".62"/>
    <polygon points="46.25 4.32 44.69 4.32 44.69 5.94 46.25 5.94 46.25 4.32 46.25 4.32"/>
  </g>
  <g>
    <rect class="cls-1" x="46.7" y="6.37" width=".56" height=".62"/>
    <polygon points="47.77 5.87 46.2 5.87 46.2 7.49 47.77 7.49 47.77 5.87 47.77 5.87"/>
  </g>
  <g>
    <rect class="cls-1" x="48.22" y="4.76" width=".56" height=".62"/>
    <polygon points="49.29 4.26 47.72 4.26 47.72 5.88 49.29 5.88 49.29 4.26 49.29 4.26"/>
  </g>
  <g>
    <rect class="cls-1" x="49.71" y="3.21" width=".56" height=".62"/>
    <polygon points="50.78 2.71 49.21 2.71 49.21 4.34 50.78 4.34 50.78 2.71 50.78 2.71"/>
  </g>
  <g>
    <rect class="cls-1" x="51.21" y="3.21" width=".56" height=".62"/>
    <polygon points="52.27 2.71 50.71 2.71 50.71 4.34 52.27 4.34 52.27 2.71 52.27 2.71"/>
  </g>
  <g>
    <rect class="cls-1" x="52.78" y="4.79" width=".56" height=".62"/>
    <polygon points="53.84 4.29 52.28 4.29 52.28 5.91 53.84 5.91 53.84 4.29 53.84 4.29"/>
  </g>
  <g>
    <rect class="cls-3" x="42.19" y="4.88" width="1.99" height="2.22"/>
    <path class="cls-3" d="M43.69,5.38v1.22h-.99v-1.22h.99M44.69,4.38h-2.99v3.22h2.99v-3.22h0Z"/>
  </g>
  <g>
    <rect class="cls-3" x="40.69" y="6.4" width="5.02" height="2.16"/>
    <path class="cls-3" d="M45.2,6.9v1.16h-4.02v-1.16h4.02M46.2,5.9h-6.02v3.16h6.02v-3.16h0Z"/>
  </g>
  <g>
    <rect class="cls-3" x="42.17" y="7.95" width="9.65" height="2.22"/>
    <path class="cls-3" d="M51.33,8.45v1.22h-8.66v-1.22h8.66M52.33,7.45h-10.66v3.22h10.66v-3.22h0Z"/>
  </g>
  <g>
    <rect class="cls-3" x="45.31" y="11.13" width="3.48" height="2.22"/>
    <path class="cls-3" d="M48.29,11.63v1.22h-2.48v-1.22h2.48M49.29,10.63h-4.48v3.22h4.48v-3.22h0Z"/>
  </g>
  <g>
    <rect class="cls-3" x="43.74" y="10.96" width=".86" height=".81"/>
    <polygon class="cls-3" points="45.1 10.46 43.24 10.46 43.24 12.27 45.1 12.27 45.1 10.46 45.1 10.46"/>
  </g>
  <g>
    <rect class="cls-3" x="49.43" y="10.89" width=".86" height=".81"/>
    <polygon class="cls-3" points="50.8 10.39 48.93 10.39 48.93 12.2 50.8 12.2 50.8 10.39 50.8 10.39"/>
  </g>
  <g>
    <rect class="cls-3" x="46.84" y="14.1" width=".56" height=".81"/>
    <polygon class="cls-3" points="47.9 13.6 46.34 13.6 46.34 15.41 47.9 15.41 47.9 13.6 47.9 13.6"/>
  </g>
  <g>
    <rect class="cls-3" x="48.26" y="6.39" width="5.09" height="2.08"/>
    <path class="cls-3" d="M52.84,6.89v1.08h-4.09v-1.08h4.09M53.84,5.89h-6.09v3.08h6.09v-3.08h0Z"/>
  </g>
  <g>
    <rect class="cls-3" x="49.8" y="4.81" width="1.97" height=".81"/>
    <polygon class="cls-3" points="52.27 4.31 49.3 4.31 49.3 6.12 52.27 6.12 52.27 4.31 52.27 4.31"/>
  </g>
  <g>
    <rect class="cls-2" x="42.21" y="6.38" width=".53" height=".59"/>
    <polygon class="cls-2" points="43.24 5.88 41.71 5.88 41.71 7.47 43.24 7.47 43.24 5.88 43.24 5.88"/>
  </g>
  <g>
    <rect class="cls-2" x="42.22" y="7.93" width=".53" height=".59"/>
    <polygon class="cls-2" points="43.25 7.43 41.72 7.43 41.72 9.02 43.25 9.02 43.25 7.43 43.25 7.43"/>
  </g>
  <g>
    <rect class="cls-2" x="43.66" y="6.38" width=".53" height=".59"/>
    <polygon class="cls-2" points="44.69 5.88 43.16 5.88 43.16 7.48 44.69 7.48 44.69 5.88 44.69 5.88"/>
  </g>
  <g>
    <rect class="cls-1" x="56.81" y="6.38" width=".56" height=".62"/>
    <polygon points="57.88 5.88 56.31 5.88 56.31 7.5 57.88 7.5 57.88 5.88 57.88 5.88"/>
  </g>
  <g>
    <rect class="cls-1" x="56.81" y="7.95" width=".56" height=".62"/>
    <polygon points="57.88 7.45 56.31 7.45 56.31 9.07 57.88 9.07 57.88 7.45 57.88 7.45"/>
  </g>
  <g>
    <rect class="cls-1" x="58.35" y="9.55" width=".56" height=".62"/>
    <polygon points="59.41 9.05 57.85 9.05 57.85 10.67 59.41 10.67 59.41 9.05 59.41 9.05"/>
  </g>
  <g>
    <rect class="cls-1" x="59.9" y="11.16" width=".56" height=".62"/>
    <polygon points="60.96 10.66 59.4 10.66 59.4 12.28 60.96 12.28 60.96 10.66 60.96 10.66"/>
  </g>
  <g>
    <rect class="cls-1" x="61.42" y="12.77" width=".56" height=".62"/>
    <polygon points="62.49 12.27 60.92 12.27 60.92 13.89 62.49 13.89 62.49 12.27 62.49 12.27"/>
  </g>
  <g>
    <rect class="cls-1" x="64.49" y="15.9" width=".56" height=".62"/>
    <polygon points="65.55 15.4 63.99 15.4 63.99 17.02 65.55 17.02 65.55 15.4 65.55 15.4"/>
  </g>
  <g>
    <rect class="cls-1" x="65.99" y="14.33" width=".56" height=".62"/>
    <polygon points="67.06 13.83 65.49 13.83 65.49 15.45 67.06 15.45 67.06 13.83 67.06 13.83"/>
  </g>
  <g>
    <rect class="cls-1" x="62.97" y="14.34" width=".56" height=".62"/>
    <polygon points="64.03 13.84 62.47 13.84 62.47 15.46 64.03 15.46 64.03 13.84 64.03 13.84"/>
  </g>
  <g>
    <rect class="cls-1" x="67.48" y="12.71" width=".56" height=".62"/>
    <polygon points="68.55 12.21 66.98 12.21 66.98 13.83 68.55 13.83 68.55 12.21 68.55 12.21"/>
  </g>
  <g>
    <rect class="cls-1" x="69" y="11.07" width=".56" height=".62"/>
    <polygon points="70.07 10.57 68.5 10.57 68.5 12.19 70.07 12.19 70.07 10.57 70.07 10.57"/>
  </g>
  <g>
    <rect class="cls-1" x="70.52" y="9.49" width=".56" height=".62"/>
    <polygon points="71.58 8.99 70.02 8.99 70.02 10.61 71.58 10.61 71.58 8.99 71.58 8.99"/>
  </g>
  <g>
    <rect class="cls-1" x="72.04" y="7.89" width=".56" height=".62"/>
    <polygon points="73.1 7.39 71.54 7.39 71.54 9.01 73.1 9.01 73.1 7.39 73.1 7.39"/>
  </g>
  <g>
    <rect class="cls-1" x="72.04" y="6.29" width=".56" height=".62"/>
    <polygon points="73.1 5.79 71.54 5.79 71.54 7.41 73.1 7.41 73.1 5.79 73.1 5.79"/>
  </g>
  <g>
    <rect class="cls-1" x="58.32" y="4.79" width=".56" height=".62"/>
    <polygon points="59.38 4.29 57.82 4.29 57.82 5.91 59.38 5.91 59.38 4.29 59.38 4.29"/>
  </g>
  <g>
    <rect class="cls-1" x="59.84" y="3.24" width=".56" height=".62"/>
    <polygon points="60.9 2.74 59.34 2.74 59.34 4.36 60.9 4.36 60.9 2.74 60.9 2.74"/>
  </g>
  <g>
    <rect class="cls-1" x="61.36" y="3.24" width=".56" height=".62"/>
    <polygon points="62.42 2.74 60.86 2.74 60.86 4.36 62.42 4.36 62.42 2.74 62.42 2.74"/>
  </g>
  <g>
    <rect class="cls-1" x="62.87" y="4.82" width=".56" height=".62"/>
    <polygon points="63.94 4.32 62.38 4.32 62.38 5.94 63.94 5.94 63.94 4.32 63.94 4.32"/>
  </g>
  <g>
    <rect class="cls-1" x="64.39" y="6.37" width=".56" height=".62"/>
    <polygon points="65.46 5.87 63.89 5.87 63.89 7.49 65.46 7.49 65.46 5.87 65.46 5.87"/>
  </g>
  <g>
    <rect class="cls-1" x="65.91" y="4.76" width=".56" height=".62"/>
    <polygon points="66.98 4.26 65.41 4.26 65.41 5.88 66.98 5.88 66.98 4.26 66.98 4.26"/>
  </g>
  <g>
    <rect class="cls-1" x="67.4" y="3.21" width=".56" height=".62"/>
    <polygon points="68.47 2.71 66.9 2.71 66.9 4.34 68.47 4.34 68.47 2.71 68.47 2.71"/>
  </g>
  <g>
    <rect class="cls-1" x="68.9" y="3.21" width=".56" height=".62"/>
    <polygon points="69.96 2.71 68.4 2.71 68.4 4.34 69.96 4.34 69.96 2.71 69.96 2.71"/>
  </g>
  <g>
    <rect class="cls-1" x="70.47" y="4.79" width=".56" height=".62"/>
    <polygon points="71.53 4.29 69.97 4.29 69.97 5.91 71.53 5.91 71.53 4.29 71.53 4.29"/>
  </g>
  <g>
    <rect class="cls-3" x="59.88" y="4.88" width="1.99" height="2.22"/>
    <path class="cls-3" d="M61.38,5.38v1.22h-.99v-1.22h.99M62.38,4.38h-2.99v3.22h2.99v-3.22h0Z"/>
  </g>
  <g>
    <rect class="cls-3" x="58.38" y="6.4" width="5.02" height="2.16"/>
    <path class="cls-3" d="M62.89,6.9v1.16h-4.02v-1.16h4.02M63.89,5.9h-6.02v3.16h6.02v-3.16h0Z"/>
  </g>
  <g>
    <rect class="cls-3" x="59.86" y="7.95" width="9.66" height="2.22"/>
    <path class="cls-3" d="M69.02,8.45v1.22h-8.66v-1.22h8.66M70.02,7.45h-10.66v3.22h10.66v-3.22h0Z"/>
  </g>
  <g>
    <rect class="cls-3" x="63" y="11.13" width="3.48" height="2.22"/>
    <path class="cls-3" d="M65.98,11.63v1.22h-2.48v-1.22h2.48M66.98,10.63h-4.48v3.22h4.48v-3.22h0Z"/>
  </g>
  <g>
    <rect class="cls-3" x="61.43" y="10.96" width=".86" height=".81"/>
    <polygon class="cls-3" points="62.79 10.46 60.93 10.46 60.93 12.27 62.79 12.27 62.79 10.46 62.79 10.46"/>
  </g>
  <g>
    <rect class="cls-3" x="67.12" y="10.89" width=".86" height=".81"/>
    <polygon class="cls-3" points="68.49 10.39 66.62 10.39 66.62 12.2 68.49 12.2 68.49 10.39 68.49 10.39"/>
  </g>
  <g>
    <rect class="cls-3" x="64.53" y="14.1" width=".56" height=".81"/>
    <polygon class="cls-3" points="65.59 13.6 64.03 13.6 64.03 15.41 65.59 15.41 65.59 13.6 65.59 13.6"/>
  </g>
  <g>
    <rect class="cls-3" x="65.95" y="6.39" width="5.09" height="2.08"/>
    <path class="cls-3" d="M70.53,6.89v1.08h-4.09v-1.08h4.09M71.53,5.89h-6.09v3.08h6.09v-3.08h0Z"/>
  </g>
  <g>
    <rect class="cls-3" x="67.49" y="4.81" width="1.97" height=".81"/>
    <polygon class="cls-3" points="69.96 4.31 66.99 4.31 66.99 6.12 69.96 6.12 69.96 4.31 69.96 4.31"/>
  </g>
  <g>
    <rect class="cls-2" x="59.9" y="6.38" width=".53" height=".59"/>
    <polygon class="cls-2" points="60.93 5.88 59.4 5.88 59.4 7.47 60.93 7.47 60.93 5.88 60.93 5.88"/>
  </g>
  <g>
    <rect class="cls-2" x="59.91" y="7.93" width=".53" height=".59"/>
    <polygon class="cls-2" points="60.94 7.43 59.41 7.43 59.41 9.02 60.94 9.02 60.94 7.43 60.94 7.43"/>
  </g>
  <g>
    <rect class="cls-2" x="61.35" y="6.38" width=".53" height=".59"/>
    <polygon class="cls-2" points="62.38 5.88 60.85 5.88 60.85 7.48 62.38 7.48 62.38 5.88 62.38 5.88"/>
  </g>
  <g>
    <rect class="cls-1" x="74.41" y="6.49" width=".56" height=".62"/>
    <polygon points="75.48 5.99 73.91 5.99 73.91 7.61 75.48 7.61 75.48 5.99 75.48 5.99"/>
  </g>
  <g>
    <rect class="cls-1" x="74.41" y="8.06" width=".56" height=".62"/>
    <polygon points="75.48 7.56 73.91 7.56 73.91 9.18 75.48 9.18 75.48 7.56 75.48 7.56"/>
  </g>
  <g>
    <rect class="cls-1" x="75.95" y="9.66" width=".56" height=".62"/>
    <polygon points="77.02 9.17 75.45 9.17 75.45 10.79 77.02 10.79 77.02 9.17 77.02 9.17"/>
  </g>
  <g>
    <rect class="cls-1" x="77.5" y="11.27" width=".56" height=".62"/>
    <polygon points="78.56 10.77 77 10.77 77 12.39 78.56 12.39 78.56 10.77 78.56 10.77"/>
  </g>
  <g>
    <rect class="cls-1" x="79.02" y="12.88" width=".56" height=".62"/>
    <polygon points="80.09 12.38 78.52 12.38 78.52 14 80.09 14 80.09 12.38 80.09 12.38"/>
  </g>
  <g>
    <rect class="cls-1" x="82.09" y="16.01" width=".56" height=".62"/>
    <polygon points="83.16 15.51 81.59 15.51 81.59 17.14 83.16 17.14 83.16 15.51 83.16 15.51"/>
  </g>
  <g>
    <rect class="cls-1" x="83.59" y="14.44" width=".56" height=".62"/>
    <polygon points="84.66 13.94 83.09 13.94 83.09 15.56 84.66 15.56 84.66 13.94 84.66 13.94"/>
  </g>
  <g>
    <rect class="cls-1" x="80.57" y="14.45" width=".56" height=".62"/>
    <polygon points="81.63 13.95 80.07 13.95 80.07 15.57 81.63 15.57 81.63 13.95 81.63 13.95"/>
  </g>
  <g>
    <rect class="cls-1" x="85.08" y="12.82" width=".56" height=".62"/>
    <polygon points="86.15 12.32 84.58 12.32 84.58 13.94 86.15 13.94 86.15 12.32 86.15 12.32"/>
  </g>
  <g>
    <rect class="cls-1" x="86.6" y="11.18" width=".56" height=".62"/>
    <polygon points="87.67 10.68 86.1 10.68 86.1 12.3 87.67 12.3 87.67 10.68 87.67 10.68"/>
  </g>
  <g>
    <rect class="cls-1" x="88.12" y="9.6" width=".56" height=".62"/>
    <polygon points="89.18 9.1 87.62 9.1 87.62 10.73 89.18 10.73 89.18 9.1 89.18 9.1"/>
  </g>
  <g>
    <rect class="cls-1" x="89.64" y="8" width=".56" height=".62"/>
    <polygon points="90.7 7.5 89.14 7.5 89.14 9.12 90.7 9.12 90.7 7.5 90.7 7.5"/>
  </g>
  <g>
    <rect class="cls-1" x="89.64" y="6.4" width=".56" height=".62"/>
    <polygon points="90.7 5.9 89.14 5.9 89.14 7.52 90.7 7.52 90.7 5.9 90.7 5.9"/>
  </g>
  <g>
    <rect class="cls-1" x="75.92" y="4.9" width=".56" height=".62"/>
    <polygon points="76.98 4.4 75.42 4.4 75.42 6.02 76.98 6.02 76.98 4.4 76.98 4.4"/>
  </g>
  <g>
    <rect class="cls-1" x="77.44" y="3.35" width=".56" height=".62"/>
    <polygon points="78.5 2.85 76.94 2.85 76.94 4.47 78.5 4.47 78.5 2.85 78.5 2.85"/>
  </g>
  <g>
    <rect class="cls-1" x="78.96" y="3.35" width=".56" height=".62"/>
    <polygon points="80.02 2.85 78.46 2.85 78.46 4.47 80.02 4.47 80.02 2.85 80.02 2.85"/>
  </g>
  <g>
    <rect class="cls-1" x="80.48" y="4.93" width=".56" height=".62"/>
    <polygon points="81.54 4.43 79.98 4.43 79.98 6.05 81.54 6.05 81.54 4.43 81.54 4.43"/>
  </g>
  <g>
    <rect class="cls-1" x="81.99" y="6.48" width=".56" height=".62"/>
    <polygon points="83.06 5.98 81.49 5.98 81.49 7.6 83.06 7.6 83.06 5.98 83.06 5.98"/>
  </g>
  <g>
    <rect class="cls-1" x="83.51" y="4.87" width=".56" height=".62"/>
    <polygon points="84.58 4.37 83.01 4.37 83.01 5.99 84.58 5.99 84.58 4.37 84.58 4.37"/>
  </g>
  <g>
    <rect class="cls-1" x="85" y="3.33" width=".56" height=".62"/>
    <polygon points="86.07 2.83 84.51 2.83 84.51 4.45 86.07 4.45 86.07 2.83 86.07 2.83"/>
  </g>
  <g>
    <rect class="cls-1" x="86.5" y="3.33" width=".56" height=".62"/>
    <polygon points="87.56 2.83 86 2.83 86 4.45 87.56 4.45 87.56 2.83 87.56 2.83"/>
  </g>
  <g>
    <rect class="cls-1" x="88.07" y="4.9" width=".56" height=".62"/>
    <polygon points="89.13 4.4 87.57 4.4 87.57 6.02 89.13 6.02 89.13 4.4 89.13 4.4"/>
  </g>
  <g>
    <rect class="cls-3" x="77.49" y="4.99" width="1.99" height="2.22"/>
    <path class="cls-3" d="M78.98,5.49v1.22h-.99v-1.22h.99M79.98,4.49h-2.99v3.22h2.99v-3.22h0Z"/>
  </g>
  <g>
    <rect class="cls-3" x="75.98" y="6.51" width="5.02" height="2.16"/>
    <path class="cls-3" d="M80.49,7.01v1.16h-4.02v-1.16h4.02M81.49,6.01h-6.02v3.16h6.02v-3.16h0Z"/>
  </g>
  <g>
    <rect class="cls-3" x="77.46" y="8.06" width="9.66" height="2.22"/>
    <path class="cls-3" d="M86.62,8.56v1.22h-8.66v-1.22h8.66M87.62,7.56h-10.66v3.22h10.66v-3.22h0Z"/>
  </g>
  <g>
    <rect class="cls-3" x="80.6" y="11.24" width="3.48" height="2.22"/>
    <path class="cls-3" d="M83.58,11.74v1.22h-2.48v-1.22h2.48M84.58,10.74h-4.48v3.22h4.48v-3.22h0Z"/>
  </g>
  <g>
    <rect class="cls-3" x="79.03" y="11.07" width=".86" height=".81"/>
    <polygon class="cls-3" points="80.39 10.57 78.53 10.57 78.53 12.38 80.39 12.38 80.39 10.57 80.39 10.57"/>
  </g>
  <g>
    <rect class="cls-3" x="84.73" y="11" width=".86" height=".81"/>
    <polygon class="cls-3" points="86.09 10.5 84.23 10.5 84.23 12.31 86.09 12.31 86.09 10.5 86.09 10.5"/>
  </g>
  <g>
    <rect class="cls-3" x="82.13" y="14.21" width=".56" height=".81"/>
    <polygon class="cls-3" points="83.19 13.71 81.63 13.71 81.63 15.52 83.19 15.52 83.19 13.71 83.19 13.71"/>
  </g>
  <g>
    <rect class="cls-3" x="83.55" y="6.5" width="5.09" height="2.08"/>
    <path class="cls-3" d="M88.14,7v1.08h-4.09v-1.08h4.09M89.14,6h-6.09v3.08h6.09v-3.08h0Z"/>
  </g>
  <g>
    <rect class="cls-3" x="85.09" y="4.92" width="1.97" height=".81"/>
    <polygon class="cls-3" points="87.56 4.42 84.59 4.42 84.59 6.23 87.56 6.23 87.56 4.42 87.56 4.42"/>
  </g>
  <g>
    <rect class="cls-2" x="77.5" y="6.49" width=".53" height=".59"/>
    <polygon class="cls-2" points="78.53 5.99 77 5.99 77 7.58 78.53 7.58 78.53 5.99 78.53 5.99"/>
  </g>
  <g>
    <rect class="cls-2" x="77.51" y="8.04" width=".53" height=".59"/>
    <polygon class="cls-2" points="78.54 7.54 77.01 7.54 77.01 9.13 78.54 9.13 78.54 7.54 78.54 7.54"/>
  </g>
  <g>
    <rect class="cls-2" x="78.95" y="6.49" width=".53" height=".59"/>
    <polygon class="cls-2" points="79.98 5.99 78.45 5.99 78.45 7.59 79.98 7.59 79.98 5.99 79.98 5.99"/>
  </g>
</svg>