<?xml version="1.0" encoding="UTF-8" ?>
<svg version="1.1" width="7250" height="1495" xmlns="http://www.w3.org/2000/svg" shape-rendering="crispEdges">
<rect x="0" y="0" width="7250" height="60" fill="#000000" />
<rect x="0" y="60" width="55" height="1435" fill="#000000" />
<rect x="55" y="60" width="5" height="5" fill="#001E1E" />
<rect x="60" y="60" width="7140" height="5" fill="#003333" />
<rect x="7200" y="60" width="5" height="5" fill="#001818" />
<rect x="7205" y="60" width="45" height="1435" fill="#000000" />
<rect x="55" y="65" width="5" height="1375" fill="#009696" />
<rect x="60" y="65" width="7140" height="80" fill="#00FFFF" />
<rect x="7200" y="65" width="5" height="1375" fill="#007878" />
<rect x="60" y="145" width="75" height="1295" fill="#00FFFF" />
<rect x="135" y="145" width="5" height="5" fill="#008A8A" />
<rect x="140" y="145" width="6950" height="5" fill="#002222" />
<rect x="7090" y="145" width="5" height="5" fill="#00BEBE" />
<rect x="7095" y="145" width="105" height="1295" fill="#00FFFF" />
<rect x="135" y="150" width="5" height="1210" fill="#007878" />
<rect x="140" y="150" width="6950" height="70" fill="#000000" />
<rect x="7090" y="150" width="5" height="1210" fill="#00B4B4" />
<rect x="140" y="220" width="70" height="1140" fill="#000000" />
<rect x="210" y="220" width="5" height="5" fill="#0E0E0E" />
<rect x="7015" y="220" width="75" height="1140" fill="#000000" />
<rect x="210" y="225" width="5" height="1060" fill="#1E1E1E" />
<rect x="210" y="1285" width="5" height="5" fill="#080808" />
<rect x="210" y="1290" width="6805" height="70" fill="#000000" />
<rect x="135" y="1360" width="5" height="5" fill="#00A5A5" />
<rect x="140" y="1360" width="6950" height="5" fill="#005555" />
<rect x="7090" y="1360" width="5" height="5" fill="#00CDCD" />
<rect x="135" y="1365" width="6960" height="75" fill="#00FFFF" />
<rect x="55" y="1440" width="5" height="5" fill="#005050" />
<rect x="60" y="1440" width="7140" height="5" fill="#008888" />
<rect x="7200" y="1440" width="5" height="5" fill="#004040" />
<rect x="55" y="1445" width="7150" height="50" fill="#000000" />
</svg>