<?xml version="1.0" encoding="UTF-8" ?>
<svg version="1.1" width="7585" height="1555" xmlns="http://www.w3.org/2000/svg" shape-rendering="crispEdges">
<rect x="0" y="0" width="7585" height="40" fill="#000000" />
<rect x="0" y="40" width="40" height="1515" fill="#000000" />
<rect x="40" y="40" width="5" height="5" fill="#201206" />
<rect x="45" y="40" width="7495" height="5" fill="#261608" />
<rect x="7540" y="40" width="5" height="5" fill="#1B1005" />
<rect x="7545" y="40" width="40" height="1515" fill="#000000" />
<rect x="40" y="45" width="5" height="1445" fill="#4F2E10" />
<rect x="45" y="45" width="7495" height="80" fill="#603813" />
<rect x="7540" y="45" width="5" height="1445" fill="#44280D" />
<rect x="45" y="125" width="80" height="1365" fill="#603813" />
<rect x="125" y="125" width="5" height="5" fill="#482A0E" />
<rect x="130" y="125" width="7295" height="5" fill="#46290E" />
<rect x="7425" y="125" width="5" height="5" fill="#553211" />
<rect x="7430" y="125" width="110" height="1365" fill="#603813" />
<rect x="125" y="130" width="5" height="1275" fill="#060301" />
<rect x="130" y="130" width="7295" height="75" fill="#000000" />
<rect x="7425" y="130" width="5" height="1275" fill="#38210B" />
<rect x="130" y="205" width="75" height="1200" fill="#000000" />
<rect x="205" y="205" width="5" height="5" fill="#0D0D0D" />
<rect x="210" y="205" width="290" height="5" fill="#111111" />
<rect x="500" y="205" width="5" height="5" fill="#030303" />
<rect x="505" y="205" width="240" height="5" fill="#000000" />
<rect x="745" y="205" width="5" height="5" fill="#020202" />
<rect x="750" y="205" width="360" height="5" fill="#111111" />
<rect x="1110" y="205" width="5" height="5" fill="#050505" />
<rect x="1115" y="205" width="240" height="5" fill="#000000" />
<rect x="1355" y="205" width="5" height="5" fill="#080808" />
<rect x="1360" y="205" width="555" height="5" fill="#111111" />
<rect x="1915" y="205" width="5" height="5" fill="#0A0A0A" />
<rect x="1920" y="205" width="245" height="5" fill="#000000" />
<rect x="2165" y="205" width="5" height="5" fill="#090909" />
<rect x="2170" y="205" width="360" height="5" fill="#111111" />
<rect x="2530" y="205" width="5" height="5" fill="#040404" />
<rect x="2535" y="205" width="240" height="5" fill="#000000" />
<rect x="2775" y="205" width="5" height="5" fill="#070707" />
<rect x="2780" y="205" width="550" height="5" fill="#111111" />
<rect x="3330" y="205" width="5" height="5" fill="#090909" />
<rect x="3335" y="205" width="120" height="5" fill="#000000" />
<rect x="3455" y="205" width="5" height="5" fill="#010101" />
<rect x="3460" y="205" width="120" height="5" fill="#000000" />
<rect x="3580" y="205" width="5" height="5" fill="#0A0A0A" />
<rect x="3585" y="205" width="360" height="5" fill="#111111" />
<rect x="3945" y="205" width="245" height="5" fill="#000000" />
<rect x="4190" y="205" width="5" height="5" fill="#080808" />
<rect x="4195" y="205" width="570" height="5" fill="#111111" />
<rect x="4765" y="205" width="5" height="5" fill="#010101" />
<rect x="4770" y="205" width="240" height="5" fill="#000000" />
<rect x="5010" y="205" width="5" height="5" fill="#010101" />
<rect x="5015" y="205" width="360" height="5" fill="#111111" />
<rect x="5375" y="205" width="5" height="5" fill="#080808" />
<rect x="5380" y="205" width="245" height="5" fill="#000000" />
<rect x="5625" y="205" width="5" height="5" fill="#101010" />
<rect x="5630" y="205" width="560" height="5" fill="#111111" />
<rect x="6190" y="205" width="5" height="5" fill="#010101" />
<rect x="6195" y="205" width="240" height="5" fill="#000000" />
<rect x="6435" y="205" width="5" height="5" fill="#010101" />
<rect x="6440" y="205" width="360" height="5" fill="#111111" />
<rect x="6800" y="205" width="5" height="5" fill="#0B0B0B" />
<rect x="6805" y="205" width="245" height="5" fill="#000000" />
<rect x="7050" y="205" width="5" height="5" fill="#101010" />
<rect x="7055" y="205" width="290" height="5" fill="#111111" />
<rect x="7345" y="205" width="5" height="5" fill="#060606" />
<rect x="7350" y="205" width="75" height="1200" fill="#000000" />
<rect x="205" y="1330" width="7145" height="75" fill="#000000" />
<rect x="125" y="1405" width="5" height="5" fill="#361F0B" />
<rect x="130" y="1405" width="7295" height="5" fill="#331E0A" />
<rect x="7425" y="1405" width="5" height="5" fill="#4E2D0F" />
<rect x="125" y="1410" width="7305" height="80" fill="#603813" />
<rect x="40" y="1490" width="5" height="5" fill="#0B0602" />
<rect x="45" y="1490" width="7495" height="5" fill="#0D0703" />
<rect x="7540" y="1490" width="5" height="5" fill="#090502" />
<rect x="40" y="1495" width="7505" height="60" fill="#000000" />
</svg>