<?xml version="1.0" encoding="UTF-8"?>
<svg id="Ebene_1" data-name="Ebene 1" xmlns="http://www.w3.org/2000/svg" viewBox="0 0 103.57 45.39">
  <defs>
    <style>
      .cls-1 {
        stroke: #4d4d4d;
      }

      .cls-1, .cls-2, .cls-3 {
        stroke-miterlimit: 10;
      }

      .cls-1, .cls-4 {
        fill: #666;
      }

      .cls-2 {
        font-family: MyriadPro-Regular, 'Myriad Pro';
        font-size: 10px;
        stroke: #000;
      }

      .cls-5 {
        letter-spacing: 0em;
      }

      .cls-6 {
        letter-spacing: 0em;
      }

      .cls-7 {
        fill: red;
      }

      .cls-8 {
        letter-spacing: 0em;
      }

      .cls-3 {
        fill: #22b573;
        stroke: #009245;
      }

      .cls-9 {
        letter-spacing: 0em;
      }

      .cls-10 {
        fill: #b3b3b3;
      }

      .cls-11 {
        fill: gray;
      }

      .cls-12 {
        fill: #ff0;
      }
    </style>
  </defs>
  <path class="cls-1" d="M5.28,39.16c-1.32.29-3.57-1.53-3.9-3.61-.32-1.99,1.39-2.52,1.59-5.49.09-1.32-.17-2.31-.58-3.9-.81-3.12-1.98-3.14-1.88-4.77.11-1.85,1.52-2.28,1.59-4.63.04-1.24,0-2.02,0-2.02-.06-1.2-.17-1.48,0-2.02.16-.52.38-.63,1.16-1.59,1.24-1.54,1.13-1.8,1.59-2.02.89-.43,1.54.42,3.47,1.01,2.72.84,5.25.34,6.22.14,1.62-.32,1.44-.6,2.6-.72,2.19-.23,3.26.7,5.78,1.45,2.45.72,4.44.72,6.36.72,2.82,0,3.15-.45,6.36-.58,2.44-.09,2.37.16,6.22.29,1.83.06,5.01.16,8.96-.14,3.04-.24,3.65-.49,5.93-.43,1.66.04,1.85.19,5.2.58,6.87.79,7.9.37,8.53,0,2-1.17,1.86-2.92,3.33-3.04,1.88-.15,2.4,2.7,5.35,3.18.13.02,1.29-.03,3.61-.14,2.87-.14,2.71-.14,3.04-.14,2.75-.04,3.04.38,5.64.43,3.09.06,3.34-.52,4.48,0,1.67.75,2.85,2.76,2.89,4.63.05,2.41-1.84,2.62-2.17,5.2-.43,3.31,2.32,5.61,1.16,7.08-.54.68-1.3.41-1.88,1.3-.2.32-.46.9-.14,3.04.41,2.78,1.16,3.88.58,4.48-.31.32-1.3.14-1.3.14h0s-1.64.61-2.46.87c-1.46.46-2.59.52-4.48.58-1.29.04-2.54.08-4.19-.14-2.64-.36-2.66-.9-4.19-.87-2.16.04-2.31,1.11-4.92,1.59-2.11.39-3.86.02-5.35-.29-2.4-.5-2.34-.99-4.92-1.73-2.3-.67-5.31-1.54-8.24-.43-1.58.6-1.42,1.13-3.04,1.59-1.34.39-2.08.2-5.64-.14-1.57-.15-3.32-.32-5.49-.43-1.8-.09-1.22-.01-4.77-.14-2.02-.08-2.4-.11-3.18,0-1.53.21-1.88.59-3.47.87-.36.06-1.12.18-3.33.14-3.43-.05-3.39-.36-5.06-.29-2.78.12-5.22,1.06-6.22,1.45-.62.24-1.72.55-3.9,1.16-.78.22-1.3.35-1.88.14-.62-.22-.7-.62-1.88-1.73-1.14-1.08-1.52-1.15-1.73-1.16-.66-.03-.87.45-1.45.58Z"/>
  <g>
    <rect class="cls-11" x="5.36" y="13.76" width="86.99" height="20.85"/>
    <path class="cls-4" d="M91.85,14.26v19.85H5.86V14.26h85.99M92.85,13.26H4.86v21.85h87.99V13.26h0Z"/>
  </g>
  <g>
    <rect class="cls-10" x="7.92" y="16.52" width="81.28" height="15.34"/>
    <path class="cls-11" d="M88.7,17.02v14.34H8.42v-14.34h80.28M89.7,16.02H7.42v16.34h82.28v-16.34h0Z"/>
  </g>
  <text class="cls-2" transform="translate(11.44 28.02)"><tspan class="cls-6" x="0" y="0">A</tspan><tspan x="6.09" y="0">lts</tspan><tspan class="cls-9" x="15.72" y="0">t</tspan><tspan x="18.97" y="0">ein</tspan><tspan class="cls-8" x="31.87" y="0">z</tspan><tspan class="cls-5" x="36.08" y="0">eit - ???</tspan></text>
  <path class="cls-3" d="M88.84,14.65c-.24.49-.92.21-1.84.87-1.27.9-1.19,2.27-1.73,2.28-.6.01-1.41-1.66-1.19-3.25.14-1.07.85-2.82,2.17-2.93,1.58-.13,3.02,2.17,2.6,3.04Z"/>
  <path class="cls-3" d="M86.19,13.66c-.52.18-.79-.51-1.91-.71-1.53-.28-2.46.73-2.84.35-.42-.42.21-2.17,1.5-3.13.87-.65,2.61-1.36,3.61-.49,1.2,1.04.56,3.67-.36,3.98Z"/>
  <path class="cls-3" d="M91.65,12.23c.22.5-.44.83-.54,1.96-.15,1.55.94,2.38.59,2.8-.38.46-2.18-.02-3.24-1.22-.72-.81-1.58-2.48-.81-3.55.93-1.29,3.61-.88,4,0Z"/>
  <path class="cls-3" d="M85.93,11.94c-.44-.33-.03-.94-.48-1.98-.63-1.42-1.99-1.62-1.89-2.15.11-.59,1.91-1.05,3.42-.52,1.02.35,2.59,1.39,2.44,2.71-.18,1.58-2.72,2.53-3.49,1.95Z"/>
  <path class="cls-3" d="M88.74,12.69c.53.16.82-.56,1.97-.82,1.57-.36,2.51.64,2.91.23.44-.45-.19-2.22-1.5-3.15-.89-.63-2.66-1.28-3.7-.35-1.25,1.12-.61,3.8.32,4.08Z"/>
  <path class="cls-3" d="M97.19,11.62c-.1-.03.1-3.21,2.17-5.64.69-.81,1.45-1.37,1.52-1.3.1.1-1.34,1.43-2.49,3.69-.99,1.93-1.13,3.27-1.19,3.25Z"/>
  <path class="cls-7" d="M100.83,2.83c-.44-.28-.35-.95-.33-1.04.02-.16.08-.58.41-.72.26-.11.56.02.72.16.22.2.26.48.31.88.03.22.04.34,0,.44-.14.32-.72.51-1.1.27Z"/>
  <path class="cls-7" d="M100.87,3.76c-.42.31-1.01-.03-1.09-.08-.14-.08-.5-.29-.51-.65,0-.29.23-.51.42-.6.27-.13.54-.06.93.04.22.06.33.09.41.17.25.26.2.86-.16,1.13Z"/>
  <path class="cls-7" d="M101.45,4.54c-.09.51-.75.67-.85.7-.15.04-.57.14-.82-.11-.2-.2-.19-.53-.11-.73.1-.28.35-.42.7-.62.2-.11.3-.17.41-.16.35.01.74.48.66.92Z"/>
  <path class="cls-7" d="M101.77,3.84c.52.08.7.73.72.82.04.15.15.56-.09.82-.2.21-.52.2-.73.14-.28-.09-.43-.34-.64-.68-.12-.19-.17-.29-.17-.4,0-.35.46-.76.9-.69Z"/>
  <path class="cls-7" d="M102.05,3.09c.45-.26,1,.14,1.08.19.13.09.47.34.44.7-.02.29-.28.48-.48.56-.28.1-.55,0-.92-.14-.21-.08-.32-.12-.39-.21-.22-.28-.12-.88.27-1.1Z"/>
  <path class="cls-7" d="M101.72,2.83c-.19-.49.29-.96.36-1.03.11-.11.41-.41.76-.32.28.07.43.35.47.57.06.29-.08.54-.28.89-.11.2-.17.29-.27.35-.31.17-.88-.03-1.05-.45Z"/>
  <ellipse class="cls-12" cx="101.5" cy="3.51" rx=".72" ry=".88"/>
  <path class="cls-3" d="M96.61,11.61c-.11.02-1.33-2.93-.53-6.02.26-1.03.7-1.86.79-1.84.13.04-.57,1.87-.62,4.41-.04,2.17.43,3.43.36,3.45Z"/>
  <path class="cls-7" d="M96.02,2.12c-.52-.05-.73-.7-.76-.79-.05-.15-.18-.55.05-.82.19-.22.51-.23.72-.17.29.08.44.32.67.65.13.19.19.28.19.4.01.35-.42.78-.87.73Z"/>
  <path class="cls-7" d="M96.45,2.93c-.24.46-.92.41-1.02.41-.16-.01-.58-.04-.74-.36-.13-.26-.02-.56.11-.73.18-.24.46-.29.86-.37.22-.05.33-.07.44-.03.33.12.56.68.35,1.08Z"/>
  <path class="cls-7" d="M97.32,3.38c.14.5-.38.93-.45,1-.12.1-.45.37-.78.26-.27-.09-.4-.39-.42-.61-.03-.3.13-.53.36-.86.13-.19.19-.28.3-.32.32-.14.88.1,1,.54Z"/>
  <path class="cls-7" d="M97.3,2.61c.5-.16.95.35,1.01.42.1.12.39.44.28.77-.08.27-.38.41-.59.44-.29.04-.53-.11-.87-.33-.19-.12-.28-.18-.33-.29-.15-.32.08-.88.51-1.02Z"/>
  <path class="cls-7" d="M97.22,1.82c.29-.43.96-.32,1.05-.3.15.03.57.1.7.43.1.27-.04.56-.19.71-.21.22-.49.24-.89.28-.22.02-.34.03-.44-.02-.32-.15-.49-.74-.24-1.11Z"/>
  <path class="cls-7" d="M96.81,1.72c-.38-.36-.16-1-.13-1.09.05-.15.19-.55.54-.62.28-.06.54.13.67.3.18.24.16.52.14.92-.01.23-.02.34-.09.43-.2.29-.8.36-1.14.06Z"/>
  <ellipse class="cls-12" cx="96.91" cy="2.44" rx=".72" ry=".88" transform="translate(8.82 42.9) rotate(-26.11)"/>
  <path class="cls-3" d="M13.62,40.66c-.52.18-.79-.51-1.91-.71-1.53-.28-2.46.73-2.84.35-.42-.42.21-2.17,1.5-3.13.87-.65,2.61-1.36,3.61-.49,1.2,1.04.56,3.67-.36,3.98Z"/>
  <path class="cls-3" d="M13.36,38.95c-.44-.33-.03-.94-.48-1.98-.63-1.42-1.99-1.62-1.89-2.15.11-.59,1.91-1.05,3.42-.52,1.02.35,2.59,1.39,2.44,2.71-.18,1.58-2.72,2.53-3.49,1.95Z"/>
  <path class="cls-3" d="M16.17,39.7c.53.16.82-.56,1.97-.82,1.57-.36,2.51.64,2.91.23.44-.45-.19-2.22-1.5-3.15-.89-.63-2.66-1.28-3.7-.35-1.25,1.12-.61,3.8.32,4.08Z"/>
  <path class="cls-3" d="M15.74,41.75c-.24.49-.92.21-1.84.87-1.27.9-1.19,2.27-1.73,2.28-.6.01-1.41-1.66-1.19-3.25.14-1.07.85-2.82,2.17-2.93,1.58-.13,3.02,2.17,2.6,3.04Z"/>
</svg>