<?xml version="1.0" encoding="UTF-8" ?>
<svg version="1.1" width="7590" height="1560" xmlns="http://www.w3.org/2000/svg" shape-rendering="crispEdges">
<rect x="0" y="0" width="7590" height="55" fill="#000000" />
<rect x="0" y="55" width="40" height="1505" fill="#000000" />
<rect x="40" y="55" width="5" height="5" fill="#51300A" />
<rect x="45" y="55" width="7495" height="5" fill="#633B0C" />
<rect x="7540" y="55" width="5" height="5" fill="#462A08" />
<rect x="7545" y="55" width="45" height="1505" fill="#000000" />
<rect x="40" y="60" width="5" height="1445" fill="#CB7919" />
<rect x="45" y="60" width="7495" height="80" fill="#F7931E" />
<rect x="7540" y="60" width="5" height="1445" fill="#AE6815" />
<rect x="45" y="140" width="80" height="1365" fill="#F7931E" />
<rect x="125" y="140" width="5" height="5" fill="#B96E16" />
<rect x="130" y="140" width="7295" height="5" fill="#B56C16" />
<rect x="7425" y="140" width="5" height="5" fill="#DC831B" />
<rect x="7430" y="140" width="110" height="1365" fill="#F7931E" />
<rect x="125" y="145" width="5" height="1275" fill="#0F0902" />
<rect x="130" y="145" width="7295" height="75" fill="#000000" />
<rect x="7425" y="145" width="5" height="1275" fill="#915612" />
<rect x="130" y="220" width="75" height="1200" fill="#000000" />
<rect x="205" y="220" width="5" height="5" fill="#0D0D0D" />
<rect x="210" y="220" width="290" height="5" fill="#111111" />
<rect x="500" y="220" width="5" height="5" fill="#030303" />
<rect x="505" y="220" width="240" height="5" fill="#000000" />
<rect x="745" y="220" width="5" height="5" fill="#020202" />
<rect x="750" y="220" width="360" height="5" fill="#111111" />
<rect x="1110" y="220" width="5" height="5" fill="#050505" />
<rect x="1115" y="220" width="240" height="5" fill="#000000" />
<rect x="1355" y="220" width="5" height="5" fill="#080808" />
<rect x="1360" y="220" width="555" height="5" fill="#111111" />
<rect x="1915" y="220" width="5" height="5" fill="#0A0A0A" />
<rect x="1920" y="220" width="245" height="5" fill="#000000" />
<rect x="2165" y="220" width="5" height="5" fill="#090909" />
<rect x="2170" y="220" width="360" height="5" fill="#111111" />
<rect x="2530" y="220" width="5" height="5" fill="#040404" />
<rect x="2535" y="220" width="240" height="5" fill="#000000" />
<rect x="2775" y="220" width="5" height="5" fill="#070707" />
<rect x="2780" y="220" width="550" height="5" fill="#111111" />
<rect x="3330" y="220" width="5" height="5" fill="#090909" />
<rect x="3335" y="220" width="120" height="5" fill="#000000" />
<rect x="3455" y="220" width="5" height="5" fill="#010101" />
<rect x="3460" y="220" width="120" height="5" fill="#000000" />
<rect x="3580" y="220" width="5" height="5" fill="#0A0A0A" />
<rect x="3585" y="220" width="360" height="5" fill="#111111" />
<rect x="3945" y="220" width="245" height="5" fill="#000000" />
<rect x="4190" y="220" width="5" height="5" fill="#080808" />
<rect x="4195" y="220" width="570" height="5" fill="#111111" />
<rect x="4765" y="220" width="5" height="5" fill="#010101" />
<rect x="4770" y="220" width="240" height="5" fill="#000000" />
<rect x="5010" y="220" width="5" height="5" fill="#010101" />
<rect x="5015" y="220" width="360" height="5" fill="#111111" />
<rect x="5375" y="220" width="5" height="5" fill="#080808" />
<rect x="5380" y="220" width="245" height="5" fill="#000000" />
<rect x="5625" y="220" width="5" height="5" fill="#101010" />
<rect x="5630" y="220" width="560" height="5" fill="#111111" />
<rect x="6190" y="220" width="5" height="5" fill="#010101" />
<rect x="6195" y="220" width="240" height="5" fill="#000000" />
<rect x="6435" y="220" width="5" height="5" fill="#010101" />
<rect x="6440" y="220" width="360" height="5" fill="#111111" />
<rect x="6800" y="220" width="5" height="5" fill="#0B0B0B" />
<rect x="6805" y="220" width="245" height="5" fill="#000000" />
<rect x="7050" y="220" width="5" height="5" fill="#101010" />
<rect x="7055" y="220" width="290" height="5" fill="#111111" />
<rect x="7345" y="220" width="5" height="5" fill="#060606" />
<rect x="7350" y="220" width="75" height="1200" fill="#000000" />
<rect x="7345" y="225" width="5" height="1115" fill="#5A5A5A" />
<rect x="205" y="1340" width="5" height="5" fill="#343434" />
<rect x="210" y="1340" width="665" height="5" fill="#444444" />
<rect x="875" y="1340" width="5" height="5" fill="#0C0C0C" />
<rect x="880" y="1340" width="120" height="80" fill="#000000" />
<rect x="1000" y="1340" width="5" height="5" fill="#282828" />
<rect x="1005" y="1340" width="1285" height="5" fill="#444444" />
<rect x="2290" y="1340" width="5" height="5" fill="#404040" />
<rect x="2295" y="1340" width="125" height="80" fill="#000000" />
<rect x="2420" y="1340" width="5" height="5" fill="#2C2C2C" />
<rect x="2425" y="1340" width="1280" height="5" fill="#444444" />
<rect x="3705" y="1340" width="5" height="5" fill="#383838" />
<rect x="3710" y="1340" width="125" height="80" fill="#000000" />
<rect x="3835" y="1340" width="5" height="5" fill="#3C3C3C" />
<rect x="3840" y="1340" width="1300" height="5" fill="#444444" />
<rect x="5140" y="1340" width="5" height="5" fill="#181818" />
<rect x="5145" y="1340" width="120" height="80" fill="#000000" />
<rect x="5265" y="1340" width="5" height="5" fill="#1C1C1C" />
<rect x="5270" y="1340" width="1295" height="5" fill="#444444" />
<rect x="6565" y="1340" width="5" height="5" fill="#1C1C1C" />
<rect x="6570" y="1340" width="120" height="80" fill="#000000" />
<rect x="6690" y="1340" width="5" height="5" fill="#0C0C0C" />
<rect x="6695" y="1340" width="650" height="5" fill="#444444" />
<rect x="7345" y="1340" width="5" height="5" fill="#181818" />
<rect x="205" y="1345" width="675" height="75" fill="#000000" />
<rect x="1000" y="1345" width="1295" height="75" fill="#000000" />
<rect x="2420" y="1345" width="1290" height="75" fill="#000000" />
<rect x="3835" y="1345" width="1310" height="75" fill="#000000" />
<rect x="5265" y="1345" width="1305" height="75" fill="#000000" />
<rect x="6690" y="1345" width="660" height="75" fill="#000000" />
<rect x="125" y="1420" width="5" height="5" fill="#8B5211" />
<rect x="130" y="1420" width="7295" height="5" fill="#844E10" />
<rect x="7425" y="1420" width="5" height="5" fill="#C87718" />
<rect x="125" y="1425" width="7305" height="80" fill="#F7931E" />
<rect x="40" y="1505" width="5" height="5" fill="#1B1003" />
<rect x="45" y="1505" width="7495" height="5" fill="#211404" />
<rect x="7540" y="1505" width="5" height="5" fill="#170E03" />
<rect x="40" y="1510" width="7505" height="50" fill="#000000" />
</svg>