<?xml version="1.0" encoding="UTF-8"?>
<svg id="Ebene_1" data-name="Ebene 1" xmlns="http://www.w3.org/2000/svg" viewBox="0 0 752 553.08">
  <defs>
    <style>
      .cls-1 {
        fill: #6c90ad;
      }

      .cls-2 {
        fill: #6482a0;
      }

      .cls-3 {
        fill: #83d7dd;
      }
    </style>
  </defs>
  <rect class="cls-2" width="752" height="550"/>
  <g>
    <rect class="cls-3" x="1" y="0" width="57" height="71"/>
    <rect class="cls-3" x="1" y="284" width="57" height="71"/>
    <rect class="cls-3" x="1" y="142" width="57" height="71"/>
    <rect class="cls-3" x="1" y="426" width="57" height="71"/>
  </g>
  <rect class="cls-3" x="56.8" y="71.14" width="71" height="71"/>
  <rect class="cls-3" x="56.8" y="355.14" width="71" height="71"/>
  <rect class="cls-3" x="56.8" y="213.14" width="71" height="71"/>
  <rect class="cls-3" x="56.8" y="497.14" width="71" height="53"/>
  <g>
    <rect class="cls-3" x="127.8" y=".14" width="71" height="71"/>
    <rect class="cls-3" x="127.8" y="284.14" width="71" height="71"/>
    <rect class="cls-3" x="127.8" y="142.14" width="71" height="71"/>
    <rect class="cls-3" x="127.8" y="426.14" width="71" height="71"/>
  </g>
  <g>
    <rect class="cls-3" x="269.8" y=".14" width="71" height="71"/>
    <rect class="cls-3" x="269.8" y="284.14" width="71" height="71"/>
    <rect class="cls-3" x="269.8" y="142.14" width="71" height="71"/>
    <rect class="cls-3" x="269.8" y="426.14" width="71" height="71"/>
  </g>
  <g>
    <rect class="cls-3" x="340.8" y="71.14" width="71" height="71"/>
    <rect class="cls-3" x="340.8" y="355.14" width="71" height="71"/>
    <rect class="cls-3" x="340.8" y="213.14" width="71" height="71"/>
    <rect class="cls-3" x="340.8" y="497.14" width="71" height="53"/>
  </g>
  <g>
    <rect class="cls-3" x="411.8" y=".14" width="71" height="71"/>
    <rect class="cls-3" x="411.8" y="284.14" width="71" height="71"/>
    <rect class="cls-3" x="411.8" y="142.14" width="71" height="71"/>
    <rect class="cls-3" x="411.8" y="426.14" width="71" height="71"/>
  </g>
  <g>
    <rect class="cls-3" x="198.8" y="71.14" width="71" height="71"/>
    <rect class="cls-3" x="198.8" y="355.14" width="71" height="71"/>
    <rect class="cls-3" x="198.8" y="213.14" width="71" height="71"/>
    <rect class="cls-3" x="198.8" y="497.14" width="71" height="53"/>
  </g>
  <g>
    <rect class="cls-3" x="482.8" y="71.14" width="71" height="71"/>
    <rect class="cls-3" x="482.8" y="355.14" width="71" height="71"/>
    <rect class="cls-3" x="482.8" y="213.14" width="71" height="71"/>
    <rect class="cls-3" x="482.8" y="497.14" width="71" height="53"/>
  </g>
  <g>
    <rect class="cls-3" x="553.8" y=".14" width="71" height="71"/>
    <rect class="cls-3" x="553.8" y="284.14" width="71" height="71"/>
    <rect class="cls-3" x="553.8" y="142.14" width="71" height="71"/>
    <rect class="cls-3" x="553.8" y="426.14" width="71" height="71"/>
  </g>
  <g>
    <rect class="cls-3" x="624.8" y="71.14" width="71" height="71"/>
    <rect class="cls-3" x="624.8" y="355.14" width="71" height="71"/>
    <rect class="cls-3" x="624.8" y="213.14" width="71" height="71"/>
    <rect class="cls-3" x="624.8" y="497.14" width="71" height="53"/>
  </g>
  <g>
    <rect class="cls-3" x="695.8" y=".14" width="56" height="71"/>
    <rect class="cls-3" x="695.8" y="284.14" width="56" height="71"/>
    <rect class="cls-3" x="695.8" y="142.14" width="56" height="71"/>
    <rect class="cls-3" x="695.8" y="426.14" width="56" height="71"/>
  </g>
  <g>
    <g>
      <path class="cls-2" d="M27.09,14.37c-1.72-.67-3.27,4.13-8.65,6.5-6.41,2.83-12.23-.45-13.31,1.68-.93,1.82,3.55,3.89,5.22,9.26,2.35,7.52-3.06,14.21-1.21,15.48,1.89,1.29,6.35-6.44,14.03-6.72,5.84-.21,9.35,4.03,10.71,2.71,1.63-1.59-4.25-6.96-5.73-16.86-1.01-6.72.64-11.37-1.06-12.04Z"/>
      <path class="cls-1" d="M40.63,22.65c-1.4-.55-2.67,3.37-7.05,5.31-5.22,2.31-9.97-.36-10.85,1.38-.75,1.49,2.89,3.18,4.25,7.56,1.91,6.13-2.5,11.6-.99,12.64,1.54,1.05,5.18-5.26,11.44-5.5,4.76-.18,7.62,3.29,8.72,2.21,1.33-1.3-3.46-5.68-4.66-13.76-.82-5.49.53-9.28-.86-9.82Z"/>
      <path class="cls-2" d="M22.78,29.37c-1.84-.15-1.94,4.89-6.4,8.72-5.32,4.56-11.84,3.11-12.26,5.45-.36,2.01,4.52,2.7,7.68,7.35,4.42,6.52,1.18,14.49,3.32,15.17,2.18.69,4.22-8,11.49-10.49,5.53-1.89,10.12,1.16,11.03-.5,1.1-2-6.08-5.44-10.36-14.48-2.91-6.15-2.67-11.07-4.5-11.21Z"/>
    </g>
    <g>
      <path class="cls-2" d="M28.28,440.56c-1.72-.67-3.27,4.13-8.65,6.5-6.41,2.83-12.23-.45-13.31,1.68-.93,1.82,3.55,3.89,5.22,9.26,2.35,7.52-3.06,14.21-1.21,15.48,1.89,1.29,6.35-6.44,14.03-6.72,5.84-.21,9.35,4.03,10.71,2.71,1.63-1.59-4.25-6.96-5.73-16.86-1.01-6.72.64-11.37-1.06-12.04Z"/>
      <path class="cls-1" d="M41.81,448.84c-1.4-.55-2.67,3.37-7.05,5.31-5.22,2.31-9.97-.36-10.85,1.38-.75,1.49,2.89,3.18,4.25,7.56,1.91,6.13-2.5,11.6-.99,12.64,1.54,1.05,5.18-5.26,11.44-5.5,4.76-.18,7.62,3.29,8.72,2.21,1.33-1.3-3.46-5.68-4.66-13.76-.82-5.49.53-9.28-.86-9.82Z"/>
      <path class="cls-2" d="M23.96,455.56c-1.84-.15-1.94,4.89-6.4,8.72-5.32,4.56-11.84,3.11-12.26,5.45-.36,2.01,4.52,2.7,7.68,7.35,4.42,6.52,1.18,14.49,3.32,15.17,2.18.69,4.22-8,11.49-10.49,5.53-1.89,10.12,1.16,11.03-.5,1.1-2-6.08-5.44-10.36-14.48-2.91-6.15-2.67-11.07-4.5-11.21Z"/>
    </g>
    <g>
      <path class="cls-2" d="M27.28,305.56c-1.72-.67-3.27,4.13-8.65,6.5-6.41,2.83-12.23-.45-13.31,1.68-.93,1.82,3.55,3.89,5.22,9.26,2.35,7.52-3.06,14.21-1.21,15.48,1.89,1.29,6.35-6.44,14.03-6.72,5.84-.21,9.35,4.03,10.71,2.71,1.63-1.59-4.25-6.96-5.73-16.86-1.01-6.72.64-11.37-1.06-12.04Z"/>
      <path class="cls-1" d="M40.81,313.84c-1.4-.55-2.67,3.37-7.05,5.31-5.22,2.31-9.97-.36-10.85,1.38-.75,1.49,2.89,3.18,4.25,7.56,1.91,6.13-2.5,11.6-.99,12.64,1.54,1.05,5.18-5.26,11.44-5.5,4.76-.18,7.62,3.29,8.72,2.21,1.33-1.3-3.46-5.68-4.66-13.76-.82-5.49.53-9.28-.86-9.82Z"/>
      <path class="cls-2" d="M22.96,320.56c-1.84-.15-1.94,4.89-6.4,8.72-5.32,4.56-11.84,3.11-12.26,5.45-.36,2.01,4.52,2.7,7.68,7.35,4.42,6.52,1.18,14.49,3.32,15.17,2.18.69,4.22-8,11.49-10.49,5.53-1.89,10.12,1.16,11.03-.5,1.1-2-6.08-5.44-10.36-14.48-2.91-6.15-2.67-11.07-4.5-11.21Z"/>
    </g>
    <g>
      <path class="cls-2" d="M27.28,156.56c-1.72-.67-3.27,4.13-8.65,6.5-6.41,2.83-12.23-.45-13.31,1.68-.93,1.82,3.55,3.89,5.22,9.26,2.35,7.52-3.06,14.21-1.21,15.48,1.89,1.29,6.35-6.44,14.03-6.72,5.84-.21,9.35,4.03,10.71,2.71,1.63-1.59-4.25-6.96-5.73-16.86-1.01-6.72.64-11.37-1.06-12.04Z"/>
      <path class="cls-1" d="M40.81,164.84c-1.4-.55-2.67,3.37-7.05,5.31-5.22,2.31-9.97-.36-10.85,1.38-.75,1.49,2.89,3.18,4.25,7.56,1.91,6.13-2.5,11.6-.99,12.64,1.54,1.05,5.18-5.26,11.44-5.5,4.76-.18,7.62,3.29,8.72,2.21,1.33-1.3-3.46-5.68-4.66-13.76-.82-5.49.53-9.28-.86-9.82Z"/>
      <path class="cls-2" d="M22.96,171.56c-1.84-.15-1.94,4.89-6.4,8.72-5.32,4.56-11.84,3.11-12.26,5.45-.36,2.01,4.52,2.7,7.68,7.35,4.42,6.52,1.18,14.49,3.32,15.17,2.18.69,4.22-8,11.49-10.49,5.53-1.89,10.12,1.16,11.03-.5,1.1-2-6.08-5.44-10.36-14.48-2.91-6.15-2.67-11.07-4.5-11.21Z"/>
    </g>
  </g>
  <g>
    <g>
      <path class="cls-2" d="M164.3,14.16c-1.72-.67-3.27,4.13-8.65,6.5-6.41,2.83-12.23-.45-13.31,1.68-.93,1.82,3.55,3.89,5.22,9.26,2.35,7.52-3.06,14.21-1.21,15.48,1.89,1.29,6.35-6.44,14.03-6.72,5.84-.21,9.35,4.03,10.71,2.71,1.63-1.59-4.25-6.96-5.73-16.86-1.01-6.72.64-11.37-1.06-12.04Z"/>
      <path class="cls-1" d="M177.84,22.44c-1.4-.55-2.67,3.37-7.05,5.31-5.22,2.31-9.97-.36-10.85,1.38-.75,1.49,2.89,3.18,4.25,7.56,1.91,6.13-2.5,11.6-.99,12.64,1.54,1.05,5.18-5.26,11.44-5.5,4.76-.18,7.62,3.29,8.72,2.21,1.33-1.3-3.46-5.68-4.66-13.76-.82-5.49.53-9.28-.86-9.82Z"/>
      <path class="cls-2" d="M159.99,29.16c-1.84-.15-1.94,4.89-6.4,8.72-5.32,4.56-11.84,3.11-12.26,5.45-.36,2.01,4.52,2.7,7.68,7.35,4.42,6.52,1.18,14.49,3.32,15.17,2.18.69,4.22-8,11.49-10.49,5.53-1.89,10.12,1.16,11.03-.5,1.1-2-6.08-5.44-10.36-14.48-2.91-6.15-2.67-11.07-4.5-11.21Z"/>
    </g>
    <g>
      <path class="cls-2" d="M165.49,440.35c-1.72-.67-3.27,4.13-8.65,6.5-6.41,2.83-12.23-.45-13.31,1.68-.93,1.82,3.55,3.89,5.22,9.26,2.35,7.52-3.06,14.21-1.21,15.48,1.89,1.29,6.35-6.44,14.03-6.72,5.84-.21,9.35,4.03,10.71,2.71,1.63-1.59-4.25-6.96-5.73-16.86-1.01-6.72.64-11.37-1.06-12.04Z"/>
      <path class="cls-1" d="M179.03,448.63c-1.4-.55-2.67,3.37-7.05,5.31-5.22,2.31-9.97-.36-10.85,1.38-.75,1.49,2.89,3.18,4.25,7.56,1.91,6.13-2.5,11.6-.99,12.64,1.54,1.05,5.18-5.26,11.44-5.5,4.76-.18,7.62,3.29,8.72,2.21,1.33-1.3-3.46-5.68-4.66-13.76-.82-5.49.53-9.28-.86-9.82Z"/>
      <path class="cls-2" d="M161.17,455.35c-1.84-.15-1.94,4.89-6.4,8.72-5.32,4.56-11.84,3.11-12.26,5.45-.36,2.01,4.52,2.7,7.68,7.35,4.42,6.52,1.18,14.49,3.32,15.17,2.18.69,4.22-8,11.49-10.49,5.53-1.89,10.12,1.16,11.03-.5,1.1-2-6.08-5.44-10.36-14.48-2.91-6.15-2.67-11.07-4.5-11.21Z"/>
    </g>
    <g>
      <path class="cls-2" d="M164.49,305.35c-1.72-.67-3.27,4.13-8.65,6.5-6.41,2.83-12.23-.45-13.31,1.68-.93,1.82,3.55,3.89,5.22,9.26,2.35,7.52-3.06,14.21-1.21,15.48,1.89,1.29,6.35-6.44,14.03-6.72,5.84-.21,9.35,4.03,10.71,2.71,1.63-1.59-4.25-6.96-5.73-16.86-1.01-6.72.64-11.37-1.06-12.04Z"/>
      <path class="cls-1" d="M178.03,313.63c-1.4-.55-2.67,3.37-7.05,5.31-5.22,2.31-9.97-.36-10.85,1.38-.75,1.49,2.89,3.18,4.25,7.56,1.91,6.13-2.5,11.6-.99,12.64,1.54,1.05,5.18-5.26,11.44-5.5,4.76-.18,7.62,3.29,8.72,2.21,1.33-1.3-3.46-5.68-4.66-13.76-.82-5.49.53-9.28-.86-9.82Z"/>
      <path class="cls-2" d="M160.17,320.35c-1.84-.15-1.94,4.89-6.4,8.72-5.32,4.56-11.84,3.11-12.26,5.45-.36,2.01,4.52,2.7,7.68,7.35,4.42,6.52,1.18,14.49,3.32,15.17,2.18.69,4.22-8,11.49-10.49,5.53-1.89,10.12,1.16,11.03-.5,1.1-2-6.08-5.44-10.36-14.48-2.91-6.15-2.67-11.07-4.5-11.21Z"/>
    </g>
    <g>
      <path class="cls-2" d="M164.49,156.35c-1.72-.67-3.27,4.13-8.65,6.5-6.41,2.83-12.23-.45-13.31,1.68-.93,1.82,3.55,3.89,5.22,9.26,2.35,7.52-3.06,14.21-1.21,15.48,1.89,1.29,6.35-6.44,14.03-6.72,5.84-.21,9.35,4.03,10.71,2.71,1.63-1.59-4.25-6.96-5.73-16.86-1.01-6.72.64-11.37-1.06-12.04Z"/>
      <path class="cls-1" d="M178.03,164.63c-1.4-.55-2.67,3.37-7.05,5.31-5.22,2.31-9.97-.36-10.85,1.38-.75,1.49,2.89,3.18,4.25,7.56,1.91,6.13-2.5,11.6-.99,12.64,1.54,1.05,5.18-5.26,11.44-5.5,4.76-.18,7.62,3.29,8.72,2.21,1.33-1.3-3.46-5.68-4.66-13.76-.82-5.49.53-9.28-.86-9.82Z"/>
      <path class="cls-2" d="M160.17,171.35c-1.84-.15-1.94,4.89-6.4,8.72-5.32,4.56-11.84,3.11-12.26,5.45-.36,2.01,4.52,2.7,7.68,7.35,4.42,6.52,1.18,14.49,3.32,15.17,2.18.69,4.22-8,11.49-10.49,5.53-1.89,10.12,1.16,11.03-.5,1.1-2-6.08-5.44-10.36-14.48-2.91-6.15-2.67-11.07-4.5-11.21Z"/>
    </g>
  </g>
  <g>
    <g>
      <path class="cls-2" d="M372.3,75.16c-1.72-.67-3.27,4.13-8.65,6.5-6.41,2.83-12.23-.45-13.31,1.68-.93,1.82,3.55,3.89,5.22,9.26,2.35,7.52-3.06,14.21-1.21,15.48,1.89,1.29,6.35-6.44,14.03-6.72,5.84-.21,9.35,4.03,10.71,2.71,1.63-1.59-4.25-6.96-5.73-16.86-1.01-6.72.64-11.37-1.06-12.04Z"/>
      <path class="cls-1" d="M385.84,83.44c-1.4-.55-2.67,3.37-7.05,5.31-5.22,2.31-9.97-.36-10.85,1.38-.75,1.49,2.89,3.18,4.25,7.56,1.91,6.13-2.5,11.6-.99,12.64,1.54,1.05,5.18-5.26,11.44-5.5,4.76-.18,7.62,3.29,8.72,2.21,1.33-1.3-3.46-5.68-4.66-13.76-.82-5.49.53-9.28-.86-9.82Z"/>
      <path class="cls-2" d="M367.99,90.16c-1.84-.15-1.94,4.89-6.4,8.72-5.32,4.56-11.84,3.11-12.26,5.45-.36,2.01,4.52,2.7,7.68,7.35,4.42,6.52,1.18,14.49,3.32,15.17,2.18.69,4.22-8,11.49-10.49,5.53-1.89,10.12,1.16,11.03-.5,1.1-2-6.08-5.44-10.36-14.48-2.91-6.15-2.67-11.07-4.5-11.21Z"/>
    </g>
    <g>
      <path class="cls-2" d="M373.49,501.35c-1.72-.67-3.27,4.13-8.65,6.5-6.41,2.83-12.23-.45-13.31,1.68-.93,1.82,3.55,3.89,5.22,9.26,2.35,7.52-3.06,14.21-1.21,15.48,1.89,1.29,6.35-6.44,14.03-6.72,5.84-.21,9.35,4.03,10.71,2.71,1.63-1.59-4.25-6.96-5.73-16.86-1.01-6.72.64-11.37-1.06-12.04Z"/>
      <path class="cls-1" d="M387.03,509.63c-1.4-.55-2.67,3.37-7.05,5.31-5.22,2.31-9.97-.36-10.85,1.38-.75,1.49,2.89,3.18,4.25,7.56,1.91,6.13-2.5,11.6-.99,12.64,1.54,1.05,5.18-5.26,11.44-5.5,4.76-.18,7.62,3.29,8.72,2.21,1.33-1.3-3.46-5.68-4.66-13.76-.82-5.49.53-9.28-.86-9.82Z"/>
      <path class="cls-2" d="M369.17,516.35c-1.84-.15-1.94,4.89-6.4,8.72-5.32,4.56-11.84,3.11-12.26,5.45-.36,2.01,4.52,2.7,7.68,7.35,4.42,6.52,1.18,14.49,3.32,15.17,2.18.69,4.22-8,11.49-10.49,5.53-1.89,10.12,1.16,11.03-.5,1.1-2-6.08-5.44-10.36-14.48-2.91-6.15-2.67-11.07-4.5-11.21Z"/>
    </g>
    <g>
      <path class="cls-2" d="M372.49,366.35c-1.72-.67-3.27,4.13-8.65,6.5-6.41,2.83-12.23-.45-13.31,1.68-.93,1.82,3.55,3.89,5.22,9.26,2.35,7.52-3.06,14.21-1.21,15.48,1.89,1.29,6.35-6.44,14.03-6.72,5.84-.21,9.35,4.03,10.71,2.71,1.63-1.59-4.25-6.96-5.73-16.86-1.01-6.72.64-11.37-1.06-12.04Z"/>
      <path class="cls-1" d="M386.03,374.63c-1.4-.55-2.67,3.37-7.05,5.31-5.22,2.31-9.97-.36-10.85,1.38-.75,1.49,2.89,3.18,4.25,7.56,1.91,6.13-2.5,11.6-.99,12.64,1.54,1.05,5.18-5.26,11.44-5.5,4.76-.18,7.62,3.29,8.72,2.21,1.33-1.3-3.46-5.68-4.66-13.76-.82-5.49.53-9.28-.86-9.82Z"/>
      <path class="cls-2" d="M368.17,381.35c-1.84-.15-1.94,4.89-6.4,8.72-5.32,4.56-11.84,3.11-12.26,5.45-.36,2.01,4.52,2.7,7.68,7.35,4.42,6.52,1.18,14.49,3.32,15.17,2.18.69,4.22-8,11.49-10.49,5.53-1.89,10.12,1.16,11.03-.5,1.1-2-6.08-5.44-10.36-14.48-2.91-6.15-2.67-11.07-4.5-11.21Z"/>
    </g>
    <g>
      <path class="cls-2" d="M372.49,217.35c-1.72-.67-3.27,4.13-8.65,6.5-6.41,2.83-12.23-.45-13.31,1.68-.93,1.82,3.55,3.89,5.22,9.26,2.35,7.52-3.06,14.21-1.21,15.48,1.89,1.29,6.35-6.44,14.03-6.72,5.84-.21,9.35,4.03,10.71,2.71,1.63-1.59-4.25-6.96-5.73-16.86-1.01-6.72.64-11.37-1.06-12.04Z"/>
      <path class="cls-1" d="M386.03,225.63c-1.4-.55-2.67,3.37-7.05,5.31-5.22,2.31-9.97-.36-10.85,1.38-.75,1.49,2.89,3.18,4.25,7.56,1.91,6.13-2.5,11.6-.99,12.64,1.54,1.05,5.18-5.26,11.44-5.5,4.76-.18,7.62,3.29,8.72,2.21,1.33-1.3-3.46-5.68-4.66-13.76-.82-5.49.53-9.28-.86-9.82Z"/>
      <path class="cls-2" d="M368.17,232.35c-1.84-.15-1.94,4.89-6.4,8.72-5.32,4.56-11.84,3.11-12.26,5.45-.36,2.01,4.52,2.7,7.68,7.35,4.42,6.52,1.18,14.49,3.32,15.17,2.18.69,4.22-8,11.49-10.49,5.53-1.89,10.12,1.16,11.03-.5,1.1-2-6.08-5.44-10.36-14.48-2.91-6.15-2.67-11.07-4.5-11.21Z"/>
    </g>
  </g>
  <g>
    <g>
      <path class="cls-2" d="M451.3,6.16c-1.72-.67-3.27,4.13-8.65,6.5-6.41,2.83-12.23-.45-13.31,1.68-.93,1.82,3.55,3.89,5.22,9.26,2.35,7.52-3.06,14.21-1.21,15.48,1.89,1.29,6.35-6.44,14.03-6.72,5.84-.21,9.35,4.03,10.71,2.71,1.63-1.59-4.25-6.96-5.73-16.86-1.01-6.72.64-11.37-1.06-12.04Z"/>
      <path class="cls-1" d="M464.84,14.44c-1.4-.55-2.67,3.37-7.05,5.31-5.22,2.31-9.97-.36-10.85,1.38-.75,1.49,2.89,3.18,4.25,7.56,1.91,6.13-2.5,11.6-.99,12.64,1.54,1.05,5.18-5.26,11.44-5.5,4.76-.18,7.62,3.29,8.72,2.21,1.33-1.3-3.46-5.68-4.66-13.76-.82-5.49.53-9.28-.86-9.82Z"/>
      <path class="cls-2" d="M446.99,21.16c-1.84-.15-1.94,4.89-6.4,8.72-5.32,4.56-11.84,3.11-12.26,5.45-.36,2.01,4.52,2.7,7.68,7.35,4.42,6.52,1.18,14.49,3.32,15.17,2.18.69,4.22-8,11.49-10.49,5.53-1.89,10.12,1.16,11.03-.5,1.1-2-6.08-5.44-10.36-14.48-2.91-6.15-2.67-11.07-4.5-11.21Z"/>
    </g>
    <g>
      <path class="cls-2" d="M452.49,432.35c-1.72-.67-3.27,4.13-8.65,6.5-6.41,2.83-12.23-.45-13.31,1.68-.93,1.82,3.55,3.89,5.22,9.26,2.35,7.52-3.06,14.21-1.21,15.48,1.89,1.29,6.35-6.44,14.03-6.72,5.84-.21,9.35,4.03,10.71,2.71,1.63-1.59-4.25-6.96-5.73-16.86-1.01-6.72.64-11.37-1.06-12.04Z"/>
      <path class="cls-1" d="M466.03,440.63c-1.4-.55-2.67,3.37-7.05,5.31-5.22,2.31-9.97-.36-10.85,1.38-.75,1.49,2.89,3.18,4.25,7.56,1.91,6.13-2.5,11.6-.99,12.64,1.54,1.05,5.18-5.26,11.44-5.5,4.76-.18,7.62,3.29,8.72,2.21,1.33-1.3-3.46-5.68-4.66-13.76-.82-5.49.53-9.28-.86-9.82Z"/>
      <path class="cls-2" d="M448.17,447.35c-1.84-.15-1.94,4.89-6.4,8.72-5.32,4.56-11.84,3.11-12.26,5.45-.36,2.01,4.52,2.7,7.68,7.35,4.42,6.52,1.18,14.49,3.32,15.17,2.18.69,4.22-8,11.49-10.49,5.53-1.89,10.12,1.16,11.03-.5,1.1-2-6.08-5.44-10.36-14.48-2.91-6.15-2.67-11.07-4.5-11.21Z"/>
    </g>
    <g>
      <path class="cls-2" d="M451.49,297.35c-1.72-.67-3.27,4.13-8.65,6.5-6.41,2.83-12.23-.45-13.31,1.68-.93,1.82,3.55,3.89,5.22,9.26,2.35,7.52-3.06,14.21-1.21,15.48,1.89,1.29,6.35-6.44,14.03-6.72,5.84-.21,9.35,4.03,10.71,2.71,1.63-1.59-4.25-6.96-5.73-16.86-1.01-6.72.64-11.37-1.06-12.04Z"/>
      <path class="cls-1" d="M465.03,305.63c-1.4-.55-2.67,3.37-7.05,5.31-5.22,2.31-9.97-.36-10.85,1.38-.75,1.49,2.89,3.18,4.25,7.56,1.91,6.13-2.5,11.6-.99,12.64,1.54,1.05,5.18-5.26,11.44-5.5,4.76-.18,7.62,3.29,8.72,2.21,1.33-1.3-3.46-5.68-4.66-13.76-.82-5.49.53-9.28-.86-9.82Z"/>
      <path class="cls-2" d="M447.17,312.35c-1.84-.15-1.94,4.89-6.4,8.72-5.32,4.56-11.84,3.11-12.26,5.45-.36,2.01,4.52,2.7,7.68,7.35,4.42,6.52,1.18,14.49,3.32,15.17,2.18.69,4.22-8,11.49-10.49,5.53-1.89,10.12,1.16,11.03-.5,1.1-2-6.08-5.44-10.36-14.48-2.91-6.15-2.67-11.07-4.5-11.21Z"/>
    </g>
    <g>
      <path class="cls-2" d="M451.49,148.35c-1.72-.67-3.27,4.13-8.65,6.5-6.41,2.83-12.23-.45-13.31,1.68-.93,1.82,3.55,3.89,5.22,9.26,2.35,7.52-3.06,14.21-1.21,15.48,1.89,1.29,6.35-6.44,14.03-6.72,5.84-.21,9.35,4.03,10.71,2.71,1.63-1.59-4.25-6.96-5.73-16.86-1.01-6.72.64-11.37-1.06-12.04Z"/>
      <path class="cls-1" d="M465.03,156.63c-1.4-.55-2.67,3.37-7.05,5.31-5.22,2.31-9.97-.36-10.85,1.38-.75,1.49,2.89,3.18,4.25,7.56,1.91,6.13-2.5,11.6-.99,12.64,1.54,1.05,5.18-5.26,11.44-5.5,4.76-.18,7.62,3.29,8.72,2.21,1.33-1.3-3.46-5.68-4.66-13.76-.82-5.49.53-9.28-.86-9.82Z"/>
      <path class="cls-2" d="M447.17,163.35c-1.84-.15-1.94,4.89-6.4,8.72-5.32,4.56-11.84,3.11-12.26,5.45-.36,2.01,4.52,2.7,7.68,7.35,4.42,6.52,1.18,14.49,3.32,15.17,2.18.69,4.22-8,11.49-10.49,5.53-1.89,10.12,1.16,11.03-.5,1.1-2-6.08-5.44-10.36-14.48-2.91-6.15-2.67-11.07-4.5-11.21Z"/>
    </g>
  </g>
  <g>
    <g>
      <path class="cls-2" d="M306.3,10.16c-1.72-.67-3.27,4.13-8.65,6.5-6.41,2.83-12.23-.45-13.31,1.68-.93,1.82,3.55,3.89,5.22,9.26,2.35,7.52-3.06,14.21-1.21,15.48,1.89,1.29,6.35-6.44,14.03-6.72,5.84-.21,9.35,4.03,10.71,2.71,1.63-1.59-4.25-6.96-5.73-16.86-1.01-6.72.64-11.37-1.06-12.04Z"/>
      <path class="cls-1" d="M319.84,18.44c-1.4-.55-2.67,3.37-7.05,5.31-5.22,2.31-9.97-.36-10.85,1.38-.75,1.49,2.89,3.18,4.25,7.56,1.91,6.13-2.5,11.6-.99,12.64,1.54,1.05,5.18-5.26,11.44-5.5,4.76-.18,7.62,3.29,8.72,2.21,1.33-1.3-3.46-5.68-4.66-13.76-.82-5.49.53-9.28-.86-9.82Z"/>
      <path class="cls-2" d="M301.99,25.16c-1.84-.15-1.94,4.89-6.4,8.72-5.32,4.56-11.84,3.11-12.26,5.45-.36,2.01,4.52,2.7,7.68,7.35,4.42,6.52,1.18,14.49,3.32,15.17,2.18.69,4.22-8,11.49-10.49,5.53-1.89,10.12,1.16,11.03-.5,1.1-2-6.08-5.44-10.36-14.48-2.91-6.15-2.67-11.07-4.5-11.21Z"/>
    </g>
    <g>
      <path class="cls-2" d="M307.49,436.35c-1.72-.67-3.27,4.13-8.65,6.5-6.41,2.83-12.23-.45-13.31,1.68-.93,1.82,3.55,3.89,5.22,9.26,2.35,7.52-3.06,14.21-1.21,15.48,1.89,1.29,6.35-6.44,14.03-6.72,5.84-.21,9.35,4.03,10.71,2.71,1.63-1.59-4.25-6.96-5.73-16.86-1.01-6.72.64-11.37-1.06-12.04Z"/>
      <path class="cls-1" d="M321.03,444.63c-1.4-.55-2.67,3.37-7.05,5.31-5.22,2.31-9.97-.36-10.85,1.38-.75,1.49,2.89,3.18,4.25,7.56,1.91,6.13-2.5,11.6-.99,12.64,1.54,1.05,5.18-5.26,11.44-5.5,4.76-.18,7.62,3.29,8.72,2.21,1.33-1.3-3.46-5.68-4.66-13.76-.82-5.49.53-9.28-.86-9.82Z"/>
      <path class="cls-2" d="M303.17,451.35c-1.84-.15-1.94,4.89-6.4,8.72-5.32,4.56-11.84,3.11-12.26,5.45-.36,2.01,4.52,2.7,7.68,7.35,4.42,6.52,1.18,14.49,3.32,15.17,2.18.69,4.22-8,11.49-10.49,5.53-1.89,10.12,1.16,11.03-.5,1.1-2-6.08-5.44-10.36-14.48-2.91-6.15-2.67-11.07-4.5-11.21Z"/>
    </g>
    <g>
      <path class="cls-2" d="M306.49,301.35c-1.72-.67-3.27,4.13-8.65,6.5-6.41,2.83-12.23-.45-13.31,1.68-.93,1.82,3.55,3.89,5.22,9.26,2.35,7.52-3.06,14.21-1.21,15.48,1.89,1.29,6.35-6.44,14.03-6.72,5.84-.21,9.35,4.03,10.71,2.71,1.63-1.59-4.25-6.96-5.73-16.86-1.01-6.72.64-11.37-1.06-12.04Z"/>
      <path class="cls-1" d="M320.03,309.63c-1.4-.55-2.67,3.37-7.05,5.31-5.22,2.31-9.97-.36-10.85,1.38-.75,1.49,2.89,3.18,4.25,7.56,1.91,6.13-2.5,11.6-.99,12.64,1.54,1.05,5.18-5.26,11.44-5.5,4.76-.18,7.62,3.29,8.72,2.21,1.33-1.3-3.46-5.68-4.66-13.76-.82-5.49.53-9.28-.86-9.82Z"/>
      <path class="cls-2" d="M302.17,316.35c-1.84-.15-1.94,4.89-6.4,8.72-5.32,4.56-11.84,3.11-12.26,5.45-.36,2.01,4.52,2.7,7.68,7.35,4.42,6.52,1.18,14.49,3.32,15.17,2.18.69,4.22-8,11.49-10.49,5.53-1.89,10.12,1.16,11.03-.5,1.1-2-6.08-5.44-10.36-14.48-2.91-6.15-2.67-11.07-4.5-11.21Z"/>
    </g>
    <g>
      <path class="cls-2" d="M306.49,152.35c-1.72-.67-3.27,4.13-8.65,6.5-6.41,2.83-12.23-.45-13.31,1.68-.93,1.82,3.55,3.89,5.22,9.26,2.35,7.52-3.06,14.21-1.21,15.48,1.89,1.29,6.35-6.44,14.03-6.72,5.84-.21,9.35,4.03,10.71,2.71,1.63-1.59-4.25-6.96-5.73-16.86-1.01-6.72.64-11.37-1.06-12.04Z"/>
      <path class="cls-1" d="M320.03,160.63c-1.4-.55-2.67,3.37-7.05,5.31-5.22,2.31-9.97-.36-10.85,1.38-.75,1.49,2.89,3.18,4.25,7.56,1.91,6.13-2.5,11.6-.99,12.64,1.54,1.05,5.18-5.26,11.44-5.5,4.76-.18,7.62,3.29,8.72,2.21,1.33-1.3-3.46-5.68-4.66-13.76-.82-5.49.53-9.28-.86-9.82Z"/>
      <path class="cls-2" d="M302.17,167.35c-1.84-.15-1.94,4.89-6.4,8.72-5.32,4.56-11.84,3.11-12.26,5.45-.36,2.01,4.52,2.7,7.68,7.35,4.42,6.52,1.18,14.49,3.32,15.17,2.18.69,4.22-8,11.49-10.49,5.53-1.89,10.12,1.16,11.03-.5,1.1-2-6.08-5.44-10.36-14.48-2.91-6.15-2.67-11.07-4.5-11.21Z"/>
    </g>
  </g>
  <g>
    <g>
      <path class="cls-2" d="M93.3,75.16c-1.72-.67-3.27,4.13-8.65,6.5-6.41,2.83-12.23-.45-13.31,1.68-.93,1.82,3.55,3.89,5.22,9.26,2.35,7.52-3.06,14.21-1.21,15.48,1.89,1.29,6.35-6.44,14.03-6.72,5.84-.21,9.35,4.03,10.71,2.71,1.63-1.59-4.25-6.96-5.73-16.86-1.01-6.72.64-11.37-1.06-12.04Z"/>
      <path class="cls-1" d="M106.84,83.44c-1.4-.55-2.67,3.37-7.05,5.31-5.22,2.31-9.97-.36-10.85,1.38-.75,1.49,2.89,3.18,4.25,7.56,1.91,6.13-2.5,11.6-.99,12.64,1.54,1.05,5.18-5.26,11.44-5.5,4.76-.18,7.62,3.29,8.72,2.21,1.33-1.3-3.46-5.68-4.66-13.76-.82-5.49.53-9.28-.86-9.82Z"/>
      <path class="cls-2" d="M88.99,90.16c-1.84-.15-1.94,4.89-6.4,8.72-5.32,4.56-11.84,3.11-12.26,5.45-.36,2.01,4.52,2.7,7.68,7.35,4.42,6.52,1.18,14.49,3.32,15.17,2.18.69,4.22-8,11.49-10.49,5.53-1.89,10.12,1.16,11.03-.5,1.1-2-6.08-5.44-10.36-14.48-2.91-6.15-2.67-11.07-4.5-11.21Z"/>
    </g>
    <g>
      <path class="cls-2" d="M94.49,501.35c-1.72-.67-3.27,4.13-8.65,6.5-6.41,2.83-12.23-.45-13.31,1.68-.93,1.82,3.55,3.89,5.22,9.26,2.35,7.52-3.06,14.21-1.21,15.48,1.89,1.29,6.35-6.44,14.03-6.72,5.84-.21,9.35,4.03,10.71,2.71,1.63-1.59-4.25-6.96-5.73-16.86-1.01-6.72.64-11.37-1.06-12.04Z"/>
      <path class="cls-1" d="M108.03,509.63c-1.4-.55-2.67,3.37-7.05,5.31-5.22,2.31-9.97-.36-10.85,1.38-.75,1.49,2.89,3.18,4.25,7.56,1.91,6.13-2.5,11.6-.99,12.64,1.54,1.05,5.18-5.26,11.44-5.5,4.76-.18,7.62,3.29,8.72,2.21,1.33-1.3-3.46-5.68-4.66-13.76-.82-5.49.53-9.28-.86-9.82Z"/>
      <path class="cls-2" d="M90.17,516.35c-1.84-.15-1.94,4.89-6.4,8.72-5.32,4.56-11.84,3.11-12.26,5.45-.36,2.01,4.52,2.7,7.68,7.35,4.42,6.52,1.18,14.49,3.32,15.17,2.18.69,4.22-8,11.49-10.49,5.53-1.89,10.12,1.16,11.03-.5,1.1-2-6.08-5.44-10.36-14.48-2.91-6.15-2.67-11.07-4.5-11.21Z"/>
    </g>
    <g>
      <path class="cls-2" d="M93.49,366.35c-1.72-.67-3.27,4.13-8.65,6.5-6.41,2.83-12.23-.45-13.31,1.68-.93,1.82,3.55,3.89,5.22,9.26,2.35,7.52-3.06,14.21-1.21,15.48,1.89,1.29,6.35-6.44,14.03-6.72,5.84-.21,9.35,4.03,10.71,2.71,1.63-1.59-4.25-6.96-5.73-16.86-1.01-6.72.64-11.37-1.06-12.04Z"/>
      <path class="cls-1" d="M107.03,374.63c-1.4-.55-2.67,3.37-7.05,5.31-5.22,2.31-9.97-.36-10.85,1.38-.75,1.49,2.89,3.18,4.25,7.56,1.91,6.13-2.5,11.6-.99,12.64,1.54,1.05,5.18-5.26,11.44-5.5,4.76-.18,7.62,3.29,8.72,2.21,1.33-1.3-3.46-5.68-4.66-13.76-.82-5.49.53-9.28-.86-9.82Z"/>
      <path class="cls-2" d="M89.17,381.35c-1.84-.15-1.94,4.89-6.4,8.72-5.32,4.56-11.84,3.11-12.26,5.45-.36,2.01,4.52,2.7,7.68,7.35,4.42,6.52,1.18,14.49,3.32,15.17,2.18.69,4.22-8,11.49-10.49,5.53-1.89,10.12,1.16,11.03-.5,1.1-2-6.08-5.44-10.36-14.48-2.91-6.15-2.67-11.07-4.5-11.21Z"/>
    </g>
    <g>
      <path class="cls-2" d="M93.49,217.35c-1.72-.67-3.27,4.13-8.65,6.5-6.41,2.83-12.23-.45-13.31,1.68-.93,1.82,3.55,3.89,5.22,9.26,2.35,7.52-3.06,14.21-1.21,15.48,1.89,1.29,6.35-6.44,14.03-6.72,5.84-.21,9.35,4.03,10.71,2.71,1.63-1.59-4.25-6.96-5.73-16.86-1.01-6.72.64-11.37-1.06-12.04Z"/>
      <path class="cls-1" d="M107.03,225.63c-1.4-.55-2.67,3.37-7.05,5.31-5.22,2.31-9.97-.36-10.85,1.38-.75,1.49,2.89,3.18,4.25,7.56,1.91,6.13-2.5,11.6-.99,12.64,1.54,1.05,5.18-5.26,11.44-5.5,4.76-.18,7.62,3.29,8.72,2.21,1.33-1.3-3.46-5.68-4.66-13.76-.82-5.49.53-9.28-.86-9.82Z"/>
      <path class="cls-2" d="M89.17,232.35c-1.84-.15-1.94,4.89-6.4,8.72-5.32,4.56-11.84,3.11-12.26,5.45-.36,2.01,4.52,2.7,7.68,7.35,4.42,6.52,1.18,14.49,3.32,15.17,2.18.69,4.22-8,11.49-10.49,5.53-1.89,10.12,1.16,11.03-.5,1.1-2-6.08-5.44-10.36-14.48-2.91-6.15-2.67-11.07-4.5-11.21Z"/>
    </g>
  </g>
  <g>
    <g>
      <path class="cls-2" d="M231.3,73.47c-1.72-.67-3.27,4.13-8.65,6.5-6.41,2.83-12.23-.45-13.31,1.68-.93,1.82,3.55,3.89,5.22,9.26,2.35,7.52-3.06,14.21-1.21,15.48,1.89,1.29,6.35-6.44,14.03-6.72,5.84-.21,9.35,4.03,10.71,2.71,1.63-1.59-4.25-6.96-5.73-16.86-1.01-6.72.64-11.37-1.06-12.04Z"/>
      <path class="cls-1" d="M244.84,81.74c-1.4-.55-2.67,3.37-7.05,5.31-5.22,2.31-9.97-.36-10.85,1.38-.75,1.49,2.89,3.18,4.25,7.56,1.91,6.13-2.5,11.6-.99,12.64,1.54,1.05,5.18-5.26,11.44-5.5,4.76-.18,7.62,3.29,8.72,2.21,1.33-1.3-3.46-5.68-4.66-13.76-.82-5.49.53-9.28-.86-9.82Z"/>
      <path class="cls-2" d="M226.99,88.47c-1.84-.15-1.94,4.89-6.4,8.72-5.32,4.56-11.84,3.11-12.26,5.45-.36,2.01,4.52,2.7,7.68,7.35,4.42,6.52,1.18,14.49,3.32,15.17,2.18.69,4.22-8,11.49-10.49,5.53-1.89,10.12,1.16,11.03-.5,1.1-2-6.08-5.44-10.36-14.48-2.91-6.15-2.67-11.07-4.5-11.21Z"/>
    </g>
    <g>
      <path class="cls-2" d="M232.49,499.66c-1.72-.67-3.27,4.13-8.65,6.5-6.41,2.83-12.23-.45-13.31,1.68-.93,1.82,3.55,3.89,5.22,9.26,2.35,7.52-3.06,14.21-1.21,15.48,1.89,1.29,6.35-6.44,14.03-6.72,5.84-.21,9.35,4.03,10.71,2.71,1.63-1.59-4.25-6.96-5.73-16.86-1.01-6.72.64-11.37-1.06-12.04Z"/>
      <path class="cls-1" d="M246.03,507.94c-1.4-.55-2.67,3.37-7.05,5.31-5.22,2.31-9.97-.36-10.85,1.38-.75,1.49,2.89,3.18,4.25,7.56,1.91,6.13-2.5,11.6-.99,12.64,1.54,1.05,5.18-5.26,11.44-5.5,4.76-.18,7.62,3.29,8.72,2.21,1.33-1.3-3.46-5.68-4.66-13.76-.82-5.49.53-9.28-.86-9.82Z"/>
      <path class="cls-2" d="M228.17,514.66c-1.84-.15-1.94,4.89-6.4,8.72-5.32,4.56-11.84,3.11-12.26,5.45-.36,2.01,4.52,2.7,7.68,7.35,4.42,6.52,1.18,14.49,3.32,15.17,2.18.69,4.22-8,11.49-10.49,5.53-1.89,10.12,1.16,11.03-.5,1.1-2-6.08-5.44-10.36-14.48-2.91-6.15-2.67-11.07-4.5-11.21Z"/>
    </g>
    <g>
      <path class="cls-2" d="M231.49,364.66c-1.72-.67-3.27,4.13-8.65,6.5-6.41,2.83-12.23-.45-13.31,1.68-.93,1.82,3.55,3.89,5.22,9.26,2.35,7.52-3.06,14.21-1.21,15.48,1.89,1.29,6.35-6.44,14.03-6.72,5.84-.21,9.35,4.03,10.71,2.71,1.63-1.59-4.25-6.96-5.73-16.86-1.01-6.72.64-11.37-1.06-12.04Z"/>
      <path class="cls-1" d="M245.03,372.94c-1.4-.55-2.67,3.37-7.05,5.31-5.22,2.31-9.97-.36-10.85,1.38-.75,1.49,2.89,3.18,4.25,7.56,1.91,6.13-2.5,11.6-.99,12.64,1.54,1.05,5.18-5.26,11.44-5.5,4.76-.18,7.62,3.29,8.72,2.21,1.33-1.3-3.46-5.68-4.66-13.76-.82-5.49.53-9.28-.86-9.82Z"/>
      <path class="cls-2" d="M227.17,379.66c-1.84-.15-1.94,4.89-6.4,8.72-5.32,4.56-11.84,3.11-12.26,5.45-.36,2.01,4.52,2.7,7.68,7.35,4.42,6.52,1.18,14.49,3.32,15.17,2.18.69,4.22-8,11.49-10.49,5.53-1.89,10.12,1.16,11.03-.5,1.1-2-6.08-5.44-10.36-14.48-2.91-6.15-2.67-11.07-4.5-11.21Z"/>
    </g>
    <g>
      <path class="cls-2" d="M231.49,215.66c-1.72-.67-3.27,4.13-8.65,6.5-6.41,2.83-12.23-.45-13.31,1.68-.93,1.82,3.55,3.89,5.22,9.26,2.35,7.52-3.06,14.21-1.21,15.48,1.89,1.29,6.35-6.44,14.03-6.72,5.84-.21,9.35,4.03,10.71,2.71,1.63-1.59-4.25-6.96-5.73-16.86-1.01-6.72.64-11.37-1.06-12.04Z"/>
      <path class="cls-1" d="M245.03,223.94c-1.4-.55-2.67,3.37-7.05,5.31-5.22,2.31-9.97-.36-10.85,1.38-.75,1.49,2.89,3.18,4.25,7.56,1.91,6.13-2.5,11.6-.99,12.64,1.54,1.05,5.18-5.26,11.44-5.5,4.76-.18,7.62,3.29,8.72,2.21,1.33-1.3-3.46-5.68-4.66-13.76-.82-5.49.53-9.28-.86-9.82Z"/>
      <path class="cls-2" d="M227.17,230.66c-1.84-.15-1.94,4.89-6.4,8.72-5.32,4.56-11.84,3.11-12.26,5.45-.36,2.01,4.52,2.7,7.68,7.35,4.42,6.52,1.18,14.49,3.32,15.17,2.18.69,4.22-8,11.49-10.49,5.53-1.89,10.12,1.16,11.03-.5,1.1-2-6.08-5.44-10.36-14.48-2.91-6.15-2.67-11.07-4.5-11.21Z"/>
    </g>
  </g>
  <g>
    <g>
      <path class="cls-2" d="M591.16,13.47c-1.72-.67-3.27,4.13-8.65,6.5-6.41,2.83-12.23-.45-13.31,1.68-.93,1.82,3.55,3.89,5.22,9.26,2.35,7.52-3.06,14.21-1.21,15.48,1.89,1.29,6.35-6.44,14.03-6.72,5.84-.21,9.35,4.03,10.71,2.71,1.63-1.59-4.25-6.96-5.73-16.86-1.01-6.72.64-11.37-1.06-12.04Z"/>
      <path class="cls-1" d="M604.7,21.74c-1.4-.55-2.67,3.37-7.05,5.31-5.22,2.31-9.97-.36-10.85,1.38-.75,1.49,2.89,3.18,4.25,7.56,1.91,6.13-2.5,11.6-.99,12.64,1.54,1.05,5.18-5.26,11.44-5.5,4.76-.18,7.62,3.29,8.72,2.21,1.33-1.3-3.46-5.68-4.66-13.76-.82-5.49.53-9.28-.86-9.82Z"/>
      <path class="cls-2" d="M586.85,28.47c-1.84-.15-1.94,4.89-6.4,8.72-5.32,4.56-11.84,3.11-12.26,5.45-.36,2.01,4.52,2.7,7.68,7.35,4.42,6.52,1.18,14.49,3.32,15.17,2.18.69,4.22-8,11.49-10.49,5.53-1.89,10.12,1.16,11.03-.5,1.1-2-6.08-5.44-10.36-14.48-2.91-6.15-2.67-11.07-4.5-11.21Z"/>
    </g>
    <g>
      <path class="cls-2" d="M592.34,439.66c-1.72-.67-3.27,4.13-8.65,6.5-6.41,2.83-12.23-.45-13.31,1.68-.93,1.82,3.55,3.89,5.22,9.26,2.35,7.52-3.06,14.21-1.21,15.48,1.89,1.29,6.35-6.44,14.03-6.72,5.84-.21,9.35,4.03,10.71,2.71,1.63-1.59-4.25-6.96-5.73-16.86-1.01-6.72.64-11.37-1.06-12.04Z"/>
      <path class="cls-1" d="M605.88,447.94c-1.4-.55-2.67,3.37-7.05,5.31-5.22,2.31-9.97-.36-10.85,1.38-.75,1.49,2.89,3.18,4.25,7.56,1.91,6.13-2.5,11.6-.99,12.64,1.54,1.05,5.18-5.26,11.44-5.5,4.76-.18,7.62,3.29,8.72,2.21,1.33-1.3-3.46-5.68-4.66-13.76-.82-5.49.53-9.28-.86-9.82Z"/>
      <path class="cls-2" d="M588.03,454.66c-1.84-.15-1.94,4.89-6.4,8.72-5.32,4.56-11.84,3.11-12.26,5.45-.36,2.01,4.52,2.7,7.68,7.35,4.42,6.52,1.18,14.49,3.32,15.17,2.18.69,4.22-8,11.49-10.49,5.53-1.89,10.12,1.16,11.03-.5,1.1-2-6.08-5.44-10.36-14.48-2.91-6.15-2.67-11.07-4.5-11.21Z"/>
    </g>
    <g>
      <path class="cls-2" d="M591.34,304.66c-1.72-.67-3.27,4.13-8.65,6.5-6.41,2.83-12.23-.45-13.31,1.68-.93,1.82,3.55,3.89,5.22,9.26,2.35,7.52-3.06,14.21-1.21,15.48,1.89,1.29,6.35-6.44,14.03-6.72,5.84-.21,9.35,4.03,10.71,2.71,1.63-1.59-4.25-6.96-5.73-16.86-1.01-6.72.64-11.37-1.06-12.04Z"/>
      <path class="cls-1" d="M604.88,312.94c-1.4-.55-2.67,3.37-7.05,5.31-5.22,2.31-9.97-.36-10.85,1.38-.75,1.49,2.89,3.18,4.25,7.56,1.91,6.13-2.5,11.6-.99,12.64,1.54,1.05,5.18-5.26,11.44-5.5,4.76-.18,7.62,3.29,8.72,2.21,1.33-1.3-3.46-5.68-4.66-13.76-.82-5.49.53-9.28-.86-9.82Z"/>
      <path class="cls-2" d="M587.03,319.66c-1.84-.15-1.94,4.89-6.4,8.72-5.32,4.56-11.84,3.11-12.26,5.45-.36,2.01,4.52,2.7,7.68,7.35,4.42,6.52,1.18,14.49,3.32,15.17,2.18.69,4.22-8,11.49-10.49,5.53-1.89,10.12,1.16,11.03-.5,1.1-2-6.08-5.44-10.36-14.48-2.91-6.15-2.67-11.07-4.5-11.21Z"/>
    </g>
    <g>
      <path class="cls-2" d="M591.34,155.66c-1.72-.67-3.27,4.13-8.65,6.5-6.41,2.83-12.23-.45-13.31,1.68-.93,1.82,3.55,3.89,5.22,9.26,2.35,7.52-3.06,14.21-1.21,15.48,1.89,1.29,6.35-6.44,14.03-6.72,5.84-.21,9.35,4.03,10.71,2.71,1.63-1.59-4.25-6.96-5.73-16.86-1.01-6.72.64-11.37-1.06-12.04Z"/>
      <path class="cls-1" d="M604.88,163.94c-1.4-.55-2.67,3.37-7.05,5.31-5.22,2.31-9.97-.36-10.85,1.38-.75,1.49,2.89,3.18,4.25,7.56,1.91,6.13-2.5,11.6-.99,12.64,1.54,1.05,5.18-5.26,11.44-5.5,4.76-.18,7.62,3.29,8.72,2.21,1.33-1.3-3.46-5.68-4.66-13.76-.82-5.49.53-9.28-.86-9.82Z"/>
      <path class="cls-2" d="M587.03,170.66c-1.84-.15-1.94,4.89-6.4,8.72-5.32,4.56-11.84,3.11-12.26,5.45-.36,2.01,4.52,2.7,7.68,7.35,4.42,6.52,1.18,14.49,3.32,15.17,2.18.69,4.22-8,11.49-10.49,5.53-1.89,10.12,1.16,11.03-.5,1.1-2-6.08-5.44-10.36-14.48-2.91-6.15-2.67-11.07-4.5-11.21Z"/>
    </g>
  </g>
  <g>
    <g>
      <path class="cls-2" d="M661.16,70.47c-1.72-.67-3.27,4.13-8.65,6.5-6.41,2.83-12.23-.45-13.31,1.68-.93,1.82,3.55,3.89,5.22,9.26,2.35,7.52-3.06,14.21-1.21,15.48,1.89,1.29,6.35-6.44,14.03-6.72,5.84-.21,9.35,4.03,10.71,2.71,1.63-1.59-4.25-6.96-5.73-16.86-1.01-6.72.64-11.37-1.06-12.04Z"/>
      <path class="cls-1" d="M674.7,78.74c-1.4-.55-2.67,3.37-7.05,5.31-5.22,2.31-9.97-.36-10.85,1.38-.75,1.49,2.89,3.18,4.25,7.56,1.91,6.13-2.5,11.6-.99,12.64,1.54,1.05,5.18-5.26,11.44-5.5,4.76-.18,7.62,3.29,8.72,2.21,1.33-1.3-3.46-5.68-4.66-13.76-.82-5.49.53-9.28-.86-9.82Z"/>
      <path class="cls-2" d="M656.85,85.47c-1.84-.15-1.94,4.89-6.4,8.72-5.32,4.56-11.84,3.11-12.26,5.45-.36,2.01,4.52,2.7,7.68,7.35,4.42,6.52,1.18,14.49,3.32,15.17,2.18.69,4.22-8,11.49-10.49,5.53-1.89,10.12,1.16,11.03-.5,1.1-2-6.08-5.44-10.36-14.48-2.91-6.15-2.67-11.07-4.5-11.21Z"/>
    </g>
    <g>
      <path class="cls-2" d="M662.34,496.66c-1.72-.67-3.27,4.13-8.65,6.5-6.41,2.83-12.23-.45-13.31,1.68-.93,1.82,3.55,3.89,5.22,9.26,2.35,7.52-3.06,14.21-1.21,15.48,1.89,1.29,6.35-6.44,14.03-6.72,5.84-.21,9.35,4.03,10.71,2.71,1.63-1.59-4.25-6.96-5.73-16.86-1.01-6.72.64-11.37-1.06-12.04Z"/>
      <path class="cls-1" d="M675.88,504.94c-1.4-.55-2.67,3.37-7.05,5.31-5.22,2.31-9.97-.36-10.85,1.38-.75,1.49,2.89,3.18,4.25,7.56,1.91,6.13-2.5,11.6-.99,12.64,1.54,1.05,5.18-5.26,11.44-5.5,4.76-.18,7.62,3.29,8.72,2.21,1.33-1.3-3.46-5.68-4.66-13.76-.82-5.49.53-9.28-.86-9.82Z"/>
      <path class="cls-2" d="M658.03,511.66c-1.84-.15-1.94,4.89-6.4,8.72-5.32,4.56-11.84,3.11-12.26,5.45-.36,2.01,4.52,2.7,7.68,7.35,4.42,6.52,1.18,14.49,3.32,15.17,2.18.69,4.22-8,11.49-10.49,5.53-1.89,10.12,1.16,11.03-.5,1.1-2-6.08-5.44-10.36-14.48-2.91-6.15-2.67-11.07-4.5-11.21Z"/>
    </g>
    <g>
      <path class="cls-2" d="M661.34,361.66c-1.72-.67-3.27,4.13-8.65,6.5-6.41,2.83-12.23-.45-13.31,1.68-.93,1.82,3.55,3.89,5.22,9.26,2.35,7.52-3.06,14.21-1.21,15.48,1.89,1.29,6.35-6.44,14.03-6.72,5.84-.21,9.35,4.03,10.71,2.71,1.63-1.59-4.25-6.96-5.73-16.86-1.01-6.72.64-11.37-1.06-12.04Z"/>
      <path class="cls-1" d="M674.88,369.94c-1.4-.55-2.67,3.37-7.05,5.31-5.22,2.31-9.97-.36-10.85,1.38-.75,1.49,2.89,3.18,4.25,7.56,1.91,6.13-2.5,11.6-.99,12.64,1.54,1.05,5.18-5.26,11.44-5.5,4.76-.18,7.62,3.29,8.72,2.21,1.33-1.3-3.46-5.68-4.66-13.76-.82-5.49.53-9.28-.86-9.82Z"/>
      <path class="cls-2" d="M657.03,376.66c-1.84-.15-1.94,4.89-6.4,8.72-5.32,4.56-11.84,3.11-12.26,5.45-.36,2.01,4.52,2.7,7.68,7.35,4.42,6.52,1.18,14.49,3.32,15.17,2.18.69,4.22-8,11.49-10.49,5.53-1.89,10.12,1.16,11.03-.5,1.1-2-6.08-5.44-10.36-14.48-2.91-6.15-2.67-11.07-4.5-11.21Z"/>
    </g>
    <g>
      <path class="cls-2" d="M661.34,212.66c-1.72-.67-3.27,4.13-8.65,6.5-6.41,2.83-12.23-.45-13.31,1.68-.93,1.82,3.55,3.89,5.22,9.26,2.35,7.52-3.06,14.21-1.21,15.48,1.89,1.29,6.35-6.44,14.03-6.72,5.84-.21,9.35,4.03,10.71,2.71,1.63-1.59-4.25-6.96-5.73-16.86-1.01-6.72.64-11.37-1.06-12.04Z"/>
      <path class="cls-1" d="M674.88,220.94c-1.4-.55-2.67,3.37-7.05,5.31-5.22,2.31-9.97-.36-10.85,1.38-.75,1.49,2.89,3.18,4.25,7.56,1.91,6.13-2.5,11.6-.99,12.64,1.54,1.05,5.18-5.26,11.44-5.5,4.76-.18,7.62,3.29,8.72,2.21,1.33-1.3-3.46-5.68-4.66-13.76-.82-5.49.53-9.28-.86-9.82Z"/>
      <path class="cls-2" d="M657.03,227.66c-1.84-.15-1.94,4.89-6.4,8.72-5.32,4.56-11.84,3.11-12.26,5.45-.36,2.01,4.52,2.7,7.68,7.35,4.42,6.52,1.18,14.49,3.32,15.17,2.18.69,4.22-8,11.49-10.49,5.53-1.89,10.12,1.16,11.03-.5,1.1-2-6.08-5.44-10.36-14.48-2.91-6.15-2.67-11.07-4.5-11.21Z"/>
    </g>
  </g>
  <g>
    <g>
      <path class="cls-2" d="M519.16,74.47c-1.72-.67-3.27,4.13-8.65,6.5-6.41,2.83-12.23-.45-13.31,1.68-.93,1.82,3.55,3.89,5.22,9.26,2.35,7.52-3.06,14.21-1.21,15.48,1.89,1.29,6.35-6.44,14.03-6.72,5.84-.21,9.35,4.03,10.71,2.71,1.63-1.59-4.25-6.96-5.73-16.86-1.01-6.72.64-11.37-1.06-12.04Z"/>
      <path class="cls-1" d="M532.7,82.74c-1.4-.55-2.67,3.37-7.05,5.31-5.22,2.31-9.97-.36-10.85,1.38-.75,1.49,2.89,3.18,4.25,7.56,1.91,6.13-2.5,11.6-.99,12.64,1.54,1.05,5.18-5.26,11.44-5.5,4.76-.18,7.62,3.29,8.72,2.21,1.33-1.3-3.46-5.68-4.66-13.76-.82-5.49.53-9.28-.86-9.82Z"/>
      <path class="cls-2" d="M514.85,89.47c-1.84-.15-1.94,4.89-6.4,8.72-5.32,4.56-11.84,3.11-12.26,5.45-.36,2.01,4.52,2.7,7.68,7.35,4.42,6.52,1.18,14.49,3.32,15.17,2.18.69,4.22-8,11.49-10.49,5.53-1.89,10.12,1.16,11.03-.5,1.1-2-6.08-5.44-10.36-14.48-2.91-6.15-2.67-11.07-4.5-11.21Z"/>
    </g>
    <g>
      <path class="cls-2" d="M520.34,500.66c-1.72-.67-3.27,4.13-8.65,6.5-6.41,2.83-12.23-.45-13.31,1.68-.93,1.82,3.55,3.89,5.22,9.26,2.35,7.52-3.06,14.21-1.21,15.48,1.89,1.29,6.35-6.44,14.03-6.72,5.84-.21,9.35,4.03,10.71,2.71,1.63-1.59-4.25-6.96-5.73-16.86-1.01-6.72.64-11.37-1.06-12.04Z"/>
      <path class="cls-1" d="M533.88,508.94c-1.4-.55-2.67,3.37-7.05,5.31-5.22,2.31-9.97-.36-10.85,1.38-.75,1.49,2.89,3.18,4.25,7.56,1.91,6.13-2.5,11.6-.99,12.64,1.54,1.05,5.18-5.26,11.44-5.5,4.76-.18,7.62,3.29,8.72,2.21,1.33-1.3-3.46-5.68-4.66-13.76-.82-5.49.53-9.28-.86-9.82Z"/>
      <path class="cls-2" d="M516.03,515.66c-1.84-.15-1.94,4.89-6.4,8.72-5.32,4.56-11.84,3.11-12.26,5.45-.36,2.01,4.52,2.7,7.68,7.35,4.42,6.52,1.18,14.49,3.32,15.17,2.18.69,4.22-8,11.49-10.49,5.53-1.89,10.12,1.16,11.03-.5,1.1-2-6.08-5.44-10.36-14.48-2.91-6.15-2.67-11.07-4.5-11.21Z"/>
    </g>
    <g>
      <path class="cls-2" d="M519.34,365.66c-1.72-.67-3.27,4.13-8.65,6.5-6.41,2.83-12.23-.45-13.31,1.68-.93,1.82,3.55,3.89,5.22,9.26,2.35,7.52-3.06,14.21-1.21,15.48,1.89,1.29,6.35-6.44,14.03-6.72,5.84-.21,9.35,4.03,10.71,2.71,1.63-1.59-4.25-6.96-5.73-16.86-1.01-6.72.64-11.37-1.06-12.04Z"/>
      <path class="cls-1" d="M532.88,373.94c-1.4-.55-2.67,3.37-7.05,5.31-5.22,2.31-9.97-.36-10.85,1.38-.75,1.49,2.89,3.18,4.25,7.56,1.91,6.13-2.5,11.6-.99,12.64,1.54,1.05,5.18-5.26,11.44-5.5,4.76-.18,7.62,3.29,8.72,2.21,1.33-1.3-3.46-5.68-4.66-13.76-.82-5.49.53-9.28-.86-9.82Z"/>
      <path class="cls-2" d="M515.03,380.66c-1.84-.15-1.94,4.89-6.4,8.72-5.32,4.56-11.84,3.11-12.26,5.45-.36,2.01,4.52,2.7,7.68,7.35,4.42,6.52,1.18,14.49,3.32,15.17,2.18.69,4.22-8,11.49-10.49,5.53-1.89,10.12,1.16,11.03-.5,1.1-2-6.08-5.44-10.36-14.48-2.91-6.15-2.67-11.07-4.5-11.21Z"/>
    </g>
    <g>
      <path class="cls-2" d="M519.34,216.66c-1.72-.67-3.27,4.13-8.65,6.5-6.41,2.83-12.23-.45-13.31,1.68-.93,1.82,3.55,3.89,5.22,9.26,2.35,7.52-3.06,14.21-1.21,15.48,1.89,1.29,6.35-6.44,14.03-6.72,5.84-.21,9.35,4.03,10.71,2.71,1.63-1.59-4.25-6.96-5.73-16.86-1.01-6.72.64-11.37-1.06-12.04Z"/>
      <path class="cls-1" d="M532.88,224.94c-1.4-.55-2.67,3.37-7.05,5.31-5.22,2.31-9.97-.36-10.85,1.38-.75,1.49,2.89,3.18,4.25,7.56,1.91,6.13-2.5,11.6-.99,12.64,1.54,1.05,5.18-5.26,11.44-5.5,4.76-.18,7.62,3.29,8.72,2.21,1.33-1.3-3.46-5.68-4.66-13.76-.82-5.49.53-9.28-.86-9.82Z"/>
      <path class="cls-2" d="M515.03,231.66c-1.84-.15-1.94,4.89-6.4,8.72-5.32,4.56-11.84,3.11-12.26,5.45-.36,2.01,4.52,2.7,7.68,7.35,4.42,6.52,1.18,14.49,3.32,15.17,2.18.69,4.22-8,11.49-10.49,5.53-1.89,10.12,1.16,11.03-.5,1.1-2-6.08-5.44-10.36-14.48-2.91-6.15-2.67-11.07-4.5-11.21Z"/>
    </g>
  </g>
  <g>
    <g>
      <path class="cls-2" d="M725.26,8.85c-1.72-.67-3.27,4.13-8.65,6.5-6.41,2.83-12.23-.45-13.31,1.68-.93,1.82,3.55,3.89,5.22,9.26,2.35,7.52-3.06,14.21-1.21,15.48,1.89,1.29,6.35-6.44,14.03-6.72,5.84-.21,9.35,4.03,10.71,2.71,1.63-1.59-4.25-6.96-5.73-16.86-1.01-6.72.64-11.37-1.06-12.04Z"/>
      <path class="cls-1" d="M738.8,17.13c-1.4-.55-2.67,3.37-7.05,5.31-5.22,2.31-9.97-.36-10.85,1.38-.75,1.49,2.89,3.18,4.25,7.56,1.91,6.13-2.5,11.6-.99,12.64,1.54,1.05,5.18-5.26,11.44-5.5,4.76-.18,7.62,3.29,8.72,2.21,1.33-1.3-3.46-5.68-4.66-13.76-.82-5.49.53-9.28-.86-9.82Z"/>
      <path class="cls-2" d="M720.95,23.85c-1.84-.15-1.94,4.89-6.4,8.72-5.32,4.56-11.84,3.11-12.26,5.45-.36,2.01,4.52,2.7,7.68,7.35,4.42,6.52,1.18,14.49,3.32,15.17,2.18.69,4.22-8,11.49-10.49,5.53-1.89,10.12,1.16,11.03-.5,1.1-2-6.08-5.44-10.36-14.48-2.91-6.15-2.67-11.07-4.5-11.21Z"/>
    </g>
    <g>
      <path class="cls-2" d="M726.45,435.05c-1.72-.67-3.27,4.13-8.65,6.5-6.41,2.83-12.23-.45-13.31,1.68-.93,1.82,3.55,3.89,5.22,9.26,2.35,7.52-3.06,14.21-1.21,15.48,1.89,1.29,6.35-6.44,14.03-6.72,5.84-.21,9.35,4.03,10.71,2.71,1.63-1.59-4.25-6.96-5.73-16.86-1.01-6.72.64-11.37-1.06-12.04Z"/>
      <path class="cls-1" d="M739.98,443.33c-1.4-.55-2.67,3.37-7.05,5.31-5.22,2.31-9.97-.36-10.85,1.38-.75,1.49,2.89,3.18,4.25,7.56,1.91,6.13-2.5,11.6-.99,12.64,1.54,1.05,5.18-5.26,11.44-5.5,4.76-.18,7.62,3.29,8.72,2.21,1.33-1.3-3.46-5.68-4.66-13.76-.82-5.49.53-9.28-.86-9.82Z"/>
      <path class="cls-2" d="M722.13,450.05c-1.84-.15-1.94,4.89-6.4,8.72-5.32,4.56-11.84,3.11-12.26,5.45-.36,2.01,4.52,2.7,7.68,7.35,4.42,6.52,1.18,14.49,3.32,15.17,2.18.69,4.22-8,11.49-10.49,5.53-1.89,10.12,1.16,11.03-.5,1.1-2-6.08-5.44-10.36-14.48-2.91-6.15-2.67-11.07-4.5-11.21Z"/>
    </g>
    <g>
      <path class="cls-2" d="M725.45,300.05c-1.72-.67-3.27,4.13-8.65,6.5-6.41,2.83-12.23-.45-13.31,1.68-.93,1.82,3.55,3.89,5.22,9.26,2.35,7.52-3.06,14.21-1.21,15.48,1.89,1.29,6.35-6.44,14.03-6.72,5.84-.21,9.35,4.03,10.71,2.71,1.63-1.59-4.25-6.96-5.73-16.86-1.01-6.72.64-11.37-1.06-12.04Z"/>
      <path class="cls-1" d="M738.98,308.33c-1.4-.55-2.67,3.37-7.05,5.31-5.22,2.31-9.97-.36-10.85,1.38-.75,1.49,2.89,3.18,4.25,7.56,1.91,6.13-2.5,11.6-.99,12.64,1.54,1.05,5.18-5.26,11.44-5.5,4.76-.18,7.62,3.29,8.72,2.21,1.33-1.3-3.46-5.68-4.66-13.76-.82-5.49.53-9.28-.86-9.82Z"/>
      <path class="cls-2" d="M721.13,315.05c-1.84-.15-1.94,4.89-6.4,8.72-5.32,4.56-11.84,3.11-12.26,5.45-.36,2.01,4.52,2.7,7.68,7.35,4.42,6.52,1.18,14.49,3.32,15.17,2.18.69,4.22-8,11.49-10.49,5.53-1.89,10.12,1.16,11.03-.5,1.1-2-6.08-5.44-10.36-14.48-2.91-6.15-2.67-11.07-4.5-11.21Z"/>
    </g>
    <g>
      <path class="cls-2" d="M725.45,151.05c-1.72-.67-3.27,4.13-8.65,6.5-6.41,2.83-12.23-.45-13.31,1.68-.93,1.82,3.55,3.89,5.22,9.26,2.35,7.52-3.06,14.21-1.21,15.48,1.89,1.29,6.35-6.44,14.03-6.72,5.84-.21,9.35,4.03,10.71,2.71,1.63-1.59-4.25-6.96-5.73-16.86-1.01-6.72.64-11.37-1.06-12.04Z"/>
      <path class="cls-1" d="M738.98,159.33c-1.4-.55-2.67,3.37-7.05,5.31-5.22,2.31-9.97-.36-10.85,1.38-.75,1.49,2.89,3.18,4.25,7.56,1.91,6.13-2.5,11.6-.99,12.64,1.54,1.05,5.18-5.26,11.44-5.5,4.76-.18,7.62,3.29,8.72,2.21,1.33-1.3-3.46-5.68-4.66-13.76-.82-5.49.53-9.28-.86-9.82Z"/>
      <path class="cls-2" d="M721.13,166.05c-1.84-.15-1.94,4.89-6.4,8.72-5.32,4.56-11.84,3.11-12.26,5.45-.36,2.01,4.52,2.7,7.68,7.35,4.42,6.52,1.18,14.49,3.32,15.17,2.18.69,4.22-8,11.49-10.49,5.53-1.89,10.12,1.16,11.03-.5,1.1-2-6.08-5.44-10.36-14.48-2.91-6.15-2.67-11.07-4.5-11.21Z"/>
    </g>
  </g>
</svg>