<?xml version="1.0" encoding="UTF-8"?>
<svg id="Ebene_1" data-name="Ebene 1" xmlns="http://www.w3.org/2000/svg" viewBox="0 0 147.44 97.08">
  <defs>
    <style>
      .cls-1, .cls-2 {
        fill: aqua;
      }

      .cls-3 {
        fill: #ecdf79;
        stroke: #ecd058;
      }

      .cls-3, .cls-4, .cls-5, .cls-6, .cls-2, .cls-7, .cls-8, .cls-9, .cls-10, .cls-11, .cls-12, .cls-13 {
        stroke-miterlimit: 10;
      }

      .cls-14, .cls-7 {
        fill: #c69c6d;
      }

      .cls-4, .cls-15 {
        fill: #b3b3b3;
      }

      .cls-4, .cls-10 {
        stroke: #999;
      }

      .cls-5, .cls-11 {
        stroke: #c1272d;
      }

      .cls-5, .cls-12 {
        fill: #8c6239;
      }

      .cls-6 {
        fill: #666;
      }

      .cls-6, .cls-9 {
        stroke: #666;
      }

      .cls-2 {
        stroke: #00a99d;
      }

      .cls-7, .cls-12 {
        stroke: #c69c6d;
      }

      .cls-8 {
        fill: #22b573;
        stroke: #009245;
      }

      .cls-16, .cls-10 {
        fill: #999;
      }

      .cls-9 {
        fill: gray;
      }

      .cls-11, .cls-13 {
        fill: red;
      }

      .cls-13 {
        stroke: #c63311;
      }

      .cls-17 {
        fill: #fbb03b;
      }
    </style>
  </defs>
  <g>
    <rect x="23.29" y="30.74" width="99.39" height="49.88"/>
    <path class="cls-1" d="M122.18,31.24v48.88H23.79V31.24h98.39M123.18,30.24H22.79v50.88h100.39V30.24h0Z"/>
  </g>
  <polygon class="cls-3" points="92.67 29.2 124.48 29.27 83.24 81.5 49.3 81.07 92.67 29.2"/>
  <path class="cls-9" d="M23.31,79.08c.69-1.83,1.35-3.34,1.88-4.48,1.1-2.36,1.52-2.89,2.17-3.18,1.36-.62,2.31.4,3.18-.29.8-.63.15-1.64,1.01-3.9.37-.98.67-1.76,1.45-2.31.81-.58,1.3-.31,2.46-1.01.34-.21,1.04-.65,1.59-1.45.63-.92.28-1.19,1.01-2.89,0,0,.06-.15,1.01-2.02.47-.05,1.5-.23,2.46-1.01.27-.23.82-.68,1.16-1.45.32-.73.09-.95.43-1.73.24-.55.55-.91,1.01-1.45.54-.62,1-1.02,1.16-1.16,1.87-1.67,1.25-3.73,3.04-4.92.82-.54,1.12-.23,2.31-1.01.76-.5,1.23-1.02,1.73-1.59,1.33-1.5,2.31-3.22,2.17-3.33-.12-.09-.95.92-1.01.87-.13-.11,3.77-5.02,3.9-4.92.06.04-.6,1-.58,1.01.09.06,1.88-1.4,2.46-3.61.33-1.24-.16-1.41.14-2.31.65-1.92,3.27-3.04,5.35-3.18,1.52-.1,1.66.4,3.76.29,1.81-.1,1.82-.48,3.18-.43,1.97.07,2.39.88,4.05.72,1.26-.12,1.12-.6,2.46-.87,2.35-.48,2.99.96,5.93.72.75-.06,1.06-.18,2.46-.29,1.19-.09,1.81-.13,2.6,0,.99.17,2.03.34,2.6,1.16.73,1.05.24,2.49.14,2.75-.56,1.52-1.68,1.49-3.18,3.33-.62.76-.56.93-1.73,3.04-1.21,2.16-1.47,2.28-2.46,4.05-.62,1.12-.66,1.26-1.01,1.73-.74.97-1.58,1.63-2.46,2.31-.77.6-1.17.89-1.59,1.16-.83.54-1.39.8-1.38,1.18.01.34.45.37.52.7.11.58-1.18,1.05-3.61,2.75-.84.58-1.25.88-1.73,1.16-1.08.63-1.44.69-1.88,1.16-.17.18-.25.32-.87,2.02-.62,1.71-.8,2.31-1.43,2.73-.18.12-.14.05-.72.36-.55.29-1.07.6-1.61.96-1.72,1.15-2.92,2.28-3.04,2.17-.13-.12.85-1.31.87-1.3.01.01-1.14,1.35-2.31,3.47-.82,1.48-1.24,2.21-1.45,3.18-.29,1.39-.2,2.93-.52,2.97-.11.01-.15-.17-.28-.16-.37.02-.14,1.74-1.09,3.12-.67.99-1.53,1.48-1.73,1.59-.72.39-.75.16-1.73.58-1.15.49-2.2.94-2.75,1.87-.11.19-.32.6-.58.59-.21-.01-.25-.31-.46-.37-.32-.09-.73.42-1.56,1.53-.84,1.12-1,1.38-1.44,1.67-.45.3-.86.4-1.19.49-1.36.34-1.97-.1-4.23-.14-.43,0-.8,0-1.55.03-1.06.03-1.22.06-2.25.11-1.76.07-1.93,0-3.09.11-1.02.09-.88.14-1.6.19-1.92.13-2.07-.3-3.33-.14-1.53.2-2.47.98-2.86.57-.22-.23,0-.55-.25-.81-.31-.33-.85-.06-1.82-.03-1.43.04-1.47-.52-2.55-.33-.66.12-1.14.42-1.6.15-.06-.04-.3-.17-.33-.4-.04-.32.4-.42.52-.89.1-.41-.16-.64,0-.89.13-.21.43-.26.68-.27Z"/>
  <path class="cls-3" d="M95.17,31.56l-.22,16.82.22-16.82Z"/>
  <path class="cls-3" d="M98.86,31.81l-.22,16.82.22-16.82Z"/>
  <path class="cls-3" d="M102.87,32.08l-.22,16.82.22-16.82Z"/>
  <path class="cls-3" d="M114.56,30.67l-.38,8.68.38-8.68Z"/>
  <path class="cls-3" d="M111.07,31.1l-.03,8.68.03-8.68Z"/>
  <path class="cls-3" d="M94.14,32.63l22.56.56-22.56-.56Z"/>
  <path class="cls-3" d="M91.37,35.39l24.67.55-24.67-.55Z"/>
  <path class="cls-3" d="M89.91,39.5l22.56.56-22.56-.56Z"/>
  <path class="cls-3" d="M86.01,45.09l22.56.56-22.56-.56Z"/>
  <path class="cls-3" d="M59.78,77.9l22.56.56-22.56-.56Z"/>
  <path class="cls-3" d="M62.38,74.79l22.56.56-22.56-.56Z"/>
  <path class="cls-3" d="M63.76,71.97l11.93.6-11.93-.6Z"/>
  <path class="cls-3" d="M76.37,69.55l11.94.34-11.94-.34Z"/>
  <path class="cls-3" d="M66.04,63.33l-.22,16.82.22-16.82Z"/>
  <path class="cls-3" d="M70.37,69.01l-.36,11.51.36-11.51Z"/>
  <path class="cls-3" d="M84.69,60.8l-.22,16.82.22-16.82Z"/>
  <path class="cls-3" d="M81.15,63.19l-.22,16.82.22-16.82Z"/>
  <path class="cls-3" d="M75.41,56.73l-.05,23.59.05-23.59Z"/>
  <rect class="cls-2" x="21.54" y="66.94" width="5.2" height="3.76"/>
  <rect class="cls-2" x="28.55" y="55.55" width="11.42" height="9.51"/>
  <rect class="cls-2" x="24.87" y="53.02" width="5.2" height="3.76"/>
  <rect class="cls-2" x="52.34" y="29.24" width="5.2" height="3.76"/>
  <rect class="cls-2" x="44.67" y="32.78" width="8.89" height="5.82"/>
  <rect class="cls-2" x="26.02" y="38.49" width="5.2" height="3.76"/>
  <rect class="cls-2" x="30.58" y="41.82" width="5.2" height="3.76"/>
  <rect class="cls-2" x="44.02" y="46.37" width="5.2" height="3.76"/>
  <path class="cls-6" d="M47.49,77.85s1.04-.68,2.1-1.95c.99-1.2.87-1.55,1.52-1.95,1.21-.75,2.11.17,3.04-.51,1.28-.94,1.08-3.83,1.08-3.83-.02.11.18,2.91-1.08,3.83-.92.68-1.83-.24-3.04.51-.65.4-.52.76-1.52,1.95-1.06,1.27-2.1,1.95-2.1,1.95Z"/>
  <path class="cls-6" d="M55,44.1s1.04-.68,2.1-1.95c.99-1.2.87-1.55,1.52-1.95,1.21-.75,2.11.17,3.04-.51,1.28-.94,1.08-3.83,1.08-3.83-.02.11.18,2.91-1.08,3.83-.92.68-1.83-.24-3.04.51-.65.4-.52.76-1.52,1.95-1.06,1.27-2.1,1.95-2.1,1.95Z"/>
  <path class="cls-6" d="M28.33,78.23s1.04-.68,2.1-1.95c.99-1.2.87-1.55,1.52-1.95,1.21-.75,2.11.17,3.04-.51,1.28-.94,1.08-3.83,1.08-3.83-.02.11.18,2.91-1.08,3.83-.92.68-1.83-.24-3.04.51-.65.4-.52.76-1.52,1.95-1.06,1.27-2.1,1.95-2.1,1.95Z"/>
  <path class="cls-6" d="M90.05,30.13s-1.24-.1-2.85.26c-1.52.34-1.63.69-2.39.62-1.42-.15-1.57-1.43-2.71-1.46-1.59-.04-3.2,2.37-3.2,2.37.08-.07,1.64-2.41,3.2-2.37,1.15.03,1.3,1.31,2.71,1.46.76.08.88-.28,2.39-.62,1.61-.36,2.85-.26,2.85-.26Z"/>
  <path class="cls-9" d="M47.03,58.61s-.96-1.16-.92-2.75c0-.35.04-1.71.94-2.35.28-.2.6-.3,3.18-.24,1.53.04,1.92.08,2.2-.22.64-.69-.1-2.28-.1-2.28s.74,1.6.1,2.28c-.28.3-.66.25-2.2.22-2.57-.06-2.9.04-3.18.24-.89.64-.93,2-.94,2.35-.04,1.59.92,2.75.92,2.75Z"/>
  <path class="cls-9" d="M75.3,49.03s-1.05-1.08-1.14-2.67c-.02-.35-.1-1.71.74-2.42.26-.22.58-.35,3.15-.5,1.53-.09,1.92-.08,2.17-.4.58-.74-.29-2.27-.29-2.27s.87,1.53.29,2.27c-.25.32-.64.31-2.17.4-2.57.15-2.89.28-3.15.5-.84.71-.76,2.06-.74,2.42.09,1.59,1.14,2.67,1.14,2.67Z"/>
  <polygon class="cls-12" points="84.11 81.18 124.55 30 124.34 80.96 84.11 81.18"/>
  <ellipse class="cls-14" cx="119.64" cy="48.29" rx="1.45" ry="1.52"/>
  <path class="cls-7" d="M118.81,49.24l-3.85.05,3.85-.05Z"/>
  <path class="cls-7" d="M124.01,56.07h-6.99,6.99Z"/>
  <path class="cls-7" d="M110.13,62.26l13.93.05-13.93-.05Z"/>
  <path class="cls-7" d="M106.93,66.48l7.1.05-7.1-.05Z"/>
  <path class="cls-7" d="M111.11,75.16l12.8-.11-12.8.11Z"/>
  <polygon class="cls-7" points="92.08 71.36 92.3 71.36 99.34 71.36 92.08 71.36"/>
  <path class="cls-7" d="M105.58,54.18h5.64-5.64Z"/>
  <path class="cls-7" d="M120.11,47.07l2.22-.05-2.22.05Z"/>
  <path class="cls-13" d="M115.07,81.32l-.03,14.21,4.33-4.23,4.44,4.56s.03-14.43.36-14.53-9.11,0-9.11,0Z"/>
  <path class="cls-17" d="M116.59,81.3l-.03,9.85,2.89-2.94,2.96,3.15s.03-10,.25-10.07-6.07,0-6.07,0Z"/>
  <g>
    <path class="cls-15" d="M26.13,36.9c-1.25,0-2.43-.41-3.41-1.17-1.18-.92-1.93-2.25-2.1-3.75-.17-1.5.25-2.99,1.18-4.19,1.1-1.41,2.74-2.22,4.51-2.22,1.25,0,2.43.41,3.41,1.17,2.44,1.9,2.85,5.47.92,7.94-1.1,1.41-2.74,2.21-4.51,2.21Z"/>
    <path class="cls-16" d="M26.32,26.07h0c1.14,0,2.21.37,3.11,1.07,1.07.84,1.75,2.05,1.91,3.42.16,1.37-.22,2.73-1.08,3.83-1,1.29-2.5,2.02-4.12,2.02-1.14,0-2.21-.37-3.11-1.07-2.22-1.73-2.59-4.98-.83-7.24,1-1.29,2.5-2.02,4.12-2.02M26.32,25.07c-1.84,0-3.68.83-4.91,2.41-2.11,2.7-1.66,6.57,1,8.64,1.1.86,2.41,1.28,3.72,1.28,1.84,0,3.68-.83,4.91-2.41,2.11-2.7,1.66-6.57-1-8.64-1.1-.86-2.41-1.28-3.72-1.28h0Z"/>
  </g>
  <polygon class="cls-4" points="22.84 26.46 21.73 23.71 23.62 22.99 24.56 22.62 25.43 25.14 22.84 26.46"/>
  <polygon class="cls-4" points="28.26 25.46 30.21 23.23 31.71 24.6 32.46 25.26 30.61 27.18 28.26 25.46"/>
  <polygon class="cls-4" points="17.24 32.76 17.5 29.81 19.51 30.02 20.51 30.11 20.15 32.76 17.24 32.76"/>
  <ellipse class="cls-10" cx="26.2" cy="31.08" rx="1.57" ry="1.66" transform="translate(-14.42 32.62) rotate(-52.04)"/>
  <polygon class="cls-4" points="34.83 29.81 34.72 32.77 32.69 32.65 31.69 32.61 31.92 29.95 34.83 29.81"/>
  <polygon class="cls-4" points="31.13 38.58 28.48 39.92 27.61 38.09 27.16 37.19 29.59 36.11 31.13 38.58"/>
  <polygon class="cls-4" points="22.46 39.21 19.93 37.66 21.02 35.96 21.55 35.1 23.76 36.61 22.46 39.21"/>
  <polygon class="cls-3" points="88.09 15.69 87.95 28.64 124.56 28.64 124.42 15.38 88.09 15.69"/>
  <path class="cls-3" d="M90.98,17.54l.22,9.54-.22-9.54Z"/>
  <path class="cls-3" d="M94.78,16.03l.22,11.66-.22-11.66Z"/>
  <path class="cls-3" d="M98.47,15.84l.22,10.49-.22-10.49Z"/>
  <path class="cls-3" d="M101.88,18.76l.22,9.54-.22-9.54Z"/>
  <path class="cls-3" d="M104.21,17.14l.22,9.54-.22-9.54Z"/>
  <path class="cls-3" d="M107.14,15.76l.22,12.36-.22-12.36Z"/>
  <path class="cls-3" d="M121.73,15.67l.22,12.36-.22-12.36Z"/>
  <path class="cls-3" d="M118.26,15.73l.22,9.54-.22-9.54Z"/>
  <path class="cls-3" d="M115,18.98l.22,9.54-.22-9.54Z"/>
  <path class="cls-3" d="M110.72,15.76l.22,11.66-.22-11.66Z"/>
  <path class="cls-3" d="M124.22,17.51l-31.89.12,31.89-.12Z"/>
  <path class="cls-3" d="M124.6,22.62l-36.81.11,36.81-.11Z"/>
  <path class="cls-3" d="M122.6,22.34l-31.89.12,31.89-.12Z"/>
  <path class="cls-3" d="M119.78,25.7l-31.89.12,31.89-.12Z"/>
  <text/>
  <polygon class="cls-3" points="101.39 2.1 101.25 15.05 137.86 15.05 137.72 1.79 101.39 2.1"/>
  <path class="cls-3" d="M104.29,3.95l.22,9.54-.22-9.54Z"/>
  <path class="cls-3" d="M108.08,2.44l.22,11.66-.22-11.66Z"/>
  <path class="cls-3" d="M111.77,2.25l.22,10.49-.22-10.49Z"/>
  <path class="cls-3" d="M115.18,5.17l.22,9.54-.22-9.54Z"/>
  <path class="cls-3" d="M117.52,3.55l.22,9.54-.22-9.54Z"/>
  <path class="cls-3" d="M120.44,2.16l.22,12.36-.22-12.36Z"/>
  <path class="cls-3" d="M135.03,2.08l.22,12.36-.22-12.36Z"/>
  <path class="cls-3" d="M131.56,2.14l.22,9.54-.22-9.54Z"/>
  <path class="cls-3" d="M128.3,5.39l.22,9.54-.22-9.54Z"/>
  <path class="cls-3" d="M124.02,2.16l.22,11.66-.22-11.66Z"/>
  <path class="cls-3" d="M137.53,3.92l-31.89.12,31.89-.12Z"/>
  <path class="cls-3" d="M137.9,9.03l-36.81.11,36.81-.11Z"/>
  <path class="cls-3" d="M135.9,8.75l-31.89.12,31.89-.12Z"/>
  <path class="cls-3" d="M133.08,12.11l-31.89.12,31.89-.12Z"/>
  <text/>
  <path class="cls-8" d="M23.42,81.74c-.44-.33-.03-.94-.48-1.98-.63-1.42-1.99-1.62-1.89-2.15.11-.59,1.91-1.05,3.42-.52,1.02.35,2.59,1.39,2.44,2.71-.18,1.58-2.72,2.53-3.49,1.95Z"/>
  <path class="cls-8" d="M26.24,82.49c.53.16.82-.56,1.97-.82,1.57-.36,2.51.64,2.91.23.44-.45-.19-2.22-1.5-3.15-.89-.63-2.66-1.28-3.7-.35-1.25,1.12-.61,3.8.32,4.08Z"/>
  <path class="cls-8" d="M23.89,84.48c.33.45.99.06,2.06.54,1.47.67,1.61,2.04,2.17,1.95.62-.09,1.2-1.88.72-3.41-.32-1.04-1.33-2.64-2.73-2.52-1.67.14-2.8,2.65-2.23,3.44Z"/>
  <path class="cls-8" d="M21.21,85.82c.44-.09.54-.85,1.38-1.59,1.16-1.01,2.09-.53,2.32-1.07.26-.6-.57-1.9-1.77-2.15-.81-.17-2.33.02-2.96,1.31-.76,1.55.24,3.66,1.03,3.5Z"/>
  <path class="cls-8" d="M86.67,30.68c.51-.2.31-.94,1.05-1.85,1.02-1.25,2.38-1.04,2.44-1.6.07-.63-1.51-1.64-3.12-1.57-1.08.05-2.89.62-3.13,2-.29,1.65,1.85,3.38,2.76,3.03Z"/>
  <path class="cls-8" d="M84.02,31.77c.24.5.97.23,1.93.89,1.33.91,1.23,2.28,1.8,2.3.63.02,1.51-1.64,1.3-3.24-.14-1.08-.86-2.83-2.25-2.96-1.67-.16-3.22,2.12-2.79,3Z"/>
  <path class="cls-8" d="M81.16,34.39c.49-.21.4-1.09,1.19-2.12,1.09-1.41,2.29-1.1,2.42-1.76.14-.73-1.16-2-2.63-2-.99,0-2.7.58-3.1,2.18-.48,1.92,1.24,4.07,2.11,3.7Z"/>
  <path class="cls-8" d="M78.8,26.62c.24.39,1.13.35,2.22,1.01,1.49.9,1.23,1.84,1.91,1.97.75.14,1.98-.84,1.9-1.99-.05-.78-.72-2.14-2.37-2.51-1.98-.45-4.07.83-3.65,1.52Z"/>
  <path class="cls-11" d="M50.16,42.48c.29.09-.2,11.73-.2,11.73l2.55-.17-.1-12.24h4.7l-.49-3.06-10.77-.09.29,3.66,4.01.17Z"/>
  <polygon class="cls-11" points="59.36 38.76 58.95 53.85 61.28 53.66 61.17 46.79 65.52 46.89 65.52 53.36 67.84 53.26 67.64 38.07 64.91 38.07 65.32 43.66 61.88 43.76 61.07 38.07 58.95 37.88 59.36 38.76"/>
  <polygon class="cls-11" points="71.96 37.8 71.86 52.98 81.07 53.09 80.53 50.27 75.33 50.6 75.11 48 80.31 47.45 80.1 44.63 74.67 44.74 74.35 41.06 80.2 41.16 79.99 37.69 71.96 37.8"/>
  <polygon class="cls-11" points="74.57 56.94 74.46 72.12 83.68 72.23 83.14 69.41 77.93 69.74 77.71 67.13 82.92 66.59 82.7 63.77 77.28 63.88 76.95 60.19 82.81 60.3 82.59 56.83 74.57 56.94"/>
  <polygon class="cls-11" points="86.39 71.69 86.5 56.7 88.77 56.58 91.86 65.5 92.22 55.27 94.71 55.15 94.95 71.93 91.14 71.45 88.77 64.55 89 72.29 86.39 71.69"/>
  <polygon class="cls-11" points="97.71 57.82 97.85 71.53 101.39 71.4 107.12 66.87 106.98 60.35 102.62 55.56 97.58 55.16 97.71 57.82"/>
  <polygon class="cls-5" points="100.98 66.08 100.85 58.89 103.16 61.95 103.3 64.48 100.98 66.08"/>
  <polygon class="cls-11" points="110.67 53.43 115.77 53.31 112.69 64.28 111.21 64.52 110.67 53.43"/>
  <polygon class="cls-11" points="110.94 66.81 114.03 66.57 113.63 70.55 110.67 70.07 110.94 66.81"/>
</svg>