<?xml version="1.0" encoding="UTF-8" ?>
<svg version="1.1" width="1500" height="1000" xmlns="http://www.w3.org/2000/svg" shape-rendering="crispEdges">
<rect x="1125" y="10" width="5" height="5" fill="#A2E4E3" />
<rect x="1130" y="10" width="5" height="5" fill="#7BB39C" />
<rect x="1135" y="10" width="5" height="5" fill="#6A9E7E" />
<rect x="1140" y="10" width="15" height="370" fill="#548256" />
<rect x="1155" y="10" width="5" height="5" fill="#6A9E7E" />
<rect x="1160" y="10" width="5" height="5" fill="#81BAA7" />
<rect x="1165" y="10" width="5" height="5" fill="#A2E4E3" />
<rect x="1110" y="15" width="5" height="5" fill="#8CC8BB" />
<rect x="1115" y="15" width="25" height="345" fill="#548256" />
<rect x="1155" y="15" width="30" height="370" fill="#548256" />
<rect x="1185" y="15" width="5" height="5" fill="#8CC8BB" />
<rect x="1090" y="20" width="5" height="5" fill="#A2E4E3" />
<rect x="1095" y="20" width="20" height="350" fill="#548256" />
<rect x="1185" y="20" width="10" height="375" fill="#548256" />
<rect x="1195" y="20" width="5" height="5" fill="#75AC92" />
<rect x="1085" y="25" width="10" height="355" fill="#548256" />
<rect x="1195" y="25" width="15" height="375" fill="#548256" />
<rect x="1080" y="30" width="5" height="355" fill="#548256" />
<rect x="1210" y="30" width="5" height="5" fill="#5A8960" />
<rect x="1210" y="35" width="10" height="370" fill="#548256" />
<rect x="1075" y="40" width="5" height="345" fill="#548256" />
<rect x="1220" y="40" width="5" height="5" fill="#659774" />
<rect x="1065" y="45" width="10" height="340" fill="#548256" />
<rect x="1220" y="45" width="10" height="360" fill="#548256" />
<rect x="1060" y="50" width="5" height="5" fill="#9CDDD9" />
<rect x="1230" y="50" width="5" height="5" fill="#9CDDD9" />
<rect x="1055" y="55" width="5" height="5" fill="#97D6CF" />
<rect x="1060" y="55" width="5" height="330" fill="#548256" />
<rect x="1230" y="55" width="5" height="350" fill="#548256" />
<rect x="1055" y="60" width="5" height="325" fill="#548256" />
<rect x="1235" y="60" width="5" height="5" fill="#81BAA7" />
<rect x="1235" y="65" width="5" height="340" fill="#548256" />
<rect x="1045" y="70" width="5" height="5" fill="#A2E4E3" />
<rect x="1050" y="70" width="5" height="315" fill="#548256" />
<rect x="1240" y="70" width="5" height="335" fill="#548256" />
<rect x="1045" y="75" width="5" height="5" fill="#5A8960" />
<rect x="80" y="80" width="160" height="15" fill="#CEB568" />
<rect x="1040" y="80" width="5" height="5" fill="#A7EBED" />
<rect x="1045" y="80" width="5" height="310" fill="#548256" />
<rect x="1245" y="80" width="5" height="325" fill="#548256" />
<rect x="1010" y="85" width="5" height="5" fill="#97D6CF" />
<rect x="1015" y="85" width="5" height="5" fill="#5A8960" />
<rect x="1020" y="85" width="25" height="300" fill="#548256" />
<rect x="1250" y="85" width="25" height="310" fill="#548256" />
<rect x="1275" y="85" width="5" height="5" fill="#86C1B1" />
<rect x="1005" y="90" width="15" height="295" fill="#548256" />
<rect x="1275" y="90" width="10" height="300" fill="#548256" />
<rect x="1285" y="90" width="5" height="5" fill="#5F906A" />
<rect x="1290" y="90" width="5" height="5" fill="#A7EBED" />
<rect x="80" y="95" width="160" height="145" fill="#DDC372" />
<rect x="985" y="95" width="20" height="285" fill="#548256" />
<rect x="1285" y="95" width="20" height="290" fill="#548256" />
<rect x="975" y="100" width="5" height="5" fill="#7BB39C" />
<rect x="980" y="100" width="5" height="280" fill="#548256" />
<rect x="1305" y="100" width="5" height="280" fill="#548256" />
<rect x="1310" y="100" width="5" height="5" fill="#A7EBED" />
<rect x="970" y="105" width="10" height="265" fill="#548256" />
<rect x="1310" y="105" width="5" height="275" fill="#548256" />
<rect x="1315" y="105" width="5" height="5" fill="#75AC92" />
<rect x="965" y="110" width="5" height="260" fill="#548256" />
<rect x="1315" y="110" width="5" height="260" fill="#548256" />
<rect x="1320" y="110" width="5" height="5" fill="#70A588" />
<rect x="1320" y="115" width="5" height="255" fill="#548256" />
<rect x="955" y="120" width="5" height="5" fill="#91CFC5" />
<rect x="960" y="120" width="5" height="245" fill="#548256" />
<rect x="1325" y="120" width="10" height="240" fill="#548256" />
<rect x="955" y="125" width="5" height="235" fill="#548256" />
<rect x="1335" y="125" width="5" height="5" fill="#7BB39C" />
<rect x="950" y="130" width="5" height="230" fill="#548256" />
<rect x="1335" y="130" width="5" height="225" fill="#548256" />
<rect x="1340" y="130" width="5" height="5" fill="#A7EBED" />
<rect x="945" y="135" width="5" height="5" fill="#5A8960" />
<rect x="1340" y="135" width="5" height="215" fill="#548256" />
<rect x="940" y="140" width="5" height="5" fill="#97D6CF" />
<rect x="945" y="140" width="5" height="215" fill="#548256" />
<rect x="940" y="145" width="5" height="205" fill="#548256" />
<rect x="1345" y="145" width="5" height="5" fill="#75AC92" />
<rect x="935" y="150" width="5" height="5" fill="#8CC8BB" />
<rect x="1345" y="150" width="5" height="185" fill="#548256" />
<rect x="935" y="155" width="5" height="190" fill="#548256" />
<rect x="1350" y="160" width="5" height="5" fill="#86C1B1" />
<rect x="1350" y="165" width="5" height="95" fill="#548256" />
<rect x="930" y="170" width="5" height="5" fill="#81BAA7" />
<rect x="1355" y="170" width="5" height="5" fill="#7BB39C" />
<rect x="930" y="175" width="5" height="5" fill="#6A9E7E" />
<rect x="1355" y="175" width="5" height="70" fill="#548256" />
<rect x="930" y="180" width="5" height="20" fill="#548256" />
<rect x="1360" y="190" width="5" height="5" fill="#81BAA7" />
<rect x="1360" y="195" width="5" height="5" fill="#659774" />
<rect x="930" y="200" width="5" height="5" fill="#6A9E7E" />
<rect x="1360" y="200" width="5" height="20" fill="#548256" />
<rect x="930" y="205" width="5" height="5" fill="#81BAA7" />
<rect x="1360" y="220" width="5" height="5" fill="#659774" />
<rect x="930" y="225" width="5" height="5" fill="#5A8960" />
<rect x="1360" y="225" width="5" height="5" fill="#6A9E7E" />
<rect x="925" y="230" width="5" height="5" fill="#86C1B1" />
<rect x="930" y="230" width="5" height="105" fill="#548256" />
<rect x="1360" y="230" width="5" height="5" fill="#81BAA7" />
<rect x="925" y="235" width="5" height="100" fill="#548256" />
<rect x="1360" y="235" width="5" height="5" fill="#9CDDD9" />
<rect x="920" y="245" width="5" height="5" fill="#A2E4E3" />
<rect x="1355" y="245" width="5" height="5" fill="#659774" />
<rect x="920" y="250" width="5" height="60" fill="#548256" />
<rect x="1350" y="260" width="5" height="5" fill="#659774" />
<rect x="915" y="265" width="5" height="5" fill="#81BAA7" />
<rect x="915" y="270" width="5" height="5" fill="#6A9E7E" />
<rect x="1350" y="270" width="5" height="5" fill="#A2E4E3" />
<rect x="915" y="275" width="5" height="15" fill="#548256" />
<rect x="1350" y="275" width="5" height="5" fill="#5A8960" />
<rect x="1350" y="280" width="5" height="35" fill="#548256" />
<rect x="915" y="290" width="5" height="5" fill="#6A9E7E" />
<rect x="915" y="295" width="5" height="5" fill="#81BAA7" />
<rect x="125" y="310" width="535" height="210" fill="#515B51" />
<rect x="920" y="310" width="5" height="5" fill="#5A8960" />
<rect x="920" y="315" width="5" height="5" fill="#A2E4E3" />
<rect x="1350" y="315" width="5" height="5" fill="#70A588" />
<rect x="1350" y="320" width="5" height="5" fill="#A2E4E3" />
<rect x="930" y="335" width="5" height="5" fill="#5A8960" />
<rect x="935" y="345" width="5" height="5" fill="#9CDDD9" />
<rect x="940" y="350" width="5" height="5" fill="#9CDDD9" />
<rect x="1340" y="350" width="5" height="5" fill="#86C1B1" />
<rect x="945" y="355" width="5" height="5" fill="#9CDDD9" />
<rect x="1335" y="355" width="5" height="5" fill="#9CDDD9" />
<rect x="1115" y="360" width="5" height="5" fill="#548256" />
<rect x="1120" y="360" width="5" height="445" fill="#82744B" />
<rect x="1125" y="360" width="15" height="5" fill="#548256" />
<rect x="1325" y="360" width="5" height="5" fill="#548256" />
<rect x="1115" y="365" width="5" height="440" fill="#82744B" />
<rect x="1125" y="365" width="5" height="440" fill="#82744B" />
<rect x="1130" y="365" width="10" height="5" fill="#548256" />
<rect x="965" y="370" width="5" height="5" fill="#A7EBED" />
<rect x="970" y="370" width="5" height="5" fill="#5A8960" />
<rect x="975" y="370" width="5" height="5" fill="#548256" />
<rect x="1095" y="370" width="10" height="5" fill="#548256" />
<rect x="1105" y="370" width="5" height="5" fill="#5A8960" />
<rect x="1110" y="370" width="5" height="5" fill="#7F754C" />
<rect x="1130" y="370" width="5" height="435" fill="#82744B" />
<rect x="1135" y="370" width="5" height="5" fill="#578155" />
<rect x="1315" y="370" width="5" height="5" fill="#5A8960" />
<rect x="85" y="375" width="5" height="5" fill="#90C3C3" />
<rect x="975" y="375" width="5" height="5" fill="#75AC92" />
<rect x="1095" y="375" width="5" height="5" fill="#548256" />
<rect x="1100" y="375" width="5" height="5" fill="#A2E4E3" />
<rect x="1110" y="375" width="5" height="430" fill="#82744B" />
<rect x="1135" y="375" width="5" height="430" fill="#82744B" />
<rect x="80" y="380" width="20" height="425" fill="#515B51" />
<rect x="990" y="380" width="5" height="5" fill="#7BB39C" />
<rect x="995" y="380" width="10" height="5" fill="#548256" />
<rect x="1085" y="380" width="5" height="5" fill="#7BB39C" />
<rect x="1140" y="380" width="10" height="425" fill="#82744B" />
<rect x="1150" y="380" width="5" height="5" fill="#548256" />
<rect x="100" y="385" width="10" height="420" fill="#515B51" />
<rect x="110" y="385" width="5" height="5" fill="#526252" />
<rect x="1015" y="385" width="5" height="5" fill="#97D6CF" />
<rect x="1020" y="385" width="5" height="5" fill="#81BAA7" />
<rect x="1025" y="385" width="5" height="5" fill="#6A9E7E" />
<rect x="1030" y="385" width="15" height="5" fill="#548256" />
<rect x="1050" y="385" width="5" height="5" fill="#6A9E7E" />
<rect x="1055" y="385" width="5" height="5" fill="#81BAA7" />
<rect x="1060" y="385" width="5" height="5" fill="#97D6CF" />
<rect x="1150" y="385" width="5" height="420" fill="#82744B" />
<rect x="1155" y="385" width="5" height="5" fill="#7F754C" />
<rect x="1160" y="385" width="25" height="5" fill="#548256" />
<rect x="1285" y="385" width="10" height="5" fill="#548256" />
<rect x="1295" y="385" width="5" height="5" fill="#A7EBED" />
<rect x="75" y="390" width="5" height="5" fill="#8BB9B9" />
<rect x="110" y="390" width="15" height="415" fill="#515B51" />
<rect x="660" y="390" width="50" height="415" fill="#515B51" />
<rect x="1155" y="390" width="15" height="415" fill="#82744B" />
<rect x="1170" y="390" width="5" height="5" fill="#657D52" />
<rect x="1175" y="390" width="10" height="5" fill="#548256" />
<rect x="1275" y="390" width="5" height="5" fill="#548256" />
<rect x="1280" y="390" width="5" height="5" fill="#75AC92" />
<rect x="75" y="395" width="5" height="410" fill="#515B51" />
<rect x="1170" y="395" width="10" height="410" fill="#82744B" />
<rect x="1180" y="395" width="5" height="5" fill="#74784E" />
<rect x="1185" y="395" width="5" height="5" fill="#578155" />
<rect x="1190" y="395" width="5" height="5" fill="#548256" />
<rect x="1250" y="395" width="20" height="5" fill="#548256" />
<rect x="1270" y="395" width="5" height="5" fill="#91CFC5" />
<rect x="1180" y="400" width="15" height="405" fill="#82744B" />
<rect x="1195" y="400" width="5" height="5" fill="#607F53" />
<rect x="1200" y="400" width="10" height="5" fill="#548256" />
<rect x="1250" y="400" width="5" height="5" fill="#548256" />
<rect x="1255" y="400" width="5" height="5" fill="#7BB39C" />
<rect x="1260" y="400" width="5" height="5" fill="#9CDDD9" />
<rect x="70" y="405" width="5" height="5" fill="#85B0AE" />
<rect x="1195" y="405" width="25" height="400" fill="#82744B" />
<rect x="70" y="410" width="5" height="395" fill="#515B51" />
<rect x="65" y="420" width="5" height="5" fill="#57645B" />
<rect x="65" y="425" width="5" height="380" fill="#515B51" />
<rect x="60" y="435" width="5" height="370" fill="#515B51" />
<rect x="55" y="445" width="5" height="5" fill="#A7E9ED" />
<rect x="55" y="450" width="5" height="355" fill="#515B51" />
<rect x="50" y="460" width="5" height="5" fill="#A2DFE2" />
<rect x="50" y="465" width="5" height="340" fill="#515B51" />
<rect x="10" y="475" width="40" height="330" fill="#515B51" />
<rect x="710" y="475" width="90" height="330" fill="#515B51" />
<rect x="125" y="520" width="180" height="5" fill="#515B51" />
<rect x="305" y="520" width="180" height="125" fill="#111111" />
<rect x="485" y="520" width="5" height="5" fill="#454D45" />
<rect x="490" y="520" width="170" height="5" fill="#515B51" />
<rect x="125" y="525" width="175" height="10" fill="#515B51" />
<rect x="300" y="525" width="5" height="5" fill="#151615" />
<rect x="485" y="525" width="10" height="280" fill="#111111" />
<rect x="495" y="525" width="165" height="5" fill="#515B51" />
<rect x="300" y="530" width="5" height="275" fill="#111111" />
<rect x="495" y="530" width="5" height="275" fill="#111111" />
<rect x="500" y="530" width="160" height="5" fill="#515B51" />
<rect x="125" y="535" width="170" height="5" fill="#515B51" />
<rect x="295" y="535" width="5" height="270" fill="#111111" />
<rect x="500" y="535" width="5" height="270" fill="#111111" />
<rect x="505" y="535" width="5" height="5" fill="#414941" />
<rect x="510" y="535" width="150" height="5" fill="#515B51" />
<rect x="125" y="540" width="165" height="5" fill="#515B51" />
<rect x="290" y="540" width="5" height="265" fill="#111111" />
<rect x="505" y="540" width="10" height="265" fill="#111111" />
<rect x="515" y="540" width="145" height="5" fill="#515B51" />
<rect x="125" y="545" width="160" height="5" fill="#515B51" />
<rect x="285" y="545" width="5" height="260" fill="#111111" />
<rect x="515" y="545" width="5" height="260" fill="#111111" />
<rect x="520" y="545" width="140" height="5" fill="#515B51" />
<rect x="125" y="550" width="155" height="5" fill="#515B51" />
<rect x="280" y="550" width="5" height="255" fill="#111111" />
<rect x="520" y="550" width="5" height="255" fill="#111111" />
<rect x="525" y="550" width="5" height="5" fill="#252825" />
<rect x="530" y="550" width="130" height="5" fill="#515B51" />
<rect x="125" y="555" width="150" height="10" fill="#515B51" />
<rect x="275" y="555" width="5" height="5" fill="#151615" />
<rect x="525" y="555" width="10" height="250" fill="#111111" />
<rect x="535" y="555" width="125" height="5" fill="#515B51" />
<rect x="275" y="560" width="5" height="245" fill="#111111" />
<rect x="535" y="560" width="5" height="245" fill="#111111" />
<rect x="540" y="560" width="120" height="5" fill="#515B51" />
<rect x="125" y="565" width="145" height="5" fill="#515B51" />
<rect x="270" y="565" width="5" height="240" fill="#111111" />
<rect x="540" y="565" width="5" height="240" fill="#111111" />
<rect x="545" y="565" width="5" height="5" fill="#495249" />
<rect x="550" y="565" width="110" height="5" fill="#515B51" />
<rect x="125" y="570" width="140" height="5" fill="#515B51" />
<rect x="265" y="570" width="5" height="235" fill="#111111" />
<rect x="545" y="570" width="10" height="235" fill="#111111" />
<rect x="555" y="570" width="105" height="5" fill="#515B51" />
<rect x="125" y="575" width="135" height="5" fill="#515B51" />
<rect x="260" y="575" width="5" height="230" fill="#111111" />
<rect x="555" y="575" width="5" height="230" fill="#111111" />
<rect x="560" y="575" width="100" height="5" fill="#515B51" />
<rect x="125" y="580" width="130" height="5" fill="#515B51" />
<rect x="255" y="580" width="5" height="225" fill="#111111" />
<rect x="560" y="580" width="5" height="225" fill="#111111" />
<rect x="565" y="580" width="5" height="5" fill="#313631" />
<rect x="570" y="580" width="90" height="5" fill="#515B51" />
<rect x="125" y="585" width="125" height="5" fill="#515B51" />
<rect x="250" y="585" width="5" height="220" fill="#111111" />
<rect x="565" y="585" width="10" height="220" fill="#111111" />
<rect x="575" y="585" width="85" height="5" fill="#515B51" />
<rect x="125" y="590" width="120" height="10" fill="#515B51" />
<rect x="245" y="590" width="5" height="5" fill="#212421" />
<rect x="575" y="590" width="5" height="215" fill="#111111" />
<rect x="580" y="590" width="80" height="5" fill="#515B51" />
<rect x="245" y="595" width="5" height="210" fill="#111111" />
<rect x="580" y="595" width="5" height="210" fill="#111111" />
<rect x="585" y="595" width="5" height="5" fill="#4D564D" />
<rect x="590" y="595" width="70" height="210" fill="#515B51" />
<rect x="125" y="600" width="115" height="5" fill="#515B51" />
<rect x="240" y="600" width="5" height="205" fill="#111111" />
<rect x="585" y="600" width="5" height="205" fill="#111111" />
<rect x="125" y="605" width="110" height="200" fill="#515B51" />
<rect x="235" y="605" width="5" height="200" fill="#111111" />
<rect x="305" y="645" width="5" height="5" fill="#111111" />
<rect x="325" y="645" width="160" height="5" fill="#111111" />
<rect x="330" y="650" width="155" height="5" fill="#111111" />
<rect x="335" y="655" width="150" height="150" fill="#111111" />
<rect x="330" y="660" width="5" height="145" fill="#111111" />
<rect x="305" y="665" width="5" height="140" fill="#111111" />
<rect x="310" y="670" width="20" height="135" fill="#111111" />
</svg>