<?xml version="1.0" encoding="UTF-8" ?>
<svg version="1.1" width="600" height="1405" xmlns="http://www.w3.org/2000/svg" shape-rendering="crispEdges">
<rect x="0" y="0" width="505" height="30" fill="#F930EF" />
<rect x="505" y="0" width="5" height="30" fill="#7E43A1" />
<rect x="0" y="30" width="505" height="40" fill="#434E54" />
<rect x="505" y="30" width="5" height="1245" fill="#514A7A" />
<rect x="0" y="70" width="30" height="140" fill="#434E54" />
<rect x="30" y="70" width="170" height="125" fill="#C06DCC" />
<rect x="200" y="70" width="5" height="125" fill="#625672" />
<rect x="205" y="70" width="85" height="140" fill="#434E54" />
<rect x="290" y="70" width="170" height="125" fill="#7A98C4" />
<rect x="460" y="70" width="45" height="140" fill="#434E54" />
<rect x="30" y="195" width="175" height="15" fill="#434E54" />
<rect x="290" y="195" width="170" height="15" fill="#434E54" />
<rect x="0" y="210" width="5" height="30" fill="#CC38C8" />
<rect x="5" y="210" width="500" height="30" fill="#F930EF" />
<rect x="0" y="240" width="505" height="15" fill="#434E54" />
<rect x="0" y="255" width="30" height="185" fill="#434E54" />
<rect x="30" y="255" width="170" height="120" fill="#C679C2" />
<rect x="200" y="255" width="5" height="120" fill="#645970" />
<rect x="205" y="255" width="85" height="740" fill="#434E54" />
<rect x="290" y="255" width="170" height="120" fill="#C06DCC" />
<rect x="460" y="255" width="45" height="1020" fill="#434E54" />
<rect x="30" y="375" width="170" height="5" fill="#645970" />
<rect x="200" y="375" width="5" height="5" fill="#4B515B" />
<rect x="290" y="375" width="170" height="5" fill="#625672" />
<rect x="30" y="380" width="175" height="60" fill="#434E54" />
<rect x="290" y="380" width="170" height="60" fill="#434E54" />
<rect x="0" y="440" width="30" height="40" fill="#F930EF" />
<rect x="30" y="440" width="170" height="120" fill="#C06DCC" />
<rect x="200" y="440" width="5" height="120" fill="#625672" />
<rect x="290" y="440" width="170" height="120" fill="#7A98C4" />
<rect x="0" y="480" width="30" height="795" fill="#434E54" />
<rect x="30" y="560" width="170" height="5" fill="#625672" />
<rect x="200" y="560" width="5" height="5" fill="#4B505C" />
<rect x="290" y="560" width="170" height="5" fill="#516170" />
<rect x="30" y="565" width="175" height="50" fill="#434E54" />
<rect x="290" y="565" width="170" height="50" fill="#434E54" />
<rect x="30" y="615" width="170" height="125" fill="#7A98C4" />
<rect x="200" y="615" width="5" height="125" fill="#516170" />
<rect x="290" y="615" width="170" height="125" fill="#7A98C4" />
<rect x="30" y="740" width="175" height="85" fill="#434E54" />
<rect x="290" y="740" width="170" height="85" fill="#434E54" />
<rect x="30" y="825" width="170" height="125" fill="#C679C2" />
<rect x="200" y="825" width="5" height="125" fill="#645970" />
<rect x="290" y="825" width="170" height="125" fill="#C06DCC" />
<rect x="30" y="950" width="175" height="45" fill="#434E54" />
<rect x="290" y="950" width="170" height="45" fill="#434E54" />
<rect x="30" y="995" width="110" height="280" fill="#434E54" />
<rect x="140" y="995" width="225" height="280" fill="#2D2C2B" />
<rect x="365" y="995" width="5" height="280" fill="#3E464A" />
<rect x="370" y="995" width="90" height="280" fill="#434E54" />
<rect x="0" y="1275" width="5" height="5" fill="#64686A" />
<rect x="5" y="1275" width="500" height="5" fill="#6A6D6E" />
<rect x="505" y="1275" width="5" height="5" fill="#747475" />
</svg>