<?xml version="1.0" encoding="UTF-8" ?>
<svg version="1.1" width="2500" height="2500" xmlns="http://www.w3.org/2000/svg" shape-rendering="crispEdges">
<rect x="0" y="0" width="815" height="10" fill="#662D66" />
<rect x="0" y="10" width="10" height="520" fill="#662D66" />
<rect x="10" y="10" width="800" height="15" fill="#664D66" />
<rect x="810" y="10" width="5" height="520" fill="#662D66" />
<rect x="10" y="25" width="490" height="5" fill="#664D66" />
<rect x="500" y="25" width="5" height="5" fill="#663166" />
<rect x="505" y="25" width="5" height="25" fill="#662D66" />
<rect x="510" y="25" width="50" height="10" fill="#664D66" />
<rect x="560" y="25" width="5" height="15" fill="#662D66" />
<rect x="565" y="25" width="5" height="5" fill="#664066" />
<rect x="570" y="25" width="240" height="10" fill="#664D66" />
<rect x="10" y="30" width="25" height="5" fill="#664D66" />
<rect x="35" y="30" width="120" height="10" fill="#662D66" />
<rect x="155" y="30" width="5" height="10" fill="#664066" />
<rect x="160" y="30" width="340" height="5" fill="#664D66" />
<rect x="500" y="30" width="5" height="15" fill="#662D66" />
<rect x="565" y="30" width="5" height="15" fill="#662D66" />
<rect x="10" y="35" width="20" height="490" fill="#664D66" />
<rect x="30" y="35" width="5" height="135" fill="#662D66" />
<rect x="160" y="35" width="335" height="10" fill="#664D66" />
<rect x="495" y="35" width="5" height="5" fill="#664066" />
<rect x="510" y="35" width="45" height="5" fill="#664D66" />
<rect x="555" y="35" width="5" height="5" fill="#662F66" />
<rect x="570" y="35" width="5" height="5" fill="#663666" />
<rect x="575" y="35" width="235" height="10" fill="#664D66" />
<rect x="35" y="40" width="125" height="5" fill="#664D66" />
<rect x="495" y="40" width="5" height="15" fill="#662D66" />
<rect x="510" y="40" width="5" height="5" fill="#663F66" />
<rect x="515" y="40" width="40" height="5" fill="#664D66" />
<rect x="555" y="40" width="5" height="15" fill="#662D66" />
<rect x="560" y="40" width="5" height="5" fill="#662F66" />
<rect x="570" y="40" width="5" height="10" fill="#662D66" />
<rect x="35" y="45" width="20" height="5" fill="#664D66" />
<rect x="55" y="45" width="5" height="5" fill="#654D65" />
<rect x="60" y="45" width="5" height="10" fill="#4D4D4D" />
<rect x="65" y="45" width="5" height="5" fill="#5C4D5C" />
<rect x="70" y="45" width="420" height="5" fill="#664D66" />
<rect x="490" y="45" width="5" height="5" fill="#663F66" />
<rect x="500" y="45" width="5" height="375" fill="#664D66" />
<rect x="510" y="45" width="5" height="20" fill="#662D66" />
<rect x="515" y="45" width="35" height="10" fill="#664D66" />
<rect x="550" y="45" width="5" height="15" fill="#662D66" />
<rect x="560" y="45" width="10" height="360" fill="#664D66" />
<rect x="575" y="45" width="5" height="15" fill="#662D66" />
<rect x="580" y="45" width="230" height="5" fill="#664D66" />
<rect x="35" y="50" width="15" height="5" fill="#664D66" />
<rect x="50" y="50" width="10" height="5" fill="#4D4D4D" />
<rect x="65" y="50" width="10" height="5" fill="#4D4D4D" />
<rect x="75" y="50" width="415" height="5" fill="#664D66" />
<rect x="490" y="50" width="5" height="15" fill="#662D66" />
<rect x="505" y="50" width="5" height="380" fill="#664D66" />
<rect x="570" y="50" width="5" height="5" fill="#663066" />
<rect x="580" y="50" width="165" height="5" fill="#664D66" />
<rect x="745" y="50" width="5" height="5" fill="#5E4D5E" />
<rect x="750" y="50" width="5" height="10" fill="#4D4D4D" />
<rect x="755" y="50" width="5" height="5" fill="#584D58" />
<rect x="760" y="50" width="50" height="5" fill="#664D66" />
<rect x="35" y="55" width="10" height="470" fill="#664D66" />
<rect x="45" y="55" width="5" height="5" fill="#544D54" />
<rect x="50" y="55" width="5" height="10" fill="#4D4D4D" />
<rect x="55" y="55" width="5" height="5" fill="#565656" />
<rect x="60" y="55" width="10" height="25" fill="#666666" />
<rect x="70" y="55" width="10" height="5" fill="#4D4D4D" />
<rect x="80" y="55" width="405" height="5" fill="#664D66" />
<rect x="485" y="55" width="5" height="5" fill="#663E66" />
<rect x="495" y="55" width="5" height="360" fill="#664D66" />
<rect x="515" y="55" width="5" height="5" fill="#663466" />
<rect x="520" y="55" width="25" height="10" fill="#664D66" />
<rect x="545" y="55" width="5" height="15" fill="#662D66" />
<rect x="555" y="55" width="5" height="350" fill="#664D66" />
<rect x="570" y="55" width="5" height="350" fill="#664D66" />
<rect x="580" y="55" width="5" height="10" fill="#662D66" />
<rect x="585" y="55" width="45" height="5" fill="#663A66" />
<rect x="630" y="55" width="35" height="5" fill="#664D66" />
<rect x="665" y="55" width="5" height="5" fill="#664666" />
<rect x="670" y="55" width="50" height="5" fill="#663A66" />
<rect x="720" y="55" width="20" height="5" fill="#664D66" />
<rect x="740" y="55" width="10" height="5" fill="#4D4D4D" />
<rect x="755" y="55" width="10" height="5" fill="#4D4D4D" />
<rect x="765" y="55" width="45" height="5" fill="#664D66" />
<rect x="45" y="60" width="5" height="20" fill="#4D4D4D" />
<rect x="55" y="60" width="5" height="20" fill="#666666" />
<rect x="70" y="60" width="5" height="5" fill="#575757" />
<rect x="75" y="60" width="5" height="20" fill="#4D4D4D" />
<rect x="80" y="60" width="380" height="75" fill="#664D66" />
<rect x="460" y="60" width="25" height="5" fill="#663366" />
<rect x="485" y="60" width="5" height="10" fill="#662D66" />
<rect x="515" y="60" width="5" height="20" fill="#662D66" />
<rect x="550" y="60" width="5" height="5" fill="#662E66" />
<rect x="575" y="60" width="5" height="5" fill="#664A66" />
<rect x="585" y="60" width="45" height="5" fill="#662D66" />
<rect x="630" y="60" width="5" height="5" fill="#663B66" />
<rect x="635" y="60" width="30" height="5" fill="#664D66" />
<rect x="665" y="60" width="55" height="5" fill="#662D66" />
<rect x="720" y="60" width="15" height="440" fill="#664D66" />
<rect x="735" y="60" width="5" height="5" fill="#4E4D4E" />
<rect x="740" y="60" width="5" height="10" fill="#4D4D4D" />
<rect x="745" y="60" width="5" height="5" fill="#606060" />
<rect x="750" y="60" width="10" height="25" fill="#666666" />
<rect x="760" y="60" width="10" height="5" fill="#4D4D4D" />
<rect x="770" y="60" width="40" height="245" fill="#664D66" />
<rect x="50" y="65" width="5" height="5" fill="#545454" />
<rect x="70" y="65" width="5" height="10" fill="#666666" />
<rect x="460" y="65" width="25" height="5" fill="#662D66" />
<rect x="490" y="65" width="5" height="5" fill="#664C66" />
<rect x="510" y="65" width="5" height="5" fill="#664366" />
<rect x="520" y="65" width="20" height="5" fill="#664D66" />
<rect x="540" y="65" width="5" height="5" fill="#664866" />
<rect x="550" y="65" width="5" height="340" fill="#664D66" />
<rect x="575" y="65" width="5" height="340" fill="#664D66" />
<rect x="580" y="65" width="45" height="5" fill="#664966" />
<rect x="625" y="65" width="10" height="5" fill="#662D66" />
<rect x="635" y="65" width="25" height="5" fill="#664D66" />
<rect x="660" y="65" width="5" height="5" fill="#664166" />
<rect x="665" y="65" width="5" height="10" fill="#662D66" />
<rect x="670" y="65" width="50" height="5" fill="#664966" />
<rect x="735" y="65" width="5" height="20" fill="#4D4D4D" />
<rect x="745" y="65" width="5" height="20" fill="#666666" />
<rect x="760" y="65" width="5" height="5" fill="#555555" />
<rect x="765" y="65" width="5" height="20" fill="#4D4D4D" />
<rect x="50" y="70" width="5" height="15" fill="#4D4D4D" />
<rect x="460" y="70" width="35" height="340" fill="#664D66" />
<rect x="510" y="70" width="5" height="370" fill="#664D66" />
<rect x="520" y="70" width="5" height="5" fill="#662E66" />
<rect x="525" y="70" width="15" height="5" fill="#664D66" />
<rect x="540" y="70" width="5" height="15" fill="#662D66" />
<rect x="545" y="70" width="5" height="5" fill="#663266" />
<rect x="580" y="70" width="50" height="335" fill="#664D66" />
<rect x="630" y="70" width="5" height="10" fill="#662D66" />
<rect x="635" y="70" width="5" height="5" fill="#663066" />
<rect x="640" y="70" width="20" height="5" fill="#664D66" />
<rect x="660" y="70" width="5" height="15" fill="#662D66" />
<rect x="670" y="70" width="50" height="430" fill="#664D66" />
<rect x="740" y="70" width="5" height="5" fill="#5D5D5D" />
<rect x="760" y="70" width="5" height="5" fill="#666666" />
<rect x="70" y="75" width="5" height="10" fill="#4D4D4D" />
<rect x="520" y="75" width="5" height="20" fill="#662D66" />
<rect x="525" y="75" width="10" height="10" fill="#664D66" />
<rect x="535" y="75" width="5" height="5" fill="#663D66" />
<rect x="545" y="75" width="5" height="330" fill="#664D66" />
<rect x="635" y="75" width="5" height="15" fill="#662D66" />
<rect x="640" y="75" width="15" height="5" fill="#664D66" />
<rect x="655" y="75" width="5" height="15" fill="#662D66" />
<rect x="665" y="75" width="5" height="425" fill="#664D66" />
<rect x="740" y="75" width="5" height="15" fill="#4D4D4D" />
<rect x="760" y="75" width="5" height="5" fill="#626262" />
<rect x="45" y="80" width="5" height="445" fill="#664D66" />
<rect x="55" y="80" width="15" height="10" fill="#4D4D4D" />
<rect x="75" y="80" width="5" height="5" fill="#594D59" />
<rect x="515" y="80" width="5" height="5" fill="#664B66" />
<rect x="535" y="80" width="5" height="15" fill="#662D66" />
<rect x="630" y="80" width="5" height="445" fill="#664D66" />
<rect x="640" y="80" width="5" height="5" fill="#663666" />
<rect x="645" y="80" width="10" height="5" fill="#664D66" />
<rect x="760" y="80" width="5" height="10" fill="#4D4D4D" />
<rect x="50" y="85" width="5" height="5" fill="#644D64" />
<rect x="70" y="85" width="5" height="5" fill="#504D50" />
<rect x="75" y="85" width="5" height="365" fill="#664D66" />
<rect x="515" y="85" width="5" height="350" fill="#664D66" />
<rect x="525" y="85" width="5" height="5" fill="#663066" />
<rect x="530" y="85" width="5" height="5" fill="#664466" />
<rect x="540" y="85" width="5" height="320" fill="#664D66" />
<rect x="640" y="85" width="5" height="15" fill="#662D66" />
<rect x="645" y="85" width="5" height="5" fill="#664D66" />
<rect x="650" y="85" width="5" height="15" fill="#662D66" />
<rect x="660" y="85" width="5" height="415" fill="#664D66" />
<rect x="735" y="85" width="5" height="370" fill="#664D66" />
<rect x="745" y="85" width="15" height="10" fill="#4D4D4D" />
<rect x="765" y="85" width="5" height="5" fill="#624D62" />
<rect x="50" y="90" width="25" height="360" fill="#664D66" />
<rect x="525" y="90" width="10" height="15" fill="#662D66" />
<rect x="635" y="90" width="5" height="435" fill="#664D66" />
<rect x="645" y="90" width="5" height="5" fill="#664966" />
<rect x="655" y="90" width="5" height="5" fill="#663966" />
<rect x="740" y="90" width="5" height="360" fill="#664D66" />
<rect x="760" y="90" width="10" height="355" fill="#664D66" />
<rect x="520" y="95" width="5" height="330" fill="#664D66" />
<rect x="535" y="95" width="5" height="310" fill="#664D66" />
<rect x="645" y="95" width="5" height="15" fill="#662D66" />
<rect x="655" y="95" width="5" height="405" fill="#664D66" />
<rect x="745" y="95" width="15" height="350" fill="#664D66" />
<rect x="640" y="100" width="5" height="425" fill="#664D66" />
<rect x="650" y="100" width="5" height="5" fill="#663E66" />
<rect x="525" y="105" width="5" height="5" fill="#662E66" />
<rect x="530" y="105" width="5" height="305" fill="#664D66" />
<rect x="650" y="105" width="5" height="420" fill="#664D66" />
<rect x="525" y="110" width="5" height="310" fill="#664D66" />
<rect x="645" y="110" width="5" height="415" fill="#664D66" />
<rect x="80" y="135" width="50" height="10" fill="#664D66" />
<rect x="130" y="135" width="5" height="5" fill="#662F66" />
<rect x="135" y="135" width="55" height="5" fill="#664D66" />
<rect x="190" y="135" width="5" height="15" fill="#662D66" />
<rect x="195" y="135" width="265" height="5" fill="#664D66" />
<rect x="130" y="140" width="10" height="15" fill="#662D66" />
<rect x="140" y="140" width="50" height="5" fill="#664D66" />
<rect x="195" y="140" width="5" height="15" fill="#662D66" />
<rect x="200" y="140" width="260" height="10" fill="#664D66" />
<rect x="80" y="145" width="45" height="10" fill="#664D66" />
<rect x="125" y="145" width="5" height="5" fill="#662F66" />
<rect x="140" y="145" width="45" height="10" fill="#664D66" />
<rect x="185" y="145" width="5" height="15" fill="#662D66" />
<rect x="125" y="150" width="5" height="15" fill="#662D66" />
<rect x="190" y="150" width="5" height="5" fill="#663066" />
<rect x="200" y="150" width="5" height="15" fill="#662D66" />
<rect x="205" y="150" width="255" height="5" fill="#664D66" />
<rect x="80" y="155" width="40" height="10" fill="#664D66" />
<rect x="120" y="155" width="5" height="5" fill="#662F66" />
<rect x="130" y="155" width="5" height="255" fill="#664D66" />
<rect x="135" y="155" width="10" height="5" fill="#662D66" />
<rect x="145" y="155" width="35" height="10" fill="#664D66" />
<rect x="180" y="155" width="5" height="15" fill="#662D66" />
<rect x="190" y="155" width="10" height="260" fill="#664D66" />
<rect x="205" y="155" width="5" height="5" fill="#663F66" />
<rect x="210" y="155" width="250" height="10" fill="#664D66" />
<rect x="120" y="160" width="5" height="15" fill="#662D66" />
<rect x="135" y="160" width="5" height="5" fill="#662F66" />
<rect x="140" y="160" width="5" height="15" fill="#662D66" />
<rect x="185" y="160" width="5" height="5" fill="#663466" />
<rect x="205" y="160" width="5" height="15" fill="#662D66" />
<rect x="80" y="165" width="35" height="5" fill="#664D66" />
<rect x="115" y="165" width="5" height="5" fill="#663C66" />
<rect x="125" y="165" width="5" height="250" fill="#664D66" />
<rect x="135" y="165" width="5" height="235" fill="#664D66" />
<rect x="145" y="165" width="5" height="5" fill="#664B66" />
<rect x="150" y="165" width="25" height="10" fill="#664D66" />
<rect x="175" y="165" width="5" height="15" fill="#662D66" />
<rect x="185" y="165" width="5" height="250" fill="#664D66" />
<rect x="200" y="165" width="5" height="250" fill="#664D66" />
<rect x="210" y="165" width="5" height="5" fill="#663666" />
<rect x="215" y="165" width="245" height="5" fill="#664D66" />
<rect x="30" y="170" width="5" height="355" fill="#664D66" />
<rect x="80" y="170" width="10" height="285" fill="#664D66" />
<rect x="90" y="170" width="30" height="10" fill="#662D66" />
<rect x="145" y="170" width="5" height="20" fill="#662D66" />
<rect x="180" y="170" width="5" height="5" fill="#663A66" />
<rect x="210" y="170" width="50" height="5" fill="#662D66" />
<rect x="260" y="170" width="5" height="5" fill="#664366" />
<rect x="265" y="170" width="30" height="5" fill="#664D66" />
<rect x="295" y="170" width="55" height="5" fill="#662D66" />
<rect x="350" y="170" width="110" height="245" fill="#664D66" />
<rect x="120" y="175" width="5" height="240" fill="#664D66" />
<rect x="140" y="175" width="5" height="5" fill="#663866" />
<rect x="150" y="175" width="20" height="5" fill="#664D66" />
<rect x="170" y="175" width="5" height="15" fill="#662D66" />
<rect x="180" y="175" width="5" height="230" fill="#664D66" />
<rect x="205" y="175" width="50" height="235" fill="#664D66" />
<rect x="255" y="175" width="10" height="5" fill="#662D66" />
<rect x="265" y="175" width="25" height="5" fill="#664D66" />
<rect x="290" y="175" width="5" height="5" fill="#663066" />
<rect x="295" y="175" width="5" height="10" fill="#662D66" />
<rect x="300" y="175" width="50" height="185" fill="#664D66" />
<rect x="90" y="180" width="30" height="235" fill="#664D66" />
<rect x="140" y="180" width="5" height="215" fill="#664D66" />
<rect x="150" y="180" width="5" height="5" fill="#664266" />
<rect x="155" y="180" width="15" height="5" fill="#664D66" />
<rect x="175" y="180" width="5" height="5" fill="#663266" />
<rect x="255" y="180" width="5" height="5" fill="#664C66" />
<rect x="260" y="180" width="5" height="10" fill="#662D66" />
<rect x="265" y="180" width="5" height="5" fill="#664966" />
<rect x="270" y="180" width="20" height="5" fill="#664D66" />
<rect x="290" y="180" width="5" height="10" fill="#662D66" />
<rect x="150" y="185" width="5" height="20" fill="#662D66" />
<rect x="155" y="185" width="10" height="10" fill="#664D66" />
<rect x="165" y="185" width="5" height="5" fill="#663C66" />
<rect x="175" y="185" width="5" height="215" fill="#664D66" />
<rect x="255" y="185" width="5" height="210" fill="#664D66" />
<rect x="265" y="185" width="5" height="15" fill="#662D66" />
<rect x="270" y="185" width="15" height="10" fill="#664D66" />
<rect x="285" y="185" width="5" height="15" fill="#662D66" />
<rect x="295" y="185" width="5" height="165" fill="#664D66" />
<rect x="145" y="190" width="5" height="5" fill="#664266" />
<rect x="165" y="190" width="5" height="15" fill="#662D66" />
<rect x="170" y="190" width="5" height="5" fill="#663D66" />
<rect x="260" y="190" width="5" height="195" fill="#664D66" />
<rect x="290" y="190" width="5" height="5" fill="#663466" />
<rect x="145" y="195" width="5" height="190" fill="#664D66" />
<rect x="155" y="195" width="5" height="5" fill="#663866" />
<rect x="160" y="195" width="5" height="5" fill="#663166" />
<rect x="170" y="195" width="5" height="200" fill="#664D66" />
<rect x="270" y="195" width="5" height="15" fill="#662D66" />
<rect x="275" y="195" width="5" height="10" fill="#664D66" />
<rect x="280" y="195" width="5" height="15" fill="#662D66" />
<rect x="290" y="195" width="5" height="145" fill="#664D66" />
<rect x="155" y="200" width="10" height="15" fill="#662D66" />
<rect x="265" y="200" width="5" height="170" fill="#664D66" />
<rect x="285" y="200" width="5" height="5" fill="#663866" />
<rect x="150" y="205" width="5" height="5" fill="#664B66" />
<rect x="165" y="205" width="5" height="180" fill="#664D66" />
<rect x="275" y="205" width="5" height="15" fill="#662D66" />
<rect x="285" y="205" width="5" height="120" fill="#664D66" />
<rect x="150" y="210" width="5" height="170" fill="#664D66" />
<rect x="270" y="210" width="5" height="5" fill="#664166" />
<rect x="280" y="210" width="5" height="5" fill="#664C66" />
<rect x="155" y="215" width="5" height="5" fill="#662D66" />
<rect x="160" y="215" width="5" height="165" fill="#664D66" />
<rect x="270" y="215" width="5" height="140" fill="#664D66" />
<rect x="280" y="215" width="5" height="115" fill="#664D66" />
<rect x="155" y="220" width="5" height="150" fill="#664D66" />
<rect x="275" y="220" width="5" height="120" fill="#664D66" />
<rect x="770" y="305" width="5" height="195" fill="#664D66" />
<rect x="775" y="305" width="5" height="195" fill="#664266" />
<rect x="780" y="305" width="5" height="200" fill="#662D66" />
<rect x="785" y="305" width="25" height="220" fill="#664D66" />
<rect x="285" y="325" width="5" height="5" fill="#664066" />
<rect x="280" y="330" width="10" height="15" fill="#662D66" />
<rect x="275" y="340" width="5" height="5" fill="#664366" />
<rect x="290" y="340" width="5" height="20" fill="#662D66" />
<rect x="275" y="345" width="10" height="5" fill="#662D66" />
<rect x="285" y="345" width="5" height="5" fill="#663266" />
<rect x="275" y="350" width="5" height="15" fill="#662D66" />
<rect x="280" y="350" width="5" height="5" fill="#663B66" />
<rect x="285" y="350" width="5" height="45" fill="#664D66" />
<rect x="295" y="350" width="5" height="5" fill="#663466" />
<rect x="270" y="355" width="5" height="5" fill="#662E66" />
<rect x="280" y="355" width="5" height="45" fill="#664D66" />
<rect x="295" y="355" width="5" height="15" fill="#662D66" />
<rect x="270" y="360" width="5" height="15" fill="#662D66" />
<rect x="290" y="360" width="5" height="40" fill="#664D66" />
<rect x="300" y="360" width="5" height="5" fill="#664766" />
<rect x="305" y="360" width="45" height="15" fill="#664D66" />
<rect x="275" y="365" width="5" height="45" fill="#664D66" />
<rect x="300" y="365" width="5" height="15" fill="#662D66" />
<rect x="155" y="370" width="5" height="5" fill="#663066" />
<rect x="265" y="370" width="5" height="5" fill="#662F66" />
<rect x="295" y="370" width="5" height="5" fill="#664C66" />
<rect x="155" y="375" width="5" height="10" fill="#662D66" />
<rect x="265" y="375" width="5" height="15" fill="#662D66" />
<rect x="270" y="375" width="5" height="5" fill="#663566" />
<rect x="295" y="375" width="5" height="35" fill="#664D66" />
<rect x="305" y="375" width="5" height="5" fill="#663966" />
<rect x="310" y="375" width="40" height="10" fill="#664D66" />
<rect x="150" y="380" width="5" height="15" fill="#662D66" />
<rect x="160" y="380" width="5" height="10" fill="#662D66" />
<rect x="270" y="380" width="5" height="40" fill="#664D66" />
<rect x="300" y="380" width="5" height="5" fill="#662F66" />
<rect x="305" y="380" width="5" height="15" fill="#662D66" />
<rect x="145" y="385" width="5" height="5" fill="#662E66" />
<rect x="155" y="385" width="5" height="140" fill="#664D66" />
<rect x="165" y="385" width="5" height="15" fill="#662D66" />
<rect x="260" y="385" width="5" height="20" fill="#662D66" />
<rect x="300" y="385" width="5" height="35" fill="#664D66" />
<rect x="310" y="385" width="5" height="5" fill="#664A66" />
<rect x="315" y="385" width="35" height="15" fill="#664D66" />
<rect x="145" y="390" width="5" height="10" fill="#662D66" />
<rect x="160" y="390" width="5" height="5" fill="#663066" />
<rect x="265" y="390" width="5" height="5" fill="#663266" />
<rect x="310" y="390" width="5" height="20" fill="#662D66" />
<rect x="140" y="395" width="5" height="15" fill="#662D66" />
<rect x="150" y="395" width="5" height="130" fill="#664D66" />
<rect x="160" y="395" width="5" height="130" fill="#664D66" />
<rect x="170" y="395" width="5" height="15" fill="#662D66" />
<rect x="255" y="395" width="5" height="5" fill="#664166" />
<rect x="265" y="395" width="5" height="35" fill="#664D66" />
<rect x="285" y="395" width="5" height="15" fill="#662D66" />
<rect x="305" y="395" width="5" height="5" fill="#663A66" />
<rect x="135" y="400" width="5" height="5" fill="#664966" />
<rect x="145" y="400" width="5" height="5" fill="#663B66" />
<rect x="165" y="400" width="5" height="125" fill="#664D66" />
<rect x="175" y="400" width="5" height="5" fill="#663966" />
<rect x="255" y="400" width="5" height="20" fill="#662D66" />
<rect x="280" y="400" width="5" height="5" fill="#664C66" />
<rect x="290" y="400" width="5" height="5" fill="#664C66" />
<rect x="305" y="400" width="5" height="35" fill="#664D66" />
<rect x="315" y="400" width="5" height="5" fill="#662F66" />
<rect x="320" y="400" width="30" height="10" fill="#664D66" />
<rect x="135" y="405" width="5" height="10" fill="#662D66" />
<rect x="145" y="405" width="5" height="120" fill="#664D66" />
<rect x="175" y="405" width="5" height="10" fill="#662D66" />
<rect x="180" y="405" width="5" height="5" fill="#664C66" />
<rect x="260" y="405" width="5" height="5" fill="#664B66" />
<rect x="280" y="405" width="5" height="15" fill="#662D66" />
<rect x="290" y="405" width="5" height="15" fill="#662D66" />
<rect x="315" y="405" width="5" height="15" fill="#662D66" />
<rect x="535" y="405" width="30" height="10" fill="#662D66" />
<rect x="565" y="405" width="5" height="5" fill="#662F66" />
<rect x="570" y="405" width="5" height="5" fill="#663166" />
<rect x="575" y="405" width="5" height="5" fill="#663366" />
<rect x="580" y="405" width="5" height="5" fill="#663766" />
<rect x="585" y="405" width="5" height="5" fill="#663966" />
<rect x="590" y="405" width="5" height="5" fill="#663B66" />
<rect x="595" y="405" width="5" height="5" fill="#663E66" />
<rect x="600" y="405" width="5" height="5" fill="#664066" />
<rect x="605" y="405" width="5" height="5" fill="#664266" />
<rect x="610" y="405" width="5" height="5" fill="#664466" />
<rect x="615" y="405" width="5" height="5" fill="#664766" />
<rect x="620" y="405" width="5" height="5" fill="#664966" />
<rect x="625" y="405" width="5" height="120" fill="#664D66" />
<rect x="130" y="410" width="5" height="5" fill="#663466" />
<rect x="140" y="410" width="5" height="115" fill="#664D66" />
<rect x="170" y="410" width="5" height="115" fill="#664D66" />
<rect x="180" y="410" width="5" height="10" fill="#662D66" />
<rect x="205" y="410" width="45" height="5" fill="#664D66" />
<rect x="250" y="410" width="5" height="15" fill="#662D66" />
<rect x="260" y="410" width="5" height="30" fill="#664D66" />
<rect x="275" y="410" width="5" height="5" fill="#663E66" />
<rect x="285" y="410" width="5" height="5" fill="#664C66" />
<rect x="295" y="410" width="5" height="5" fill="#664B66" />
<rect x="310" y="410" width="5" height="35" fill="#664D66" />
<rect x="320" y="410" width="5" height="5" fill="#663E66" />
<rect x="325" y="410" width="25" height="5" fill="#664D66" />
<rect x="460" y="410" width="15" height="5" fill="#664D66" />
<rect x="475" y="410" width="5" height="5" fill="#664B66" />
<rect x="480" y="410" width="5" height="5" fill="#664966" />
<rect x="485" y="410" width="5" height="5" fill="#664766" />
<rect x="490" y="410" width="5" height="5" fill="#664366" />
<rect x="530" y="410" width="5" height="5" fill="#662F66" />
<rect x="565" y="410" width="60" height="5" fill="#662D66" />
<rect x="90" y="415" width="5" height="110" fill="#664D66" />
<rect x="95" y="415" width="40" height="10" fill="#662D66" />
<rect x="135" y="415" width="5" height="5" fill="#663266" />
<rect x="175" y="415" width="5" height="110" fill="#664D66" />
<rect x="185" y="415" width="65" height="10" fill="#662D66" />
<rect x="275" y="415" width="5" height="15" fill="#662D66" />
<rect x="285" y="415" width="5" height="110" fill="#664D66" />
<rect x="295" y="415" width="5" height="15" fill="#662D66" />
<rect x="320" y="415" width="60" height="10" fill="#662D66" />
<rect x="380" y="415" width="60" height="5" fill="#664D66" />
<rect x="440" y="415" width="60" height="5" fill="#662D66" />
<rect x="530" y="415" width="10" height="5" fill="#662D66" />
<rect x="540" y="415" width="45" height="45" fill="#664D66" />
<rect x="585" y="415" width="5" height="5" fill="#664A66" />
<rect x="590" y="415" width="5" height="5" fill="#664766" />
<rect x="595" y="415" width="5" height="5" fill="#664566" />
<rect x="600" y="415" width="5" height="5" fill="#664366" />
<rect x="605" y="415" width="5" height="5" fill="#664066" />
<rect x="610" y="415" width="5" height="5" fill="#663E66" />
<rect x="615" y="415" width="5" height="5" fill="#663C66" />
<rect x="620" y="415" width="5" height="5" fill="#663A66" />
<rect x="135" y="420" width="5" height="105" fill="#664D66" />
<rect x="180" y="420" width="5" height="5" fill="#663C66" />
<rect x="255" y="420" width="5" height="30" fill="#664D66" />
<rect x="270" y="420" width="5" height="5" fill="#662F66" />
<rect x="280" y="420" width="5" height="105" fill="#664D66" />
<rect x="290" y="420" width="5" height="105" fill="#664D66" />
<rect x="300" y="420" width="5" height="5" fill="#664966" />
<rect x="315" y="420" width="5" height="35" fill="#664D66" />
<rect x="380" y="420" width="5" height="15" fill="#662D66" />
<rect x="385" y="420" width="50" height="5" fill="#664D66" />
<rect x="435" y="420" width="10" height="5" fill="#662D66" />
<rect x="445" y="420" width="5" height="5" fill="#664766" />
<rect x="450" y="420" width="5" height="5" fill="#664A66" />
<rect x="455" y="420" width="35" height="40" fill="#664D66" />
<rect x="490" y="420" width="5" height="5" fill="#664966" />
<rect x="495" y="420" width="5" height="10" fill="#662D66" />
<rect x="500" y="420" width="5" height="5" fill="#664266" />
<rect x="525" y="420" width="10" height="5" fill="#662D66" />
<rect x="535" y="420" width="5" height="40" fill="#664D66" />
<rect x="585" y="420" width="40" height="40" fill="#664D66" />
<rect x="95" y="425" width="40" height="100" fill="#664D66" />
<rect x="180" y="425" width="75" height="25" fill="#664D66" />
<rect x="270" y="425" width="5" height="10" fill="#662D66" />
<rect x="300" y="425" width="5" height="15" fill="#662D66" />
<rect x="320" y="425" width="55" height="35" fill="#664D66" />
<rect x="375" y="425" width="5" height="5" fill="#663666" />
<rect x="385" y="425" width="5" height="5" fill="#664B66" />
<rect x="390" y="425" width="40" height="5" fill="#664D66" />
<rect x="430" y="425" width="10" height="5" fill="#662D66" />
<rect x="440" y="425" width="15" height="35" fill="#664D66" />
<rect x="490" y="425" width="5" height="40" fill="#664D66" />
<rect x="500" y="425" width="5" height="10" fill="#662D66" />
<rect x="520" y="425" width="5" height="5" fill="#662F66" />
<rect x="525" y="425" width="5" height="10" fill="#662D66" />
<rect x="530" y="425" width="5" height="40" fill="#664D66" />
<rect x="265" y="430" width="5" height="5" fill="#664B66" />
<rect x="275" y="430" width="5" height="95" fill="#664D66" />
<rect x="295" y="430" width="5" height="5" fill="#664566" />
<rect x="375" y="430" width="5" height="30" fill="#664D66" />
<rect x="385" y="430" width="5" height="10" fill="#662D66" />
<rect x="390" y="430" width="35" height="5" fill="#664D66" />
<rect x="425" y="430" width="10" height="5" fill="#662D66" />
<rect x="435" y="430" width="5" height="5" fill="#664C66" />
<rect x="495" y="430" width="5" height="40" fill="#664D66" />
<rect x="505" y="430" width="5" height="5" fill="#663266" />
<rect x="520" y="430" width="5" height="10" fill="#662D66" />
<rect x="265" y="435" width="5" height="15" fill="#662D66" />
<rect x="270" y="435" width="5" height="5" fill="#662F66" />
<rect x="295" y="435" width="5" height="90" fill="#664D66" />
<rect x="305" y="435" width="5" height="20" fill="#662D66" />
<rect x="380" y="435" width="5" height="25" fill="#664D66" />
<rect x="390" y="435" width="5" height="15" fill="#662D66" />
<rect x="395" y="435" width="25" height="5" fill="#664D66" />
<rect x="420" y="435" width="10" height="5" fill="#662D66" />
<rect x="430" y="435" width="10" height="25" fill="#664D66" />
<rect x="500" y="435" width="5" height="5" fill="#662F66" />
<rect x="505" y="435" width="5" height="10" fill="#662D66" />
<rect x="515" y="435" width="5" height="15" fill="#662D66" />
<rect x="525" y="435" width="5" height="35" fill="#664D66" />
<rect x="260" y="440" width="5" height="5" fill="#663B66" />
<rect x="270" y="440" width="5" height="85" fill="#664D66" />
<rect x="300" y="440" width="5" height="5" fill="#664766" />
<rect x="385" y="440" width="5" height="5" fill="#662F66" />
<rect x="395" y="440" width="20" height="5" fill="#664D66" />
<rect x="415" y="440" width="10" height="5" fill="#662D66" />
<rect x="425" y="440" width="5" height="5" fill="#664A66" />
<rect x="500" y="440" width="5" height="40" fill="#664D66" />
<rect x="510" y="440" width="5" height="15" fill="#662D66" />
<rect x="520" y="440" width="5" height="40" fill="#664D66" />
<rect x="260" y="445" width="5" height="15" fill="#662D66" />
<rect x="300" y="445" width="5" height="80" fill="#664D66" />
<rect x="310" y="445" width="5" height="5" fill="#662F66" />
<rect x="385" y="445" width="5" height="15" fill="#664D66" />
<rect x="395" y="445" width="5" height="15" fill="#662D66" />
<rect x="400" y="445" width="10" height="5" fill="#664D66" />
<rect x="410" y="445" width="10" height="5" fill="#662D66" />
<rect x="420" y="445" width="5" height="5" fill="#663B66" />
<rect x="425" y="445" width="5" height="25" fill="#664D66" />
<rect x="505" y="445" width="5" height="5" fill="#663F66" />
<rect x="745" y="445" width="15" height="10" fill="#4D4D4D" />
<rect x="760" y="445" width="5" height="5" fill="#654D65" />
<rect x="765" y="445" width="5" height="5" fill="#664D66" />
<rect x="50" y="450" width="5" height="5" fill="#664D66" />
<rect x="55" y="450" width="5" height="5" fill="#584D58" />
<rect x="60" y="450" width="15" height="5" fill="#4D4D4D" />
<rect x="75" y="450" width="5" height="5" fill="#5D4D5D" />
<rect x="180" y="450" width="50" height="75" fill="#664D66" />
<rect x="230" y="450" width="25" height="5" fill="#664466" />
<rect x="255" y="450" width="5" height="5" fill="#663466" />
<rect x="265" y="450" width="5" height="75" fill="#664D66" />
<rect x="310" y="450" width="5" height="15" fill="#662D66" />
<rect x="390" y="450" width="5" height="5" fill="#664966" />
<rect x="400" y="450" width="5" height="5" fill="#663C66" />
<rect x="405" y="450" width="5" height="5" fill="#664466" />
<rect x="410" y="450" width="5" height="5" fill="#662D66" />
<rect x="415" y="450" width="5" height="5" fill="#662F66" />
<rect x="420" y="450" width="5" height="25" fill="#664D66" />
<rect x="505" y="450" width="5" height="35" fill="#664D66" />
<rect x="515" y="450" width="5" height="35" fill="#664D66" />
<rect x="740" y="450" width="5" height="15" fill="#4D4D4D" />
<rect x="760" y="450" width="5" height="10" fill="#4D4D4D" />
<rect x="765" y="450" width="5" height="5" fill="#654D65" />
<rect x="50" y="455" width="5" height="5" fill="#564D56" />
<rect x="55" y="455" width="10" height="5" fill="#4D4D4D" />
<rect x="65" y="455" width="5" height="5" fill="#626262" />
<rect x="70" y="455" width="10" height="5" fill="#4D4D4D" />
<rect x="80" y="455" width="5" height="5" fill="#5C4D5C" />
<rect x="85" y="455" width="5" height="70" fill="#664D66" />
<rect x="230" y="455" width="30" height="5" fill="#662D66" />
<rect x="305" y="455" width="5" height="70" fill="#664D66" />
<rect x="315" y="455" width="5" height="5" fill="#662E66" />
<rect x="390" y="455" width="5" height="15" fill="#664D66" />
<rect x="400" y="455" width="10" height="10" fill="#662D66" />
<rect x="410" y="455" width="5" height="5" fill="#663566" />
<rect x="415" y="455" width="5" height="30" fill="#664D66" />
<rect x="510" y="455" width="5" height="35" fill="#664D66" />
<rect x="735" y="455" width="5" height="20" fill="#4D4D4D" />
<rect x="745" y="455" width="15" height="20" fill="#666666" />
<rect x="765" y="455" width="5" height="25" fill="#4D4D4D" />
<rect x="50" y="460" width="10" height="5" fill="#4D4D4D" />
<rect x="60" y="460" width="15" height="20" fill="#666666" />
<rect x="75" y="460" width="10" height="5" fill="#4D4D4D" />
<rect x="230" y="460" width="35" height="65" fill="#664D66" />
<rect x="315" y="460" width="75" height="10" fill="#662D66" />
<rect x="395" y="460" width="5" height="15" fill="#664D66" />
<rect x="410" y="460" width="5" height="30" fill="#664D66" />
<rect x="430" y="460" width="5" height="5" fill="#664D66" />
<rect x="435" y="460" width="55" height="10" fill="#662D66" />
<rect x="535" y="460" width="80" height="10" fill="#662D66" />
<rect x="615" y="460" width="10" height="65" fill="#664D66" />
<rect x="760" y="460" width="5" height="10" fill="#666666" />
<rect x="50" y="465" width="5" height="15" fill="#4D4D4D" />
<rect x="55" y="465" width="5" height="5" fill="#636363" />
<rect x="75" y="465" width="5" height="5" fill="#5D5D5D" />
<rect x="80" y="465" width="5" height="15" fill="#4D4D4D" />
<rect x="310" y="465" width="5" height="60" fill="#664D66" />
<rect x="400" y="465" width="5" height="5" fill="#664066" />
<rect x="405" y="465" width="5" height="25" fill="#664D66" />
<rect x="430" y="465" width="5" height="5" fill="#663566" />
<rect x="490" y="465" width="5" height="15" fill="#662D66" />
<rect x="530" y="465" width="5" height="15" fill="#662D66" />
<rect x="740" y="465" width="5" height="5" fill="#4F4F4F" />
<rect x="55" y="470" width="5" height="5" fill="#656565" />
<rect x="75" y="470" width="5" height="5" fill="#5F5F5F" />
<rect x="315" y="470" width="70" height="55" fill="#664D66" />
<rect x="385" y="470" width="10" height="5" fill="#662D66" />
<rect x="400" y="470" width="5" height="10" fill="#664D66" />
<rect x="425" y="470" width="5" height="5" fill="#663166" />
<rect x="430" y="470" width="5" height="10" fill="#662D66" />
<rect x="435" y="470" width="5" height="5" fill="#662F66" />
<rect x="440" y="470" width="45" height="55" fill="#664D66" />
<rect x="485" y="470" width="5" height="5" fill="#663E66" />
<rect x="495" y="470" width="5" height="5" fill="#663766" />
<rect x="525" y="470" width="5" height="5" fill="#663066" />
<rect x="535" y="470" width="5" height="5" fill="#664666" />
<rect x="540" y="470" width="75" height="55" fill="#664D66" />
<rect x="740" y="470" width="5" height="15" fill="#4D4D4D" />
<rect x="760" y="470" width="5" height="5" fill="#616161" />
<rect x="55" y="475" width="5" height="10" fill="#4D4D4D" />
<rect x="75" y="475" width="5" height="10" fill="#4D4D4D" />
<rect x="385" y="475" width="5" height="50" fill="#664D66" />
<rect x="390" y="475" width="10" height="5" fill="#662D66" />
<rect x="420" y="475" width="5" height="5" fill="#664766" />
<rect x="425" y="475" width="5" height="10" fill="#662D66" />
<rect x="435" y="475" width="5" height="50" fill="#664D66" />
<rect x="485" y="475" width="5" height="50" fill="#664D66" />
<rect x="495" y="475" width="5" height="10" fill="#662D66" />
<rect x="525" y="475" width="5" height="10" fill="#662D66" />
<rect x="535" y="475" width="5" height="50" fill="#664D66" />
<rect x="735" y="475" width="5" height="5" fill="#5A4D5A" />
<rect x="745" y="475" width="5" height="5" fill="#555555" />
<rect x="750" y="475" width="10" height="5" fill="#666666" />
<rect x="760" y="475" width="5" height="10" fill="#4D4D4D" />
<rect x="50" y="480" width="5" height="5" fill="#504D50" />
<rect x="60" y="480" width="5" height="10" fill="#4D4D4D" />
<rect x="65" y="480" width="5" height="5" fill="#666666" />
<rect x="70" y="480" width="5" height="10" fill="#4D4D4D" />
<rect x="80" y="480" width="5" height="5" fill="#554D55" />
<rect x="390" y="480" width="5" height="5" fill="#663066" />
<rect x="395" y="480" width="5" height="10" fill="#662D66" />
<rect x="400" y="480" width="5" height="5" fill="#664C66" />
<rect x="420" y="480" width="5" height="10" fill="#662D66" />
<rect x="430" y="480" width="5" height="45" fill="#664D66" />
<rect x="490" y="480" width="5" height="45" fill="#664D66" />
<rect x="500" y="480" width="5" height="10" fill="#662D66" />
<rect x="520" y="480" width="5" height="10" fill="#662D66" />
<rect x="530" y="480" width="5" height="45" fill="#664D66" />
<rect x="735" y="480" width="5" height="20" fill="#664D66" />
<rect x="745" y="480" width="15" height="5" fill="#4D4D4D" />
<rect x="765" y="480" width="5" height="20" fill="#664D66" />
<rect x="50" y="485" width="5" height="40" fill="#664D66" />
<rect x="55" y="485" width="5" height="5" fill="#504D50" />
<rect x="65" y="485" width="5" height="5" fill="#4D4D4D" />
<rect x="75" y="485" width="5" height="5" fill="#534D53" />
<rect x="80" y="485" width="5" height="40" fill="#664D66" />
<rect x="390" y="485" width="5" height="40" fill="#664D66" />
<rect x="400" y="485" width="5" height="10" fill="#662D66" />
<rect x="415" y="485" width="5" height="10" fill="#662D66" />
<rect x="425" y="485" width="5" height="40" fill="#664D66" />
<rect x="495" y="485" width="5" height="40" fill="#664D66" />
<rect x="505" y="485" width="5" height="15" fill="#662D66" />
<rect x="515" y="485" width="5" height="15" fill="#662D66" />
<rect x="525" y="485" width="5" height="40" fill="#664D66" />
<rect x="740" y="485" width="5" height="15" fill="#664D66" />
<rect x="745" y="485" width="5" height="5" fill="#644D64" />
<rect x="750" y="485" width="5" height="5" fill="#4D4D4D" />
<rect x="755" y="485" width="5" height="5" fill="#554D55" />
<rect x="760" y="485" width="5" height="15" fill="#664D66" />
<rect x="55" y="490" width="10" height="35" fill="#664D66" />
<rect x="65" y="490" width="5" height="5" fill="#654D65" />
<rect x="70" y="490" width="10" height="35" fill="#664D66" />
<rect x="395" y="490" width="5" height="35" fill="#664D66" />
<rect x="405" y="490" width="10" height="10" fill="#662D66" />
<rect x="420" y="490" width="5" height="35" fill="#664D66" />
<rect x="500" y="490" width="5" height="5" fill="#663366" />
<rect x="510" y="490" width="5" height="5" fill="#663966" />
<rect x="520" y="490" width="5" height="5" fill="#663A66" />
<rect x="745" y="490" width="15" height="10" fill="#664D66" />
<rect x="65" y="495" width="5" height="30" fill="#664D66" />
<rect x="400" y="495" width="5" height="5" fill="#663566" />
<rect x="415" y="495" width="5" height="30" fill="#664D66" />
<rect x="500" y="495" width="5" height="30" fill="#664D66" />
<rect x="510" y="495" width="5" height="10" fill="#662D66" />
<rect x="520" y="495" width="5" height="30" fill="#664D66" />
<rect x="400" y="500" width="5" height="25" fill="#664D66" />
<rect x="405" y="500" width="5" height="5" fill="#662D66" />
<rect x="410" y="500" width="5" height="5" fill="#664466" />
<rect x="505" y="500" width="5" height="25" fill="#664D66" />
<rect x="515" y="500" width="5" height="25" fill="#664D66" />
<rect x="655" y="500" width="125" height="10" fill="#662D66" />
<rect x="405" y="505" width="10" height="20" fill="#664D66" />
<rect x="510" y="505" width="5" height="20" fill="#664D66" />
<rect x="780" y="505" width="5" height="20" fill="#664D66" />
<rect x="655" y="510" width="125" height="15" fill="#664D66" />
<rect x="10" y="525" width="800" height="5" fill="#662D66" />
<rect x="0" y="530" width="10" height="5" fill="#7B4D7B" />
<rect x="10" y="530" width="5" height="5" fill="#6C3E6C" />
<rect x="15" y="530" width="10" height="5" fill="#7B4D7B" />
<rect x="25" y="530" width="5" height="5" fill="#6C3E6C" />
<rect x="30" y="530" width="10" height="5" fill="#7B4D7B" />
<rect x="40" y="530" width="10" height="5" fill="#6C3E6C" />
<rect x="50" y="530" width="5" height="5" fill="#7B4D7B" />
<rect x="55" y="530" width="10" height="5" fill="#6C3E6C" />
<rect x="65" y="530" width="5" height="5" fill="#7B4D7B" />
<rect x="70" y="530" width="10" height="5" fill="#6C3E6C" />
<rect x="80" y="530" width="5" height="5" fill="#7B4D7B" />
<rect x="85" y="530" width="10" height="5" fill="#6C3E6C" />
<rect x="95" y="530" width="5" height="5" fill="#7B4D7B" />
<rect x="100" y="530" width="10" height="5" fill="#6C3E6C" />
<rect x="110" y="530" width="10" height="5" fill="#7B4D7B" />
<rect x="120" y="530" width="5" height="5" fill="#6C3E6C" />
<rect x="125" y="530" width="10" height="5" fill="#7B4D7B" />
<rect x="135" y="530" width="5" height="5" fill="#6C3E6C" />
<rect x="140" y="530" width="10" height="5" fill="#7B4D7B" />
<rect x="150" y="530" width="5" height="5" fill="#6C3E6C" />
<rect x="155" y="530" width="10" height="5" fill="#7B4D7B" />
<rect x="165" y="530" width="5" height="5" fill="#6C3E6C" />
<rect x="170" y="530" width="10" height="5" fill="#7B4D7B" />
<rect x="180" y="530" width="10" height="5" fill="#6C3E6C" />
<rect x="190" y="530" width="5" height="5" fill="#7B4D7B" />
<rect x="195" y="530" width="10" height="5" fill="#6C3E6C" />
<rect x="205" y="530" width="5" height="5" fill="#7B4D7B" />
<rect x="210" y="530" width="10" height="5" fill="#6C3E6C" />
<rect x="220" y="530" width="5" height="5" fill="#7B4D7B" />
<rect x="225" y="530" width="10" height="5" fill="#6C3E6C" />
<rect x="235" y="530" width="5" height="5" fill="#7B4D7B" />
<rect x="240" y="530" width="10" height="5" fill="#6C3E6C" />
<rect x="250" y="530" width="10" height="5" fill="#7B4D7B" />
<rect x="260" y="530" width="5" height="5" fill="#6C3E6C" />
<rect x="265" y="530" width="10" height="5" fill="#7B4D7B" />
<rect x="275" y="530" width="5" height="5" fill="#6C3E6C" />
<rect x="280" y="530" width="10" height="5" fill="#7B4D7B" />
<rect x="290" y="530" width="5" height="5" fill="#6C3E6C" />
<rect x="295" y="530" width="10" height="5" fill="#7B4D7B" />
<rect x="305" y="530" width="5" height="5" fill="#6C3E6C" />
<rect x="310" y="530" width="10" height="5" fill="#7B4D7B" />
<rect x="320" y="530" width="10" height="5" fill="#6C3E6C" />
<rect x="330" y="530" width="5" height="5" fill="#7B4D7B" />
<rect x="335" y="530" width="10" height="5" fill="#6C3E6C" />
<rect x="345" y="530" width="5" height="5" fill="#7B4D7B" />
<rect x="350" y="530" width="10" height="5" fill="#6C3E6C" />
<rect x="360" y="530" width="5" height="5" fill="#7B4D7B" />
<rect x="365" y="530" width="10" height="5" fill="#6C3E6C" />
<rect x="375" y="530" width="5" height="5" fill="#7B4D7B" />
<rect x="380" y="530" width="10" height="5" fill="#6C3E6C" />
<rect x="390" y="530" width="10" height="5" fill="#7B4D7B" />
<rect x="400" y="530" width="5" height="5" fill="#6C3E6C" />
<rect x="405" y="530" width="10" height="5" fill="#7B4D7B" />
<rect x="415" y="530" width="5" height="5" fill="#6C3E6C" />
<rect x="420" y="530" width="10" height="5" fill="#7B4D7B" />
<rect x="430" y="530" width="5" height="5" fill="#6C3E6C" />
<rect x="435" y="530" width="10" height="5" fill="#7B4D7B" />
<rect x="445" y="530" width="5" height="5" fill="#6C3E6C" />
<rect x="450" y="530" width="10" height="5" fill="#7B4D7B" />
<rect x="460" y="530" width="10" height="5" fill="#6C3E6C" />
<rect x="470" y="530" width="5" height="5" fill="#7B4D7B" />
<rect x="475" y="530" width="10" height="5" fill="#6C3E6C" />
<rect x="485" y="530" width="5" height="5" fill="#7B4D7B" />
<rect x="490" y="530" width="10" height="5" fill="#6C3E6C" />
<rect x="500" y="530" width="5" height="5" fill="#7B4D7B" />
<rect x="505" y="530" width="10" height="5" fill="#6C3E6C" />
<rect x="515" y="530" width="5" height="5" fill="#7B4D7B" />
<rect x="520" y="530" width="10" height="5" fill="#6C3E6C" />
<rect x="530" y="530" width="10" height="5" fill="#7B4D7B" />
<rect x="540" y="530" width="5" height="5" fill="#6C3E6C" />
<rect x="545" y="530" width="10" height="5" fill="#7B4D7B" />
<rect x="555" y="530" width="5" height="5" fill="#6C3E6C" />
<rect x="560" y="530" width="10" height="5" fill="#7B4D7B" />
<rect x="570" y="530" width="5" height="5" fill="#6C3E6C" />
<rect x="575" y="530" width="10" height="5" fill="#7B4D7B" />
<rect x="585" y="530" width="5" height="5" fill="#6C3E6C" />
<rect x="590" y="530" width="10" height="5" fill="#7B4D7B" />
<rect x="600" y="530" width="10" height="5" fill="#6C3E6C" />
<rect x="610" y="530" width="5" height="5" fill="#7B4D7B" />
<rect x="615" y="530" width="10" height="5" fill="#6C3E6C" />
<rect x="625" y="530" width="5" height="5" fill="#7B4D7B" />
<rect x="630" y="530" width="10" height="5" fill="#6C3E6C" />
<rect x="640" y="530" width="5" height="5" fill="#7B4D7B" />
<rect x="645" y="530" width="10" height="5" fill="#6C3E6C" />
<rect x="655" y="530" width="5" height="5" fill="#7B4D7B" />
<rect x="660" y="530" width="10" height="5" fill="#6C3E6C" />
<rect x="670" y="530" width="10" height="5" fill="#7B4D7B" />
<rect x="680" y="530" width="5" height="5" fill="#6C3E6C" />
<rect x="685" y="530" width="10" height="5" fill="#7B4D7B" />
<rect x="695" y="530" width="5" height="5" fill="#6C3E6C" />
<rect x="700" y="530" width="10" height="5" fill="#7B4D7B" />
<rect x="710" y="530" width="5" height="5" fill="#6C3E6C" />
<rect x="715" y="530" width="10" height="5" fill="#7B4D7B" />
<rect x="725" y="530" width="5" height="5" fill="#6C3E6C" />
<rect x="730" y="530" width="10" height="5" fill="#7B4D7B" />
<rect x="740" y="530" width="10" height="5" fill="#6C3E6C" />
<rect x="750" y="530" width="5" height="5" fill="#7B4D7B" />
<rect x="755" y="530" width="10" height="5" fill="#6C3E6C" />
<rect x="765" y="530" width="5" height="5" fill="#7B4D7B" />
<rect x="770" y="530" width="10" height="5" fill="#6C3E6C" />
<rect x="780" y="530" width="5" height="5" fill="#7B4D7B" />
<rect x="785" y="530" width="10" height="5" fill="#6C3E6C" />
<rect x="795" y="530" width="5" height="5" fill="#7B4D7B" />
<rect x="800" y="530" width="10" height="5" fill="#6C3E6C" />
<rect x="810" y="530" width="5" height="5" fill="#7B4D7B" />
</svg>