<?xml version="1.0" encoding="UTF-8" ?>
<svg version="1.1" width="1750" height="1250" xmlns="http://www.w3.org/2000/svg" shape-rendering="crispEdges">
<rect x="75" y="20" width="5" height="5" fill="#C1BD69" />
<rect x="80" y="20" width="5" height="5" fill="#989568" />
<rect x="85" y="20" width="5" height="5" fill="#777667" />
<rect x="90" y="20" width="785" height="290" fill="#666666" />
<rect x="875" y="20" width="5" height="5" fill="#595B5F" />
<rect x="880" y="20" width="5" height="5" fill="#404450" />
<rect x="885" y="20" width="5" height="5" fill="#1A2139" />
<rect x="65" y="25" width="5" height="5" fill="#C9C569" />
<rect x="70" y="25" width="5" height="5" fill="#777667" />
<rect x="75" y="25" width="15" height="280" fill="#666666" />
<rect x="875" y="25" width="15" height="280" fill="#666666" />
<rect x="890" y="25" width="5" height="5" fill="#595B5F" />
<rect x="895" y="25" width="5" height="5" fill="#1A2139" />
<rect x="60" y="30" width="5" height="5" fill="#A09D68" />
<rect x="65" y="30" width="10" height="270" fill="#666666" />
<rect x="890" y="30" width="10" height="270" fill="#666666" />
<rect x="900" y="30" width="5" height="5" fill="#393E4C" />
<rect x="55" y="35" width="5" height="5" fill="#989568" />
<rect x="60" y="35" width="5" height="260" fill="#666666" />
<rect x="900" y="35" width="5" height="260" fill="#666666" />
<rect x="905" y="35" width="5" height="5" fill="#404450" />
<rect x="50" y="40" width="5" height="5" fill="#A09D68" />
<rect x="55" y="40" width="5" height="250" fill="#666666" />
<rect x="905" y="40" width="5" height="250" fill="#666666" />
<rect x="910" y="40" width="5" height="5" fill="#393E4C" />
<rect x="45" y="45" width="5" height="5" fill="#C9C569" />
<rect x="50" y="45" width="5" height="240" fill="#666666" />
<rect x="910" y="45" width="5" height="240" fill="#666666" />
<rect x="915" y="45" width="5" height="5" fill="#1A2139" />
<rect x="45" y="50" width="5" height="5" fill="#777667" />
<rect x="915" y="50" width="5" height="5" fill="#595B5F" />
<rect x="40" y="55" width="5" height="5" fill="#C1BD69" />
<rect x="45" y="55" width="5" height="220" fill="#666666" />
<rect x="915" y="55" width="5" height="220" fill="#666666" />
<rect x="920" y="55" width="5" height="5" fill="#20273D" />
<rect x="40" y="60" width="5" height="5" fill="#989568" />
<rect x="920" y="60" width="5" height="5" fill="#404450" />
<rect x="40" y="65" width="5" height="5" fill="#777667" />
<rect x="920" y="65" width="5" height="5" fill="#595B5F" />
<rect x="40" y="70" width="5" height="190" fill="#666666" />
<rect x="920" y="70" width="5" height="190" fill="#666666" />
<rect x="1595" y="70" width="30" height="5" fill="#B1B1B1" />
<rect x="1340" y="75" width="5" height="5" fill="#ADADAD" />
<rect x="1345" y="75" width="65" height="5" fill="#A1A1A1" />
<rect x="1410" y="75" width="90" height="5" fill="#909090" />
<rect x="1500" y="75" width="5" height="5" fill="#888888" />
<rect x="1505" y="75" width="120" height="30" fill="#808080" />
<rect x="1625" y="75" width="5" height="5" fill="#B1B1B1" />
<rect x="1040" y="80" width="155" height="15" fill="#784E26" />
<rect x="1195" y="80" width="5" height="5" fill="#754C24" />
<rect x="1340" y="80" width="5" height="5" fill="#888888" />
<rect x="1345" y="80" width="160" height="25" fill="#808080" />
<rect x="1625" y="80" width="5" height="5" fill="#949494" />
<rect x="1195" y="85" width="5" height="10" fill="#784E26" />
<rect x="1335" y="85" width="5" height="5" fill="#ADADAD" />
<rect x="1340" y="85" width="5" height="20" fill="#808080" />
<rect x="1625" y="85" width="5" height="20" fill="#808080" />
<rect x="1630" y="85" width="5" height="5" fill="#B9B9B9" />
<rect x="1335" y="90" width="5" height="5" fill="#949494" />
<rect x="1630" y="90" width="5" height="5" fill="#989898" />
<rect x="1040" y="95" width="160" height="145" fill="#754C24" />
<rect x="1330" y="95" width="5" height="5" fill="#B9B9B9" />
<rect x="1335" y="95" width="5" height="10" fill="#808080" />
<rect x="1630" y="95" width="5" height="10" fill="#808080" />
<rect x="1635" y="95" width="5" height="5" fill="#B9B9B9" />
<rect x="1330" y="100" width="5" height="5" fill="#9C9C9C" />
<rect x="1635" y="100" width="5" height="5" fill="#989898" />
<rect x="1325" y="105" width="5" height="5" fill="#B8B7B5" />
<rect x="1330" y="105" width="5" height="5" fill="#33260C" />
<rect x="1335" y="105" width="300" height="50" fill="#2A1C00" />
<rect x="1635" y="105" width="5" height="5" fill="#635A48" />
<rect x="1325" y="110" width="5" height="5" fill="#888379" />
<rect x="1330" y="110" width="5" height="45" fill="#2A1C00" />
<rect x="1635" y="110" width="5" height="5" fill="#33260C" />
<rect x="1640" y="110" width="5" height="5" fill="#B8B7B5" />
<rect x="1325" y="115" width="5" height="5" fill="#362306" />
<rect x="1635" y="115" width="5" height="40" fill="#2A1C00" />
<rect x="1640" y="115" width="5" height="5" fill="#67401C" />
<rect x="1320" y="120" width="5" height="5" fill="#744822" />
<rect x="1325" y="120" width="5" height="35" fill="#2A1C00" />
<rect x="1640" y="120" width="5" height="5" fill="#432B0B" />
<rect x="1320" y="125" width="5" height="5" fill="#4F3211" />
<rect x="1640" y="125" width="5" height="30" fill="#2A1C00" />
<rect x="1645" y="125" width="5" height="5" fill="#804F27" />
<rect x="1315" y="130" width="5" height="5" fill="#86522A" />
<rect x="1320" y="130" width="5" height="25" fill="#2A1C00" />
<rect x="1645" y="130" width="5" height="5" fill="#5B3917" />
<rect x="1315" y="135" width="5" height="5" fill="#67401C" />
<rect x="1645" y="135" width="5" height="5" fill="#362306" />
<rect x="1315" y="140" width="5" height="5" fill="#3C2708" />
<rect x="1645" y="140" width="5" height="15" fill="#2A1C00" />
<rect x="1650" y="140" width="5" height="5" fill="#7A4B25" />
<rect x="1310" y="145" width="5" height="5" fill="#804F27" />
<rect x="1315" y="145" width="5" height="10" fill="#2A1C00" />
<rect x="1650" y="145" width="5" height="5" fill="#553514" />
<rect x="1310" y="150" width="5" height="5" fill="#613D19" />
<rect x="1650" y="150" width="5" height="5" fill="#362306" />
<rect x="1310" y="155" width="5" height="5" fill="#726558" />
<rect x="1315" y="155" width="340" height="25" fill="#808080" />
<rect x="1655" y="155" width="5" height="5" fill="#866B57" />
<rect x="1305" y="160" width="5" height="5" fill="#85552F" />
<rect x="1310" y="160" width="5" height="20" fill="#808080" />
<rect x="1655" y="160" width="5" height="5" fill="#847366" />
<rect x="1305" y="165" width="5" height="5" fill="#866B57" />
<rect x="1655" y="165" width="5" height="5" fill="#7D7268" />
<rect x="1305" y="170" width="5" height="5" fill="#827B76" />
<rect x="1655" y="170" width="5" height="10" fill="#808080" />
<rect x="1660" y="170" width="5" height="5" fill="#86522A" />
<rect x="1300" y="175" width="5" height="5" fill="#88664C" />
<rect x="1305" y="175" width="5" height="5" fill="#808080" />
<rect x="1660" y="175" width="5" height="5" fill="#6D4724" />
<rect x="1300" y="180" width="5" height="5" fill="#6D441F" />
<rect x="1305" y="180" width="355" height="155" fill="#2A1C00" />
<rect x="1660" y="180" width="5" height="5" fill="#4F3211" />
<rect x="1300" y="185" width="5" height="5" fill="#553514" />
<rect x="1660" y="185" width="5" height="5" fill="#362306" />
<rect x="1300" y="190" width="5" height="5" fill="#3C2708" />
<rect x="1660" y="190" width="5" height="305" fill="#2A1C00" />
<rect x="1665" y="190" width="5" height="5" fill="#804F27" />
<rect x="1295" y="195" width="5" height="5" fill="#86522A" />
<rect x="1300" y="195" width="5" height="275" fill="#2A1C00" />
<rect x="1665" y="195" width="5" height="5" fill="#67401C" />
<rect x="1295" y="200" width="5" height="5" fill="#6D441F" />
<rect x="1665" y="200" width="5" height="5" fill="#4F3211" />
<rect x="1295" y="205" width="5" height="5" fill="#5B3917" />
<rect x="1665" y="205" width="5" height="5" fill="#362306" />
<rect x="1295" y="210" width="5" height="5" fill="#432B0B" />
<rect x="1665" y="210" width="5" height="285" fill="#2A1C00" />
<rect x="1670" y="210" width="5" height="5" fill="#86522A" />
<rect x="1295" y="215" width="5" height="230" fill="#2A1C00" />
<rect x="1670" y="215" width="5" height="5" fill="#6D441F" />
<rect x="1290" y="220" width="5" height="5" fill="#7A4B25" />
<rect x="1670" y="220" width="5" height="5" fill="#5B3917" />
<rect x="1290" y="225" width="5" height="5" fill="#67401C" />
<rect x="1670" y="225" width="5" height="5" fill="#432B0B" />
<rect x="1290" y="230" width="5" height="5" fill="#5B3917" />
<rect x="1670" y="230" width="5" height="5" fill="#302003" />
<rect x="1290" y="235" width="5" height="5" fill="#432B0B" />
<rect x="1670" y="235" width="5" height="235" fill="#2A1C00" />
<rect x="1675" y="235" width="5" height="5" fill="#86522A" />
<rect x="1290" y="240" width="5" height="5" fill="#362306" />
<rect x="1675" y="240" width="5" height="5" fill="#744822" />
<rect x="1290" y="245" width="5" height="175" fill="#2A1C00" />
<rect x="1675" y="245" width="5" height="5" fill="#613D19" />
<rect x="1285" y="250" width="5" height="5" fill="#744822" />
<rect x="1675" y="250" width="5" height="5" fill="#553514" />
<rect x="1285" y="255" width="5" height="5" fill="#6D441F" />
<rect x="1675" y="255" width="5" height="5" fill="#432B0B" />
<rect x="40" y="260" width="5" height="5" fill="#595B5F" />
<rect x="920" y="260" width="5" height="5" fill="#595B5F" />
<rect x="1285" y="260" width="5" height="10" fill="#5B3917" />
<rect x="1675" y="260" width="5" height="5" fill="#362306" />
<rect x="40" y="265" width="5" height="5" fill="#404450" />
<rect x="920" y="265" width="5" height="5" fill="#404450" />
<rect x="1675" y="265" width="5" height="175" fill="#2A1C00" />
<rect x="40" y="270" width="5" height="5" fill="#20273D" />
<rect x="920" y="270" width="5" height="5" fill="#20273D" />
<rect x="1285" y="270" width="5" height="10" fill="#432B0B" />
<rect x="1680" y="270" width="5" height="5" fill="#804F27" />
<rect x="45" y="275" width="5" height="5" fill="#595B5F" />
<rect x="915" y="275" width="5" height="5" fill="#595B5F" />
<rect x="1680" y="275" width="5" height="5" fill="#744822" />
<rect x="45" y="280" width="5" height="5" fill="#1A2139" />
<rect x="915" y="280" width="5" height="5" fill="#1A2139" />
<rect x="1285" y="280" width="5" height="5" fill="#362306" />
<rect x="1680" y="280" width="5" height="5" fill="#6D441F" />
<rect x="50" y="285" width="5" height="5" fill="#393E4C" />
<rect x="910" y="285" width="5" height="5" fill="#393E4C" />
<rect x="1285" y="285" width="5" height="95" fill="#2A1C00" />
<rect x="1680" y="285" width="5" height="10" fill="#5B3917" />
<rect x="55" y="290" width="5" height="5" fill="#404450" />
<rect x="905" y="290" width="5" height="5" fill="#404450" />
<rect x="60" y="295" width="5" height="5" fill="#393E4C" />
<rect x="900" y="295" width="5" height="5" fill="#393E4C" />
<rect x="1680" y="295" width="5" height="5" fill="#492E0E" />
<rect x="65" y="300" width="5" height="5" fill="#1A2139" />
<rect x="70" y="300" width="5" height="5" fill="#595B5F" />
<rect x="890" y="300" width="5" height="5" fill="#595B5F" />
<rect x="895" y="300" width="5" height="5" fill="#1A2139" />
<rect x="1280" y="300" width="5" height="10" fill="#744822" />
<rect x="1680" y="300" width="5" height="10" fill="#432B0B" />
<rect x="75" y="305" width="5" height="5" fill="#20273D" />
<rect x="80" y="305" width="5" height="5" fill="#404450" />
<rect x="85" y="305" width="5" height="5" fill="#595B5F" />
<rect x="875" y="305" width="5" height="5" fill="#595B5F" />
<rect x="880" y="305" width="5" height="5" fill="#404450" />
<rect x="885" y="305" width="5" height="5" fill="#20273D" />
<rect x="190" y="310" width="50" height="480" fill="#8C6239" />
<rect x="720" y="310" width="50" height="480" fill="#8C6239" />
<rect x="1280" y="310" width="5" height="50" fill="#9B9891" />
<rect x="1680" y="310" width="5" height="5" fill="#504530" />
<rect x="1685" y="310" width="5" height="195" fill="#C1C1C1" />
<rect x="1680" y="315" width="5" height="70" fill="#2A1C00" />
<rect x="1305" y="335" width="70" height="10" fill="#2A1C00" />
<rect x="1375" y="335" width="5" height="5" fill="#271A00" />
<rect x="1380" y="335" width="5" height="5" fill="#100B00" />
<rect x="1385" y="335" width="15" height="55" fill="#000000" />
<rect x="1400" y="335" width="5" height="5" fill="#100B00" />
<rect x="1405" y="335" width="5" height="5" fill="#271A00" />
<rect x="1410" y="335" width="250" height="10" fill="#2A1C00" />
<rect x="1375" y="340" width="5" height="5" fill="#080500" />
<rect x="1380" y="340" width="5" height="45" fill="#000000" />
<rect x="1400" y="340" width="5" height="45" fill="#000000" />
<rect x="1405" y="340" width="5" height="5" fill="#080500" />
<rect x="1305" y="345" width="65" height="15" fill="#2A1C00" />
<rect x="1370" y="345" width="5" height="5" fill="#150E00" />
<rect x="1375" y="345" width="5" height="35" fill="#000000" />
<rect x="1405" y="345" width="5" height="35" fill="#000000" />
<rect x="1410" y="345" width="5" height="5" fill="#150E00" />
<rect x="1415" y="345" width="245" height="150" fill="#2A1C00" />
<rect x="1370" y="350" width="5" height="5" fill="#050400" />
<rect x="1410" y="350" width="5" height="5" fill="#050400" />
<rect x="1370" y="355" width="5" height="15" fill="#000000" />
<rect x="1410" y="355" width="5" height="15" fill="#000000" />
<rect x="1280" y="360" width="5" height="5" fill="#A5A29D" />
<rect x="1305" y="360" width="60" height="125" fill="#2A1C00" />
<rect x="1365" y="360" width="5" height="5" fill="#251900" />
<rect x="1365" y="365" width="5" height="130" fill="#2A1C00" />
<rect x="1370" y="370" width="5" height="5" fill="#050400" />
<rect x="1410" y="370" width="5" height="5" fill="#050400" />
<rect x="1370" y="375" width="5" height="5" fill="#150E00" />
<rect x="1410" y="375" width="5" height="5" fill="#150E00" />
<rect x="1105" y="380" width="5" height="5" fill="#A6A6A6" />
<rect x="1285" y="380" width="5" height="5" fill="#463B24" />
<rect x="1370" y="380" width="5" height="115" fill="#2A1C00" />
<rect x="1375" y="380" width="5" height="5" fill="#080500" />
<rect x="1405" y="380" width="5" height="5" fill="#080500" />
<rect x="1410" y="380" width="5" height="115" fill="#2A1C00" />
<rect x="1075" y="385" width="5" height="5" fill="#A3A3A3" />
<rect x="1080" y="385" width="5" height="5" fill="#B3B3B3" />
<rect x="1085" y="385" width="5" height="5" fill="#BFBFBF" />
<rect x="1090" y="385" width="5" height="5" fill="#C9C9C9" />
<rect x="1095" y="385" width="25" height="15" fill="#CCCCCC" />
<rect x="1120" y="385" width="5" height="5" fill="#C6C6C6" />
<rect x="1125" y="385" width="5" height="5" fill="#BCBCBC" />
<rect x="1130" y="385" width="5" height="5" fill="#AFAFAF" />
<rect x="1135" y="385" width="5" height="5" fill="#9F9F9F" />
<rect x="1285" y="385" width="5" height="5" fill="#504530" />
<rect x="1375" y="385" width="5" height="5" fill="#271A00" />
<rect x="1380" y="385" width="5" height="5" fill="#100B00" />
<rect x="1400" y="385" width="5" height="5" fill="#100B00" />
<rect x="1405" y="385" width="5" height="5" fill="#271A00" />
<rect x="1680" y="385" width="5" height="5" fill="#33260C" />
<rect x="1060" y="390" width="5" height="5" fill="#9C9C9C" />
<rect x="1065" y="390" width="5" height="5" fill="#B3B3B3" />
<rect x="1070" y="390" width="5" height="5" fill="#C6C6C6" />
<rect x="1075" y="390" width="20" height="10" fill="#CCCCCC" />
<rect x="1120" y="390" width="20" height="10" fill="#CCCCCC" />
<rect x="1140" y="390" width="5" height="5" fill="#BFBFBF" />
<rect x="1145" y="390" width="5" height="5" fill="#ACACAC" />
<rect x="1285" y="390" width="5" height="5" fill="#59503C" />
<rect x="1375" y="390" width="35" height="105" fill="#2A1C00" />
<rect x="1680" y="390" width="5" height="15" fill="#504530" />
<rect x="1055" y="395" width="5" height="5" fill="#AFAFAF" />
<rect x="1060" y="395" width="5" height="5" fill="#C9C9C9" />
<rect x="1065" y="395" width="10" height="10" fill="#CCCCCC" />
<rect x="1140" y="395" width="10" height="10" fill="#CCCCCC" />
<rect x="1150" y="395" width="5" height="5" fill="#C6C6C6" />
<rect x="1155" y="395" width="5" height="5" fill="#A6A6A6" />
<rect x="1285" y="395" width="5" height="5" fill="#766F61" />
<rect x="1045" y="400" width="5" height="5" fill="#A3A3A3" />
<rect x="1050" y="400" width="5" height="5" fill="#C2C2C2" />
<rect x="1055" y="400" width="10" height="10" fill="#CCCCCC" />
<rect x="1075" y="400" width="5" height="5" fill="#CCCCCC" />
<rect x="1080" y="400" width="5" height="5" fill="#C9C9C9" />
<rect x="1085" y="400" width="5" height="5" fill="#B9B9B9" />
<rect x="1090" y="400" width="5" height="5" fill="#AFAFAF" />
<rect x="1095" y="400" width="10" height="5" fill="#A6A6A6" />
<rect x="1105" y="400" width="5" height="5" fill="#9F9F9F" />
<rect x="1110" y="400" width="5" height="5" fill="#A6A6A6" />
<rect x="1115" y="400" width="5" height="5" fill="#A9A9A9" />
<rect x="1120" y="400" width="5" height="5" fill="#B3B3B3" />
<rect x="1125" y="400" width="5" height="5" fill="#C2C2C2" />
<rect x="1130" y="400" width="10" height="5" fill="#CCCCCC" />
<rect x="1150" y="400" width="10" height="15" fill="#CCCCCC" />
<rect x="1160" y="400" width="5" height="5" fill="#B6B6B6" />
<rect x="1165" y="400" width="5" height="5" fill="#9C9C9C" />
<rect x="1285" y="400" width="5" height="5" fill="#7F796D" />
<rect x="1040" y="405" width="5" height="5" fill="#A9A9A9" />
<rect x="1045" y="405" width="5" height="5" fill="#C9C9C9" />
<rect x="1050" y="405" width="5" height="15" fill="#CCCCCC" />
<rect x="1065" y="405" width="5" height="5" fill="#CCCCCC" />
<rect x="1070" y="405" width="5" height="5" fill="#BFBFBF" />
<rect x="1075" y="405" width="5" height="5" fill="#A9A9A9" />
<rect x="1130" y="405" width="5" height="5" fill="#9F9F9F" />
<rect x="1135" y="405" width="5" height="5" fill="#B3B3B3" />
<rect x="1140" y="405" width="5" height="5" fill="#C9C9C9" />
<rect x="1145" y="405" width="5" height="5" fill="#CCCCCC" />
<rect x="1160" y="405" width="5" height="15" fill="#CCCCCC" />
<rect x="1165" y="405" width="5" height="5" fill="#C2C2C2" />
<rect x="1170" y="405" width="5" height="5" fill="#A3A3A3" />
<rect x="1285" y="405" width="5" height="5" fill="#9B9891" />
<rect x="1680" y="405" width="5" height="5" fill="#6C6454" />
<rect x="1035" y="410" width="5" height="5" fill="#ACACAC" />
<rect x="1040" y="410" width="10" height="10" fill="#CCCCCC" />
<rect x="1055" y="410" width="5" height="5" fill="#CCCCCC" />
<rect x="1060" y="410" width="5" height="5" fill="#C2C2C2" />
<rect x="1065" y="410" width="5" height="5" fill="#A6A6A6" />
<rect x="1140" y="410" width="5" height="5" fill="#9C9C9C" />
<rect x="1145" y="410" width="5" height="5" fill="#B3B3B3" />
<rect x="1165" y="410" width="5" height="15" fill="#CCCCCC" />
<rect x="1170" y="410" width="5" height="5" fill="#C9C9C9" />
<rect x="1175" y="410" width="5" height="5" fill="#A3A3A3" />
<rect x="1285" y="410" width="5" height="5" fill="#AEACA9" />
<rect x="1680" y="410" width="5" height="10" fill="#766F61" />
<rect x="1030" y="415" width="5" height="5" fill="#ACACAC" />
<rect x="1035" y="415" width="5" height="15" fill="#CCCCCC" />
<rect x="1055" y="415" width="5" height="5" fill="#B3B3B3" />
<rect x="1150" y="415" width="5" height="5" fill="#A3A3A3" />
<rect x="1155" y="415" width="5" height="5" fill="#C2C2C2" />
<rect x="1170" y="415" width="5" height="15" fill="#CCCCCC" />
<rect x="1175" y="415" width="5" height="5" fill="#C9C9C9" />
<rect x="1180" y="415" width="5" height="5" fill="#A3A3A3" />
<rect x="1025" y="420" width="5" height="5" fill="#ACACAC" />
<rect x="1030" y="420" width="5" height="15" fill="#CCCCCC" />
<rect x="1040" y="420" width="5" height="5" fill="#CCCCCC" />
<rect x="1045" y="420" width="5" height="5" fill="#C9C9C9" />
<rect x="1050" y="420" width="5" height="5" fill="#A3A3A3" />
<rect x="1160" y="420" width="5" height="5" fill="#B6B6B6" />
<rect x="1175" y="420" width="5" height="10" fill="#CCCCCC" />
<rect x="1180" y="420" width="5" height="5" fill="#C9C9C9" />
<rect x="1185" y="420" width="5" height="5" fill="#A3A3A3" />
<rect x="1290" y="420" width="5" height="5" fill="#463B24" />
<rect x="1680" y="420" width="5" height="10" fill="#9B9891" />
<rect x="1020" y="425" width="5" height="5" fill="#A6A6A6" />
<rect x="1025" y="425" width="5" height="15" fill="#CCCCCC" />
<rect x="1040" y="425" width="5" height="5" fill="#C2C2C2" />
<rect x="1045" y="425" width="5" height="5" fill="#9C9C9C" />
<rect x="1165" y="425" width="5" height="5" fill="#ACACAC" />
<rect x="1180" y="425" width="5" height="10" fill="#CCCCCC" />
<rect x="1185" y="425" width="5" height="5" fill="#C9C9C9" />
<rect x="1190" y="425" width="5" height="5" fill="#9F9F9F" />
<rect x="1290" y="425" width="5" height="5" fill="#59503C" />
<rect x="1015" y="430" width="5" height="5" fill="#9F9F9F" />
<rect x="1020" y="430" width="5" height="5" fill="#C9C9C9" />
<rect x="1035" y="430" width="5" height="5" fill="#C2C2C2" />
<rect x="1040" y="430" width="5" height="5" fill="#9C9C9C" />
<rect x="1170" y="430" width="5" height="5" fill="#A3A3A3" />
<rect x="1175" y="430" width="5" height="5" fill="#C9C9C9" />
<rect x="1185" y="430" width="5" height="10" fill="#CCCCCC" />
<rect x="1190" y="430" width="5" height="5" fill="#C2C2C2" />
<rect x="1290" y="430" width="5" height="5" fill="#766F61" />
<rect x="1680" y="430" width="5" height="75" fill="#C1C1C1" />
<rect x="1015" y="435" width="5" height="5" fill="#BFBFBF" />
<rect x="1020" y="435" width="5" height="10" fill="#CCCCCC" />
<rect x="1030" y="435" width="5" height="5" fill="#C2C2C2" />
<rect x="1035" y="435" width="5" height="5" fill="#9C9C9C" />
<rect x="1175" y="435" width="5" height="5" fill="#A3A3A3" />
<rect x="1180" y="435" width="5" height="5" fill="#C9C9C9" />
<rect x="1190" y="435" width="5" height="15" fill="#CCCCCC" />
<rect x="1195" y="435" width="5" height="5" fill="#B6B6B6" />
<rect x="1290" y="435" width="5" height="5" fill="#9B9891" />
<rect x="1010" y="440" width="5" height="5" fill="#AFAFAF" />
<rect x="1015" y="440" width="5" height="10" fill="#CCCCCC" />
<rect x="1025" y="440" width="5" height="5" fill="#C2C2C2" />
<rect x="1030" y="440" width="5" height="5" fill="#9C9C9C" />
<rect x="1180" y="440" width="5" height="5" fill="#A3A3A3" />
<rect x="1185" y="440" width="5" height="5" fill="#C9C9C9" />
<rect x="1195" y="440" width="5" height="15" fill="#CCCCCC" />
<rect x="1200" y="440" width="5" height="5" fill="#A6A6A6" />
<rect x="1290" y="440" width="5" height="5" fill="#AEACA9" />
<rect x="1675" y="440" width="5" height="5" fill="#504530" />
<rect x="1005" y="445" width="5" height="5" fill="#9F9F9F" />
<rect x="1010" y="445" width="5" height="5" fill="#C9C9C9" />
<rect x="1020" y="445" width="5" height="5" fill="#C6C6C6" />
<rect x="1025" y="445" width="5" height="5" fill="#9C9C9C" />
<rect x="1185" y="445" width="5" height="5" fill="#A6A6A6" />
<rect x="1200" y="445" width="5" height="5" fill="#C6C6C6" />
<rect x="1205" y="445" width="5" height="5" fill="#9C9C9C" />
<rect x="1295" y="445" width="5" height="5" fill="#3D3118" />
<rect x="1675" y="445" width="5" height="5" fill="#59503C" />
<rect x="1005" y="450" width="5" height="5" fill="#BCBCBC" />
<rect x="1010" y="450" width="5" height="10" fill="#CCCCCC" />
<rect x="1015" y="450" width="5" height="5" fill="#C9C9C9" />
<rect x="1020" y="450" width="5" height="5" fill="#A3A3A3" />
<rect x="1190" y="450" width="5" height="5" fill="#ACACAC" />
<rect x="1200" y="450" width="5" height="10" fill="#CCCCCC" />
<rect x="1205" y="450" width="5" height="5" fill="#B3B3B3" />
<rect x="1295" y="450" width="5" height="5" fill="#59503C" />
<rect x="1675" y="450" width="5" height="5" fill="#766F61" />
<rect x="1000" y="455" width="5" height="5" fill="#A6A6A6" />
<rect x="1005" y="455" width="5" height="10" fill="#CCCCCC" />
<rect x="1015" y="455" width="5" height="5" fill="#ACACAC" />
<rect x="1195" y="455" width="5" height="5" fill="#B9B9B9" />
<rect x="1205" y="455" width="5" height="10" fill="#CCCCCC" />
<rect x="1210" y="455" width="5" height="5" fill="#9F9F9F" />
<rect x="1295" y="455" width="5" height="5" fill="#766F61" />
<rect x="1675" y="455" width="5" height="5" fill="#888379" />
<rect x="1000" y="460" width="5" height="5" fill="#BFBFBF" />
<rect x="1010" y="460" width="5" height="5" fill="#B6B6B6" />
<rect x="1200" y="460" width="5" height="5" fill="#C2C2C2" />
<rect x="1210" y="460" width="5" height="5" fill="#B9B9B9" />
<rect x="1295" y="460" width="5" height="5" fill="#9B9891" />
<rect x="1675" y="460" width="5" height="5" fill="#A5A29D" />
<rect x="995" y="465" width="5" height="5" fill="#A6A6A6" />
<rect x="1000" y="465" width="5" height="10" fill="#CCCCCC" />
<rect x="1005" y="465" width="5" height="5" fill="#C2C2C2" />
<rect x="1010" y="465" width="5" height="5" fill="#9C9C9C" />
<rect x="1200" y="465" width="5" height="5" fill="#9F9F9F" />
<rect x="1205" y="465" width="5" height="5" fill="#C9C9C9" />
<rect x="1210" y="465" width="5" height="10" fill="#CCCCCC" />
<rect x="1215" y="465" width="5" height="5" fill="#9F9F9F" />
<rect x="1675" y="465" width="5" height="40" fill="#C1C1C1" />
<rect x="995" y="470" width="5" height="5" fill="#B9B9B9" />
<rect x="1005" y="470" width="5" height="5" fill="#A3A3A3" />
<rect x="1205" y="470" width="5" height="5" fill="#A9A9A9" />
<rect x="1215" y="470" width="5" height="5" fill="#B9B9B9" />
<rect x="1300" y="470" width="5" height="5" fill="#504530" />
<rect x="1670" y="470" width="5" height="5" fill="#463B24" />
<rect x="990" y="475" width="5" height="5" fill="#9F9F9F" />
<rect x="995" y="475" width="5" height="5" fill="#CCCCCC" />
<rect x="1000" y="475" width="5" height="5" fill="#B3B3B3" />
<rect x="1210" y="475" width="5" height="5" fill="#B6B6B6" />
<rect x="1215" y="475" width="5" height="5" fill="#C9C9C9" />
<rect x="1220" y="475" width="5" height="5" fill="#9C9C9C" />
<rect x="1300" y="475" width="5" height="5" fill="#7F796D" />
<rect x="1670" y="475" width="5" height="5" fill="#635A48" />
<rect x="990" y="480" width="5" height="5" fill="#AFAFAF" />
<rect x="995" y="480" width="5" height="5" fill="#C2C2C2" />
<rect x="1210" y="480" width="5" height="5" fill="#9C9C9C" />
<rect x="1215" y="480" width="5" height="5" fill="#C6C6C6" />
<rect x="1220" y="480" width="5" height="5" fill="#AFAFAF" />
<rect x="1300" y="480" width="5" height="5" fill="#A5A29D" />
<rect x="1670" y="480" width="5" height="5" fill="#7F796D" />
<rect x="990" y="485" width="5" height="5" fill="#C2C2C2" />
<rect x="995" y="485" width="5" height="5" fill="#A6A6A6" />
<rect x="1000" y="485" width="5" height="5" fill="#8D9FA3" />
<rect x="1005" y="485" width="5" height="5" fill="#85A2AA" />
<rect x="1010" y="485" width="40" height="5" fill="#7AA8B4" />
<rect x="1050" y="485" width="5" height="5" fill="#85A2AA" />
<rect x="1055" y="485" width="115" height="5" fill="#89A1A6" />
<rect x="1170" y="485" width="5" height="5" fill="#85A2AA" />
<rect x="1175" y="485" width="25" height="5" fill="#7AA8B4" />
<rect x="1200" y="485" width="5" height="5" fill="#81A4AD" />
<rect x="1205" y="485" width="5" height="5" fill="#89A1A6" />
<rect x="1210" y="485" width="5" height="5" fill="#919DA0" />
<rect x="1215" y="485" width="5" height="5" fill="#A6A6A6" />
<rect x="1220" y="485" width="5" height="5" fill="#C2C2C2" />
<rect x="1305" y="485" width="5" height="5" fill="#3D3118" />
<rect x="1310" y="485" width="55" height="10" fill="#2A1C00" />
<rect x="1670" y="485" width="5" height="5" fill="#9B9891" />
<rect x="985" y="490" width="5" height="5" fill="#9C9C9C" />
<rect x="990" y="490" width="5" height="5" fill="#B6B6B6" />
<rect x="995" y="490" width="5" height="5" fill="#66B1C4" />
<rect x="1000" y="490" width="215" height="15" fill="#5AB7CE" />
<rect x="1215" y="490" width="5" height="5" fill="#66B1C4" />
<rect x="1220" y="490" width="5" height="5" fill="#B6B6B6" />
<rect x="1225" y="490" width="5" height="5" fill="#9C9C9C" />
<rect x="1305" y="490" width="5" height="5" fill="#635A48" />
<rect x="1670" y="490" width="5" height="5" fill="#C1C1C1" />
<rect x="990" y="495" width="5" height="5" fill="#4F6165" />
<rect x="995" y="495" width="5" height="5" fill="#5AB7CE" />
<rect x="1215" y="495" width="5" height="5" fill="#5AB7CE" />
<rect x="1220" y="495" width="5" height="5" fill="#576265" />
<rect x="1305" y="495" width="5" height="5" fill="#989898" />
<rect x="1310" y="495" width="360" height="5" fill="#808080" />
<rect x="1670" y="495" width="5" height="5" fill="#B1B1B1" />
<rect x="990" y="500" width="5" height="5" fill="#525252" />
<rect x="995" y="500" width="5" height="5" fill="#558F9E" />
<rect x="1215" y="500" width="5" height="5" fill="#558F9E" />
<rect x="1220" y="500" width="5" height="5" fill="#525252" />
<rect x="1305" y="500" width="5" height="5" fill="#B5B5B5" />
<rect x="1310" y="500" width="355" height="5" fill="#808080" />
<rect x="1665" y="500" width="5" height="5" fill="#848484" />
<rect x="1670" y="500" width="5" height="5" fill="#C1C1C1" />
<rect x="990" y="505" width="5" height="5" fill="#606060" />
<rect x="995" y="505" width="5" height="25" fill="#4D4D4D" />
<rect x="1000" y="505" width="5" height="5" fill="#579DAE" />
<rect x="1005" y="505" width="205" height="5" fill="#5AB7CE" />
<rect x="1210" y="505" width="5" height="5" fill="#548996" />
<rect x="1215" y="505" width="5" height="30" fill="#4D4D4D" />
<rect x="1220" y="505" width="5" height="5" fill="#606060" />
<rect x="1310" y="505" width="5" height="5" fill="#8F8E8C" />
<rect x="1315" y="505" width="350" height="10" fill="#808080" />
<rect x="1665" y="505" width="5" height="5" fill="#969592" />
<rect x="990" y="510" width="5" height="5" fill="#6E6E6E" />
<rect x="1000" y="510" width="5" height="50" fill="#4D4D4D" />
<rect x="1005" y="510" width="5" height="5" fill="#54828E" />
<rect x="1010" y="510" width="190" height="5" fill="#5AB7CE" />
<rect x="1200" y="510" width="5" height="5" fill="#5696A6" />
<rect x="1205" y="510" width="5" height="5" fill="#50686D" />
<rect x="1210" y="510" width="5" height="60" fill="#4D4D4D" />
<rect x="1220" y="510" width="5" height="5" fill="#6A6A6A" />
<rect x="1310" y="510" width="5" height="5" fill="#A4A39E" />
<rect x="1665" y="510" width="5" height="5" fill="#A4A39E" />
<rect x="990" y="515" width="5" height="5" fill="#787878" />
<rect x="1005" y="515" width="5" height="75" fill="#4D4D4D" />
<rect x="1010" y="515" width="5" height="5" fill="#4F5A5D" />
<rect x="1015" y="515" width="5" height="5" fill="#558F9E" />
<rect x="1020" y="515" width="5" height="5" fill="#59B0C6" />
<rect x="1025" y="515" width="150" height="5" fill="#5AB7CE" />
<rect x="1175" y="515" width="5" height="5" fill="#58A3B6" />
<rect x="1180" y="515" width="5" height="5" fill="#579DAE" />
<rect x="1185" y="515" width="5" height="5" fill="#54828E" />
<rect x="1190" y="515" width="5" height="5" fill="#516E75" />
<rect x="1195" y="515" width="5" height="5" fill="#4E5455" />
<rect x="1200" y="515" width="10" height="90" fill="#4D4D4D" />
<rect x="1220" y="515" width="5" height="5" fill="#737373" />
<rect x="1310" y="515" width="5" height="5" fill="#B1AEA5" />
<rect x="1315" y="515" width="5" height="5" fill="#7E7D7B" />
<rect x="1320" y="515" width="345" height="5" fill="#808080" />
<rect x="1665" y="515" width="5" height="5" fill="#B6B5AD" />
<rect x="990" y="520" width="5" height="5" fill="#868686" />
<rect x="1010" y="520" width="15" height="20" fill="#4D4D4D" />
<rect x="1025" y="520" width="5" height="5" fill="#50686D" />
<rect x="1030" y="520" width="5" height="5" fill="#54828E" />
<rect x="1035" y="520" width="5" height="5" fill="#5696A6" />
<rect x="1040" y="520" width="5" height="5" fill="#579DAE" />
<rect x="1045" y="520" width="5" height="5" fill="#59B0C6" />
<rect x="1050" y="520" width="25" height="5" fill="#5AB7CE" />
<rect x="1075" y="520" width="5" height="5" fill="#58AABE" />
<rect x="1080" y="520" width="10" height="5" fill="#579DAE" />
<rect x="1090" y="520" width="5" height="5" fill="#54828E" />
<rect x="1095" y="520" width="5" height="5" fill="#537B85" />
<rect x="1100" y="520" width="5" height="5" fill="#50686D" />
<rect x="1105" y="520" width="5" height="5" fill="#4E5455" />
<rect x="1110" y="520" width="10" height="185" fill="#4D4D4D" />
<rect x="1120" y="520" width="5" height="5" fill="#4F5A5D" />
<rect x="1125" y="520" width="35" height="5" fill="#50686D" />
<rect x="1160" y="520" width="40" height="155" fill="#4D4D4D" />
<rect x="1220" y="520" width="5" height="5" fill="#818181" />
<rect x="1315" y="520" width="5" height="5" fill="#605742" />
<rect x="1320" y="520" width="340" height="10" fill="#2A1C00" />
<rect x="1660" y="520" width="5" height="5" fill="#69604D" />
<rect x="990" y="525" width="5" height="5" fill="#949494" />
<rect x="1025" y="525" width="25" height="10" fill="#4D4D4D" />
<rect x="1050" y="525" width="5" height="5" fill="#4F6165" />
<rect x="1055" y="525" width="5" height="5" fill="#58A3B6" />
<rect x="1060" y="525" width="50" height="5" fill="#4D4D4D" />
<rect x="1120" y="525" width="40" height="180" fill="#4D4D4D" />
<rect x="1220" y="525" width="5" height="5" fill="#868686" />
<rect x="1315" y="525" width="5" height="5" fill="#8D8779" />
<rect x="1660" y="525" width="5" height="5" fill="#969184" />
<rect x="995" y="530" width="5" height="5" fill="#525252" />
<rect x="1050" y="530" width="5" height="5" fill="#58A3B6" />
<rect x="1055" y="530" width="5" height="15" fill="#5AB7CE" />
<rect x="1060" y="530" width="5" height="5" fill="#52757D" />
<rect x="1065" y="530" width="45" height="175" fill="#4D4D4D" />
<rect x="1320" y="530" width="5" height="5" fill="#3C3016" />
<rect x="1325" y="530" width="330" height="15" fill="#2A1C00" />
<rect x="1655" y="530" width="5" height="5" fill="#33260B" />
<rect x="995" y="535" width="5" height="5" fill="#606060" />
<rect x="1025" y="535" width="5" height="5" fill="#548996" />
<rect x="1030" y="535" width="15" height="5" fill="#4D4D4D" />
<rect x="1045" y="535" width="5" height="5" fill="#50686D" />
<rect x="1050" y="535" width="5" height="10" fill="#5AB7CE" />
<rect x="1060" y="535" width="5" height="5" fill="#59B0C6" />
<rect x="1215" y="535" width="5" height="5" fill="#525252" />
<rect x="1320" y="535" width="5" height="5" fill="#726A58" />
<rect x="1655" y="535" width="5" height="5" fill="#574D37" />
<rect x="995" y="540" width="5" height="5" fill="#6E6E6E" />
<rect x="1010" y="540" width="10" height="10" fill="#4D4D4D" />
<rect x="1020" y="540" width="5" height="5" fill="#52757D" />
<rect x="1025" y="540" width="5" height="25" fill="#5AB7CE" />
<rect x="1030" y="540" width="5" height="5" fill="#4F6165" />
<rect x="1035" y="540" width="10" height="150" fill="#4D4D4D" />
<rect x="1045" y="540" width="5" height="5" fill="#4F6165" />
<rect x="1060" y="540" width="5" height="5" fill="#58AABE" />
<rect x="1215" y="540" width="5" height="5" fill="#606060" />
<rect x="1320" y="540" width="5" height="5" fill="#A8A59A" />
<rect x="1655" y="540" width="5" height="5" fill="#847E6E" />
<rect x="995" y="545" width="5" height="5" fill="#7D7D7D" />
<rect x="1020" y="545" width="5" height="5" fill="#58AABE" />
<rect x="1030" y="545" width="5" height="5" fill="#558F9E" />
<rect x="1045" y="545" width="5" height="145" fill="#4D4D4D" />
<rect x="1050" y="545" width="5" height="5" fill="#516E75" />
<rect x="1055" y="545" width="5" height="5" fill="#54828E" />
<rect x="1060" y="545" width="5" height="5" fill="#4F6165" />
<rect x="1215" y="545" width="5" height="5" fill="#6A6A6A" />
<rect x="1325" y="545" width="5" height="5" fill="#574D37" />
<rect x="1330" y="545" width="325" height="5" fill="#2A1C00" />
<rect x="1655" y="545" width="5" height="5" fill="#B1AEA5" />
<rect x="995" y="550" width="5" height="5" fill="#868686" />
<rect x="1010" y="550" width="5" height="70" fill="#4D4D4D" />
<rect x="1015" y="550" width="5" height="5" fill="#4F5A5D" />
<rect x="1020" y="550" width="5" height="10" fill="#5AB7CE" />
<rect x="1030" y="550" width="5" height="10" fill="#59B0C6" />
<rect x="1050" y="550" width="15" height="25" fill="#4D4D4D" />
<rect x="1215" y="550" width="5" height="5" fill="#737373" />
<rect x="1325" y="550" width="5" height="5" fill="#969184" />
<rect x="1330" y="550" width="320" height="5" fill="#2A1C00" />
<rect x="1650" y="550" width="5" height="5" fill="#574D37" />
<rect x="995" y="555" width="5" height="5" fill="#949494" />
<rect x="1015" y="555" width="5" height="55" fill="#4D4D4D" />
<rect x="1215" y="555" width="5" height="5" fill="#818181" />
<rect x="1330" y="555" width="5" height="5" fill="#3C3016" />
<rect x="1335" y="555" width="315" height="10" fill="#2A1C00" />
<rect x="1650" y="555" width="5" height="5" fill="#847E6E" />
<rect x="1000" y="560" width="5" height="5" fill="#525252" />
<rect x="1020" y="560" width="5" height="5" fill="#548996" />
<rect x="1030" y="560" width="5" height="5" fill="#54828E" />
<rect x="1215" y="560" width="5" height="5" fill="#868686" />
<rect x="1330" y="560" width="5" height="5" fill="#847E6E" />
<rect x="1650" y="560" width="5" height="5" fill="#B1AEA5" />
<rect x="1000" y="565" width="5" height="5" fill="#606060" />
<rect x="1020" y="565" width="15" height="35" fill="#4D4D4D" />
<rect x="1335" y="565" width="5" height="5" fill="#33260B" />
<rect x="1340" y="565" width="305" height="5" fill="#2A1C00" />
<rect x="1645" y="565" width="5" height="5" fill="#574D37" />
<rect x="1000" y="570" width="5" height="5" fill="#6E6E6E" />
<rect x="1210" y="570" width="5" height="5" fill="#525252" />
<rect x="1335" y="570" width="5" height="5" fill="#726A58" />
<rect x="1340" y="570" width="175" height="5" fill="#2A1C00" />
<rect x="1515" y="570" width="5" height="5" fill="#352910" />
<rect x="1520" y="570" width="95" height="5" fill="#403520" />
<rect x="1615" y="570" width="5" height="5" fill="#453B28" />
<rect x="1620" y="570" width="25" height="5" fill="#554E40" />
<rect x="1645" y="570" width="5" height="5" fill="#8F8A7E" />
<rect x="1000" y="575" width="5" height="5" fill="#787878" />
<rect x="1050" y="575" width="5" height="10" fill="#4D4D4D" />
<rect x="1055" y="575" width="5" height="5" fill="#52757D" />
<rect x="1060" y="575" width="5" height="5" fill="#4E5455" />
<rect x="1210" y="575" width="5" height="5" fill="#606060" />
<rect x="1335" y="575" width="5" height="5" fill="#AAA79F" />
<rect x="1340" y="575" width="75" height="5" fill="#6B6760" />
<rect x="1415" y="575" width="5" height="5" fill="#757470" />
<rect x="1420" y="575" width="225" height="5" fill="#808080" />
<rect x="1645" y="575" width="5" height="5" fill="#B6B5AD" />
<rect x="1000" y="580" width="5" height="5" fill="#868686" />
<rect x="1055" y="580" width="5" height="5" fill="#58AABE" />
<rect x="1060" y="580" width="5" height="5" fill="#537B85" />
<rect x="1210" y="580" width="5" height="5" fill="#6A6A6A" />
<rect x="1340" y="580" width="5" height="5" fill="#8F8E8C" />
<rect x="1345" y="580" width="295" height="10" fill="#808080" />
<rect x="1640" y="580" width="5" height="5" fill="#92928F" />
<rect x="1000" y="585" width="5" height="5" fill="#949494" />
<rect x="1050" y="585" width="5" height="5" fill="#4F6165" />
<rect x="1055" y="585" width="5" height="15" fill="#5AB7CE" />
<rect x="1060" y="585" width="5" height="5" fill="#58A3B6" />
<rect x="1210" y="585" width="5" height="5" fill="#737373" />
<rect x="1340" y="585" width="5" height="5" fill="#A8A7A1" />
<rect x="1640" y="585" width="5" height="5" fill="#A4A39E" />
<rect x="1005" y="590" width="5" height="5" fill="#525252" />
<rect x="1050" y="590" width="5" height="5" fill="#50686D" />
<rect x="1060" y="590" width="5" height="5" fill="#5AB7CE" />
<rect x="1210" y="590" width="5" height="5" fill="#818181" />
<rect x="1345" y="590" width="5" height="5" fill="#878786" />
<rect x="1350" y="590" width="290" height="5" fill="#808080" />
<rect x="1640" y="590" width="5" height="5" fill="#B6B5AD" />
<rect x="1005" y="595" width="5" height="5" fill="#606060" />
<rect x="1050" y="595" width="5" height="5" fill="#4F6165" />
<rect x="1060" y="595" width="5" height="5" fill="#58AABE" />
<rect x="1210" y="595" width="5" height="5" fill="#868686" />
<rect x="1345" y="595" width="5" height="5" fill="#A4A39E" />
<rect x="1350" y="595" width="95" height="5" fill="#808080" />
<rect x="1445" y="595" width="5" height="5" fill="#8B8B89" />
<rect x="1450" y="595" width="90" height="5" fill="#8F8E8C" />
<rect x="1540" y="595" width="5" height="5" fill="#999995" />
<rect x="1545" y="595" width="90" height="5" fill="#9D9C98" />
<rect x="1635" y="595" width="5" height="5" fill="#AFAEA7" />
<rect x="1005" y="600" width="5" height="5" fill="#737373" />
<rect x="1020" y="600" width="5" height="5" fill="#4E5455" />
<rect x="1025" y="600" width="5" height="5" fill="#4F5A5D" />
<rect x="1030" y="600" width="5" height="10" fill="#4D4D4D" />
<rect x="1050" y="600" width="5" height="50" fill="#4D4D4D" />
<rect x="1055" y="600" width="5" height="5" fill="#537B85" />
<rect x="1060" y="600" width="5" height="5" fill="#50686D" />
<rect x="1005" y="605" width="5" height="5" fill="#787878" />
<rect x="1020" y="605" width="5" height="5" fill="#54828E" />
<rect x="1025" y="605" width="5" height="5" fill="#579DAE" />
<rect x="1055" y="605" width="10" height="40" fill="#4D4D4D" />
<rect x="1200" y="605" width="5" height="35" fill="#4D4D4D" />
<rect x="1205" y="605" width="5" height="5" fill="#525252" />
<rect x="1005" y="610" width="5" height="5" fill="#868686" />
<rect x="1015" y="610" width="5" height="5" fill="#4E5455" />
<rect x="1020" y="610" width="5" height="5" fill="#59B0C6" />
<rect x="1025" y="610" width="5" height="15" fill="#5AB7CE" />
<rect x="1030" y="610" width="5" height="5" fill="#4F6165" />
<rect x="1205" y="610" width="5" height="5" fill="#606060" />
<rect x="1005" y="615" width="5" height="5" fill="#949494" />
<rect x="1015" y="615" width="5" height="5" fill="#50686D" />
<rect x="1020" y="615" width="5" height="10" fill="#5AB7CE" />
<rect x="1030" y="615" width="5" height="5" fill="#54828E" />
<rect x="1205" y="615" width="5" height="5" fill="#6A6A6A" />
<rect x="1010" y="620" width="5" height="5" fill="#525252" />
<rect x="1015" y="620" width="5" height="5" fill="#4F6165" />
<rect x="1030" y="620" width="5" height="5" fill="#537B85" />
<rect x="1205" y="620" width="5" height="5" fill="#737373" />
<rect x="1010" y="625" width="5" height="5" fill="#686866" />
<rect x="1015" y="625" width="5" height="25" fill="#4D4D4D" />
<rect x="1020" y="625" width="5" height="5" fill="#516E75" />
<rect x="1025" y="625" width="5" height="5" fill="#537B85" />
<rect x="1030" y="625" width="5" height="75" fill="#4D4D4D" />
<rect x="1205" y="625" width="5" height="5" fill="#989791" />
<rect x="1010" y="630" width="5" height="5" fill="#7D7C78" />
<rect x="1020" y="630" width="10" height="50" fill="#4D4D4D" />
<rect x="1205" y="630" width="5" height="5" fill="#9F9D97" />
<rect x="1010" y="635" width="5" height="5" fill="#8A8985" />
<rect x="1010" y="640" width="5" height="5" fill="#9F9D97" />
<rect x="1200" y="640" width="5" height="5" fill="#545453" />
<rect x="1010" y="645" width="5" height="5" fill="#B3B1AA" />
<rect x="1055" y="645" width="5" height="5" fill="#54828E" />
<rect x="1060" y="645" width="5" height="5" fill="#4F5A5D" />
<rect x="1200" y="645" width="5" height="5" fill="#686866" />
<rect x="1015" y="650" width="5" height="5" fill="#545453" />
<rect x="1050" y="650" width="5" height="5" fill="#4E5455" />
<rect x="1055" y="650" width="5" height="5" fill="#59B0C6" />
<rect x="1060" y="650" width="5" height="5" fill="#558F9E" />
<rect x="1200" y="650" width="5" height="5" fill="#767572" />
<rect x="1015" y="655" width="5" height="5" fill="#686866" />
<rect x="1050" y="655" width="5" height="10" fill="#50686D" />
<rect x="1055" y="655" width="5" height="10" fill="#5AB7CE" />
<rect x="1060" y="655" width="5" height="10" fill="#59B0C6" />
<rect x="1200" y="655" width="5" height="5" fill="#84837F" />
<rect x="1015" y="660" width="5" height="5" fill="#7D7C78" />
<rect x="1200" y="660" width="5" height="5" fill="#989791" />
<rect x="1015" y="665" width="5" height="5" fill="#8A8985" />
<rect x="1050" y="665" width="5" height="40" fill="#4D4D4D" />
<rect x="1055" y="665" width="5" height="5" fill="#537B85" />
<rect x="1060" y="665" width="5" height="5" fill="#516E75" />
<rect x="1200" y="665" width="5" height="5" fill="#9F9D97" />
<rect x="1015" y="670" width="5" height="5" fill="#9F9D97" />
<rect x="1055" y="670" width="10" height="35" fill="#4D4D4D" />
<rect x="1015" y="675" width="5" height="5" fill="#B3B1AA" />
<rect x="1160" y="675" width="35" height="30" fill="#4D4D4D" />
<rect x="1195" y="675" width="5" height="5" fill="#545453" />
<rect x="1020" y="680" width="5" height="5" fill="#545453" />
<rect x="1025" y="680" width="5" height="20" fill="#4D4D4D" />
<rect x="1195" y="680" width="5" height="5" fill="#686866" />
<rect x="1020" y="685" width="5" height="5" fill="#686866" />
<rect x="1195" y="685" width="5" height="5" fill="#767572" />
<rect x="1020" y="690" width="5" height="5" fill="#7D7C78" />
<rect x="1035" y="690" width="5" height="5" fill="#4D4D4D" />
<rect x="1040" y="690" width="5" height="5" fill="#50686D" />
<rect x="1045" y="690" width="5" height="5" fill="#4E5455" />
<rect x="1195" y="690" width="5" height="5" fill="#84837F" />
<rect x="1020" y="695" width="5" height="5" fill="#8A8985" />
<rect x="1035" y="695" width="5" height="5" fill="#4F5A5D" />
<rect x="1040" y="695" width="5" height="5" fill="#59B0C6" />
<rect x="1045" y="695" width="5" height="5" fill="#558F9E" />
<rect x="1195" y="695" width="5" height="5" fill="#989791" />
<rect x="1015" y="700" width="5" height="5" fill="#B4B8B2" />
<rect x="1020" y="700" width="5" height="5" fill="#8EA4A5" />
<rect x="1025" y="700" width="5" height="5" fill="#50686D" />
<rect x="1030" y="700" width="5" height="5" fill="#4E5455" />
<rect x="1035" y="700" width="5" height="5" fill="#50686D" />
<rect x="1040" y="700" width="10" height="50" fill="#5AB7CE" />
<rect x="1195" y="700" width="5" height="5" fill="#9F9D97" />
<rect x="1000" y="705" width="5" height="5" fill="#B4B8B2" />
<rect x="1005" y="705" width="5" height="5" fill="#8AB8BF" />
<rect x="1010" y="705" width="5" height="5" fill="#66B7CA" />
<rect x="1015" y="705" width="25" height="45" fill="#5AB7CE" />
<rect x="1050" y="705" width="25" height="45" fill="#5AB7CE" />
<rect x="1075" y="705" width="5" height="5" fill="#60B7CC" />
<rect x="1080" y="705" width="10" height="5" fill="#72B7C7" />
<rect x="1090" y="705" width="5" height="5" fill="#84B7C1" />
<rect x="1095" y="705" width="5" height="5" fill="#8AB8BF" />
<rect x="1100" y="705" width="5" height="5" fill="#90B8BD" />
<rect x="1105" y="705" width="10" height="5" fill="#A2B8B8" />
<rect x="1115" y="705" width="5" height="5" fill="#B4B8B2" />
<rect x="1000" y="710" width="5" height="5" fill="#6CB7C8" />
<rect x="1005" y="710" width="10" height="30" fill="#5AB7CE" />
<rect x="1075" y="710" width="40" height="30" fill="#5AB7CE" />
<rect x="1115" y="710" width="5" height="5" fill="#6CB7C8" />
<rect x="1120" y="710" width="5" height="5" fill="#B4B8B2" />
<rect x="995" y="715" width="5" height="5" fill="#96B8BB" />
<rect x="1000" y="715" width="5" height="15" fill="#5AB7CE" />
<rect x="1115" y="715" width="5" height="20" fill="#5AB7CE" />
<rect x="1120" y="715" width="5" height="5" fill="#72B7C7" />
<rect x="995" y="720" width="5" height="5" fill="#8AB8BF" />
<rect x="1120" y="720" width="5" height="10" fill="#5AB7CE" />
<rect x="1125" y="720" width="5" height="5" fill="#AEB8B4" />
<rect x="995" y="725" width="5" height="5" fill="#9CB8B9" />
<rect x="1125" y="725" width="5" height="5" fill="#B4B8B2" />
<rect x="995" y="730" width="5" height="5" fill="#B4B8B2" />
<rect x="1000" y="730" width="5" height="5" fill="#60B7CC" />
<rect x="1120" y="730" width="5" height="5" fill="#66B7CA" />
<rect x="1000" y="735" width="5" height="5" fill="#8AB8BF" />
<rect x="1115" y="735" width="5" height="5" fill="#60B7CC" />
<rect x="1120" y="735" width="5" height="5" fill="#A8B8B6" />
<rect x="1005" y="740" width="5" height="5" fill="#72B7C7" />
<rect x="1010" y="740" width="5" height="5" fill="#5AB7CE" />
<rect x="1075" y="740" width="35" height="5" fill="#5AB7CE" />
<rect x="1110" y="740" width="5" height="5" fill="#66B7CA" />
<rect x="1115" y="740" width="5" height="5" fill="#A8B8B6" />
<rect x="1005" y="745" width="5" height="5" fill="#B4B8B2" />
<rect x="1010" y="745" width="5" height="5" fill="#72B7C7" />
<rect x="1075" y="745" width="25" height="5" fill="#5AB7CE" />
<rect x="1100" y="745" width="5" height="5" fill="#6CB7C8" />
<rect x="1105" y="745" width="5" height="5" fill="#90B8BD" />
<rect x="1015" y="750" width="5" height="5" fill="#8AB8BF" />
<rect x="1020" y="750" width="5" height="5" fill="#60B7CC" />
<rect x="1025" y="750" width="15" height="5" fill="#5AB7CE" />
<rect x="1040" y="750" width="5" height="5" fill="#60B7CC" />
<rect x="1045" y="750" width="5" height="5" fill="#78B7C5" />
<rect x="1050" y="750" width="5" height="5" fill="#8AB8BF" />
<rect x="1055" y="750" width="5" height="5" fill="#9CB8B9" />
<rect x="1060" y="750" width="5" height="5" fill="#A2B8B8" />
<rect x="95" y="790" width="760" height="290" fill="#999999" />
</svg>