<?xml version="1.0" encoding="UTF-8" ?>
<svg version="1.1" width="1100" height="1000" xmlns="http://www.w3.org/2000/svg" shape-rendering="crispEdges">
<rect x="40" y="15" width="5" height="5" fill="#777667" />
<rect x="45" y="15" width="500" height="175" fill="#666666" />
<rect x="545" y="15" width="5" height="5" fill="#595B5F" />
<rect x="550" y="15" width="5" height="5" fill="#1A2139" />
<rect x="40" y="20" width="5" height="170" fill="#666666" />
<rect x="545" y="20" width="10" height="170" fill="#666666" />
<rect x="30" y="25" width="5" height="5" fill="#C9C569" />
<rect x="35" y="25" width="5" height="160" fill="#666666" />
<rect x="555" y="25" width="10" height="155" fill="#666666" />
<rect x="30" y="30" width="5" height="5" fill="#777667" />
<rect x="25" y="35" width="5" height="5" fill="#989568" />
<rect x="30" y="35" width="5" height="140" fill="#666666" />
<rect x="565" y="35" width="5" height="5" fill="#404450" />
<rect x="25" y="40" width="5" height="5" fill="#777667" />
<rect x="565" y="40" width="5" height="5" fill="#595B5F" />
<rect x="25" y="45" width="5" height="120" fill="#666666" />
<rect x="565" y="45" width="5" height="120" fill="#666666" />
<rect x="820" y="45" width="5" height="5" fill="#ADADAD" />
<rect x="825" y="45" width="45" height="5" fill="#A1A1A1" />
<rect x="870" y="45" width="50" height="5" fill="#909090" />
<rect x="920" y="45" width="5" height="5" fill="#888888" />
<rect x="925" y="45" width="75" height="20" fill="#808080" />
<rect x="640" y="50" width="90" height="10" fill="#784E26" />
<rect x="730" y="50" width="5" height="5" fill="#754C24" />
<rect x="820" y="50" width="5" height="5" fill="#888888" />
<rect x="825" y="50" width="100" height="15" fill="#808080" />
<rect x="730" y="55" width="5" height="5" fill="#784E26" />
<rect x="820" y="55" width="5" height="10" fill="#808080" />
<rect x="1000" y="55" width="5" height="5" fill="#989898" />
<rect x="640" y="60" width="95" height="90" fill="#754C24" />
<rect x="815" y="60" width="5" height="5" fill="#B9B9B9" />
<rect x="1000" y="60" width="5" height="5" fill="#808080" />
<rect x="1005" y="60" width="5" height="5" fill="#B9B9B9" />
<rect x="810" y="65" width="5" height="5" fill="#B8B7B5" />
<rect x="815" y="65" width="5" height="5" fill="#33260C" />
<rect x="820" y="65" width="185" height="30" fill="#2A1C00" />
<rect x="1005" y="65" width="5" height="5" fill="#635A48" />
<rect x="810" y="70" width="5" height="5" fill="#888379" />
<rect x="815" y="70" width="5" height="25" fill="#2A1C00" />
<rect x="1005" y="70" width="5" height="5" fill="#33260C" />
<rect x="810" y="75" width="5" height="5" fill="#362306" />
<rect x="1005" y="75" width="5" height="20" fill="#2A1C00" />
<rect x="805" y="80" width="5" height="5" fill="#86522A" />
<rect x="810" y="80" width="5" height="15" fill="#2A1C00" />
<rect x="1010" y="80" width="5" height="5" fill="#5B3917" />
<rect x="805" y="85" width="5" height="5" fill="#3C2708" />
<rect x="1010" y="85" width="5" height="10" fill="#2A1C00" />
<rect x="1015" y="85" width="5" height="5" fill="#7A4B25" />
<rect x="805" y="90" width="5" height="5" fill="#2A1C00" />
<rect x="1015" y="90" width="5" height="5" fill="#553514" />
<rect x="805" y="95" width="215" height="20" fill="#808080" />
<rect x="1020" y="105" width="5" height="5" fill="#86522A" />
<rect x="800" y="110" width="5" height="5" fill="#88664C" />
<rect x="1020" y="110" width="5" height="5" fill="#6D4724" />
<rect x="800" y="115" width="5" height="5" fill="#553514" />
<rect x="805" y="115" width="215" height="95" fill="#2A1C00" />
<rect x="1020" y="115" width="5" height="5" fill="#362306" />
<rect x="800" y="120" width="5" height="5" fill="#3C2708" />
<rect x="1020" y="120" width="5" height="190" fill="#2A1C00" />
<rect x="1025" y="120" width="5" height="5" fill="#804F27" />
<rect x="795" y="125" width="5" height="5" fill="#86522A" />
<rect x="800" y="125" width="5" height="175" fill="#2A1C00" />
<rect x="1025" y="125" width="5" height="5" fill="#67401C" />
<rect x="795" y="130" width="5" height="5" fill="#5B3917" />
<rect x="1025" y="130" width="5" height="5" fill="#362306" />
<rect x="795" y="135" width="5" height="145" fill="#2A1C00" />
<rect x="1025" y="135" width="5" height="175" fill="#2A1C00" />
<rect x="1030" y="145" width="5" height="5" fill="#86522A" />
<rect x="1030" y="150" width="5" height="5" fill="#744822" />
<rect x="790" y="155" width="5" height="5" fill="#744822" />
<rect x="1030" y="155" width="5" height="5" fill="#553514" />
<rect x="790" y="160" width="5" height="5" fill="#6D441F" />
<rect x="1030" y="160" width="5" height="5" fill="#432B0B" />
<rect x="25" y="165" width="5" height="5" fill="#404450" />
<rect x="565" y="165" width="5" height="5" fill="#404450" />
<rect x="790" y="165" width="5" height="5" fill="#5B3917" />
<rect x="1030" y="165" width="5" height="115" fill="#2A1C00" />
<rect x="25" y="170" width="5" height="5" fill="#20273D" />
<rect x="565" y="170" width="5" height="5" fill="#20273D" />
<rect x="790" y="170" width="5" height="10" fill="#432B0B" />
<rect x="30" y="175" width="5" height="5" fill="#595B5F" />
<rect x="555" y="180" width="5" height="5" fill="#666666" />
<rect x="560" y="180" width="5" height="5" fill="#393E4C" />
<rect x="790" y="180" width="5" height="60" fill="#2A1C00" />
<rect x="35" y="185" width="5" height="5" fill="#404450" />
<rect x="555" y="185" width="5" height="5" fill="#404450" />
<rect x="45" y="190" width="5" height="5" fill="#404450" />
<rect x="50" y="190" width="5" height="5" fill="#595B5F" />
<rect x="55" y="190" width="485" height="5" fill="#666666" />
<rect x="540" y="190" width="5" height="5" fill="#404450" />
<rect x="785" y="190" width="5" height="5" fill="#744822" />
<rect x="115" y="195" width="30" height="305" fill="#8C6239" />
<rect x="440" y="195" width="35" height="305" fill="#8C6239" />
<rect x="785" y="195" width="5" height="35" fill="#9B9891" />
<rect x="805" y="210" width="40" height="5" fill="#2A1C00" />
<rect x="845" y="210" width="5" height="5" fill="#271A00" />
<rect x="850" y="210" width="10" height="40" fill="#000000" />
<rect x="860" y="210" width="5" height="5" fill="#100B00" />
<rect x="865" y="210" width="5" height="5" fill="#271A00" />
<rect x="870" y="210" width="150" height="100" fill="#2A1C00" />
<rect x="805" y="215" width="35" height="95" fill="#2A1C00" />
<rect x="840" y="215" width="5" height="5" fill="#150E00" />
<rect x="845" y="215" width="5" height="25" fill="#000000" />
<rect x="860" y="215" width="10" height="25" fill="#000000" />
<rect x="840" y="220" width="5" height="5" fill="#050400" />
<rect x="840" y="225" width="5" height="10" fill="#000000" />
<rect x="840" y="235" width="5" height="5" fill="#050400" />
<rect x="790" y="240" width="5" height="5" fill="#463B24" />
<rect x="840" y="240" width="5" height="70" fill="#2A1C00" />
<rect x="845" y="240" width="5" height="5" fill="#080500" />
<rect x="860" y="240" width="5" height="5" fill="#000000" />
<rect x="865" y="240" width="5" height="5" fill="#080500" />
<rect x="660" y="245" width="5" height="5" fill="#B3B3B3" />
<rect x="665" y="245" width="5" height="5" fill="#BFBFBF" />
<rect x="670" y="245" width="20" height="5" fill="#CCCCCC" />
<rect x="690" y="245" width="5" height="5" fill="#BCBCBC" />
<rect x="695" y="245" width="5" height="5" fill="#AFAFAF" />
<rect x="790" y="245" width="5" height="5" fill="#504530" />
<rect x="845" y="245" width="5" height="5" fill="#271A00" />
<rect x="860" y="245" width="5" height="5" fill="#100B00" />
<rect x="865" y="245" width="5" height="5" fill="#271A00" />
<rect x="645" y="250" width="5" height="5" fill="#C2C2C2" />
<rect x="650" y="250" width="10" height="5" fill="#CCCCCC" />
<rect x="660" y="250" width="5" height="5" fill="#C9C9C9" />
<rect x="665" y="250" width="5" height="5" fill="#B9B9B9" />
<rect x="670" y="250" width="15" height="5" fill="#A6A6A6" />
<rect x="685" y="250" width="5" height="5" fill="#A9A9A9" />
<rect x="690" y="250" width="5" height="5" fill="#C2C2C2" />
<rect x="695" y="250" width="20" height="5" fill="#CCCCCC" />
<rect x="715" y="250" width="5" height="5" fill="#9C9C9C" />
<rect x="790" y="250" width="5" height="5" fill="#7F796D" />
<rect x="845" y="250" width="25" height="60" fill="#2A1C00" />
<rect x="635" y="255" width="5" height="5" fill="#ACACAC" />
<rect x="640" y="255" width="15" height="5" fill="#CCCCCC" />
<rect x="700" y="255" width="5" height="5" fill="#9C9C9C" />
<rect x="705" y="255" width="15" height="5" fill="#CCCCCC" />
<rect x="720" y="255" width="5" height="5" fill="#C9C9C9" />
<rect x="790" y="255" width="5" height="5" fill="#AEACA9" />
<rect x="635" y="260" width="15" height="5" fill="#CCCCCC" />
<rect x="650" y="260" width="5" height="5" fill="#B3B3B3" />
<rect x="705" y="260" width="5" height="5" fill="#A3A3A3" />
<rect x="710" y="260" width="5" height="5" fill="#C2C2C2" />
<rect x="715" y="260" width="10" height="5" fill="#CCCCCC" />
<rect x="725" y="260" width="5" height="5" fill="#A3A3A3" />
<rect x="625" y="265" width="5" height="5" fill="#A6A6A6" />
<rect x="630" y="265" width="10" height="5" fill="#CCCCCC" />
<rect x="640" y="265" width="5" height="5" fill="#C2C2C2" />
<rect x="715" y="265" width="5" height="5" fill="#ACACAC" />
<rect x="720" y="265" width="10" height="5" fill="#CCCCCC" />
<rect x="625" y="270" width="5" height="5" fill="#C9C9C9" />
<rect x="630" y="270" width="5" height="10" fill="#CCCCCC" />
<rect x="635" y="270" width="5" height="5" fill="#C2C2C2" />
<rect x="640" y="270" width="5" height="5" fill="#9C9C9C" />
<rect x="720" y="270" width="5" height="5" fill="#A3A3A3" />
<rect x="725" y="270" width="5" height="5" fill="#CCCCCC" />
<rect x="625" y="275" width="5" height="5" fill="#CCCCCC" />
<rect x="635" y="275" width="5" height="5" fill="#9C9C9C" />
<rect x="725" y="275" width="5" height="5" fill="#C9C9C9" />
<rect x="730" y="275" width="5" height="5" fill="#B6B6B6" />
<rect x="620" y="280" width="5" height="5" fill="#C9C9C9" />
<rect x="625" y="280" width="5" height="5" fill="#C6C6C6" />
<rect x="630" y="280" width="5" height="5" fill="#9C9C9C" />
<rect x="730" y="280" width="5" height="10" fill="#CCCCCC" />
<rect x="735" y="280" width="5" height="5" fill="#C6C6C6" />
<rect x="795" y="280" width="5" height="5" fill="#3D3118" />
<rect x="1030" y="280" width="5" height="5" fill="#59503C" />
<rect x="620" y="285" width="5" height="5" fill="#CCCCCC" />
<rect x="625" y="285" width="5" height="5" fill="#A3A3A3" />
<rect x="735" y="285" width="5" height="5" fill="#CCCCCC" />
<rect x="795" y="285" width="5" height="5" fill="#59503C" />
<rect x="1030" y="285" width="5" height="5" fill="#766F61" />
<rect x="615" y="290" width="5" height="5" fill="#BFBFBF" />
<rect x="620" y="290" width="5" height="5" fill="#B6B6B6" />
<rect x="735" y="290" width="5" height="5" fill="#C2C2C2" />
<rect x="740" y="290" width="5" height="5" fill="#B9B9B9" />
<rect x="795" y="290" width="5" height="5" fill="#9B9891" />
<rect x="1030" y="290" width="5" height="5" fill="#A5A29D" />
<rect x="610" y="295" width="5" height="5" fill="#A6A6A6" />
<rect x="615" y="295" width="5" height="5" fill="#CCCCCC" />
<rect x="620" y="295" width="5" height="5" fill="#9C9C9C" />
<rect x="735" y="295" width="5" height="5" fill="#9F9F9F" />
<rect x="740" y="295" width="5" height="5" fill="#CCCCCC" />
<rect x="745" y="295" width="5" height="5" fill="#9F9F9F" />
<rect x="1030" y="295" width="5" height="20" fill="#C1C1C1" />
<rect x="610" y="300" width="5" height="5" fill="#CCCCCC" />
<rect x="615" y="300" width="5" height="5" fill="#B3B3B3" />
<rect x="740" y="300" width="5" height="5" fill="#B6B6B6" />
<rect x="745" y="300" width="5" height="5" fill="#C9C9C9" />
<rect x="800" y="300" width="5" height="5" fill="#7F796D" />
<rect x="605" y="305" width="5" height="5" fill="#9C9C9C" />
<rect x="610" y="305" width="5" height="5" fill="#66B1C4" />
<rect x="615" y="305" width="130" height="10" fill="#5AB7CE" />
<rect x="745" y="305" width="5" height="5" fill="#66B1C4" />
<rect x="750" y="305" width="5" height="5" fill="#9C9C9C" />
<rect x="610" y="310" width="5" height="5" fill="#5AB7CE" />
<rect x="745" y="310" width="5" height="5" fill="#5AB7CE" />
<rect x="805" y="310" width="225" height="5" fill="#808080" />
<rect x="610" y="315" width="5" height="20" fill="#4D4D4D" />
<rect x="615" y="315" width="5" height="5" fill="#579DAE" />
<rect x="620" y="315" width="120" height="5" fill="#5AB7CE" />
<rect x="740" y="315" width="5" height="5" fill="#548996" />
<rect x="745" y="315" width="5" height="25" fill="#4D4D4D" />
<rect x="805" y="315" width="220" height="10" fill="#808080" />
<rect x="1025" y="315" width="5" height="5" fill="#969592" />
<rect x="615" y="320" width="5" height="35" fill="#4D4D4D" />
<rect x="620" y="320" width="115" height="5" fill="#5AB7CE" />
<rect x="735" y="320" width="5" height="5" fill="#5696A6" />
<rect x="740" y="320" width="5" height="40" fill="#4D4D4D" />
<rect x="1025" y="320" width="5" height="5" fill="#A4A39E" />
<rect x="620" y="325" width="5" height="5" fill="#4F5A5D" />
<rect x="625" y="325" width="5" height="5" fill="#59B0C6" />
<rect x="630" y="325" width="95" height="5" fill="#5AB7CE" />
<rect x="725" y="325" width="5" height="5" fill="#579DAE" />
<rect x="730" y="325" width="5" height="5" fill="#4E5455" />
<rect x="735" y="325" width="5" height="80" fill="#4D4D4D" />
<rect x="805" y="325" width="5" height="5" fill="#7E7D7B" />
<rect x="810" y="325" width="215" height="5" fill="#808080" />
<rect x="1025" y="325" width="5" height="5" fill="#B6B5AD" />
<rect x="620" y="330" width="25" height="10" fill="#4D4D4D" />
<rect x="645" y="330" width="5" height="5" fill="#4F6165" />
<rect x="650" y="330" width="5" height="5" fill="#58A3B6" />
<rect x="655" y="330" width="80" height="95" fill="#4D4D4D" />
<rect x="805" y="330" width="5" height="5" fill="#8D8779" />
<rect x="810" y="330" width="210" height="15" fill="#2A1C00" />
<rect x="1020" y="330" width="5" height="5" fill="#969184" />
<rect x="610" y="335" width="5" height="5" fill="#525252" />
<rect x="645" y="335" width="5" height="5" fill="#58A3B6" />
<rect x="650" y="335" width="5" height="10" fill="#5AB7CE" />
<rect x="610" y="340" width="5" height="5" fill="#6E6E6E" />
<rect x="620" y="340" width="5" height="50" fill="#4D4D4D" />
<rect x="625" y="340" width="5" height="5" fill="#52757D" />
<rect x="630" y="340" width="5" height="20" fill="#5AB7CE" />
<rect x="635" y="340" width="10" height="95" fill="#4D4D4D" />
<rect x="645" y="340" width="5" height="5" fill="#5AB7CE" />
<rect x="745" y="340" width="5" height="5" fill="#606060" />
<rect x="610" y="345" width="5" height="5" fill="#7D7D7D" />
<rect x="625" y="345" width="5" height="5" fill="#58AABE" />
<rect x="645" y="345" width="5" height="5" fill="#516E75" />
<rect x="650" y="345" width="5" height="5" fill="#54828E" />
<rect x="745" y="345" width="5" height="5" fill="#6A6A6A" />
<rect x="810" y="345" width="5" height="5" fill="#574D37" />
<rect x="815" y="345" width="205" height="5" fill="#2A1C00" />
<rect x="610" y="350" width="5" height="5" fill="#949494" />
<rect x="625" y="350" width="5" height="5" fill="#5AB7CE" />
<rect x="645" y="350" width="10" height="10" fill="#4D4D4D" />
<rect x="745" y="350" width="5" height="5" fill="#818181" />
<rect x="815" y="350" width="5" height="5" fill="#3C3016" />
<rect x="820" y="350" width="195" height="10" fill="#2A1C00" />
<rect x="1015" y="350" width="5" height="5" fill="#847E6E" />
<rect x="615" y="355" width="5" height="5" fill="#525252" />
<rect x="625" y="355" width="5" height="5" fill="#548996" />
<rect x="745" y="355" width="5" height="5" fill="#868686" />
<rect x="815" y="355" width="5" height="5" fill="#847E6E" />
<rect x="1015" y="355" width="5" height="5" fill="#B1AEA5" />
<rect x="615" y="360" width="5" height="5" fill="#787878" />
<rect x="625" y="360" width="10" height="20" fill="#4D4D4D" />
<rect x="645" y="360" width="5" height="5" fill="#4D4D4D" />
<rect x="650" y="360" width="5" height="5" fill="#52757D" />
<rect x="740" y="360" width="5" height="5" fill="#606060" />
<rect x="820" y="360" width="50" height="5" fill="#6B6760" />
<rect x="870" y="360" width="5" height="5" fill="#757470" />
<rect x="875" y="360" width="135" height="15" fill="#808080" />
<rect x="1010" y="360" width="5" height="5" fill="#B6B5AD" />
<rect x="615" y="365" width="5" height="5" fill="#949494" />
<rect x="645" y="365" width="5" height="5" fill="#4F6165" />
<rect x="650" y="365" width="5" height="15" fill="#5AB7CE" />
<rect x="740" y="365" width="5" height="5" fill="#737373" />
<rect x="820" y="365" width="5" height="5" fill="#A8A7A1" />
<rect x="825" y="365" width="50" height="5" fill="#808080" />
<rect x="645" y="370" width="5" height="5" fill="#50686D" />
<rect x="740" y="370" width="5" height="5" fill="#818181" />
<rect x="825" y="370" width="5" height="5" fill="#878786" />
<rect x="830" y="370" width="45" height="10" fill="#808080" />
<rect x="645" y="375" width="5" height="5" fill="#4F6165" />
<rect x="740" y="375" width="5" height="5" fill="#868686" />
<rect x="825" y="375" width="5" height="5" fill="#A4A39E" />
<rect x="875" y="375" width="10" height="5" fill="#808080" />
<rect x="885" y="375" width="5" height="5" fill="#8B8B89" />
<rect x="890" y="375" width="60" height="5" fill="#8F8E8C" />
<rect x="950" y="375" width="55" height="5" fill="#9D9C98" />
<rect x="1005" y="375" width="5" height="5" fill="#AFAEA7" />
<rect x="625" y="380" width="5" height="5" fill="#54828E" />
<rect x="630" y="380" width="5" height="5" fill="#579DAE" />
<rect x="645" y="380" width="10" height="30" fill="#4D4D4D" />
<rect x="625" y="385" width="5" height="5" fill="#59B0C6" />
<rect x="630" y="385" width="5" height="10" fill="#5AB7CE" />
<rect x="620" y="390" width="5" height="5" fill="#525252" />
<rect x="625" y="390" width="5" height="5" fill="#5AB7CE" />
<rect x="620" y="395" width="5" height="5" fill="#686866" />
<rect x="625" y="395" width="5" height="5" fill="#516E75" />
<rect x="630" y="395" width="5" height="5" fill="#537B85" />
<rect x="620" y="400" width="5" height="5" fill="#8A8985" />
<rect x="625" y="400" width="10" height="30" fill="#4D4D4D" />
<rect x="620" y="405" width="5" height="5" fill="#9F9D97" />
<rect x="735" y="405" width="5" height="5" fill="#545453" />
<rect x="645" y="410" width="5" height="5" fill="#4E5455" />
<rect x="650" y="410" width="5" height="5" fill="#59B0C6" />
<rect x="735" y="410" width="5" height="5" fill="#767572" />
<rect x="645" y="415" width="5" height="5" fill="#50686D" />
<rect x="650" y="415" width="5" height="5" fill="#5AB7CE" />
<rect x="735" y="415" width="5" height="5" fill="#84837F" />
<rect x="645" y="420" width="10" height="25" fill="#4D4D4D" />
<rect x="655" y="425" width="75" height="20" fill="#4D4D4D" />
<rect x="730" y="425" width="5" height="5" fill="#545453" />
<rect x="625" y="430" width="5" height="5" fill="#686866" />
<rect x="630" y="430" width="5" height="10" fill="#4D4D4D" />
<rect x="730" y="430" width="5" height="5" fill="#767572" />
<rect x="625" y="435" width="5" height="5" fill="#7D7C78" />
<rect x="635" y="435" width="5" height="5" fill="#4D4D4D" />
<rect x="640" y="435" width="5" height="5" fill="#50686D" />
<rect x="730" y="435" width="5" height="5" fill="#84837F" />
<rect x="625" y="440" width="5" height="5" fill="#8EA4A5" />
<rect x="630" y="440" width="10" height="5" fill="#50686D" />
<rect x="640" y="440" width="5" height="35" fill="#5AB7CE" />
<rect x="730" y="440" width="5" height="5" fill="#9F9D97" />
<rect x="615" y="445" width="5" height="5" fill="#B4B8B2" />
<rect x="620" y="445" width="5" height="5" fill="#66B7CA" />
<rect x="625" y="445" width="15" height="30" fill="#5AB7CE" />
<rect x="645" y="445" width="15" height="30" fill="#5AB7CE" />
<rect x="660" y="445" width="10" height="5" fill="#72B7C7" />
<rect x="670" y="445" width="5" height="5" fill="#8AB8BF" />
<rect x="675" y="445" width="5" height="5" fill="#90B8BD" />
<rect x="680" y="445" width="5" height="5" fill="#A2B8B8" />
<rect x="685" y="445" width="5" height="5" fill="#B4B8B2" />
<rect x="610" y="450" width="5" height="5" fill="#96B8BB" />
<rect x="615" y="450" width="10" height="10" fill="#5AB7CE" />
<rect x="660" y="450" width="30" height="15" fill="#5AB7CE" />
<rect x="610" y="455" width="5" height="5" fill="#8AB8BF" />
<rect x="690" y="455" width="5" height="5" fill="#AEB8B4" />
<rect x="610" y="460" width="5" height="5" fill="#B4B8B2" />
<rect x="615" y="460" width="5" height="5" fill="#60B7CC" />
<rect x="620" y="460" width="5" height="15" fill="#5AB7CE" />
<rect x="615" y="465" width="5" height="5" fill="#8AB8BF" />
<rect x="660" y="465" width="25" height="5" fill="#5AB7CE" />
<rect x="685" y="465" width="5" height="5" fill="#60B7CC" />
<rect x="660" y="470" width="20" height="5" fill="#5AB7CE" />
<rect x="680" y="470" width="5" height="5" fill="#66B7CA" />
<rect x="685" y="470" width="5" height="5" fill="#A8B8B6" />
<rect x="55" y="500" width="470" height="185" fill="#999999" />
</svg>