<?xml version="1.0" encoding="UTF-8" ?>
<svg version="1.1" width="1075" height="1210" xmlns="http://www.w3.org/2000/svg" shape-rendering="crispEdges">
<rect x="0" y="0" width="160" height="10" fill="#E1D97C" />
<rect x="190" y="0" width="5" height="5" fill="#F3C791" />
<rect x="195" y="0" width="515" height="5" fill="#FFC57F" />
<rect x="190" y="5" width="5" height="10" fill="#E1B57F" />
<rect x="195" y="5" width="5" height="215" fill="#FFC57F" />
<rect x="200" y="5" width="505" height="20" fill="#FFE37F" />
<rect x="705" y="5" width="5" height="215" fill="#FFC57F" />
<rect x="0" y="10" width="160" height="150" fill="#FFF68D" />
<rect x="190" y="15" width="5" height="10" fill="#F3C791" />
<rect x="190" y="25" width="5" height="5" fill="#E1B57F" />
<rect x="200" y="25" width="35" height="190" fill="#FFE37F" />
<rect x="235" y="25" width="65" height="45" fill="#FFC57F" />
<rect x="300" y="25" width="5" height="45" fill="#FFD97F" />
<rect x="305" y="25" width="130" height="55" fill="#FFE37F" />
<rect x="435" y="25" width="5" height="40" fill="#FFD77F" />
<rect x="440" y="25" width="65" height="40" fill="#FFC57F" />
<rect x="505" y="25" width="25" height="190" fill="#FFE37F" />
<rect x="530" y="25" width="5" height="20" fill="#FFD97F" />
<rect x="535" y="25" width="40" height="20" fill="#FFC57F" />
<rect x="575" y="25" width="130" height="70" fill="#FFE37F" />
<rect x="190" y="30" width="5" height="10" fill="#F3C791" />
<rect x="190" y="40" width="5" height="10" fill="#E1B57F" />
<rect x="530" y="45" width="45" height="50" fill="#FFE37F" />
<rect x="190" y="50" width="5" height="10" fill="#F3C791" />
<rect x="190" y="60" width="5" height="10" fill="#E1B57F" />
<rect x="435" y="65" width="70" height="150" fill="#FFE37F" />
<rect x="190" y="70" width="5" height="5" fill="#F3C791" />
<rect x="235" y="70" width="70" height="10" fill="#FFE37F" />
<rect x="190" y="75" width="5" height="10" fill="#E1B57F" />
<rect x="235" y="80" width="20" height="135" fill="#FFE37F" />
<rect x="255" y="80" width="70" height="40" fill="#FFC57F" />
<rect x="325" y="80" width="110" height="85" fill="#FFE37F" />
<rect x="190" y="85" width="5" height="10" fill="#F3C791" />
<rect x="190" y="95" width="5" height="10" fill="#E1B57F" />
<rect x="530" y="95" width="5" height="120" fill="#FFE37F" />
<rect x="535" y="95" width="65" height="45" fill="#FFC57F" />
<rect x="600" y="95" width="5" height="45" fill="#FFDF7F" />
<rect x="605" y="95" width="100" height="60" fill="#FFE37F" />
<rect x="190" y="105" width="5" height="10" fill="#F3C791" />
<rect x="190" y="115" width="5" height="5" fill="#E1B57F" />
<rect x="190" y="120" width="5" height="10" fill="#F3C791" />
<rect x="255" y="120" width="70" height="60" fill="#FFE37F" />
<rect x="190" y="130" width="5" height="10" fill="#E1B57F" />
<rect x="190" y="140" width="5" height="10" fill="#F3C791" />
<rect x="535" y="140" width="70" height="75" fill="#FFE37F" />
<rect x="190" y="150" width="5" height="10" fill="#E1B57F" />
<rect x="605" y="155" width="70" height="40" fill="#FFC57F" />
<rect x="675" y="155" width="30" height="60" fill="#FFE37F" />
<rect x="190" y="160" width="5" height="10" fill="#F3C791" />
<rect x="325" y="165" width="40" height="15" fill="#FFE37F" />
<rect x="365" y="165" width="70" height="45" fill="#FFC57F" />
<rect x="190" y="170" width="5" height="5" fill="#E1B57F" />
<rect x="190" y="175" width="5" height="10" fill="#F3C791" />
<rect x="255" y="180" width="45" height="35" fill="#FFE37F" />
<rect x="300" y="180" width="40" height="25" fill="#FFC57F" />
<rect x="340" y="180" width="5" height="25" fill="#FFDC7F" />
<rect x="345" y="180" width="20" height="35" fill="#FFE37F" />
<rect x="190" y="185" width="5" height="10" fill="#E1B57F" />
<rect x="190" y="195" width="5" height="10" fill="#F3C791" />
<rect x="605" y="195" width="70" height="20" fill="#FFE37F" />
<rect x="190" y="205" width="5" height="10" fill="#E1B57F" />
<rect x="300" y="205" width="45" height="10" fill="#FFE37F" />
<rect x="365" y="210" width="70" height="5" fill="#FFE37F" />
<rect x="190" y="215" width="5" height="5" fill="#F3C791" />
<rect x="200" y="215" width="505" height="5" fill="#FFC57F" />
</svg>