<?xml version="1.0" encoding="UTF-8"?>
<svg id="Ebene_1" data-name="Ebene 1" xmlns="http://www.w3.org/2000/svg" viewBox="0 0 74.77 134.99">
  <defs>
    <style>
      .cls-1 {
        fill: #d8c595;
      }

      .cls-2 {
        fill: #191815;
      }

      .cls-3 {
        fill: #82744b;
      }

      .cls-4 {
        fill: #8c8854;
      }

      .cls-5 {
        fill: #f4ef4d;
      }

      .cls-6 {
        fill: #141312;
      }

      .cls-7 {
        fill: #efd241;
      }
    </style>
  </defs>
  <rect class="cls-1" x="35.36" y="109.68" width="37.61" height="13" rx="6.5" ry="6.5" transform="translate(156.32 38.76) rotate(77.84)"/>
  <rect class="cls-1" x="8.36" y="109.68" width="37.61" height="13" rx="6.5" ry="6.5" transform="translate(143.35 89.02) rotate(90)"/>
  <path class="cls-3" d="M66.76,38.38c.54.49,3.98,3.62,6.22,2.51,1.45-.72,1.72-2.88,1.76-3.15.55-4.92-6.38-6.34-11.16-14.16-1.85-3.02-3.22-7.35-5.96-16-1.33-4.2-1.88-6.48-3.92-7.29-2.97-1.18-7.71,1.32-8.65,4.7-.56,2,.33,3.87,1.47,5.9,6.43,11.39,11.94,11.4,15.62,19.82,1.02,2.32,1.82,5.11,4.62,7.66Z"/>
  <rect class="cls-1" x="36.56" y="37.09" width="45.27" height="13" rx="6.5" ry="6.5" transform="translate(118.43 .07) rotate(107.32)"/>
  <circle class="cls-1" cx="26.34" cy="30.88" r="20"/>
  <rect class="cls-1" x="32.12" y="39.17" width="31.8" height="13" rx="6.02" ry="6.02" transform="translate(40.02 -20.11) rotate(39.5)"/>
  <rect class="cls-7" x="20.34" y="43.88" width="45" height="63" rx="15.27" ry="15.27"/>
  <path class="cls-7" d="M20.34,107.88c.42,1.87.83,3.53,2,4,2.02.81,4.2-3.6,7-3,2.03.43,2.31,3.03,4,3,1.77-.03,2.26-2.99,4-3,1.71-.01,2.11,2.83,4,3,2.07.19,2.89-3.08,5-3,2.29.09,2.89,3.99,5,4,2.17,0,2.99-4.11,5-4,1.93.1,2.31,3.96,4,4,0-.01,0-.03.02-.05.82-2.24,1.85-3.75,1.98-3.95.66-1.02,1.61-4.67,3-15-34.33-5.66-43.95-4.16-45-1-.35,1.04.3,2.09,0,7-.2,3.35-.64,5.18,0,8Z"/>
  <rect class="cls-1" x="-2.82" y="54.33" width="37.61" height="13" rx="6.5" ry="6.5" transform="translate(42.34 3.72) rotate(39.5)"/>
  <circle class="cls-6" cx="15.34" cy="26.88" r="3"/>
  <circle class="cls-6" cx="33.34" cy="26.88" r="3"/>
  <circle class="cls-6" cx="39.34" cy="59.88" r="3"/>
  <circle class="cls-6" cx="27.34" cy="51.88" r="3"/>
  <circle class="cls-6" cx="56.34" cy="52.88" r="3"/>
  <circle class="cls-6" cx="52.34" cy="67.88" r="3"/>
  <circle class="cls-6" cx="31.34" cy="70.88" r="3"/>
  <circle class="cls-6" cx="24.34" cy="85.88" r="3"/>
  <circle class="cls-6" cx="62.34" cy="79.88" r="3"/>
  <circle class="cls-6" cx="44.34" cy="78.88" r="3"/>
  <circle class="cls-6" cx="54.34" cy="90.88" r="3"/>
  <circle class="cls-6" cx="37.34" cy="93.88" r="3"/>
  <circle class="cls-6" cx="55.34" cy="104.88" r="3"/>
  <circle class="cls-6" cx="25.34" cy="104.88" r="3"/>
  <rect class="cls-2" x="18.34" y="35.88" width="13" height="7" rx="3.26" ry="3.26"/>
  <path class="cls-5" d="M3.34,38.88c-.89-2.78-.47-5.12,0-8,.49-2.95,1.33-8.1,5-13,.97-1.3,7.61-9.86,19-10,1.56-.02,10.73.02,17,7,8.78,9.77,6.12,26.72,2,28-1.07.33-2.15-.41-3-1-6.37-4.38-2.08-13.78-8-20-3.13-3.29-8-4.52-12-4-5.01.65-8.12,4.02-9,5-5.34,5.95-4.27,14.66-4,17,.51,4.33,1.84,6.45,1,7-1.29.84-6.36-2.84-8-8Z"/>
  <rect class="cls-4" x="20.34" y="35.88" width="3" height="3"/>
  <ellipse class="cls-6" cx="23.11" cy="38.47" rx="1.22" ry="1.41"/>
</svg>