<?xml version="1.0" encoding="UTF-8"?>
<svg id="Ebene_1" data-name="Ebene 1" xmlns="http://www.w3.org/2000/svg" viewBox="0 0 74.59 135.55">
  <defs>
    <style>
      .cls-1 {
        fill: #d8c595;
      }

      .cls-2 {
        fill: #191815;
      }

      .cls-3 {
        fill: #82744b;
      }

      .cls-4 {
        fill: #8c8854;
      }

      .cls-5 {
        fill: #f4ef4d;
      }

      .cls-6 {
        fill: #141312;
      }

      .cls-7 {
        fill: #efd241;
      }
    </style>
  </defs>
  <rect class="cls-1" x="36.52" y="110.25" width="37.61" height="13" rx="6.5" ry="6.5" transform="translate(172.07 61.42) rotate(90)"/>
  <rect class="cls-1" x="9.52" y="110.25" width="37.61" height="13" rx="6.5" ry="6.5" transform="translate(148.21 124.47) rotate(107.32)"/>
  <path class="cls-3" d="M66.5,39.44c.5.53,3.68,3.92,6,3,1.51-.6,1.95-2.73,2-3,.94-4.86-5.85-6.82-10-15-1.6-3.16-2.63-7.58-4.67-16.42-.99-4.29-1.36-6.61-3.33-7.58-2.86-1.41-7.79.7-9,4-.71,1.95.02,3.89,1,6,5.51,11.87,10.99,12.31,14,21,.83,2.4,1.41,5.23,4,8Z"/>
  <rect class="cls-1" x="37.72" y="37.66" width="45.27" height="13" rx="6.5" ry="6.5" transform="translate(124.93 6.44) rotate(113.52)"/>
  <circle class="cls-1" cx="27.5" cy="31.44" r="20"/>
  <rect class="cls-1" x="33.28" y="39.73" width="31.8" height="13" rx="6.02" ry="6.02" transform="translate(40.64 -20.72) rotate(39.5)"/>
  <rect class="cls-7" x="21.5" y="44.44" width="45" height="63" rx="15.27" ry="15.27"/>
  <path class="cls-7" d="M21.5,108.44c.42,1.87.83,3.53,2,4,2.02.81,4.2-3.6,7-3,2.03.43,2.31,3.03,4,3,1.77-.03,2.26-2.99,4-3,1.71-.01,2.11,2.83,4,3,2.07.19,2.89-3.08,5-3,2.29.09,2.89,3.99,5,4,2.17,0,2.99-4.11,5-4,1.93.1,2.31,3.96,4,4,0-.01,0-.03.02-.05.82-2.24,1.85-3.75,1.98-3.95.66-1.02,1.61-4.67,3-15-34.33-5.66-43.95-4.16-45-1-.35,1.04.3,2.09,0,7-.2,3.35-.64,5.18,0,8Z"/>
  <rect class="cls-1" x="-1.65" y="54.89" width="37.61" height="13" rx="6.5" ry="6.5" transform="translate(32.99 -.35) rotate(30)"/>
  <circle class="cls-6" cx="16.5" cy="27.44" r="3"/>
  <circle class="cls-6" cx="34.5" cy="27.44" r="3"/>
  <circle class="cls-6" cx="40.5" cy="60.44" r="3"/>
  <circle class="cls-6" cx="28.5" cy="52.44" r="3"/>
  <circle class="cls-6" cx="57.5" cy="53.44" r="3"/>
  <circle class="cls-6" cx="53.5" cy="68.44" r="3"/>
  <circle class="cls-6" cx="32.5" cy="71.44" r="3"/>
  <circle class="cls-6" cx="25.5" cy="86.44" r="3"/>
  <circle class="cls-6" cx="63.5" cy="80.44" r="3"/>
  <circle class="cls-6" cx="45.5" cy="79.44" r="3"/>
  <circle class="cls-6" cx="55.5" cy="91.44" r="3"/>
  <circle class="cls-6" cx="38.5" cy="94.44" r="3"/>
  <circle class="cls-6" cx="56.5" cy="105.44" r="3"/>
  <circle class="cls-6" cx="26.5" cy="105.44" r="3"/>
  <rect class="cls-2" x="19.5" y="36.44" width="13" height="7" rx="3.26" ry="3.26"/>
  <path class="cls-5" d="M4.5,39.44c-.89-2.78-.47-5.12,0-8,.49-2.95,1.33-8.1,5-13,.97-1.3,7.61-9.86,19-10,1.56-.02,10.73.02,17,7,8.78,9.77,6.12,26.72,2,28-1.07.33-2.15-.41-3-1-6.37-4.38-2.08-13.78-8-20-3.13-3.29-8-4.52-12-4-5.01.65-8.12,4.02-9,5-5.34,5.95-4.27,14.66-4,17,.51,4.33,1.84,6.45,1,7-1.29.84-6.36-2.84-8-8Z"/>
  <rect class="cls-4" x="21.5" y="36.44" width="3" height="3"/>
  <ellipse class="cls-6" cx="24.28" cy="39.03" rx="1.22" ry="1.41"/>
</svg>