<?xml version="1.0" encoding="UTF-8"?>
<svg id="Ebene_1" data-name="Ebene 1" xmlns="http://www.w3.org/2000/svg" viewBox="0 0 68 128">
  <defs>
    <style>
      .cls-1 {
        fill: #bfbd9f;
      }

      .cls-2 {
        fill: #ceccaa;
      }

      .cls-3 {
        fill: #6d645d;
      }

      .cls-4 {
        fill: #a09838;
      }

      .cls-5 {
        fill: #ddd94a;
      }

      .cls-6 {
        fill: #111002;
      }

      .cls-7 {
        fill: #afac90;
      }
    </style>
  </defs>
  <g>
    <g>
      <rect class="cls-3" x="36" y="92" width="9" height="34.84"/>
      <rect class="cls-3" x="32" y="119.87" width="13" height="8.13" rx="3.21" ry="3.21"/>
    </g>
    <path class="cls-2" d="M45,104c-.07-1.92.36-2.37,0-3-.5-.86-1.73-.72-3-1-3.86-.85-5.24-4.95-5.84-4.63-.76.41.78,7.35,5.51,9.94.11.06,2.64,1.42,3.34.69.28-.29.05-.68,0-2Z"/>
    <path class="cls-1" d="M45,102c-.7-.66-2.33,1.21-6,2-1.58.34-2.42.24-3,1-.62.81-.64,2.17,0,3,.56.73,1.47.82,3,1,.65.08,1.24.15,2,0,.37-.07,2.03-.39,3.08-1.82.58-.79.69-1.59.92-3.18.16-1.18.25-1.77,0-2Z"/>
    <path class="cls-7" d="M45,112c-.48-1.21-2.08-1.09-4-2-3.84-1.82-4.51-5.64-5.26-5.38-1.03.37-1.06,8.13,3.26,10.38,1.21.63,3.55,1.24,5,0,.82-.69,1.4-2.01,1-3Z"/>
    <path class="cls-2" d="M45.06,123.73c-.07-2.04.19-2.26,0-3-.45-1.72-2.62-1.49-5.09-3.41-2.79-2.17-3.53-5.19-4-5-.37.15.07,2.05.25,2.78.79,3.3,1.82,7.92,5.51,9.94.11.06,2.64,1.42,3.34.69.28-.29.05-.68,0-2Z"/>
  </g>
  <g>
    <g>
      <rect class="cls-3" x="43.14" y="93.19" width="9" height="32.9" transform="translate(35.34 -9.27) rotate(17.58)"/>
      <rect class="cls-3" x="37.05" y="118.57" width="11" height="7.68" rx="2.87" ry="2.87" transform="translate(38.96 -7.13) rotate(17.58)"/>
    </g>
    <path class="cls-2" d="M49.31,119.56c.55-1.96.87-2.09.91-2.86.09-1.77-2.05-2.21-3.82-4.79-2.01-2.92-1.8-6.02-2.3-5.97-.4.03-.55,1.97-.6,2.73-.25,3.38-.66,8.1,2.25,11.14.09.09,2.09,2.15,2.97,1.67.35-.19.25-.63.6-1.91Z"/>
    <path class="cls-7" d="M56.3,97.22c-.23-.24-.91-.3-7.3,3.57-3.68,2.23-4.43,2.84-4.3,3.25.17.54,1.64.1,5.07.56,2.58.35,3.34.81,4.12.25.76-.55.49-1.32,1.21-3.81.77-2.69,1.56-3.44,1.21-3.81Z"/>
    <path class="cls-1" d="M53.07,110.53c.36-.9-1.97-1.74-4.04-4.87-.89-1.35-1.1-2.16-2.02-2.43-.98-.28-2.25.19-2.8,1.09-.48.79-.23,1.66.16,3.16.16.63.31,1.2.73,1.86.2.32,1.1,1.76,2.81,2.21.95.25,1.73.07,3.3-.3,1.16-.27,1.74-.41,1.86-.73Z"/>
    <path class="cls-7" d="M43.84,110.06c.76,1.78,1.94,1.78,3.86,4.37,1.4,1.9,1.47,2.85,1.83,2.79.98-.16,2.12-7.31-1.52-10.77-.23-.22-2.24-2.09-3.62-1.46-1.21.55-1.35,3.21-.56,5.07Z"/>
  </g>
  <g>
    <path class="cls-7" d="M7.33,51.28c-.77.89.6,2.3,1,5,.61,4.12-1.91,5.47-1,9,.59,2.27,2.28,4.23,3,4,.9-.29-.46-3.78,0-10,.33-4.49,1.36-6.88,0-8-.86-.71-2.41-.68-3,0Z"/>
    <path class="cls-2" d="M6.62,52.83c-.77.95.6,2.46,1,5.34.61,4.4-1.91,5.84-1,9.61.59,2.42,2.28,4.52,3,4.27.9-.31-.46-4.04,0-10.68.33-4.79,1.36-7.35,0-8.54-.86-.75-2.41-.73-3,0Z"/>
    <g>
      <rect class="cls-3" x="16.5" y="36.5" width="9" height="30" transform="translate(72.5 30.5) rotate(90)"/>
      <rect class="cls-3" x="0" y="47" width="13" height="9" rx="3.37" ry="3.37"/>
    </g>
    <path class="cls-1" d="M25.31,53.2c-.66-1.4-5.64,1.67-11,0-5.29-1.65-7.37-6.81-9-6-1.01.5-1.01,2.86-.51,4.51,1.44,4.76,8.03,6.96,12.76,6.66,1.14-.07,3.76-.28,5.92-2.22.35-.31,2.27-2.04,1.83-2.95Z"/>
    <path class="cls-2" d="M8.12,56.55c1.81.98,4.67-5.45,11.88-7.55,3.65-1.06,6.99-.6,7-1,.01-.41-3.43-.81-5-1-7.26-.86-11.03-1.26-13,1-.91,1.04-1.18,2.35-1.38,3.32-.05.24-.89,4.47.5,5.22Z"/>
    <path class="cls-7" d="M15,53c.19.55,2.29.5,4,0,1.99-.59,2.26-1.44,4-2,1.95-.63,2.72.08,5,0,3.57-.12,7.14-2.06,7-3-.15-1.06-5.17-1.64-9.46-.7-2.61.57-4.51,1.6-6.54,2.7-1.37.74-4.24,2.3-4,3Z"/>
  </g>
  <g>
    <ellipse class="cls-3" cx="46.5" cy="70" rx="16.5" ry="30"/>
    <path class="cls-2" d="M37.89,84.64s.09.05.19.08c1.81.55,6.68-2.76,9.92-4.72,0,0,5.05-3.05,6.91-5.92.01-.02.07-.08.08-.19.18-1.15-3.17-4.73-7.08-4.88-4.43-.18-9.32,4.06-10.37,10.18-.33,1.92-.43,4.9.34,5.45Z"/>
    <path class="cls-1" d="M50.95,60.88c-1.95.17.25,9.6-4.97,18.38-4.13,6.95-10.51,9.45-9.93,10.45.55.94,6.36-.93,11.16-4.21,2.88-1.97,8.34-5.69,8.77-11.4.16-2.11-.44-3.97-1.16-6.22-.41-1.27-2.29-7.14-3.88-7Z"/>
    <path class="cls-2" d="M56.73,62.18c-1.63.37,1.09,8.01-2.36,15.58-3.17,6.95-9.54,9.42-8.92,10.45.58.97,6.79-.32,10.95-4.64,4.29-4.46,5.7-11.41,3.64-16.89-.75-1.98-2.31-4.74-3.31-4.51Z"/>
    <path class="cls-7" d="M35.7,58.73c.63,2.17,7.67-.19,15.43,3.46,6.61,3.11,8.63,7.63,9.85,6.91,2.15-1.28-.88-17.68-9.66-19.24-4.43-.79-8.82,2.47-12.03,4.85-2.04,1.52-3.92,2.89-3.59,4.03Z"/>
    <path class="cls-7" d="M32.79,54.17c1.26,1.88,7.26-2.49,15.75-1.35,7.24.97,10.53,4.67,11.48,3.61,1.66-1.87-6.18-16.59-15.02-15.43-4.46.58-7.67,5.01-10.01,8.25-1.49,2.06-2.87,3.94-2.21,4.92Z"/>
    <path class="cls-1" d="M31,70c1.79.8,4.44-8.52,13.25-13.67,6.98-4.08,13.77-3.17,13.75-4.33-.02-1.09-6.01-2.27-11.8-1.73-3.47.32-10.05.93-13.2,5.73-1.16,1.77-1.54,3.69-2,6-.26,1.31-1.46,7.35,0,8Z"/>
    <path class="cls-2" d="M32.12,56.18c1.03,1.32,6.79-4.39,15.11-4.48,7.64-.08,12.58,4.64,13.25,3.64.63-.94-3.17-6.02-8.85-7.95-5.85-1.99-12.75-.32-16.83,3.88-1.47,1.51-3.31,4.1-2.68,4.91Z"/>
    <path class="cls-7" d="M61,81c-1.87-1.01-5.97,9.56-14.16,10.73-6.61.95-11.92-4.85-13.1-3.39-1.14,1.41,3.69,7,4.27,7.66,1.65,1.91,2.86,3.28,5,4,2.42.82,4.58.33,6,0,2.82-.65,4.85-2.04,6-3,3.06-2.56,4.17-5.66,5-8,.61-1.74,2.33-7.28,1-8Z"/>
    <path class="cls-1" d="M62,60c-.57.02-.2,5.58-1,10-2.53,14.05-17.58,21.04-16.39,22.84.74,1.11,6.96-.94,11.39-4.84,5.28-4.65,6.5-10.58,7-13,.92-4.49.39-8.23,0-11-.12-.87-.57-4.02-1-4Z"/>
    <path class="cls-1" d="M36.98,91.46c.53-.22-1.76-5.3-2.56-9.72-2.54-14.05,9.11-25.86,7.37-27.12-1.08-.78-6.19,3.31-8.98,8.51-3.32,6.2-2.39,12.19-2.01,14.63.7,4.53,2.51,7.84,3.85,10.31.42.78,1.94,3.56,2.34,3.4Z"/>
    <path class="cls-2" d="M30.5,73.23c1.95.92,4.7-6.5,12.08-9.36,6.79-2.63,12.65.25,12.94-.94.27-1.11-4.64-4.53-10.35-4.68-6.48-.17-13.64,3.89-15.17,9.75-.48,1.84-.63,4.69.5,5.22Z"/>
    <path class="cls-7" d="M57.96,83.41c-.75-1.27-8.11,4.61-14.96,2.59-7.09-2.09-9.22-11.36-10-11-1.01.46,1.35,16.58,9.74,17.95,4.53.74,9.11-3.1,11.81-5.36.47-.39,3.93-3.3,3.41-4.18Z"/>
    <path class="cls-2" d="M58.44,90.84c-.51-1.53-7.64,2.4-15.28.29-7.02-1.94-10-7.76-10.94-6.98-.89.73.94,6.59,5.51,9.94,4.71,3.45,11.56,3.68,16.66.74,1.84-1.06,4.36-3.05,4.05-3.99Z"/>
    <path class="cls-1" d="M32.14,76.35c1.33,1.44,7.44-6.08,17.57-7.34,8.03-1,13.91,2.51,14.34,1.43.41-1.01-4.63-4.45-10.17-6.23-3.32-1.07-9.61-3.1-14.39.06-1.77,1.17-2.87,2.78-4.2,4.73-.76,1.1-4.24,6.19-3.15,7.35Z"/>
    <path class="cls-2" d="M48.46,48.74c-.95,1.37,6.23,5.15,8.82,13.06,2.38,7.26-.63,13.39.52,13.73,1.09.32,4.78-4.83,4.92-10.83.14-6.18-3.53-12.25-8.76-14.88-1.89-.95-4.91-1.92-5.49-1.07Z"/>
    <path class="cls-7" d="M32.5,79.64c.99.99,5.61-3.66,13.84-6.24,7.66-2.41,12.44-1.12,12.66-2.4.28-1.65-7.17-6.14-14.14-4.39-5.21,1.31-8.31,5.64-10.1,8.14-.36.5-2.99,4.17-2.26,4.9Z"/>
    <path class="cls-1" d="M56,82c-.66-1.4-5.64,1.67-11,0-5.29-1.65-7.37-6.81-9-6-1.01.5-1.01,2.86-.51,4.51,1.44,4.76,8.03,6.96,12.76,6.66,1.14-.07,3.76-.28,5.92-2.22.35-.31,2.27-2.04,1.83-2.95Z"/>
    <path class="cls-2" d="M33.12,63.55c2.32,1.01,7.43-7.85,10.88-6.55.88.33,1.3,1.2,2,1,1.07-.3,1.83-2.75,1-4-1.4-2.08-6.98-.32-8,0-2.58.82-5.31,1.68-6.38,4.32-.78,1.92-.65,4.72.5,5.22Z"/>
  </g>
  <g>
    <ellipse class="cls-3" cx="44.51" cy="22.54" rx="22.05" ry="23.27" transform="translate(18.49 65.1) rotate(-85.42)"/>
    <ellipse class="cls-6" cx="42.41" cy="23.25" rx="15.94" ry="11.29"/>
    <path class="cls-2" d="M22.48,21.26c2.04,1.31,7.22-9.22,18.6-13.29,10.46-3.74,19.48.35,19.93-1.33C61.43,5.06,53.78-.06,45.07,0c-8.99.06-17.66,5.62-21.26,13.29-1.3,2.76-2.58,7.17-1.33,7.97Z"/>
    <path class="cls-7" d="M32.92,6.99c-.4,3.23,10.45,3.93,18.8,13.01,6.62,7.2,7.3,14.93,9.29,14.55,1.83-.34,2.95-7.18,1.33-13.29-2.64-9.94-12.72-18.58-22.25-17.67-2.71.26-6.92,1.43-7.16,3.4Z"/>
    <path class="cls-1" d="M21.93,26.49c2.98,1.57,7.63-8.03,18.6-13.29,11.89-5.7,22.97-2.36,23.14-3.91.15-1.42-9-4.94-19.15-4.06-7.69.66-20.59,4.24-23.36,13.36-.86,2.82-.98,6.96.78,7.89Z"/>
    <path class="cls-2" d="M63.99,33.14c-1.28-2.06-10.48,5.22-22.5,4.01-11.05-1.11-17.45-8.68-18.57-7.36-1.06,1.25,3.65,9.16,11.55,12.84,8.15,3.8,18.36,2.5,24.9-2.87,2.36-1.94,5.41-5.37,4.62-6.63Z"/>
    <path class="cls-2" d="M37.65,2.27c-.49,2.37,11.2,3.43,19.08,12.58,7.28,8.45,6.46,18.27,8.4,18.12,1.92-.15,4.69-9.88,1.19-18.35C62.68,5.82,53.38,1.07,45.56.64c-2.85-.15-7.61.15-7.92,1.63Z"/>
    <path class="cls-2" d="M42.41,33.21c-.81-1.78-4.9,0-9.3-2.66-3.46-2.09-4.89-5.6-5.31-6.64-3.7-9.1,3.68-19.4,3.17-19.64-.58-.28-12.44,12.09-8.49,24.95,1.49,4.85,6.03,12.43,11.96,11.96,4.73-.38,8.92-5.89,7.97-7.97Z"/>
    <path class="cls-1" d="M67.19,23.45c-2.44-2.33-9.55,5.62-21.53,7.66-12.99,2.21-22.74-4.05-23.32-2.6-.53,1.32,7.3,7.22,17.3,9.17,7.58,1.48,20.96,1.58,26.14-6.43,1.6-2.48,2.86-6.43,1.42-7.8Z"/>
    <circle class="cls-5" cx="37.09" cy="23.91" r="3.99"/>
    <circle class="cls-4" cx="35.77" cy="23.91" r="1.33"/>
  </g>
  <g>
    <g>
      <rect class="cls-3" x="23" y="42" width="9" height="33" transform="translate(86 31) rotate(90)"/>
      <rect class="cls-3" x="6" y="54" width="13" height="9" rx="3.37" ry="3.37"/>
    </g>
    <path class="cls-7" d="M11,60c-.77.89.6,2.3,1,5,.61,4.12-1.91,5.47-1,9,.59,2.27,2.28,4.23,3,4,.9-.29-.46-3.78,0-10,.33-4.49,1.36-6.88,0-8-.86-.71-2.41-.68-3,0Z"/>
    <path class="cls-2" d="M10.29,58.64c-.77,1.09.6,2.83,1,6.15.61,5.07-1.91,6.72-1,11.06.59,2.79,2.28,5.2,3,4.92.9-.36-.46-4.65,0-12.29.33-5.52,1.36-8.46,0-9.83-.86-.87-2.41-.84-3,0Z"/>
    <path class="cls-1" d="M17,60c-1.59-1.27-2.38-2.64-5-4-1.29-.67-3.23-1.68-4-1-1.07.95.11,5.22,3,7,1.03.63,2.02.75,4,1,2.45.3,3.35.02,7,0,3.14-.02,4.98.17,5,0,.03-.3-5.71.44-10-3Z"/>
    <path class="cls-1" d="M45,58c-1-1.79-6.13,1.46-12.69.2-5.8-1.12-9.45-5.14-10.31-4.2-.51.55.52,2.26.79,2.72,3.46,5.74,11.67,6.2,13.21,6.28,2.55.14,6.05.34,8-2,.15-.18,1.59-1.94,1-3Z"/>
    <path class="cls-7" d="M30,63c-.59,1-4.81-.51-9-2-3.88-1.38-12.35-4.4-12-6,.11-.48,1.04-.99,5-1,1.01-.29,2.49-.53,4,0,1.78.63,1.86,1.71,4,3,2.26,1.36,3.01.67,5,2,1.75,1.18,3.45,3.25,3,4Z"/>
    <path class="cls-2" d="M26,63c-1.7-.19-1.29-3.51-4-6-3.03-2.78-7.42-2.22-7.39-3,.02-.55,2.24-.9,3.39-1,1.15-.1,3.51-.27,6,1,1.75.89,5.38,3.4,4.84,6.2-.28,1.44-1.65,2.93-2.84,2.8Z"/>
  </g>
</svg>