<?xml version="1.0" encoding="UTF-8"?>
<svg id="Ebene_1" data-name="Ebene 1" xmlns="http://www.w3.org/2000/svg" viewBox="0 0 67.35 127.92">
  <defs>
    <style>
      .cls-1 {
        fill: #bfbd9f;
      }

      .cls-2 {
        fill: #ceccaa;
      }

      .cls-3 {
        fill: #6d645d;
      }

      .cls-4 {
        fill: #a09838;
      }

      .cls-5 {
        fill: #ddd94a;
      }

      .cls-6 {
        fill: #111002;
      }

      .cls-7 {
        fill: #afac90;
      }
    </style>
  </defs>
  <g>
    <g>
      <rect class="cls-3" x="31.52" y="91.37" width="9" height="34.84" transform="translate(25.98 -5.37) rotate(13.29)"/>
      <rect class="cls-3" x="24.23" y="118.39" width="13" height="8.13" rx="3.21" ry="3.21" transform="translate(28.98 -3.79) rotate(13.29)"/>
    </g>
    <path class="cls-2" d="M41.64,104.55c.37-1.88.9-2.23.69-2.92-.29-.95-1.52-1.1-2.69-1.66-3.56-1.71-3.96-6.03-4.62-5.85-.84.23-.93,7.33,3.07,10.94.1.09,2.24,1.99,3.09,1.44.33-.22.2-.65.46-1.95Z"/>
    <path class="cls-1" d="M42.1,102.6c-.53-.81-2.55.64-6.3.57-1.61-.03-2.41-.32-3.15.28-.79.64-1.12,1.97-.69,2.92.38.84,1.24,1.13,2.69,1.66.61.22,1.17.43,1.95.46.38.02,2.07.09,3.42-1.06.75-.64,1.04-1.39,1.62-2.89.43-1.11.65-1.66.46-1.95Z"/>
    <path class="cls-7" d="M39.8,112.33c-.19-1.29-1.77-1.53-3.43-2.87-3.32-2.66-3.09-6.53-3.88-6.44-1.09.12-2.9,7.67.79,10.85,1.03.89,3.17,2.02,4.87,1.15.95-.49,1.82-1.63,1.66-2.69Z"/>
    <path class="cls-2" d="M37.16,123.77c.4-2,.71-2.15.69-2.92-.04-1.78-2.2-2.05-4.17-4.49-2.22-2.76-2.24-5.86-2.74-5.79-.4.06-.4,2.01-.4,2.76,0,3.39-.05,8.13,3.07,10.94.1.09,2.24,1.99,3.09,1.44.33-.22.2-.65.46-1.95Z"/>
  </g>
  <g>
    <g>
      <rect class="cls-3" x="46.43" y="93.92" width="9" height="32.9"/>
      <rect class="cls-3" x="44.43" y="120.25" width="11" height="7.68" rx="2.87" ry="2.87"/>
    </g>
    <path class="cls-2" d="M55.52,119.33c-.07-2.04.19-2.26,0-3-.45-1.72-2.62-1.49-5.09-3.41-2.79-2.17-3.53-5.19-4-5-.37.15.07,2.05.25,2.78.79,3.3,1.82,7.92,5.51,9.94.11.06,2.64,1.42,3.34.69.28-.29.05-.68,0-2Z"/>
    <path class="cls-7" d="M55.43,95.92c-.29-.16-.96-.01-5.88,5.6-2.84,3.24-3.36,4.04-3.12,4.4.32.46,1.6-.41,5-1,2.56-.45,3.43-.23,4-1,.56-.75.07-1.41,0-4-.08-2.8.45-3.75,0-4Z"/>
    <path class="cls-1" d="M56.37,109.59c.08-.96-2.41-1.06-5.32-3.42-1.25-1.01-1.7-1.73-2.66-1.71-1.02.02-2.09.87-2.34,1.88-.22.89.28,1.66,1.1,2.96.35.55.66,1.05,1.25,1.56.29.24,1.58,1.34,3.35,1.26.98-.04,1.67-.46,3.05-1.28,1.02-.61,1.53-.92,1.56-1.25Z"/>
    <path class="cls-7" d="M47.43,111.92c1.26,1.47,2.39,1.11,5,3,1.91,1.39,2.26,2.27,2.59,2.1.88-.45-.18-7.61-4.7-9.81-.28-.14-2.77-1.32-3.89-.29-.98.89-.32,3.47,1,5Z"/>
  </g>
  <g>
    <path class="cls-7" d="M7.43,50.37c-.84.82.42,2.34.6,5.06.28,4.16-2.34,5.3-1.72,8.89.4,2.31,1.93,4.4,2.67,4.23.92-.22-.16-3.81.8-9.97.69-4.45,1.91-6.75.64-7.97-.8-.77-2.35-.87-2.99-.24Z"/>
    <path class="cls-2" d="M6.6,51.87c-.84.88.4,2.5.57,5.4.26,4.44-2.37,5.67-1.76,9.5.39,2.46,1.91,4.68,2.65,4.5.93-.24-.14-4.06.85-10.64.72-4.75,1.95-7.22.68-8.51-.8-.82-2.34-.92-2.99-.24Z"/>
    <g>
      <rect class="cls-3" x="16.53" y="36.69" width="9" height="30" transform="translate(74.24 34.85) rotate(94.58)"/>
      <rect class="cls-3" x=".08" y="46.03" width="13" height="9" rx="3.37" ry="3.37" transform="translate(4.06 -.36) rotate(4.58)"/>
    </g>
    <path class="cls-1" d="M25.19,53.73c-.55-1.45-5.76,1.21-10.96-.88-5.14-2.07-6.8-7.38-8.49-6.7-1.05.42-1.24,2.77-.87,4.46,1.05,4.86,7.44,7.58,12.18,7.66,1.15.02,3.77.02,6.08-1.74.37-.28,2.42-1.85,2.06-2.8Z"/>
    <path class="cls-2" d="M7.79,55.69c1.73,1.12,5.09-5.06,12.44-6.57,3.72-.77,7.01-.04,7.06-.44.05-.4-3.35-1.09-4.9-1.4-7.17-1.44-10.89-2.13-13.04-.04-.99.97-1.37,2.25-1.64,3.2-.07.24-1.24,4.39.08,5.25Z"/>
    <path class="cls-7" d="M14.93,52.7c.14.57,2.25.68,3.99.32,2.03-.42,2.37-1.25,4.15-1.67,1.99-.47,2.71.3,4.98.4,3.57.16,7.28-1.48,7.22-2.43-.07-1.07-5.02-2.05-9.37-1.46-2.65.36-4.63,1.24-6.73,2.17-1.42.63-4.41,1.96-4.23,2.67Z"/>
  </g>
  <g>
    <ellipse class="cls-3" cx="45.93" cy="69.92" rx="16.5" ry="30"/>
    <path class="cls-2" d="M37.32,84.56s.09.05.19.08c1.81.55,6.68-2.76,9.92-4.72,0,0,5.05-3.05,6.91-5.92.01-.02.07-.08.08-.19.18-1.15-3.17-4.73-7.08-4.88-4.43-.18-9.32,4.06-10.37,10.18-.33,1.92-.43,4.9.34,5.45Z"/>
    <path class="cls-1" d="M50.38,60.81c-1.95.17.25,9.6-4.97,18.38-4.13,6.95-10.51,9.45-9.93,10.45.55.94,6.36-.93,11.16-4.21,2.88-1.97,8.34-5.69,8.77-11.4.16-2.11-.44-3.97-1.16-6.22-.41-1.27-2.29-7.14-3.88-7Z"/>
    <path class="cls-2" d="M56.16,62.1c-1.63.37,1.09,8.01-2.36,15.58-3.17,6.95-9.54,9.42-8.92,10.45.58.97,6.79-.32,10.95-4.64,4.29-4.46,5.7-11.41,3.64-16.89-.75-1.98-2.31-4.74-3.31-4.51Z"/>
    <path class="cls-7" d="M35.13,58.66c.63,2.17,7.67-.19,15.43,3.46,6.61,3.11,8.63,7.63,9.85,6.91,2.15-1.28-.88-17.68-9.66-19.24-4.43-.79-8.82,2.47-12.03,4.85-2.04,1.52-3.92,2.89-3.59,4.03Z"/>
    <path class="cls-7" d="M32.22,54.1c1.26,1.88,7.26-2.49,15.75-1.35,7.24.97,10.53,4.67,11.48,3.61,1.66-1.87-6.18-16.59-15.02-15.43-4.46.58-7.67,5.01-10.01,8.25-1.49,2.06-2.87,3.94-2.21,4.92Z"/>
    <path class="cls-1" d="M30.43,69.92c1.79.8,4.44-8.52,13.25-13.67,6.98-4.08,13.77-3.17,13.75-4.33-.02-1.09-6.01-2.27-11.8-1.73-3.47.32-10.05.93-13.2,5.73-1.16,1.77-1.54,3.69-2,6-.26,1.31-1.46,7.35,0,8Z"/>
    <path class="cls-2" d="M31.55,56.1c1.03,1.32,6.79-4.39,15.11-4.48,7.64-.08,12.58,4.64,13.25,3.64.63-.94-3.17-6.02-8.85-7.95-5.85-1.99-12.75-.32-16.83,3.88-1.47,1.51-3.31,4.1-2.68,4.91Z"/>
    <path class="cls-7" d="M60.43,80.92c-1.87-1.01-5.97,9.56-14.16,10.73-6.61.95-11.92-4.85-13.1-3.39-1.14,1.41,3.69,7,4.27,7.66,1.65,1.91,2.86,3.28,5,4,2.42.82,4.58.33,6,0,2.82-.65,4.85-2.04,6-3,3.06-2.56,4.17-5.66,5-8,.61-1.74,2.33-7.28,1-8Z"/>
    <path class="cls-1" d="M61.43,59.92c-.57.02-.2,5.58-1,10-2.53,14.05-17.58,21.04-16.39,22.84.74,1.11,6.96-.94,11.39-4.84,5.28-4.65,6.5-10.58,7-13,.92-4.49.39-8.23,0-11-.12-.87-.57-4.02-1-4Z"/>
    <path class="cls-1" d="M36.4,91.39c.53-.22-1.76-5.3-2.56-9.72-2.54-14.05,9.11-25.86,7.37-27.12-1.08-.78-6.19,3.31-8.98,8.51-3.32,6.2-2.39,12.19-2.01,14.63.7,4.53,2.51,7.84,3.85,10.31.42.78,1.94,3.56,2.34,3.4Z"/>
    <path class="cls-2" d="M29.93,73.15c1.95.92,4.7-6.5,12.08-9.36,6.79-2.63,12.65.25,12.94-.94.27-1.11-4.64-4.53-10.35-4.68-6.48-.17-13.64,3.89-15.17,9.75-.48,1.84-.63,4.69.5,5.22Z"/>
    <path class="cls-7" d="M57.39,83.33c-.75-1.27-8.11,4.61-14.96,2.59-7.09-2.09-9.22-11.36-10-11-1.01.46,1.35,16.58,9.74,17.95,4.53.74,9.11-3.1,11.81-5.36.47-.39,3.93-3.3,3.41-4.18Z"/>
    <path class="cls-2" d="M57.87,90.77c-.51-1.53-7.64,2.4-15.28.29-7.02-1.94-10-7.76-10.94-6.98-.89.73.94,6.59,5.51,9.94,4.71,3.45,11.56,3.68,16.66.74,1.84-1.06,4.36-3.05,4.05-3.99Z"/>
    <path class="cls-1" d="M31.57,76.27c1.33,1.44,7.44-6.08,17.57-7.34,8.03-1,13.91,2.51,14.34,1.43.41-1.01-4.63-4.45-10.17-6.23-3.32-1.07-9.61-3.1-14.39.06-1.77,1.17-2.87,2.78-4.2,4.73-.76,1.1-4.24,6.19-3.15,7.35Z"/>
    <path class="cls-2" d="M47.89,48.66c-.95,1.37,6.23,5.15,8.82,13.06,2.38,7.26-.63,13.39.52,13.73,1.09.32,4.78-4.83,4.92-10.83.14-6.18-3.53-12.25-8.76-14.88-1.89-.95-4.91-1.92-5.49-1.07Z"/>
    <path class="cls-7" d="M31.93,79.57c.99.99,5.61-3.66,13.84-6.24,7.66-2.41,12.44-1.12,12.66-2.4.28-1.65-7.17-6.14-14.14-4.39-5.21,1.31-8.31,5.64-10.1,8.14-.36.5-2.99,4.17-2.26,4.9Z"/>
    <path class="cls-1" d="M55.43,81.92c-.66-1.4-5.64,1.67-11,0-5.29-1.65-7.37-6.81-9-6-1.01.5-1.01,2.86-.51,4.51,1.44,4.76,8.03,6.96,12.76,6.66,1.14-.07,3.76-.28,5.92-2.22.35-.31,2.27-2.04,1.83-2.95Z"/>
    <path class="cls-2" d="M32.55,63.47c2.32,1.01,7.43-7.85,10.88-6.55.88.33,1.3,1.2,2,1,1.07-.3,1.83-2.75,1-4-1.4-2.08-6.98-.32-8,0-2.58.82-5.31,1.68-6.38,4.32-.78,1.92-.65,4.72.5,5.22Z"/>
  </g>
  <g>
    <ellipse class="cls-3" cx="43.93" cy="22.48" rx="22.05" ry="23.27" transform="translate(14.74 62.26) rotate(-80.83)"/>
    <ellipse class="cls-6" cx="41.78" cy="23.02" rx="11.29" ry="15.94" transform="translate(15.49 62.82) rotate(-85.42)"/>
    <path class="cls-2" d="M22.07,19.44c1.93,1.47,7.94-8.61,19.6-11.76,10.72-2.89,19.39,1.91,19.97.27.55-1.55-6.67-7.26-15.36-7.9-8.97-.66-18.05,4.19-22.25,11.54-1.52,2.65-3.14,6.94-1.96,7.84Z"/>
    <path class="cls-7" d="M33.62,6.05c-.66,3.19,10.1,4.75,17.7,14.47,6.02,7.71,6.08,15.46,8.1,15.25,1.85-.2,3.51-6.92,2.39-13.14-1.83-10.12-11.19-19.54-20.77-19.4-2.72.04-7.01.88-7.41,2.82Z"/>
    <path class="cls-1" d="M21.1,24.62c2.85,1.81,8.25-7.39,19.6-11.76,12.3-4.73,23.09-.51,23.37-2.05.26-1.4-8.58-5.64-18.76-5.58-7.72.04-20.86,2.58-24.36,11.45-1.08,2.75-1.54,6.86.14,7.93Z"/>
    <path class="cls-2" d="M62.5,34.6c-1.11-2.15-10.86,4.37-22.75,2.2-10.92-1.99-16.7-10.05-17.92-8.82-1.16,1.16,2.9,9.42,10.48,13.73,7.82,4.44,18.1,3.96,25.05-.87,2.51-1.74,5.82-4.92,5.14-6.24Z"/>
    <path class="cls-2" d="M38.71,1.73c-.68,2.32,10.89,4.31,18.02,14.07,6.58,9,4.98,18.73,6.93,18.73,1.92,0,5.46-9.48,2.65-18.2C63.38,7.26,54.48,1.79,46.73.74c-2.83-.38-7.6-.46-8.02.99Z"/>
    <path class="cls-2" d="M40.98,32.96c-.67-1.84-4.89-.39-9.06-3.39-3.28-2.36-4.43-5.97-4.77-7.05-2.96-9.36,5.22-19.04,4.73-19.32-.55-.32-13.37,11.06-10.46,24.2,1.1,4.95,5.02,12.88,10.96,12.87,4.75,0,9.36-5.16,8.58-7.31Z"/>
    <path class="cls-1" d="M66.46,25.2c-2.24-2.52-9.96,4.84-22.08,5.92-13.13,1.17-22.34-5.85-23.04-4.45-.63,1.27,6.7,7.78,16.51,10.52,7.44,2.08,20.77,3.25,26.57-4.32,1.79-2.34,3.36-6.18,2.04-7.66Z"/>
    <circle class="cls-5" cx="36.42" cy="23.26" r="3.99"/>
    <circle class="cls-4" cx="35.1" cy="23.15" r="1.33"/>
  </g>
  <g>
    <g>
      <rect class="cls-3" x="23.09" y="42.1" width="9" height="33" transform="translate(88.21 35.79) rotate(94.58)"/>
      <rect class="cls-3" x="6.14" y="52.91" width="13" height="9" rx="3.37" ry="3.37" transform="translate(4.63 -.83) rotate(4.58)"/>
    </g>
    <path class="cls-7" d="M11.02,58.78c-.84.82.42,2.34.6,5.06.28,4.16-2.34,5.3-1.72,8.89.4,2.31,1.93,4.4,2.67,4.23.92-.22-.16-3.81.8-9.97.69-4.45,1.91-6.75.64-7.97-.8-.77-2.35-.87-2.99-.24Z"/>
    <path class="cls-2" d="M10.43,57.37c-.86,1.03.37,2.87.51,6.21.2,5.1-2.44,6.55-1.88,10.95.36,2.83,1.86,5.37,2.6,5.14.93-.28-.09-4.67.98-12.25.77-5.47,2.03-8.33.79-9.8-.79-.93-2.33-1.03-2.99-.24Z"/>
    <path class="cls-1" d="M17,59.26c-1.48-1.4-2.16-2.82-4.66-4.39-1.24-.77-3.09-1.93-3.91-1.32-1.14.86-.31,5.21,2.43,7.22.97.71,1.95.91,3.91,1.32,2.42.5,3.34.29,6.98.56,3.13.23,4.95.57,4.98.4.06-.3-5.73-.02-9.73-3.79Z"/>
    <path class="cls-1" d="M45.07,59.5c-.85-1.87-6.23.97-12.67-.81-5.7-1.58-9.01-5.87-9.94-5.01-.55.51.34,2.29.58,2.77,2.99,5.99,11.14,7.11,12.66,7.32,2.53.35,6,.82,8.13-1.35.17-.17,1.74-1.81,1.24-2.91Z"/>
    <path class="cls-7" d="M29.72,63.29c-.67.95-4.76-.89-8.81-2.71-3.75-1.69-11.96-5.38-11.48-6.94.14-.47,1.12-.91,5.06-.6,1.03-.21,2.52-.33,3.99.32,1.73.77,1.72,1.85,3.75,3.31,2.14,1.54,2.95.9,4.82,2.39,1.65,1.31,3.18,3.51,2.67,4.23Z"/>
    <path class="cls-2" d="M25.74,62.97c-1.68-.33-1-3.6-3.51-6.3-2.79-3.01-7.22-2.81-7.12-3.58.06-.55,2.31-.72,3.46-.73,1.16,0,3.52.01,5.9,1.48,1.67,1.03,5.09,3.82,4.33,6.57-.39,1.41-1.88,2.79-3.05,2.56Z"/>
  </g>
</svg>