<?xml version="1.0" encoding="UTF-8"?>
<svg id="Ebene_1" data-name="Ebene 1" xmlns="http://www.w3.org/2000/svg" viewBox="0 0 90.58 123.11">
  <defs>
    <style>
      .cls-1 {
        fill: #d8c595;
      }

      .cls-2 {
        fill: #191815;
      }

      .cls-3 {
        fill: #82744b;
      }

      .cls-4 {
        fill: #8c8854;
      }

      .cls-5 {
        fill: #f4ef4d;
      }

      .cls-6 {
        fill: #141312;
      }

      .cls-7 {
        fill: #efd241;
      }
    </style>
  </defs>
  <rect class="cls-1" x="39.36" y="97.8" width="37.61" height="13" rx="6.5" ry="6.5" transform="translate(162.47 46.14) rotate(90)"/>
  <rect class="cls-1" x="12.36" y="97.8" width="37.61" height="13" rx="6.5" ry="6.5" transform="translate(135.47 73.14) rotate(90)"/>
  <rect class="cls-1" x="50.56" y="40.22" width="45.27" height="13" rx="6.5" ry="6.5" transform="translate(157.07 24.27) rotate(132.47)"/>
  <rect class="cls-7" x="24.34" y="32" width="45" height="63" rx="15.27" ry="15.27"/>
  <path class="cls-7" d="M24.34,96c.42,1.87.83,3.53,2,4,2.02.81,4.2-3.6,7-3,2.03.43,2.31,3.03,4,3,1.77-.03,2.26-2.99,4-3,1.71-.01,2.11,2.83,4,3,2.07.19,2.89-3.08,5-3,2.29.09,2.89,3.99,5,4,2.17,0,2.99-4.11,5-4,1.93.1,2.31,3.96,4,4,0-.01,0-.03.02-.05.82-2.24,1.85-3.75,1.98-3.95.66-1.02,1.61-4.67,3-15-34.33-5.66-43.95-4.16-45-1-.35,1.04.3,2.09,0,7-.2,3.35-.64,5.18,0,8Z"/>
  <rect class="cls-1" x="-2.82" y="41.45" width="37.61" height="13" rx="6.5" ry="6.5" transform="translate(34.15 .78) rotate(39.5)"/>
  <circle class="cls-6" cx="43.34" cy="48" r="3"/>
  <circle class="cls-6" cx="31.34" cy="40" r="3"/>
  <circle class="cls-6" cx="60.34" cy="41" r="3"/>
  <circle class="cls-6" cx="56.34" cy="56" r="3"/>
  <circle class="cls-6" cx="35.34" cy="59" r="3"/>
  <circle class="cls-6" cx="28.34" cy="74" r="3"/>
  <circle class="cls-6" cx="66.34" cy="68" r="3"/>
  <circle class="cls-6" cx="48.34" cy="67" r="3"/>
  <circle class="cls-6" cx="58.34" cy="79" r="3"/>
  <circle class="cls-6" cx="41.34" cy="82" r="3"/>
  <circle class="cls-6" cx="59.34" cy="93" r="3"/>
  <circle class="cls-6" cx="29.34" cy="93" r="3"/>
  <path class="cls-3" d="M78.34,44.84c.31.66,2.25,4.88,4.75,4.74,1.62-.09,2.71-1.98,2.84-2.22,2.43-4.32-3.4-8.32-4.76-17.39-.53-3.51-.1-8.02.74-17.06.41-4.38.79-6.7-.77-8.24-2.27-2.24-7.61-1.79-9.8.96-1.29,1.62-1.21,3.7-.94,6.01,1.49,13,6.55,15.15,6.67,24.34.03,2.54-.31,5.41,1.28,8.85Z"/>
  <circle class="cls-1" cx="45.34" cy="23" r="20"/>
  <circle class="cls-6" cx="34.34" cy="19" r="3"/>
  <circle class="cls-6" cx="52.34" cy="19" r="3"/>
  <rect class="cls-2" x="37.34" y="28" width="13" height="7" rx="3.26" ry="3.26"/>
  <path class="cls-5" d="M22.34,31c-.89-2.78-.47-5.12,0-8,.49-2.95,1.33-8.1,5-13C28.31,8.7,34.95.14,46.34,0c1.56-.02,10.73.02,17,7,8.78,9.77,6.12,26.72,2,28-1.07.33-2.15-.41-3-1-6.37-4.38-2.08-13.78-8-20-3.13-3.29-8-4.52-12-4-5.01.65-8.12,4.02-9,5-5.34,5.95-4.27,14.66-4,17,.51,4.33,1.84,6.45,1,7-1.29.84-6.36-2.84-8-8Z"/>
  <rect class="cls-4" x="39.34" y="28" width="3" height="3"/>
  <ellipse class="cls-6" cx="42.11" cy="30.59" rx="1.22" ry="1.41"/>
</svg>