<?xml version="1.0" encoding="UTF-8"?>
<svg id="Ebene_1" data-name="Ebene 1" xmlns="http://www.w3.org/2000/svg" viewBox="0 0 103.96 52.24">
  <defs>
    <style>
      .cls-1 {
        fill: #999;
      }

      .cls-1, .cls-2 {
        stroke: #666;
        stroke-miterlimit: 10;
      }

      .cls-2 {
        fill: #666;
      }
    </style>
  </defs>
  <path class="cls-1" d="M95.31,36.5c-.36.82-1.48,2.43-1.84,5.09-.26,1.91.04,3.04-.76,3.69-1,.81-2.11-.45-3.96.11-2.17.66-2.26,2.9-4.17,3.09-1.2.12-1.29-.74-2.6-.7-2.46.06-4.06,2.89-4.77,2.44-.43-.27.11-1.34-.33-1.63-.79-.52-2.93,2.76-5.1,2.28-.7-.16-1.08-.61-1.73-.43-.84.22-.96,1.35-1.36,1.3-.55-.07-.21-2.75-1.14-3.09-.58-.21-1.04.71-1.84.54-.67-.14-.65-.84-1.68-1.95-.55-.6-1.07-.94-2.11-1.63-1.16-.76-1.74-1.14-2.17-1.19-1.81-.2-2.85,2.21-3.8,1.95-1.06-.29-.87-3.64-.94-6.31-.25-9.69-4.3-12.85-1.61-16.3,1.49-1.91,2.44-1.41,4.61-3.91,2.77-3.19,2.56-5.54,3.96-7.59,3.08-4.5,12.3-5.03,18.66-2.78,13.43,4.76,16.53,22.78,14.68,27.02Z"/>
  <ellipse class="cls-2" cx="74.08" cy="29.94" rx="15.18" ry="15.07" transform="translate(23.89 92.1) rotate(-73.09)"/>
  <polygon class="cls-2" points="53.76 37.16 46.67 38.01 45.2 28.75 52.83 27.54 53.76 37.16"/>
  <path class="cls-2" d="M55.73,21.59c-1.94-.98-3.87-1.97-5.81-2.95l4.62-8.15c2.02,1.33,4.05,2.67,6.07,4-1.63,2.37-3.25,4.73-4.88,7.1Z"/>
  <polygon class="cls-2" points="63.31 10.5 61.26 3.66 70.13 .63 72.63 7.94 63.31 10.5"/>
  <polygon class="cls-2" points="78.37 8.24 82.5 2.06 91.03 6.16 86.84 12.98 78.37 8.24"/>
  <polygon class="cls-2" points="101.35 21.94 94.76 24.69 90.83 16.18 97.83 12.94 101.35 21.94"/>
  <polygon class="cls-2" points="96.34 30.5 103.41 31.47 102.5 40.8 94.81 40.05 96.34 30.5"/>
  <ellipse class="cls-1" cx="74.33" cy="30.11" rx="9.7" ry="9.87"/>
</svg>