<?xml version="1.0" encoding="UTF-8"?>
<svg id="Ebene_1" data-name="Ebene 1" xmlns="http://www.w3.org/2000/svg" viewBox="0 0 89.24 23.78">
  <defs>
    <style>
      .cls-1 {
        fill: #b3b3b3;
        stroke: #b3b3b3;
      }

      .cls-1, .cls-2 {
        stroke-miterlimit: 10;
      }

      .cls-2 {
        fill: gray;
        stroke: #4d4d4d;
      }
    </style>
  </defs>
  <polygon class="cls-2" points=".79 22.36 19.23 22.5 11.02 1.25 .79 22.36"/>
  <polygon class="cls-1" points="15.96 22.18 9.73 4.76 10.99 1.97 18.85 22.32 15.96 22.18"/>
  <polygon class="cls-2" points="23.82 22.94 42.25 23.08 34.04 1.83 23.82 22.94"/>
  <polygon class="cls-1" points="38.98 22.76 32.76 5.34 34.01 2.55 41.88 22.89 38.98 22.76"/>
  <polygon class="cls-2" points="46.66 23.14 65.09 23.28 56.88 2.03 46.66 23.14"/>
  <polygon class="cls-1" points="61.82 22.95 55.6 5.53 56.85 2.75 64.71 23.09 61.82 22.95"/>
  <polygon class="cls-2" points="70.08 23.14 88.51 23.28 80.3 2.03 70.08 23.14"/>
  <polygon class="cls-1" points="85.24 22.95 79.02 5.53 80.27 2.75 88.14 23.09 85.24 22.95"/>
</svg>