<?xml version="1.0" encoding="UTF-8"?>
<svg id="Ebene_1" data-name="Ebene 1" xmlns="http://www.w3.org/2000/svg" viewBox="0 0 90.87 37.48">
  <defs>
    <style>
      .cls-1 {
        fill: #c900ff;
      }

      .cls-2 {
        stroke: #000;
        stroke-miterlimit: 10;
      }

      .cls-2, .cls-3 {
        fill: #333;
      }

      .cls-4 {
        fill: #f0f;
      }
    </style>
  </defs>
  <polygon class="cls-2" points="8.02 10.48 7.59 36.94 9.61 36.8 9.61 10.34 8.02 10.48"/>
  <polygon class="cls-2" points="22.41 1.52 21.98 27.98 24 27.84 24 1.38 22.41 1.52"/>
  <polygon class="cls-2" points="65.5 1.81 65.06 28.27 67.09 28.13 67.09 1.67 65.5 1.81"/>
  <polygon class="cls-2" points="82.41 9.19 81.98 35.64 84 35.5 84 9.04 82.41 9.19"/>
  <g>
    <path class="cls-4" d="M45.43,14.46C18.95,14.46.5,10.78.5,7.48S18.95.5,45.43.5s44.93,3.68,44.93,6.98-18.45,6.98-44.93,6.98Z"/>
    <path class="cls-1" d="M45.43,1c12.08,0,23.43.77,31.96,2.18,10.23,1.68,12.47,3.68,12.47,4.3s-2.24,2.62-12.47,4.3c-8.53,1.4-19.88,2.18-31.96,2.18s-23.43-.77-31.96-2.18C3.24,10.1,1,8.11,1,7.48s2.24-2.62,12.47-4.3c8.53-1.4,19.88-2.18,31.96-2.18M45.43,0C20.34,0,0,3.35,0,7.48s20.34,7.48,45.43,7.48,45.43-3.35,45.43-7.48S70.53,0,45.43,0h0Z"/>
  </g>
  <g>
    <path class="cls-3" d="M44.88,11.28C17.34,11.28,3.52,8.5,3.52,6.94S17.34,2.6,44.88,2.6s41.36,2.78,41.36,4.34-13.82,4.34-41.36,4.34Z"/>
    <path d="M44.88,3.1c23.68,0,38.68,2.21,40.73,3.84-2.05,1.63-17.04,3.84-40.73,3.84S6.2,8.57,4.15,6.94c2.05-1.63,17.04-3.84,40.73-3.84M44.88,2.1C21.76,2.1,3.02,4.26,3.02,6.94s18.74,4.84,41.86,4.84,41.86-2.17,41.86-4.84-18.74-4.84-41.86-4.84h0Z"/>
  </g>
</svg>