<?xml version="1.0" encoding="UTF-8"?>
<svg id="Ebene_1" data-name="Ebene 1" xmlns="http://www.w3.org/2000/svg" viewBox="0 0 65.81 119.68">
  <defs>
    <style>
      .cls-1 {
        fill: #fff;
      }

      .cls-2 {
        fill: #363f4c;
      }

      .cls-3 {
        fill: #664b44;
      }

      .cls-4 {
        fill: #cc8f85;
      }

      .cls-5 {
        fill: #596a82;
      }

      .cls-6 {
        fill: #75827b;
      }

      .cls-7 {
        fill: #6f8fb2;
      }

      .cls-8 {
        fill: #484f5b;
      }

      .cls-9 {
        fill: #e8c0af;
      }

      .cls-10 {
        fill: #ea5e42;
      }
    </style>
  </defs>
  <rect class="cls-9" x="18.46" y="85.05" width="7.41" height="29.9"/>
  <rect class="cls-9" x="12.7" y="85.83" width="7.41" height="29.9"/>
  <rect x="8.24" y="112.95" width="16.01" height="6.73"/>
  <rect x="17.87" y="112.95" width="16.01" height="6.73"/>
  <rect class="cls-2" x="12.54" y="100" width="7.41" height="12.95"/>
  <rect class="cls-2" x="18.46" y="100" width="7.41" height="12.95"/>
  <g>
    <rect class="cls-3" x="49" y="27.31" width="11.46" height="30.56" transform="translate(19.12 -16.92) rotate(21.21)"/>
    <rect class="cls-3" x="2.89" y="31.65" width="52.03" height="25.74" transform="translate(18.07 -7.44) rotate(21.21)"/>
    <rect class="cls-6" x="15.68" y="46.69" width="21.14" height="30.38" transform="translate(24.17 -5.3) rotate(21.21)"/>
    <rect class="cls-7" x="5.89" y="67.66" width="5.85" height="19.83" transform="translate(49.56 10.98) rotate(37.94)"/>
    <rect class="cls-7" x="6.66" y="69.28" width="7.93" height="19.83" transform="translate(39.3 4.61) rotate(28.67)"/>
    <rect class="cls-7" x="12.17" y="72.81" width="12.82" height="19.83" transform="translate(31.19 -1.12) rotate(21.21)"/>
    <rect class="cls-7" x="20.59" y="75.13" width="7.93" height="19.83" transform="translate(13.75 -2.81) rotate(9.1)"/>
    <rect class="cls-7" x="23.74" y="75.22" width="7.93" height="19.83" transform="translate(-6 2.19) rotate(-4.09)"/>
    <ellipse class="cls-9" cx="35.1" cy="32.33" rx="16.45" ry="17.39" transform="translate(-7.74 53.36) rotate(-68.79)"/>
    <rect class="cls-3" x="38.45" y="17.41" width="16.37" height="11.07" transform="translate(11.46 -15.32) rotate(21.21)"/>
    <rect class="cls-3" x="45.63" y="26.78" width="11.23" height="10" transform="translate(14.97 -16.39) rotate(21.21)"/>
    <rect class="cls-3" x="40.75" y="23.96" width="7.05" height="7.05" transform="translate(12.94 -14.16) rotate(21.21)"/>
    <rect class="cls-3" x="48.51" y="35.73" width="4.88" height="7.09" transform="translate(17.66 -15.77) rotate(21.21)"/>
    <rect class="cls-3" x="29.51" y="9.92" width="11.91" height="10" transform="translate(7.8 -11.82) rotate(21.21)"/>
    <rect class="cls-3" x="22.15" y="13.62" width="8.01" height="7.07" transform="translate(7.98 -8.3) rotate(21.21)"/>
    <rect class="cls-3" x="11.87" y="16.37" width="9.1" height="15.1" transform="translate(9.77 -4.32) rotate(21.21)"/>
    <rect class="cls-3" x="16.71" y="10.21" width="11.54" height="11.54" transform="translate(7.3 -7.05) rotate(21.21)"/>
    <rect class="cls-3" x="10.12" y="27.5" width="8.95" height="18.74" transform="translate(14.33 -2.78) rotate(21.21)"/>
    <rect class="cls-3" x="20.23" y="7.4" width="40.12" height="12.63" transform="translate(7.69 -13.65) rotate(21.21)"/>
    <rect class="cls-3" x="31.19" y="4.23" width="23.7" height="8.91" transform="translate(6.06 -14.98) rotate(21.21)"/>
    <rect class="cls-3" x="51.08" y="18.57" width="12.44" height="15.01" transform="translate(13.32 -18.96) rotate(21.21)"/>
    <rect class="cls-3" x="12.35" y="1.88" width="14.37" height="21.1" transform="translate(5.82 -6.23) rotate(21.21)"/>
    <rect class="cls-10" x="37.82" y="19" width="4.44" height="7.07" transform="translate(10.87 -12.96) rotate(21.21)"/>
    <rect class="cls-10" x="40.12" y="27.37" width="7.05" height="3.52" transform="translate(13.5 -13.82) rotate(21.21)"/>
    <rect class="cls-10" x="43.95" y="32.59" width="6.9" height="2.96" transform="translate(15.54 -14.84) rotate(21.21)"/>
    <rect class="cls-10" x="47.87" y="35.61" width="3.2" height="6.65" transform="translate(17.44 -15.26) rotate(21.21)"/>
    <rect class="cls-10" x="41.39" y="24.1" width="3.52" height="2.85" transform="translate(12.16 -13.88) rotate(21.21)"/>
    <rect class="cls-1" x="37.95" y="33.83" width="8.02" height="2.32" transform="translate(15.5 -12.81) rotate(21.21)"/>
    <rect x="38.59" y="32.53" width="8.02" height="1.6" transform="translate(14.94 -13.16) rotate(21.21)"/>
    <rect x="41.68" y="34.59" width="4.01" height="2.32" transform="translate(15.89 -13.38) rotate(21.21)"/>
    <rect x="42.13" y="31.34" width="2.32" height="2.32" transform="translate(14.69 -13.46) rotate(21.21)"/>
    <rect class="cls-4" x="38.14" y="42.45" width="5.17" height="2.15" transform="translate(18.51 -11.79) rotate(21.21)"/>
    <g>
      <ellipse class="cls-9" cx="32.57" cy="79.18" rx="3.93" ry="4.22" transform="translate(-11.72 5.91) rotate(-8.79)"/>
      <rect class="cls-6" x="31.94" y="51.47" width="7.1" height="26.56" transform="translate(16.56 -6.62) rotate(13.87)"/>
    </g>
    <rect class="cls-8" x="19.11" y="45.72" width="11.27" height="19.68" transform="translate(21.78 -5.19) rotate(21.21)"/>
    <rect class="cls-8" x="32.92" y="49.85" width="4.93" height="19.68" transform="translate(23.99 -8.76) rotate(21.21)"/>
    <rect class="cls-8" x="17.87" y="52.41" width="15.58" height="20.66" transform="translate(-42.11 63.96) rotate(-68.79)"/>
    <rect class="cls-5" x="10.41" y="71.15" width="13.19" height="3.27" transform="translate(42.65 2.58) rotate(33.22)"/>
    <rect class="cls-5" x="15.26" y="73.96" width="17.9" height="3.27" transform="translate(18.83 -3.6) rotate(13.87)"/>
    <g>
      <rect class="cls-6" x="20.81" y="49.65" width="7.1" height="26.56" transform="translate(24.42 -4.55) rotate(21.21)"/>
      <ellipse class="cls-9" cx="19.88" cy="74.5" rx="3.93" ry="4.22" transform="translate(-56.76 66.07) rotate(-68.79)"/>
    </g>
    <rect class="cls-3" x="17.58" y="14.04" width="14.37" height="35.54" transform="translate(13.18 -6.8) rotate(21.21)"/>
    <rect class="cls-3" x="23.92" y="18.37" width="14.37" height="15.57" transform="translate(11.57 -9.48) rotate(21.21)"/>
  </g>
</svg>