<?xml version="1.0" encoding="UTF-8"?>
<svg id="Ebene_1" data-name="Ebene 1" xmlns="http://www.w3.org/2000/svg" viewBox="0 0 56.63 118.85">
  <defs>
    <style>
      .cls-1 {
        fill: #fff;
      }

      .cls-2 {
        fill: #664b44;
      }

      .cls-3 {
        fill: #cc8f85;
      }

      .cls-4 {
        fill: #e8c0af;
      }

      .cls-5 {
        fill: #a08c64;
      }

      .cls-6 {
        fill: #ea5e42;
      }
    </style>
  </defs>
  <g>
    <rect class="cls-4" x="21.91" y="82.36" width="7.41" height="29.9" transform="translate(25.94 -3.32) rotate(14.93)"/>
    <rect class="cls-4" x="20.29" y="96.29" width="7.41" height="12.95" transform="translate(27.29 -2.71) rotate(14.93)"/>
    <g>
      <rect x="17.3" y="109.93" width="16.01" height="6.73" transform="translate(30.05 -2.7) rotate(14.93)"/>
      <rect class="cls-4" x="18.75" y="109.98" width="13.55" height="4.99" transform="translate(29.84 -2.78) rotate(14.93)"/>
    </g>
  </g>
  <g>
    <rect class="cls-4" x="35.58" y="83.77" width="7.41" height="29.9" transform="translate(-23.08 12.7) rotate(-14.25)"/>
    <rect x="38.88" y="110.25" width="16.01" height="6.73" transform="translate(-26.52 15.03) rotate(-14.25)"/>
    <rect class="cls-4" x="37.17" y="98.52" width="7.41" height="12.95" transform="translate(-24.58 13.29) rotate(-14.25)"/>
    <rect class="cls-4" x="39.99" y="110.37" width="12.7" height="4.99" transform="translate(-26.35 14.87) rotate(-14.25)"/>
  </g>
  <g>
    <ellipse class="cls-4" cx="45.96" cy="73.3" rx="3.93" ry="4.22" transform="translate(-37.29 49.74) rotate(-42.11)"/>
    <rect class="cls-4" x="36.92" y="46.36" width="7.1" height="26.56" transform="translate(-17.55 16.88) rotate(-19.45)"/>
  </g>
  <rect class="cls-2" x="45.17" y="16.55" width="11.46" height="30.56"/>
  <rect class="cls-2" x="1.52" y="30.11" width="52.03" height="25.74"/>
  <rect class="cls-4" x="20.76" y="44.93" width="21.14" height="30.38"/>
  <rect class="cls-5" x="17.83" y="71.15" width="5.85" height="19.83" transform="translate(24.21 -2.54) rotate(16.73)"/>
  <rect class="cls-5" x="19.06" y="71.99" width="7.93" height="19.83" transform="translate(10.84 -2.3) rotate(7.46)"/>
  <rect class="cls-5" x="25.31" y="72.41" width="12.82" height="19.83"/>
  <rect class="cls-5" x="34.16" y="72.41" width="7.93" height="19.83" transform="translate(-16.43 9.83) rotate(-12.11)"/>
  <rect class="cls-5" x="37.14" y="71.36" width="7.93" height="19.83" transform="translate(-30.79 25.36) rotate(-25.3)"/>
  <ellipse class="cls-4" cx="28.89" cy="29.37" rx="17.39" ry="16.45"/>
  <rect class="cls-2" x="28.06" y="10.91" width="16.37" height="11.07"/>
  <rect class="cls-2" x="38.13" y="18.01" width="11.23" height="10"/>
  <rect class="cls-2" x="32.17" y="18.01" width="7.05" height="7.05"/>
  <rect class="cls-2" x="43.74" y="26.56" width="4.88" height="7.09"/>
  <rect class="cls-2" x="16.98" y="8" width="11.91" height="10"/>
  <rect class="cls-2" x="11.06" y="14.92" width="8.01" height="7.07"/>
  <rect class="cls-2" x="3.88" y="20.74" width="9.1" height="15.1"/>
  <rect class="cls-2" x="5.44" y="12.92" width="11.54" height="11.54"/>
  <rect class="cls-2" x="6.94" y="31.65" width="8.95" height="18.74"/>
  <rect class="cls-2" x="6.94" y="3.82" width="40.12" height="12.63"/>
  <rect class="cls-2" x="15.89" width="23.7" height="8.91"/>
  <rect class="cls-2" x="41.1" y="8" width="12.44" height="15.01"/>
  <rect class="cls-2" y="5.9" width="14.37" height="21.1"/>
  <rect class="cls-6" x="27.74" y="14.92" width="4.44" height="7.07"/>
  <rect class="cls-6" x="32.17" y="21.53" width="7.05" height="3.52"/>
  <rect class="cls-6" x="37.53" y="25.06" width="6.9" height="2.96"/>
  <rect class="cls-6" x="43.08" y="27" width="3.2" height="6.65"/>
  <rect class="cls-6" x="32.17" y="18.68" width="3.52" height="2.85"/>
  <rect class="cls-1" x="32.24" y="28.21" width="8.02" height="2.32"/>
  <rect x="32.24" y="26.78" width="8.02" height="1.6"/>
  <rect x="36.12" y="28.29" width="4.01" height="2.32"/>
  <rect x="35.43" y="25.4" width="2.32" height="2.32"/>
  <rect class="cls-3" x="35.6" y="36.69" width="5.17" height="2.15"/>
  <rect class="cls-5" x="22.01" y="44.93" width="11.27" height="19.68"/>
  <rect class="cls-5" x="36.59" y="44.93" width="4.93" height="19.68"/>
  <rect class="cls-5" x="20.58" y="53.52" width="21.02" height="20.66" transform="translate(-32.76 94.94) rotate(-90)"/>
  <rect class="cls-2" x="11.88" y="14.85" width="14.37" height="35.54"/>
  <rect class="cls-2" x="15.75" y="17.27" width="14.37" height="15.57"/>
  <rect x="37.71" y="54.73" width="2.68" height="2.68"/>
  <rect x="35.03" y="63.85" width="2.68" height="2.68"/>
  <rect x="22.61" y="58.78" width="2.68" height="2.68"/>
  <rect x="22.35" y="78.13" width="2.68" height="2.68"/>
  <rect x="30.37" y="84.36" width="2.68" height="2.68"/>
  <rect x="37.71" y="77.97" width="2.68" height="2.68"/>
  <g>
    <rect class="cls-4" x="22.78" y="47.12" width="7.1" height="26.56" transform="translate(23.27 -5.42) rotate(20.89)"/>
    <ellipse class="cls-4" cx="20.9" cy="74.62" rx="3.93" ry="4.22" transform="translate(-56.26 67.54) rotate(-69.11)"/>
  </g>
</svg>