<?xml version="1.0" encoding="UTF-8"?>
<svg id="Ebene_1" data-name="Ebene 1" xmlns="http://www.w3.org/2000/svg" viewBox="0 0 68.15 134.09">
  <defs>
    <style>
      .cls-1 {
        fill: #fff;
      }

      .cls-2 {
        fill: #e6eab7;
      }

      .cls-3 {
        fill: #664b44;
      }

      .cls-4 {
        fill: #cc8f85;
      }

      .cls-5 {
        fill: #4c4338;
      }

      .cls-6 {
        fill: #5d98d8;
      }

      .cls-7 {
        fill: #e8c0af;
      }

      .cls-8 {
        fill: #dae551;
      }

      .cls-9 {
        fill: #ea5e42;
      }
    </style>
  </defs>
  <rect class="cls-2" x="15.73" y="74.72" width="26.78" height="31.58"/>
  <rect class="cls-3" x="45.17" y="16.55" width="11.46" height="30.56"/>
  <rect class="cls-3" x="1.52" y="30.11" width="52.03" height="25.74"/>
  <rect class="cls-7" x="32.17" y="83.31" width="7.41" height="29.9"/>
  <rect class="cls-7" x="20.65" y="83.31" width="7.41" height="29.9"/>
  <rect class="cls-7" x="15.89" y="44.93" width="26.01" height="30.38"/>
  <ellipse class="cls-7" cx="9.66" cy="73.64" rx="4.22" ry="3.93"/>
  <ellipse class="cls-7" cx="48.62" cy="73.64" rx="4.22" ry="3.93" transform="translate(-22.54 21.45) rotate(-20.31)"/>
  <rect class="cls-2" x="13.74" y="70.39" width="7.93" height="19.83" transform="translate(23.87 -1.7) rotate(16.73)"/>
  <rect class="cls-2" x="19.06" y="71.99" width="7.93" height="19.83"/>
  <rect class="cls-2" x="23.59" y="74.72" width="11.14" height="31.58"/>
  <rect class="cls-2" x="34.16" y="72.41" width="7.93" height="19.83" transform="translate(-16.43 9.83) rotate(-12.11)"/>
  <rect class="cls-2" x="37.14" y="71.36" width="7.93" height="19.83" transform="translate(-30.79 25.36) rotate(-25.3)"/>
  <ellipse class="cls-7" cx="28.89" cy="29.37" rx="17.39" ry="16.45"/>
  <rect class="cls-5" x="12.65" y="111.22" width="16.01" height="6.73"/>
  <rect class="cls-5" x="31.58" y="111.22" width="16.01" height="6.73"/>
  <rect class="cls-3" x="28.06" y="10.91" width="16.37" height="11.07"/>
  <rect class="cls-3" x="38.13" y="18.01" width="11.23" height="10"/>
  <rect class="cls-3" x="32.17" y="18.01" width="7.05" height="7.05"/>
  <rect class="cls-3" x="43.74" y="26.56" width="4.88" height="7.09"/>
  <rect class="cls-3" x="16.98" y="8" width="11.91" height="10"/>
  <rect class="cls-3" x="11.06" y="14.92" width="8.01" height="7.07"/>
  <rect class="cls-3" x="3.88" y="20.74" width="9.1" height="15.1"/>
  <rect class="cls-3" x="5.44" y="12.92" width="11.54" height="11.54"/>
  <rect class="cls-3" x="6.94" y="31.65" width="8.95" height="18.74"/>
  <rect class="cls-3" x="6.94" y="3.82" width="40.12" height="12.63"/>
  <rect class="cls-3" x="15.89" width="23.7" height="8.91"/>
  <rect class="cls-3" x="41.1" y="8" width="12.44" height="15.01"/>
  <rect class="cls-3" y="5.9" width="14.37" height="21.1"/>
  <rect class="cls-9" x="27.74" y="14.92" width="4.44" height="7.07"/>
  <rect class="cls-9" x="32.17" y="21.53" width="7.05" height="3.52"/>
  <rect class="cls-9" x="37.53" y="25.06" width="6.9" height="2.96"/>
  <rect class="cls-9" x="43.08" y="27" width="3.2" height="6.65"/>
  <rect class="cls-9" x="32.17" y="18.68" width="3.52" height="2.85"/>
  <rect class="cls-1" x="17.76" y="28.29" width="8.02" height="2.32"/>
  <rect class="cls-1" x="32.24" y="28.21" width="8.02" height="2.32"/>
  <rect x="17.76" y="27" width="8.02" height="1.6"/>
  <rect x="32.24" y="26.78" width="8.02" height="1.6"/>
  <rect x="19.77" y="28.29" width="4.01" height="2.32"/>
  <rect x="34.24" y="28.29" width="4.01" height="2.32"/>
  <rect x="21.54" y="25.62" width="2.32" height="2.32"/>
  <rect x="35.43" y="25.4" width="2.32" height="2.32"/>
  <rect class="cls-4" x="27.53" y="35.84" width="5.17" height="2.15"/>
  <rect class="cls-7" x="10.61" y="45.39" width="7.1" height="26.56" transform="translate(17.49 -1.59) rotate(16.73)"/>
  <rect class="cls-2" x="18.36" y="52.06" width="21.36" height="26.31" transform="translate(-36.17 94.25) rotate(-90)"/>
  <rect class="cls-7" x="39.53" y="45.39" width="7.1" height="26.56" transform="translate(-17.69 18.6) rotate(-20.31)"/>
  <rect class="cls-2" x="15.89" y="45.82" width="6.41" height="21.41"/>
  <rect class="cls-2" x="35.14" y="44.93" width="6.38" height="19.68"/>
  <rect class="cls-7" x="16.46" y="112.07" width="9.2" height="3.54"/>
  <rect class="cls-7" x="34.47" y="112.07" width="9.2" height="3.54"/>
  <rect class="cls-6" x="15.89" y="68.08" width="26.31" height="3.16"/>
  <rect class="cls-6" x="68.15" y="121.88" width="0" height="12.21"/>
  <rect class="cls-6" x="20.65" y="69.44" width="3.91" height="15.19"/>
  <rect class="cls-8" x="20.57" y="83.8" width="3.99" height="2.13"/>
  <rect class="cls-6" x="14.16" y="44.93" width="28.35" height="6.6"/>
  <rect class="cls-8" x="14.16" y="49.49" width="28.35" height="2.04"/>
  <rect class="cls-2" x="30.12" y="72.41" width="7.93" height="19.83"/>
</svg>