<?xml version="1.0" encoding="UTF-8"?>
<svg id="Ebene_1" data-name="Ebene 1" xmlns="http://www.w3.org/2000/svg" viewBox="0 0 56.63 119.34">
  <defs>
    <style>
      .cls-1 {
        fill: #fff;
      }

      .cls-2 {
        fill: #e6eab7;
      }

      .cls-3 {
        fill: #664b44;
      }

      .cls-4 {
        fill: #cc8f85;
      }

      .cls-5 {
        fill: #4c4338;
      }

      .cls-6 {
        fill: #5d98d8;
      }

      .cls-7 {
        fill: #e8c0af;
      }

      .cls-8 {
        fill: #dae551;
      }

      .cls-9 {
        fill: #ea5e42;
      }
    </style>
  </defs>
  <g>
    <rect class="cls-7" x="33.87" y="83.33" width="7.41" height="29.9" transform="translate(-24.71 13.47) rotate(-15.37)"/>
    <rect class="cls-5" x="37.47" y="109.66" width="16.01" height="6.73" transform="translate(-28.33 16.09) rotate(-15.37)"/>
    <rect class="cls-7" x="35.58" y="98.05" width="7.41" height="12.95" transform="translate(-26.3 14.15) rotate(-15.37)"/>
    <rect class="cls-7" x="39.67" y="111.23" width="10.74" height="3.42" transform="translate(-28.32 15.98) rotate(-15.37)"/>
  </g>
  <g>
    <rect class="cls-7" x="23.46" y="82.72" width="7.41" height="29.9" transform="translate(33.19 -3.53) rotate(18.95)"/>
    <rect class="cls-7" x="21.46" y="96.52" width="7.41" height="12.95" transform="translate(34.81 -2.59) rotate(18.95)"/>
    <g>
      <rect class="cls-5" x="17.63" y="110.19" width="16.01" height="6.73" transform="translate(38.26 -2.17) rotate(18.95)"/>
      <rect class="cls-7" x="21.86" y="112.19" width="10.74" height="3.42" transform="translate(38.46 -2.67) rotate(18.95)"/>
    </g>
  </g>
  <rect class="cls-3" x="45.17" y="16.55" width="11.46" height="30.56"/>
  <rect class="cls-3" x="1.52" y="30.11" width="52.03" height="25.74"/>
  <rect class="cls-7" x="20.76" y="44.93" width="21.14" height="30.38"/>
  <rect class="cls-2" x="17.83" y="71.15" width="5.85" height="19.83" transform="translate(24.21 -2.54) rotate(16.73)"/>
  <rect class="cls-2" x="17.96" y="71.92" width="7.93" height="36.74" transform="translate(11.92 -2.08) rotate(7.46)"/>
  <rect class="cls-2" x="25.31" y="72.41" width="12.82" height="19.83"/>
  <rect class="cls-2" x="34.16" y="72.41" width="7.93" height="19.83" transform="translate(-16.43 9.83) rotate(-12.11)"/>
  <rect class="cls-2" x="37.14" y="71.36" width="7.93" height="19.83" transform="translate(-30.79 25.36) rotate(-25.3)"/>
  <ellipse class="cls-7" cx="28.89" cy="29.37" rx="17.39" ry="16.45"/>
  <rect class="cls-3" x="28.06" y="10.91" width="16.37" height="11.07"/>
  <rect class="cls-3" x="38.13" y="18.01" width="11.23" height="10"/>
  <rect class="cls-3" x="32.17" y="18.01" width="7.05" height="7.05"/>
  <rect class="cls-3" x="43.74" y="26.56" width="4.88" height="7.09"/>
  <rect class="cls-3" x="16.98" y="8" width="11.91" height="10"/>
  <rect class="cls-3" x="11.06" y="14.92" width="8.01" height="7.07"/>
  <rect class="cls-3" x="3.88" y="20.74" width="9.1" height="15.1"/>
  <rect class="cls-3" x="5.44" y="12.92" width="11.54" height="11.54"/>
  <rect class="cls-3" x="6.94" y="31.65" width="8.95" height="18.74"/>
  <rect class="cls-3" x="6.94" y="3.82" width="40.12" height="12.63"/>
  <rect class="cls-3" x="15.89" width="23.7" height="8.91"/>
  <rect class="cls-3" x="41.1" y="8" width="12.44" height="15.01"/>
  <rect class="cls-3" y="5.9" width="14.37" height="21.1"/>
  <rect class="cls-9" x="27.74" y="14.92" width="4.44" height="7.07"/>
  <rect class="cls-9" x="32.17" y="21.53" width="7.05" height="3.52"/>
  <rect class="cls-9" x="37.53" y="25.06" width="6.9" height="2.96"/>
  <rect class="cls-9" x="43.08" y="27" width="3.2" height="6.65"/>
  <rect class="cls-9" x="32.17" y="18.68" width="3.52" height="2.85"/>
  <rect class="cls-1" x="32.24" y="28.21" width="8.02" height="2.32"/>
  <rect x="32.24" y="26.78" width="8.02" height="1.6"/>
  <rect x="36.12" y="28.29" width="4.01" height="2.32"/>
  <rect x="35.43" y="25.4" width="2.32" height="2.32"/>
  <rect class="cls-4" x="35.6" y="36.69" width="5.17" height="2.15"/>
  <g>
    <ellipse class="cls-7" cx="47.11" cy="72.79" rx="3.93" ry="4.22" transform="translate(-38.53 59.2) rotate(-48.07)"/>
    <rect class="cls-7" x="36.68" y="46.49" width="7.1" height="26.56" transform="translate(-21.76 23.05) rotate(-25.41)"/>
  </g>
  <rect class="cls-2" x="22.01" y="44.93" width="11.27" height="19.68"/>
  <rect class="cls-2" x="36.59" y="44.93" width="4.93" height="19.68"/>
  <rect class="cls-2" x="21.4" y="52.7" width="19.39" height="20.66" transform="translate(-31.94 94.12) rotate(-90)"/>
  <rect class="cls-6" x="20.07" y="71.99" width="13.19" height="3.27" transform="translate(15.9 -3.94) rotate(12.01)"/>
  <rect class="cls-6" x="25.44" y="72" width="17.9" height="3.27" transform="translate(-9.13 5) rotate(-7.34)"/>
  <g>
    <rect class="cls-7" x="22.84" y="49.27" width="7.1" height="26.56" transform="translate(28.05 -5.32) rotate(24.27)"/>
    <ellipse class="cls-7" cx="20.21" cy="76.25" rx="3.93" ry="4.22" transform="translate(-57.61 63.33) rotate(-65.73)"/>
  </g>
  <rect class="cls-3" x="11.88" y="14.85" width="14.37" height="35.54"/>
  <rect class="cls-3" x="15.75" y="17.27" width="14.37" height="15.57"/>
  <rect class="cls-2" x="40.53" y="79.27" width="3.96" height="27.43" transform="translate(-4 1.94) rotate(-2.49)"/>
  <rect class="cls-6" x="26.25" y="44.93" width="16.6" height="2.18"/>
  <rect class="cls-8" x="26.25" y="47.11" width="16.6" height="1.09"/>
  <rect class="cls-6" x="33.24" y="79.97" width="16.6" height="2.18" transform="translate(122.6 39.52) rotate(90)"/>
  <rect class="cls-8" x="40.45" y="88.86" width="2.18" height="1.86"/>
</svg>