<?xml version="1.0" encoding="UTF-8"?>
<svg id="Ebene_1" data-name="Ebene 1" xmlns="http://www.w3.org/2000/svg" viewBox="0 0 84.07 117.95">
  <defs>
    <style>
      .cls-1 {
        fill: #bababa;
      }

      .cls-2 {
        fill: #fff;
      }

      .cls-3 {
        fill: #423434;
      }

      .cls-4 {
        fill: #999898;
      }

      .cls-5 {
        fill: #e6eab7;
      }

      .cls-6 {
        fill: #664b44;
      }

      .cls-7 {
        fill: #cc8f85;
      }

      .cls-8 {
        fill: #ddd;
      }

      .cls-9 {
        fill: #663434;
      }

      .cls-10 {
        fill: #4c4338;
      }

      .cls-11 {
        fill: #5d98d8;
      }

      .cls-12 {
        fill: #e8c0af;
      }

      .cls-13 {
        fill: #dae551;
      }

      .cls-14 {
        fill: #ea5e42;
      }
    </style>
  </defs>
  <g>
    <ellipse class="cls-12" cx="51.91" cy="68.41" rx="3.93" ry="4.22" transform="translate(-25.05 106.51) rotate(-79.14)"/>
    <rect class="cls-12" x="35.75" y="47.53" width="7.1" height="26.56" transform="translate(-33.1 60) rotate(-56.48)"/>
  </g>
  <rect class="cls-6" x="45.17" y="16.55" width="11.46" height="30.56"/>
  <rect class="cls-6" x="1.52" y="30.11" width="52.03" height="25.74"/>
  <rect class="cls-12" x="32.17" y="83.31" width="7.41" height="29.9"/>
  <rect class="cls-12" x="26.41" y="84.1" width="7.41" height="29.9"/>
  <rect class="cls-12" x="20.76" y="44.93" width="21.14" height="30.38"/>
  <rect class="cls-5" x="17.83" y="71.15" width="5.85" height="19.83" transform="translate(24.21 -2.54) rotate(16.73)"/>
  <rect class="cls-5" x="17.96" y="71.92" width="7.93" height="36.74" transform="translate(11.92 -2.08) rotate(7.46)"/>
  <rect class="cls-5" x="25.31" y="72.41" width="12.82" height="19.83"/>
  <rect class="cls-5" x="34.16" y="72.41" width="7.93" height="19.83" transform="translate(-16.43 9.83) rotate(-12.11)"/>
  <rect class="cls-5" x="37.14" y="71.36" width="7.93" height="19.83" transform="translate(-30.79 25.36) rotate(-25.3)"/>
  <ellipse class="cls-12" cx="28.89" cy="29.37" rx="17.39" ry="16.45"/>
  <rect class="cls-10" x="21.95" y="111.22" width="16.01" height="6.73"/>
  <rect class="cls-10" x="31.58" y="111.22" width="16.01" height="6.73"/>
  <rect class="cls-6" x="28.06" y="10.91" width="16.37" height="11.07"/>
  <rect class="cls-6" x="38.13" y="18.01" width="11.23" height="10"/>
  <rect class="cls-6" x="32.17" y="18.01" width="7.05" height="7.05"/>
  <rect class="cls-6" x="43.74" y="26.56" width="4.88" height="7.09"/>
  <rect class="cls-6" x="16.98" y="8" width="11.91" height="10"/>
  <rect class="cls-6" x="11.06" y="14.92" width="8.01" height="7.07"/>
  <rect class="cls-6" x="3.88" y="20.74" width="9.1" height="15.1"/>
  <rect class="cls-6" x="5.44" y="12.92" width="11.54" height="11.54"/>
  <rect class="cls-6" x="6.94" y="31.65" width="8.95" height="18.74"/>
  <rect class="cls-6" x="6.94" y="3.82" width="40.12" height="12.63"/>
  <rect class="cls-6" x="15.89" width="23.7" height="8.91"/>
  <rect class="cls-6" x="41.1" y="8" width="12.44" height="15.01"/>
  <rect class="cls-6" y="5.9" width="14.37" height="21.1"/>
  <rect class="cls-14" x="27.74" y="14.92" width="4.44" height="7.07"/>
  <rect class="cls-14" x="32.17" y="21.53" width="7.05" height="3.52"/>
  <rect class="cls-14" x="37.53" y="25.06" width="6.9" height="2.96"/>
  <rect class="cls-14" x="43.08" y="27" width="3.2" height="6.65"/>
  <rect class="cls-14" x="32.17" y="18.68" width="3.52" height="2.85"/>
  <rect class="cls-2" x="32.24" y="28.21" width="8.02" height="2.32"/>
  <rect x="32.24" y="26.78" width="8.02" height="1.6"/>
  <rect x="36.12" y="28.29" width="4.01" height="2.32"/>
  <rect x="35.43" y="25.4" width="2.32" height="2.32"/>
  <rect class="cls-7" x="35.6" y="36.69" width="5.17" height="2.15"/>
  <rect class="cls-5" x="22.01" y="44.93" width="11.27" height="19.68"/>
  <rect class="cls-5" x="36.59" y="44.93" width="4.93" height="19.68"/>
  <rect class="cls-5" x="21.4" y="52.7" width="19.39" height="20.66" transform="translate(-31.94 94.12) rotate(-90)"/>
  <rect class="cls-11" x="20.07" y="71.99" width="13.19" height="3.27" transform="translate(15.9 -3.94) rotate(12.01)"/>
  <rect class="cls-11" x="25.44" y="72" width="17.9" height="3.27" transform="translate(-9.13 5) rotate(-7.34)"/>
  <rect class="cls-12" x="26.25" y="98.26" width="7.41" height="12.95"/>
  <rect class="cls-12" x="32.17" y="98.26" width="7.41" height="12.95"/>
  <rect class="cls-6" x="11.88" y="14.85" width="14.37" height="35.54"/>
  <rect class="cls-6" x="15.75" y="17.27" width="14.37" height="15.57"/>
  <rect class="cls-12" x="33.82" y="112.67" width="10.74" height="3.42"/>
  <rect class="cls-5" x="40.53" y="79.27" width="3.96" height="27.43" transform="translate(-4 1.94) rotate(-2.49)"/>
  <rect class="cls-12" x="26.21" y="112.67" width="10.74" height="3.42"/>
  <rect class="cls-11" x="26.25" y="44.93" width="16.6" height="2.18"/>
  <rect class="cls-13" x="26.25" y="47.11" width="16.6" height="1.09"/>
  <rect class="cls-11" x="33.24" y="79.97" width="16.6" height="2.18" transform="translate(122.6 39.52) rotate(90)"/>
  <rect class="cls-13" x="40.45" y="88.86" width="2.18" height="1.86"/>
  <g>
    <g>
      <rect class="cls-8" x="22.4" y="65.02" width="47.96" height="1.36" transform="translate(-28.74 94.41) rotate(-75.7)"/>
      <path class="cls-9" d="M50.88,41.49c.23-.35,8.51,2.67,14.61,10.57,2.71,3.52,7.01,9.08,6.45,16.92-.78,10.68-10.36,16.65-11.79,17.52-10.58,6.41-22.81,2.64-22.8,1.99,0-.62,11.01,1.61,20.92-5.01,1.99-1.33,9.64-6.45,10.55-14.97.75-6.99-3.42-12.5-6.55-16.62-5.47-7.22-11.59-10.08-11.39-10.4Z"/>
      <path class="cls-9" d="M50.88,41.49c.74-2.35,2.78-3.72,4.56-3.42,1.53.25,2.37,1.67,2.53,1.95-2.05-1.32-4.1-.95-4.58-.07-.42.76.16,2.27,1.52,3.4-1.35-.61-2.69-1.23-4.04-1.84h0Z"/>
      <path class="cls-9" d="M38.19,88.87c-.6,2.9.44,5.43,2.15,6.05,1.46.54,2.93-.53,3.22-.74-2.47.33-4.05-1.15-4-2.34.04-1.04,1.33-2.33,3.11-2.82-1.49-.06-2.98-.11-4.47-.16Z"/>
      <path class="cls-9" d="M70.66,68.17c1.45,1.6,2.9,3.2,4.35,4.8-1.81.9-3.63,1.81-5.45,2.71.36-2.51.73-5.01,1.09-7.52h0Z"/>
      <path class="cls-9" d="M68.48,72.23c-.6,2.9.44,5.43,2.15,6.05,1.46.54,2.93-.53,3.22-.74-2.47.33-4.05-1.15-4-2.34.04-1.04,1.33-2.33,3.11-2.82-1.49-.06-2.98-.11-4.47-.16Z"/>
      <path class="cls-9" d="M68.82,69.6c.74-2.35,2.78-3.72,4.56-3.42,1.53.25,2.37,1.67,2.53,1.95-2.05-1.32-4.1-.95-4.58-.07-.42.76.16,2.27,1.52,3.4-1.35-.61-2.69-1.23-4.04-1.84h0Z"/>
    </g>
    <g>
      <rect class="cls-3" x="56.78" y="44.49" width="1.38" height="46.99" transform="translate(-22.61 106.88) rotate(-75.7)"/>
      <path class="cls-1" d="M76.27,67.91l-1.92,9.24c3.24-.81,6.48-1.63,9.72-2.44-2.6-2.27-5.2-4.53-7.8-6.8Z"/>
      <polygon class="cls-1" points="40.5 55.14 43.83 64.71 38.49 66.68 35.17 57.11 40.5 55.14"/>
      <polygon class="cls-1" points="32.7 65.99 40.72 59.83 44.1 64.41 36.08 70.58 32.7 65.99"/>
      <polygon class="cls-4" points="37.09 57.23 38.86 62.35 38.19 62.6 36.41 57.48 37.09 57.23"/>
      <polygon class="cls-4" points="38.47 56.85 40.24 61.96 39.57 62.21 37.79 57.1 38.47 56.85"/>
      <polygon class="cls-4" points="39.87 56.33 41.65 61.45 40.97 61.7 39.19 56.58 39.87 56.33"/>
      <polygon class="cls-4" points="38.74 63.73 34.33 66.84 33.92 66.24 38.34 63.13 38.74 63.73"/>
      <polygon class="cls-4" points="39.94 64.72 35.52 67.83 35.12 67.23 39.53 64.12 39.94 64.72"/>
      <polygon class="cls-4" points="40.81 66 36.39 69.12 35.99 68.52 40.4 65.4 40.81 66"/>
    </g>
  </g>
  <g>
    <rect class="cls-12" x="31.81" y="48.39" width="7.1" height="26.56" transform="translate(-34.7 49.59) rotate(-50.39)"/>
    <ellipse class="cls-12" cx="46.99" cy="71.3" rx="4.22" ry="3.93" transform="translate(-37.9 62.05) rotate(-50.39)"/>
  </g>
</svg>