<?xml version="1.0" encoding="UTF-8"?>
<svg id="Ebene_1" data-name="Ebene 1" xmlns="http://www.w3.org/2000/svg" viewBox="0 0 59.5 120.31">
  <defs>
    <style>
      .cls-1 {
        fill: #363f4c;
      }

      .cls-2 {
        fill: #664b44;
      }

      .cls-3 {
        fill: #cc8f85;
      }

      .cls-4 {
        fill: #596a82;
      }

      .cls-5 {
        fill: #75827b;
      }

      .cls-6 {
        fill: #6f8fb2;
      }

      .cls-7 {
        fill: #484f5b;
      }

      .cls-8 {
        fill: #e8c0af;
      }

      .cls-9 {
        fill: #ea5e42;
      }
    </style>
  </defs>
  <g>
    <rect class="cls-5" x="17.49" y="46.61" width="7.1" height="26.56" transform="translate(55.39 6.51) rotate(52.11)"/>
    <ellipse class="cls-8" cx="8.56" cy="69.6" rx="3.93" ry="4.22" transform="translate(-40.94 19.93) rotate(-37.89)"/>
  </g>
  <g>
    <rect class="cls-8" x="15.09" y="83.4" width="7.41" height="29.9" transform="translate(41.17 .75) rotate(23.73)"/>
    <rect x="8.6" y="110.64" width="16.01" height="6.73" transform="translate(47.29 2.96) rotate(23.73)"/>
    <rect class="cls-1" x="12.83" y="97.01" width="7.41" height="12.95" transform="translate(43.05 2.1) rotate(23.73)"/>
  </g>
  <g>
    <rect class="cls-8" x="28.1" y="86.6" width="7.41" height="29.9" transform="translate(-12.93 5) rotate(-7.47)"/>
    <rect x="29.99" y="112.31" width="16.01" height="6.73" transform="translate(-14.72 5.92) rotate(-7.47)"/>
    <rect class="cls-1" x="28.74" y="100" width="7.41" height="12.95" transform="translate(-13.57 5.12) rotate(-7.47)"/>
  </g>
  <g>
    <ellipse class="cls-8" cx="31.68" cy="75.96" rx="3.93" ry="4.22" transform="translate(-12.33 6.42) rotate(-9.69)"/>
    <rect class="cls-5" x="30.83" y="48.2" width="7.1" height="26.56" transform="translate(14.67 -6.15) rotate(12.97)"/>
  </g>
  <rect class="cls-2" x="46.22" y="20.59" width="11.46" height="30.56" transform="translate(4.76 -6.07) rotate(7)"/>
  <rect class="cls-2" x="1.38" y="31.2" width="52.03" height="25.74" transform="translate(5.58 -3.01) rotate(7)"/>
  <rect class="cls-5" x="18.5" y="46.37" width="21.14" height="30.38" transform="translate(7.72 -3.09) rotate(7)"/>
  <rect class="cls-6" x="13.09" y="71.14" width="5.85" height="19.83" transform="translate(33.98 .41) rotate(23.73)"/>
  <rect class="cls-6" x="14.21" y="72.25" width="7.93" height="19.83" transform="translate(21.1 -1.93) rotate(14.47)"/>
  <rect class="cls-6" x="20.34" y="73.72" width="12.82" height="19.83" transform="translate(10.4 -2.64) rotate(7)"/>
  <rect class="cls-6" x="29.15" y="74.51" width="7.93" height="19.83" transform="translate(-7.39 3.28) rotate(-5.11)"/>
  <rect class="cls-6" x="32.23" y="73.82" width="7.93" height="19.83" transform="translate(-24.46 15.59) rotate(-18.3)"/>
  <ellipse class="cls-8" cx="30.4" cy="30.74" rx="16.45" ry="17.39" transform="translate(-3.81 57.16) rotate(-83)"/>
  <rect class="cls-2" x="31.09" y="13.27" width="16.37" height="11.07" transform="translate(2.59 -4.65) rotate(7)"/>
  <rect class="cls-2" x="40.3" y="21.23" width="11.23" height="10" transform="translate(3.54 -5.4) rotate(7)"/>
  <rect class="cls-2" x="34.58" y="20.26" width="7.05" height="7.05" transform="translate(3.18 -4.47) rotate(7)"/>
  <rect class="cls-2" x="45.03" y="30.03" width="4.88" height="7.09" transform="translate(4.45 -5.54) rotate(7)"/>
  <rect class="cls-2" x="20.53" y="8.77" width="11.91" height="10" transform="translate(1.88 -3.13) rotate(7)"/>
  <rect class="cls-2" x="14" y="14.68" width="8.01" height="7.07" transform="translate(2.35 -2.06) rotate(7)"/>
  <rect class="cls-2" x="5.67" y="19.62" width="9.1" height="15.1" transform="translate(3.39 -1.04) rotate(7)"/>
  <rect class="cls-2" x="8.38" y="12.21" width="11.54" height="11.54" transform="translate(2.3 -1.59) rotate(7)"/>
  <rect class="cls-2" x="7.16" y="30.8" width="8.95" height="18.74" transform="translate(4.98 -1.12) rotate(7)"/>
  <rect class="cls-2" x="10.81" y="5.1" width="40.12" height="12.63" transform="translate(1.62 -3.68) rotate(7)"/>
  <rect class="cls-2" x="20.44" y="1.41" width="23.7" height="8.91" transform="translate(.96 -3.89) rotate(7)"/>
  <rect class="cls-2" x="44.16" y="11.72" width="12.44" height="15.01" transform="translate(2.72 -6) rotate(7)"/>
  <rect class="cls-2" x="3.25" y="4.72" width="14.37" height="21.1" transform="translate(1.94 -1.16) rotate(7)"/>
  <rect class="cls-9" x="30.57" y="16.49" width="4.44" height="7.07" transform="translate(2.69 -3.85) rotate(7)"/>
  <rect class="cls-9" x="34.37" y="23.77" width="7.05" height="3.52" transform="translate(3.4 -4.43) rotate(7)"/>
  <rect class="cls-9" x="39.3" y="27.92" width="6.9" height="2.96" transform="translate(3.9 -4.99) rotate(7)"/>
  <rect class="cls-9" x="44.36" y="30.28" width="3.2" height="6.65" transform="translate(4.44 -5.35) rotate(7)"/>
  <rect class="cls-9" x="34.77" y="20.73" width="3.52" height="2.85" transform="translate(2.97 -4.29) rotate(7)"/>
  <rect x="33.91" y="29.06" width="8.02" height="1.6" transform="translate(3.92 -4.4) rotate(7)"/>
  <rect x="37.22" y="27.72" width="2.32" height="2.32" transform="translate(3.81 -4.46) rotate(7)"/>
  <rect class="cls-3" x="36.25" y="35.29" width="5.17" height="6" transform="translate(4.96 -4.45) rotate(7)"/>
  <rect class="cls-7" x="20.43" y="45.96" width="11.27" height="19.68" transform="translate(7 -2.76) rotate(7)"/>
  <rect class="cls-7" x="34.92" y="47.35" width="4.93" height="19.68" transform="translate(7.25 -4.13) rotate(7)"/>
  <rect class="cls-7" x="20.92" y="52.2" width="15.58" height="20.66" transform="translate(-36.85 83.4) rotate(-83)"/>
  <rect class="cls-4" x="16.19" y="72.75" width="13.19" height="3.27" transform="translate(25.48 -3.37) rotate(19.01)"/>
  <rect class="cls-4" x="21.51" y="73.71" width="17.9" height="3.27" transform="translate(-.44 .18) rotate(-.34)"/>
  <g>
    <rect class="cls-5" x="29.33" y="48.57" width="7.1" height="26.56" transform="translate(-21.25 17.4) rotate(-22.61)"/>
    <ellipse class="cls-8" cx="38.95" cy="76.44" rx="4.22" ry="3.93" transform="translate(-26.4 20.86) rotate(-22.61)"/>
  </g>
  <rect class="cls-2" x="13.06" y="14.99" width="14.37" height="35.54" transform="translate(4.15 -2.22) rotate(7)"/>
  <rect class="cls-2" x="17.83" y="17.94" width="14.37" height="15.57" transform="translate(3.32 -2.86) rotate(7)"/>
</svg>