<?xml version="1.0" encoding="UTF-8"?>
<svg id="Ebene_1" data-name="Ebene 1" xmlns="http://www.w3.org/2000/svg" viewBox="0 0 98.74 117.95">
  <defs>
    <style>
      .cls-1 {
        fill: #53845b;
      }

      .cls-2 {
        fill: #fff;
      }

      .cls-3 {
        fill: #363f4c;
      }

      .cls-4 {
        fill: #664b44;
      }

      .cls-5 {
        fill: #cc8f85;
      }

      .cls-6 {
        fill: #d3d3d3;
      }

      .cls-7 {
        fill: #75827b;
      }

      .cls-8 {
        fill: #b5b4b4;
      }

      .cls-9 {
        fill: #4c4338;
      }

      .cls-10 {
        fill: #e8c0af;
      }

      .cls-11 {
        fill: #6557b2;
      }

      .cls-12 {
        fill: #ea5e42;
      }
    </style>
  </defs>
  <rect class="cls-3" x="13.74" y="45.82" width="8.27" height="59.81"/>
  <rect class="cls-4" x="45.17" y="16.55" width="11.46" height="30.56"/>
  <rect class="cls-4" x="1.52" y="30.11" width="52.03" height="25.74"/>
  <rect class="cls-10" x="32.17" y="83.31" width="7.41" height="29.9"/>
  <rect class="cls-10" x="26.41" y="84.1" width="7.41" height="29.9"/>
  <rect class="cls-7" x="20.76" y="44.93" width="21.14" height="30.38"/>
  <ellipse class="cls-10" cx="43.48" cy="73.96" rx="3.93" ry="4.22" transform="translate(-31.15 31.65) rotate(-30)"/>
  <rect class="cls-1" x="17.83" y="71.15" width="5.85" height="19.83" transform="translate(24.21 -2.54) rotate(16.73)"/>
  <rect class="cls-1" x="19.06" y="71.99" width="7.93" height="19.83" transform="translate(10.84 -2.3) rotate(7.46)"/>
  <rect class="cls-1" x="25.31" y="72.41" width="12.82" height="19.83"/>
  <rect class="cls-1" x="34.16" y="72.41" width="7.93" height="19.83" transform="translate(-16.43 9.83) rotate(-12.11)"/>
  <rect class="cls-1" x="37.14" y="71.36" width="7.93" height="19.83" transform="translate(-30.79 25.36) rotate(-25.3)"/>
  <ellipse class="cls-10" cx="28.89" cy="29.37" rx="17.39" ry="16.45"/>
  <rect class="cls-9" x="21.95" y="111.22" width="16.01" height="6.73"/>
  <rect class="cls-9" x="31.58" y="111.22" width="16.01" height="6.73"/>
  <rect class="cls-4" x="28.06" y="10.91" width="16.37" height="11.07"/>
  <rect class="cls-4" x="38.13" y="18.01" width="11.23" height="10"/>
  <rect class="cls-4" x="32.17" y="18.01" width="7.05" height="7.05"/>
  <rect class="cls-4" x="43.74" y="26.56" width="4.88" height="7.09"/>
  <rect class="cls-4" x="16.98" y="8" width="11.91" height="10"/>
  <rect class="cls-4" x="11.06" y="14.92" width="8.01" height="7.07"/>
  <rect class="cls-4" x="3.88" y="20.74" width="9.1" height="15.1"/>
  <rect class="cls-4" x="5.44" y="12.92" width="11.54" height="11.54"/>
  <rect class="cls-4" x="6.94" y="31.65" width="8.95" height="18.74"/>
  <rect class="cls-4" x="6.94" y="3.82" width="40.12" height="12.63"/>
  <rect class="cls-4" x="15.89" width="23.7" height="8.91"/>
  <rect class="cls-4" x="41.1" y="8" width="12.44" height="15.01"/>
  <rect class="cls-4" y="5.9" width="14.37" height="21.1"/>
  <rect class="cls-12" x="27.74" y="14.92" width="4.44" height="7.07"/>
  <rect class="cls-12" x="32.17" y="21.53" width="7.05" height="3.52"/>
  <rect class="cls-12" x="37.53" y="25.06" width="6.9" height="2.96"/>
  <rect class="cls-12" x="43.08" y="27" width="3.2" height="6.65"/>
  <rect class="cls-12" x="32.17" y="18.68" width="3.52" height="2.85"/>
  <rect class="cls-2" x="32.24" y="28.21" width="8.02" height="2.32"/>
  <rect x="32.24" y="26.78" width="8.02" height="1.6"/>
  <rect x="36.12" y="28.29" width="4.01" height="2.32"/>
  <rect x="35.43" y="25.4" width="2.32" height="2.32"/>
  <rect class="cls-5" x="35.6" y="36.69" width="5.17" height="2.15"/>
  <rect class="cls-7" x="37.43" y="46.17" width="7.1" height="26.56" transform="translate(-7.26 5.72) rotate(-7.34)"/>
  <rect class="cls-1" x="22.01" y="44.93" width="11.27" height="19.68"/>
  <rect class="cls-1" x="36.59" y="44.93" width="4.93" height="19.68"/>
  <rect class="cls-1" x="21.4" y="52.7" width="19.39" height="20.66" transform="translate(-31.94 94.12) rotate(-90)"/>
  <rect class="cls-9" x="20.07" y="71.99" width="13.19" height="3.27" transform="translate(15.9 -3.94) rotate(12.01)"/>
  <rect class="cls-9" x="25.44" y="72" width="17.9" height="3.27" transform="translate(-9.13 5) rotate(-7.34)"/>
  <rect class="cls-9" x="26.25" y="98.26" width="7.41" height="12.95"/>
  <rect class="cls-9" x="32.17" y="98.26" width="7.41" height="12.95"/>
  <rect class="cls-4" x="11.88" y="14.85" width="14.37" height="35.54"/>
  <rect class="cls-4" x="15.75" y="17.27" width="14.37" height="15.57"/>
  <rect class="cls-3" x="25.9" y="44.93" width="17.18" height="3.62"/>
  <g>
    <g>
      <path class="cls-6" d="M98.74,5.9c-2.18,4.98-4.37,9.98-6.55,14.96-10.98,14.87-21.96,29.72-32.94,44.59-1.78-2.08-3.57-4.16-5.35-6.23,10.91-14.76,21.8-29.51,32.71-44.27,4.05-3.01,8.09-6.03,12.14-9.04Z"/>
      <path class="cls-8" d="M97.91,7.81c-2.16,4.89-4.32,9.76-6.48,14.65-10.41,14.74-20.81,29.49-31.21,44.24-1.5-1.91-2.98-3.83-4.48-5.74,10.34-14.65,20.66-29.28,31-43.93,3.72-3.07,7.45-6.14,11.17-9.2h0Z"/>
    </g>
    <g>
      <rect class="cls-11" x="55.11" y="57.73" width="2.78" height="10.68" transform="translate(-28.17 62.43) rotate(-47.71)"/>
      <rect class="cls-11" x="45.62" y="65.17" width="13.54" height="4.83" transform="translate(-33.05 64.03) rotate(-49.83)"/>
      <rect class="cls-11" x="57.5" y="66.01" width="3.18" height="1.73" transform="translate(-30.14 65.59) rotate(-47.71)"/>
    </g>
    <rect class="cls-11" x="50.3" y="60.61" width="3.18" height="1.73" transform="translate(-28.5 58.5) rotate(-47.71)"/>
  </g>
  <g>
    <rect class="cls-7" x="35.96" y="48.02" width="7.1" height="26.56" transform="translate(-31.73 76.91) rotate(-69.55)"/>
    <ellipse class="cls-10" cx="53.04" cy="66.35" rx="4.22" ry="3.93" transform="translate(-27.65 92.87) rotate(-69.55)"/>
  </g>
</svg>