<?xml version="1.0" encoding="UTF-8"?>
<svg id="Ebene_1" data-name="Ebene 1" xmlns="http://www.w3.org/2000/svg" viewBox="0 0 90.34 108.23">
  <defs>
    <style>
      .cls-1 {
        fill: #fff;
      }

      .cls-2 {
        fill: #363f4c;
      }

      .cls-3 {
        fill: #664b44;
      }

      .cls-4 {
        fill: #cc8f85;
      }

      .cls-5 {
        fill: #596a82;
      }

      .cls-6 {
        fill: #75827b;
      }

      .cls-7 {
        fill: #6f8fb2;
      }

      .cls-8 {
        fill: #484f5b;
      }

      .cls-9 {
        fill: #e8c0af;
      }

      .cls-10 {
        fill: #ea5e42;
      }
    </style>
  </defs>
  <rect class="cls-9" x="16.85" y="73.6" width="7.41" height="29.9"/>
  <rect class="cls-9" x="11.09" y="74.39" width="7.41" height="29.9"/>
  <rect x="6.63" y="101.5" width="16.01" height="6.73"/>
  <rect x="16.26" y="101.5" width="16.01" height="6.73"/>
  <rect class="cls-2" x="10.93" y="88.55" width="7.41" height="12.95"/>
  <rect class="cls-2" x="16.85" y="88.55" width="7.41" height="12.95"/>
  <g>
    <rect class="cls-3" x="62.3" y="41.77" width="11.46" height="30.56" transform="translate(83.3 -30.41) rotate(59.92)"/>
    <rect class="cls-3" x="20.66" y="29.53" width="52.03" height="25.74" transform="translate(59.98 -19.24) rotate(59.92)"/>
    <rect class="cls-6" x="23.17" y="39.1" width="21.14" height="30.38" transform="translate(63.81 -2.12) rotate(59.92)"/>
    <rect class="cls-7" x="7.4" y="45.71" width="5.85" height="19.83" transform="translate(62.06 32.74) rotate(76.65)"/>
    <rect class="cls-7" x="6.76" y="48.11" width="7.93" height="19.83" transform="translate(60.16 25.81) rotate(67.39)"/>
    <rect class="cls-7" x="8.31" y="55.83" width="12.82" height="19.83" transform="translate(64.24 20.05) rotate(59.92)"/>
    <rect class="cls-7" x="13.97" y="61.38" width="7.93" height="19.83" transform="translate(58.71 10.12) rotate(47.81)"/>
    <rect class="cls-7" x="16.37" y="63.43" width="7.93" height="19.83" transform="translate(45.27 1.43) rotate(34.62)"/>
    <ellipse class="cls-9" cx="59.13" cy="36.77" rx="16.45" ry="17.39" transform="translate(-10.46 34.59) rotate(-30.08)"/>
    <rect class="cls-3" x="65.81" y="31.12" width="16.37" height="11.07" transform="translate(68.63 -45.75) rotate(59.92)"/>
    <rect class="cls-3" x="66.46" y="41.43" width="11.23" height="10" transform="translate(76.13 -39.21) rotate(59.92)"/>
    <rect class="cls-3" x="65.8" y="35.2" width="7.05" height="7.05" transform="translate(68.09 -40.67) rotate(59.92)"/>
    <rect class="cls-3" x="64.72" y="48.55" width="4.88" height="7.09" transform="translate(78.58 -32.13) rotate(59.92)"/>
    <rect class="cls-3" x="64.35" y="18.41" width="11.91" height="10" transform="translate(55.33 -49.16) rotate(59.92)"/>
    <rect class="cls-3" x="57.64" y="15.79" width="8.01" height="7.07" transform="translate(47.47 -43.71) rotate(59.92)"/>
    <rect class="cls-3" x="45.26" y="10.96" width="9.1" height="15.1" transform="translate(40.87 -33.87) rotate(59.92)"/>
    <rect class="cls-3" x="53.75" y="10.34" width="11.54" height="11.54" transform="translate(43.63 -43.47) rotate(59.92)"/>
    <rect class="cls-3" x="35.81" y="18.11" width="8.95" height="18.74" transform="translate(43.87 -21.16) rotate(59.92)"/>
    <rect class="cls-3" x="54.77" y="19.17" width="40.12" height="12.63" transform="translate(59.38 -52.04) rotate(59.92)"/>
    <rect class="cls-3" x="68.26" y="18.82" width="23.7" height="8.91" transform="translate(60.1 -57.71) rotate(59.92)"/>
    <rect class="cls-3" x="74.14" y="38.26" width="12.44" height="15.01" transform="translate(79.69 -46.71) rotate(59.92)"/>
    <rect class="cls-3" x="52.25" y=".95" width="14.37" height="21.1" transform="translate(39.6 -45.69) rotate(59.92)"/>
    <rect class="cls-10" x="66.89" y="28.68" width="4.44" height="7.07" transform="translate(62.35 -43.74) rotate(59.92)"/>
    <rect class="cls-10" x="64.27" y="37.84" width="7.05" height="3.52" transform="translate(68.09 -38.91) rotate(59.92)"/>
    <rect class="cls-10" x="64.19" y="44.33" width="6.9" height="2.96" transform="translate(73.38 -35.69) rotate(59.92)"/>
    <rect class="cls-10" x="64.62" y="47.58" width="3.2" height="6.65" transform="translate(77.08 -31.91) rotate(59.92)"/>
    <rect class="cls-10" x="67.91" y="35.06" width="3.52" height="2.85" transform="translate(66.33 -42.09) rotate(59.92)"/>
    <rect class="cls-1" x="58.81" y="41.97" width="8.02" height="2.32" transform="translate(68.66 -32.84) rotate(59.92)"/>
    <rect x="60.35" y="41.43" width="8.02" height="1.6" transform="translate(68.65 -34.63) rotate(59.92)"/>
    <rect x="61.69" y="43.63" width="4.01" height="2.32" transform="translate(70.53 -32.77) rotate(59.92)"/>
    <rect x="64.26" y="40.86" width="2.32" height="2.32" transform="translate(68.99 -35.65) rotate(59.92)"/>
    <rect class="cls-4" x="53.94" y="47.94" width="5.17" height="2.15" transform="translate(70.61 -24.46) rotate(59.92)"/>
    <g>
      <ellipse class="cls-9" cx="37.64" cy="78.52" rx="3.93" ry="4.22" transform="translate(-6.12 3.24) rotate(-4.56)"/>
      <rect class="cls-6" x="38.07" y="51.06" width="7.1" height="26.56" transform="translate(22.05 -9.75) rotate(18.1)"/>
    </g>
    <rect class="cls-8" x="30.89" y="38.58" width="11.27" height="19.68" transform="translate(60.12 -7.46) rotate(59.92)"/>
    <rect class="cls-8" x="39.78" y="48.45" width="4.93" height="19.68" transform="translate(71.51 -7.48) rotate(59.92)"/>
    <rect class="cls-8" x="24.96" y="44.25" width="15.58" height="20.66" transform="translate(-22.95 23.76) rotate(-30.08)"/>
    <rect class="cls-5" x="13.12" y="55.38" width="13.19" height="3.27" transform="translate(67.8 20.59) rotate(71.93)"/>
    <rect class="cls-5" x="14.63" y="62.08" width="17.9" height="3.27" transform="translate(59.85 6.27) rotate(52.58)"/>
    <g>
      <rect class="cls-6" x="30.77" y="47.25" width="7.1" height="26.56" transform="translate(15.39 -6.43) rotate(13.77)"/>
      <ellipse class="cls-9" cx="31.37" cy="72.57" rx="3.93" ry="4.22" transform="translate(-46.58 85.77) rotate(-76.23)"/>
    </g>
    <rect class="cls-3" x="44.21" y="12.12" width="14.37" height="35.54" transform="translate(51.5 -29.56) rotate(59.92)"/>
    <rect class="cls-3" x="52.69" y="21.66" width="14.37" height="15.57" transform="translate(55.35 -37.13) rotate(59.92)"/>
  </g>
</svg>