<?xml version="1.0" encoding="UTF-8"?>
<svg id="Ebene_1" data-name="Ebene 1" xmlns="http://www.w3.org/2000/svg" viewBox="0 0 76.4 117.95">
  <defs>
    <style>
      .cls-1 {
        fill: #bababa;
      }

      .cls-2 {
        fill: #fff;
      }

      .cls-3 {
        fill: #423434;
      }

      .cls-4 {
        fill: #999898;
      }

      .cls-5 {
        fill: #e6eab7;
      }

      .cls-6 {
        fill: #664b44;
      }

      .cls-7 {
        fill: #cc8f85;
      }

      .cls-8 {
        fill: #ddd;
      }

      .cls-9 {
        fill: #663434;
      }

      .cls-10 {
        fill: #4c4338;
      }

      .cls-11 {
        fill: #5d98d8;
      }

      .cls-12 {
        fill: #e8c0af;
      }

      .cls-13 {
        fill: #dae551;
      }

      .cls-14 {
        fill: #ea5e42;
      }
    </style>
  </defs>
  <g>
    <ellipse class="cls-12" cx="52.87" cy="58.29" rx="4.22" ry="3.93" transform="translate(-.92 .85) rotate(-.91)"/>
    <rect class="cls-12" x="35.42" y="40.14" width="7.1" height="26.56" transform="translate(-25.08 69.83) rotate(-68.25)"/>
  </g>
  <rect class="cls-6" x="45.17" y="16.55" width="11.46" height="30.56"/>
  <rect class="cls-6" x="1.52" y="31.44" width="52.03" height="25.74"/>
  <rect class="cls-12" x="32.17" y="83.31" width="7.41" height="29.9"/>
  <rect class="cls-12" x="26.41" y="84.1" width="7.41" height="29.9"/>
  <rect class="cls-12" x="20.76" y="44.93" width="21.14" height="30.38"/>
  <rect class="cls-5" x="17.83" y="71.15" width="5.85" height="19.83" transform="translate(24.21 -2.54) rotate(16.73)"/>
  <rect class="cls-5" x="17.96" y="71.92" width="7.93" height="36.74" transform="translate(11.92 -2.08) rotate(7.46)"/>
  <rect class="cls-5" x="25.31" y="72.41" width="12.82" height="19.83"/>
  <rect class="cls-5" x="34.16" y="72.41" width="7.93" height="19.83" transform="translate(-16.43 9.83) rotate(-12.11)"/>
  <rect class="cls-5" x="37.14" y="71.36" width="7.93" height="19.83" transform="translate(-30.79 25.36) rotate(-25.3)"/>
  <ellipse class="cls-12" cx="28.89" cy="29.37" rx="17.39" ry="16.45"/>
  <rect class="cls-10" x="21.95" y="111.22" width="16.01" height="6.73"/>
  <rect class="cls-10" x="31.58" y="111.22" width="16.01" height="6.73"/>
  <rect class="cls-6" x="28.06" y="10.91" width="16.37" height="11.07"/>
  <rect class="cls-6" x="38.13" y="18.01" width="11.23" height="10"/>
  <rect class="cls-6" x="32.17" y="18.01" width="7.05" height="7.05"/>
  <rect class="cls-6" x="43.74" y="26.56" width="4.88" height="7.09"/>
  <rect class="cls-6" x="16.98" y="8" width="11.91" height="10"/>
  <rect class="cls-6" x="11.06" y="14.92" width="8.01" height="7.07"/>
  <rect class="cls-6" x="3.88" y="20.74" width="9.1" height="15.1"/>
  <rect class="cls-6" x="5.44" y="12.92" width="11.54" height="11.54"/>
  <rect class="cls-6" x="6.94" y="31.65" width="8.95" height="18.74"/>
  <rect class="cls-6" x="6.94" y="3.82" width="40.12" height="12.63"/>
  <rect class="cls-6" x="15.89" width="23.7" height="8.91"/>
  <rect class="cls-6" x="41.1" y="8" width="12.44" height="15.01"/>
  <rect class="cls-6" y="5.9" width="14.37" height="21.1"/>
  <rect class="cls-14" x="27.74" y="14.92" width="4.44" height="7.07"/>
  <rect class="cls-14" x="32.17" y="21.53" width="7.05" height="3.52"/>
  <rect class="cls-14" x="37.53" y="25.06" width="6.9" height="2.96"/>
  <rect class="cls-14" x="43.08" y="27" width="3.2" height="6.65"/>
  <rect class="cls-14" x="32.17" y="18.68" width="3.52" height="2.85"/>
  <rect class="cls-2" x="32.24" y="28.21" width="8.02" height="2.32"/>
  <rect x="32.24" y="26.78" width="8.02" height="1.6"/>
  <rect x="36.12" y="28.29" width="4.01" height="2.32"/>
  <rect x="35.43" y="25.4" width="2.32" height="2.32"/>
  <rect class="cls-7" x="35.6" y="36.69" width="5.17" height="2.15"/>
  <rect class="cls-5" x="22.01" y="44.93" width="11.27" height="19.68"/>
  <rect class="cls-5" x="36.59" y="44.93" width="4.93" height="19.68"/>
  <rect class="cls-5" x="21.4" y="52.7" width="19.39" height="20.66" transform="translate(-31.94 94.12) rotate(-90)"/>
  <rect class="cls-11" x="20.07" y="71.99" width="13.19" height="3.27" transform="translate(15.9 -3.94) rotate(12.01)"/>
  <rect class="cls-11" x="25.44" y="72" width="17.9" height="3.27" transform="translate(-9.13 5) rotate(-7.34)"/>
  <rect class="cls-12" x="26.25" y="98.26" width="7.41" height="12.95"/>
  <rect class="cls-12" x="32.17" y="98.26" width="7.41" height="12.95"/>
  <rect class="cls-6" x="11.88" y="14.85" width="14.37" height="35.54"/>
  <rect class="cls-6" x="15.75" y="17.27" width="14.37" height="15.57"/>
  <rect class="cls-12" x="33.82" y="112.67" width="10.74" height="3.42"/>
  <rect class="cls-5" x="40.53" y="79.27" width="3.96" height="27.43" transform="translate(-4 1.94) rotate(-2.49)"/>
  <rect class="cls-12" x="26.21" y="112.67" width="10.74" height="3.42"/>
  <rect class="cls-11" x="26.25" y="44.93" width="16.6" height="2.18"/>
  <rect class="cls-13" x="26.25" y="47.11" width="16.6" height="1.09"/>
  <rect class="cls-11" x="33.24" y="79.97" width="16.6" height="2.18" transform="translate(122.6 39.52) rotate(90)"/>
  <rect class="cls-13" x="40.45" y="88.86" width="2.18" height="1.86"/>
  <g>
    <rect class="cls-8" x="46.11" y="35.3" width="1.36" height="47.96" transform="translate(-.94 .75) rotate(-.91)"/>
    <path class="cls-9" d="M44.77,34.73c.13-.4,8.92.35,16.87,6.36,3.54,2.68,9.15,6.92,10.66,14.64,2.05,10.51-5.63,18.79-6.78,20-8.53,8.96-21.32,8.53-21.48,7.9-.16-.6,11.05-1.33,18.87-10.32,1.57-1.81,7.61-8.75,6.25-17.22-1.11-6.94-6.58-11.16-10.69-14.32-7.17-5.53-13.83-6.69-13.72-7.04Z"/>
    <path class="cls-9" d="M44.77,34.73c.09-2.46,1.7-4.31,3.5-4.5,1.55-.16,2.73.99,2.96,1.21-2.32-.73-4.21.16-4.44,1.13-.2.85.75,2.14,2.36,2.88-1.46-.24-2.92-.48-4.38-.72h0Z"/>
    <path class="cls-9" d="M44.96,83.78c.18,2.96,1.85,5.12,3.66,5.28,1.55.13,2.69-1.28,2.91-1.56-2.3.96-4.21-.04-4.47-1.2-.23-1.01.68-2.6,2.26-3.54-1.45.34-2.9.68-4.35,1.02Z"/>
    <path class="cls-9" d="M70.86,55.29c1.82,1.17,3.64,2.33,5.46,3.49-1.51,1.35-3.02,2.7-4.54,4.05-.31-2.51-.61-5.03-.92-7.54h0Z"/>
    <path class="cls-9" d="M69.82,59.78c.18,2.96,1.85,5.12,3.66,5.28,1.55.13,2.69-1.28,2.91-1.56-2.3.96-4.21-.04-4.47-1.2-.23-1.01.68-2.6,2.26-3.54-1.45.34-2.9.68-4.35,1.02Z"/>
    <path class="cls-9" d="M69.46,57.15c.09-2.46,1.7-4.32,3.5-4.5,1.55-.16,2.73.99,2.96,1.21-2.32-.73-4.21.16-4.44,1.13-.2.85.75,2.14,2.36,2.88-1.46-.24-2.92-.48-4.38-.72h0Z"/>
  </g>
  <g>
    <rect class="cls-3" x="10.7" y="58.75" width="46.99" height="1.38" transform="translate(-.94 .55) rotate(-.91)"/>
    <path class="cls-1" d="M52.31,54.44l.57,9.42c2.91-1.64,5.83-3.27,8.74-4.91-3.11-1.51-6.21-3.01-9.31-4.52Z"/>
    <polygon class="cls-1" points="14.45 51.51 20.17 59.87 15.54 63.17 9.82 54.81 14.45 51.51"/>
    <polygon class="cls-1" points="9.77 64.03 15.88 55.97 20.35 59.5 14.23 67.56 9.77 64.03"/>
    <polygon class="cls-4" points="11.7 54.42 14.76 58.89 14.17 59.31 11.11 54.84 11.7 54.42"/>
    <polygon class="cls-4" points="12.93 53.69 15.99 58.16 15.4 58.58 12.34 54.11 12.93 53.69"/>
    <polygon class="cls-4" points="14.15 52.82 17.21 57.29 16.62 57.71 13.56 53.24 14.15 52.82"/>
    <polygon class="cls-4" points="15.01 60.25 11.56 64.42 11.01 63.95 14.46 59.78 15.01 60.25"/>
    <polygon class="cls-4" points="16.42 60.89 12.97 65.06 12.42 64.59 15.87 60.42 16.42 60.89"/>
    <polygon class="cls-4" points="17.59 61.91 14.15 66.07 13.6 65.6 17.05 61.43 17.59 61.91"/>
  </g>
  <g>
    <rect class="cls-12" x="19.1" y="46.46" width="7.1" height="26.56" transform="translate(-38.11 79.46) rotate(-87.22)"/>
    <ellipse class="cls-12" cx="37.74" cy="60.47" rx="4.22" ry="3.93" transform="translate(-24.48 95.23) rotate(-87.22)"/>
  </g>
</svg>