<?xml version="1.0" encoding="UTF-8"?>
<svg id="Ebene_1" data-name="Ebene 1" xmlns="http://www.w3.org/2000/svg" viewBox="0 0 94.69 118.38">
  <defs>
    <style>
      .cls-1 {
        fill: #363f4c;
      }

      .cls-2 {
        fill: #664b44;
      }

      .cls-3 {
        fill: #cc8f85;
      }

      .cls-4 {
        fill: #596a82;
      }

      .cls-5 {
        fill: #75827b;
      }

      .cls-6 {
        fill: #6f8fb2;
      }

      .cls-7 {
        fill: #484f5b;
      }

      .cls-8 {
        fill: #e8c0af;
      }

      .cls-9 {
        fill: #ea5e42;
      }
    </style>
  </defs>
  <rect class="cls-2" x="67.59" y="34.78" width="4.88" height="7.09" transform="translate(14.28 -18.81) rotate(17.01)"/>
  <rect class="cls-2" x="69.17" y="17.2" width="12.44" height="15.01" transform="translate(10.53 -20.98) rotate(17.01)"/>
  <g>
    <g>
      <rect class="cls-5" x="37" y="43.47" width="7.1" height="26.56" transform="translate(103.7 27.15) rotate(100.44)"/>
      <ellipse class="cls-8" cx="25" cy="53.88" rx="4.22" ry="3.93" transform="translate(-32.52 68.71) rotate(-79.56)"/>
    </g>
    <g>
      <rect class="cls-8" x="14.63" y="71.88" width="7.41" height="29.9" transform="translate(88.49 32.47) rotate(64.15)"/>
      <rect x="-1.49" y="93.97" width="16.01" height="6.73" transform="translate(91.27 49.03) rotate(64.15)"/>
      <rect class="cls-1" x="9.58" y="82.8" width="7.41" height="12.95" transform="translate(87.84 38.4) rotate(64.15)"/>
    </g>
    <g>
      <rect class="cls-8" x="23.19" y="81.73" width="7.41" height="29.9" transform="translate(44.38 -2.14) rotate(25.58)"/>
      <rect x="16.38" y="108.53" width="16.01" height="6.73" transform="translate(50.7 .44) rotate(25.58)"/>
      <rect class="cls-1" x="21.05" y="94.69" width="7.41" height="12.95" transform="translate(46.1 -.77) rotate(25.58)"/>
    </g>
    <g>
      <ellipse class="cls-8" cx="40.76" cy="75.16" rx="4.22" ry="3.93" transform="translate(-44.41 82.78) rotate(-66.64)"/>
      <rect class="cls-5" x="47.36" y="51.22" width="7.1" height="26.56" transform="translate(61.97 -16.92) rotate(46.02)"/>
    </g>
    <rect class="cls-2" x="73.88" y="37.33" width="11.46" height="30.56" transform="translate(52.52 -38.89) rotate(40.05)"/>
    <rect class="cls-2" x="28.53" y="33.22" width="52.03" height="25.74" transform="translate(42.45 -24.29) rotate(40.05)"/>
    <rect class="cls-5" x="35.85" y="46.47" width="21.14" height="30.38" transform="translate(50.57 -15.41) rotate(40.05)"/>
    <rect class="cls-6" x="21.92" y="60.97" width="5.85" height="19.83" transform="translate(70.54 11.26) rotate(56.78)"/>
    <rect class="cls-6" x="22.08" y="63.08" width="7.93" height="19.83" transform="translate(62.29 4.49) rotate(47.52)"/>
    <rect class="cls-6" x="26.02" y="68.99" width="12.82" height="19.83" transform="translate(58.38 -2.36) rotate(40.05)"/>
    <rect class="cls-6" x="33.37" y="73.12" width="7.93" height="19.83" transform="translate(43.26 -7.82) rotate(27.94)"/>
    <rect class="cls-6" x="36.33" y="74.23" width="7.93" height="19.83" transform="translate(22.76 -7.49) rotate(14.75)"/>
    <ellipse class="cls-8" cx="64.34" cy="36.56" rx="16.45" ry="17.39" transform="translate(-5.04 62.28) rotate(-49.95)"/>
    <rect class="cls-2" x="70.1" y="25.87" width="16.37" height="11.07" transform="translate(38.57 -43.01) rotate(40.05)"/>
    <rect class="cls-2" x="74.19" y="36.24" width="11.23" height="10" transform="translate(45.26 -41.68) rotate(40.05)"/>
    <rect class="cls-2" x="71.07" y="31.41" width="7.05" height="7.05" transform="translate(39.98 -39.81) rotate(40.05)"/>
    <rect class="cls-2" x="64.36" y="15.2" width="11.91" height="10" transform="translate(29.49 -40.51) rotate(40.05)"/>
    <rect class="cls-2" x="56.78" y="15.76" width="8.01" height="7.07" transform="translate(26.67 -34.59) rotate(40.05)"/>
    <rect class="cls-2" x="44.83" y="15.01" width="9.1" height="15.1" transform="translate(26.1 -26.48) rotate(40.05)"/>
    <rect class="cls-2" x="51.92" y="11.23" width="11.54" height="11.54" transform="translate(24.47 -33.13) rotate(40.05)"/>
    <rect class="cls-2" x="38.99" y="24.86" width="8.95" height="18.74" transform="translate(32.22 -19.94) rotate(40.05)"/>
    <rect class="cls-2" x="55.21" y="14.3" width="40.12" height="12.63" transform="translate(30.92 -43.6) rotate(40.05)"/>
    <rect class="cls-2" x="67.64" y="12.29" width="23.7" height="8.91" transform="translate(29.42 -47.22) rotate(40.05)"/>
    <rect class="cls-2" x="48.86" y="2.15" width="14.37" height="21.1" transform="translate(21.32 -33.08) rotate(40.05)"/>
    <rect class="cls-9" x="69.96" y="25.35" width="4.44" height="7.07" transform="translate(35.52 -39.67) rotate(40.05)"/>
    <rect class="cls-9" x="69.94" y="34.52" width="7.05" height="3.52" transform="translate(40.58 -38.76) rotate(40.05)"/>
    <rect class="cls-9" x="71.97" y="40.69" width="6.9" height="2.96" transform="translate(44.83 -38.64) rotate(40.05)"/>
    <rect class="cls-9" x="74.21" y="44.12" width="3.2" height="6.65" transform="translate(48.32 -37.66) rotate(40.05)"/>
    <rect class="cls-9" x="72.4" y="31.29" width="3.52" height="2.85" transform="translate(38.44 -40.05) rotate(40.05)"/>
    <rect x="67.11" y="39.12" width="8.02" height="1.6" transform="translate(42.37 -36.4) rotate(40.05)"/>
    <rect x="70.88" y="38.2" width="2.32" height="2.32" transform="translate(42.22 -37.13) rotate(40.05)"/>
    <rect class="cls-3" x="64.71" y="44.49" width="5.17" height="6" transform="translate(46.35 -32.16) rotate(40.05)"/>
    <rect class="cls-7" x="41.41" y="45.36" width="11.27" height="19.68" transform="translate(46.55 -17.33) rotate(40.05)"/>
    <rect class="cls-7" x="53.31" y="52.7" width="4.93" height="19.68" transform="translate(53.33 -21.22) rotate(40.05)"/>
    <rect class="cls-7" x="37.8" y="51.95" width="15.58" height="20.66" transform="translate(-31.42 57.1) rotate(-49.95)"/>
    <rect class="cls-4" x="27.56" y="67.36" width="13.19" height="3.27" transform="translate(67.57 -.36) rotate(52.06)"/>
    <rect class="cls-4" x="31.12" y="72.35" width="17.9" height="3.27" transform="translate(46.34 -9.92) rotate(32.71)"/>
    <g>
      <rect class="cls-5" x="47.44" y="50.77" width="7.1" height="26.56" transform="translate(-10.34 9.82) rotate(-9.99)"/>
      <ellipse class="cls-8" cx="53.73" cy="79.62" rx="4.22" ry="3.93" transform="translate(-13 10.53) rotate(-9.99)"/>
    </g>
    <rect class="cls-2" x="47.54" y="14.95" width="14.37" height="35.54" transform="translate(33.89 -27.54) rotate(40.05)"/>
    <rect class="cls-2" x="55.37" y="21.64" width="14.37" height="15.57" transform="translate(33.61 -33.36) rotate(40.05)"/>
  </g>
</svg>