<?xml version="1.0" encoding="UTF-8"?>
<svg id="Ebene_1" data-name="Ebene 1" xmlns="http://www.w3.org/2000/svg" viewBox="0 0 83.33 119.31">
  <defs>
    <style>
      .cls-1 {
        fill: #fff;
      }

      .cls-2 {
        fill: #363f4c;
      }

      .cls-3 {
        fill: #664b44;
      }

      .cls-4 {
        fill: #cc8f85;
      }

      .cls-5 {
        fill: #596a82;
      }

      .cls-6 {
        fill: #75827b;
      }

      .cls-7 {
        fill: #7f7f7e;
      }

      .cls-8 {
        fill: #6f8fb2;
      }

      .cls-9 {
        fill: #a3a3a3;
      }

      .cls-10 {
        fill: #484f5b;
      }

      .cls-11 {
        fill: #bcbcbc;
      }

      .cls-12 {
        fill: #e8c0af;
      }

      .cls-13 {
        fill: #ea5e42;
      }
    </style>
  </defs>
  <rect class="cls-12" x="17.1" y="84.67" width="7.41" height="29.9"/>
  <rect class="cls-12" x="11.34" y="85.46" width="7.41" height="29.9"/>
  <rect x="6.88" y="112.58" width="16.01" height="6.73"/>
  <rect x="16.51" y="112.58" width="16.01" height="6.73"/>
  <rect class="cls-2" x="11.17" y="99.63" width="7.41" height="12.95"/>
  <rect class="cls-2" x="17.1" y="99.63" width="7.41" height="12.95"/>
  <rect class="cls-3" x="59.66" y="38.11" width="11.46" height="30.56" transform="translate(52.74 -30.07) rotate(42.15)"/>
  <rect class="cls-3" x="14.57" y="33.09" width="52.03" height="25.74" transform="translate(41.34 -15.35) rotate(42.15)"/>
  <rect class="cls-6" x="21.32" y="46.03" width="21.14" height="30.38" transform="translate(49.33 -5.57) rotate(42.15)"/>
  <rect class="cls-8" x="7.07" y="59.74" width="5.85" height="19.83" transform="translate(64.46 25.09) rotate(58.88)"/>
  <rect class="cls-8" x="7.15" y="61.89" width="7.93" height="19.83" transform="translate(58.61 16.81) rotate(49.61)"/>
  <rect class="cls-8" x="10.87" y="68.03" width="12.82" height="19.83" transform="translate(56.78 8.56) rotate(42.15)"/>
  <rect class="cls-8" x="18.07" y="72.33" width="7.93" height="19.83" transform="translate(44.13 .02) rotate(30.04)"/>
  <rect class="cls-8" x="20.98" y="73.55" width="7.93" height="19.83" transform="translate(25.27 -3.65) rotate(16.85)"/>
  <ellipse class="cls-12" cx="50.72" cy="36.79" rx="16.45" ry="17.39" transform="translate(-10.59 49.71) rotate(-47.85)"/>
  <rect class="cls-3" x="56.66" y="26.61" width="16.37" height="11.07" transform="translate(38.34 -35.2) rotate(42.15)"/>
  <rect class="cls-3" x="60.38" y="37.04" width="11.23" height="10" transform="translate(45.28 -33.42) rotate(42.15)"/>
  <rect class="cls-3" x="57.5" y="32.02" width="7.05" height="7.05" transform="translate(39.63 -31.76) rotate(42.15)"/>
  <rect class="cls-3" x="60.61" y="45.39" width="4.88" height="7.09" transform="translate(49.15 -29.65) rotate(42.15)"/>
  <rect class="cls-3" x="51.33" y="15.66" width="11.91" height="10" transform="translate(28.68 -33.1) rotate(42.15)"/>
  <rect class="cls-3" x="43.79" y="15.88" width="8.01" height="7.07" transform="translate(25.39 -27.05) rotate(42.15)"/>
  <rect class="cls-3" x="31.73" y="14.7" width="9.1" height="15.1" transform="translate(24.32 -18.59) rotate(42.15)"/>
  <rect class="cls-3" x="39.02" y="11.23" width="11.54" height="11.54" transform="translate(22.99 -25.66) rotate(42.15)"/>
  <rect class="cls-3" x="25.47" y="24.33" width="8.95" height="18.74" transform="translate(30.36 -11.38) rotate(42.15)"/>
  <rect class="cls-3" x="42.17" y="14.94" width="40.12" height="12.63" transform="translate(30.36 -36.26) rotate(42.15)"/>
  <rect class="cls-3" x="54.73" y="13.09" width="23.7" height="8.91" transform="translate(28.99 -40.15) rotate(42.15)"/>
  <rect class="cls-3" x="67.47" y="31.38" width="12.44" height="15.01" transform="translate(45.15 -39.4) rotate(42.15)"/>
  <rect class="cls-3" x="36.11" y="2.09" width="14.37" height="21.1" transform="translate(19.68 -25.79) rotate(42.15)"/>
  <rect class="cls-13" x="56.62" y="25.87" width="4.44" height="7.07" transform="translate(34.95 -31.88) rotate(42.15)"/>
  <rect class="cls-13" x="56.32" y="35.09" width="7.05" height="3.52" transform="translate(40.21 -30.63) rotate(42.15)"/>
  <rect class="cls-13" x="58.14" y="41.32" width="6.9" height="2.96" transform="translate(44.65 -30.26) rotate(42.15)"/>
  <rect class="cls-13" x="60.19" y="44.77" width="3.2" height="6.65" transform="translate(48.25 -29.02) rotate(42.15)"/>
  <rect class="cls-13" x="58.91" y="31.88" width="3.52" height="2.85" transform="translate(38.04 -32.1) rotate(42.15)"/>
  <rect class="cls-1" x="52.16" y="40.57" width="8.02" height="2.32" transform="translate(42.53 -26.91) rotate(42.15)"/>
  <rect x="53.36" y="39.6" width="8.02" height="1.6" transform="translate(41.95 -28.06) rotate(42.15)"/>
  <rect x="55.51" y="41.88" width="4.01" height="2.32" transform="translate(43.76 -27.47) rotate(42.15)"/>
  <rect x="57.16" y="38.71" width="2.32" height="2.32" transform="translate(41.84 -28.82) rotate(42.15)"/>
  <rect class="cls-4" x="49.39" y="48.18" width="5.17" height="2.15" transform="translate(46.5 -22.14) rotate(42.15)"/>
  <g>
    <ellipse class="cls-12" cx="43" cy="83.11" rx="3.93" ry="4.22" transform="translate(-28.35 22.57) rotate(-22.33)"/>
    <rect class="cls-6" x="38.91" y="55.11" width="7.1" height="26.56" transform="translate(.4 -.25) rotate(.33)"/>
  </g>
  <rect class="cls-10" x="27.12" y="44.95" width="11.27" height="19.68" transform="translate(45.23 -7.81) rotate(42.15)"/>
  <rect class="cls-10" x="38.75" y="52.6" width="4.93" height="19.68" transform="translate(52.56 -11.51) rotate(42.15)"/>
  <rect class="cls-10" x="23.25" y="51.48" width="15.58" height="20.66" transform="translate(-35.62 43.34) rotate(-47.85)"/>
  <rect class="cls-5" x="12.77" y="66.47" width="13.19" height="3.27" transform="translate(63.24 12.52) rotate(54.16)"/>
  <rect class="cls-5" x="16.14" y="71.67" width="17.9" height="3.27" transform="translate(46.33 -1.21) rotate(34.81)"/>
  <rect class="cls-3" x="34.07" y="14.83" width="14.37" height="35.54" transform="translate(32.55 -19.25) rotate(42.15)"/>
  <rect class="cls-3" x="42.02" y="21.81" width="14.37" height="15.57" transform="translate(32.58 -25.36) rotate(42.15)"/>
  <g>
    <rect class="cls-11" x="42.06" y="49.67" width="5.31" height="60.16" transform="translate(111.99 17.83) rotate(76.65)"/>
    <rect class="cls-9" x="44.04" y="51.21" width="2.07" height="60.16" transform="translate(113.77 18.66) rotate(76.65)"/>
    <ellipse class="cls-7" cx="73.98" cy="72.81" rx="1.46" ry="2.61" transform="translate(-14.81 19.05) rotate(-13.35)"/>
    <ellipse class="cls-7" cx="15.45" cy="86.7" rx="1.46" ry="2.61" transform="translate(-19.6 5.91) rotate(-13.35)"/>
  </g>
  <g>
    <rect class="cls-6" x="30.8" y="53.71" width="7.1" height="26.56" transform="translate(-4.59 2.56) rotate(-4)"/>
    <ellipse class="cls-12" cx="35.22" cy="79.36" rx="4.22" ry="3.93" transform="translate(-5.45 2.65) rotate(-4)"/>
  </g>
</svg>