<?xml version="1.0" encoding="UTF-8"?>
<svg id="Ebene_1" data-name="Ebene 1" xmlns="http://www.w3.org/2000/svg" viewBox="0 0 80.17 117.95">
  <defs>
    <style>
      .cls-1 {
        fill: #fff;
      }

      .cls-2 {
        fill: #363f4c;
      }

      .cls-3 {
        fill: #664b44;
      }

      .cls-4 {
        fill: #cc8f85;
      }

      .cls-5 {
        fill: #596a82;
      }

      .cls-6 {
        fill: #75827b;
      }

      .cls-7 {
        fill: #7f7f7e;
      }

      .cls-8 {
        fill: #6f8fb2;
      }

      .cls-9 {
        fill: #a3a3a3;
      }

      .cls-10 {
        fill: #484f5b;
      }

      .cls-11 {
        fill: #bcbcbc;
      }

      .cls-12 {
        fill: #e8c0af;
      }

      .cls-13 {
        fill: #ea5e42;
      }
    </style>
  </defs>
  <g>
    <ellipse class="cls-12" cx="43.48" cy="73.96" rx="3.93" ry="4.22" transform="translate(-31.15 31.65) rotate(-30)"/>
    <rect class="cls-6" x="37.43" y="46.17" width="7.1" height="26.56" transform="translate(-7.26 5.72) rotate(-7.34)"/>
  </g>
  <rect class="cls-3" x="45.17" y="16.55" width="11.46" height="30.56"/>
  <rect class="cls-3" x="1.52" y="30.11" width="52.03" height="25.74"/>
  <rect class="cls-12" x="32.17" y="83.31" width="7.41" height="29.9"/>
  <rect class="cls-12" x="26.41" y="84.1" width="7.41" height="29.9"/>
  <rect class="cls-6" x="20.76" y="44.93" width="21.14" height="30.38"/>
  <rect class="cls-8" x="17.83" y="71.15" width="5.85" height="19.83" transform="translate(24.21 -2.54) rotate(16.73)"/>
  <rect class="cls-8" x="19.06" y="71.99" width="7.93" height="19.83" transform="translate(10.84 -2.3) rotate(7.46)"/>
  <rect class="cls-8" x="25.31" y="72.41" width="12.82" height="19.83"/>
  <rect class="cls-8" x="34.16" y="72.41" width="7.93" height="19.83" transform="translate(-16.43 9.83) rotate(-12.11)"/>
  <rect class="cls-8" x="37.14" y="71.36" width="7.93" height="19.83" transform="translate(-30.79 25.36) rotate(-25.3)"/>
  <ellipse class="cls-12" cx="28.89" cy="29.37" rx="17.39" ry="16.45"/>
  <rect x="21.95" y="111.22" width="16.01" height="6.73"/>
  <rect x="31.58" y="111.22" width="16.01" height="6.73"/>
  <rect class="cls-3" x="28.06" y="10.91" width="16.37" height="11.07"/>
  <rect class="cls-3" x="38.13" y="18.01" width="11.23" height="10"/>
  <rect class="cls-3" x="32.17" y="18.01" width="7.05" height="7.05"/>
  <rect class="cls-3" x="43.74" y="26.56" width="4.88" height="7.09"/>
  <rect class="cls-3" x="16.98" y="8" width="11.91" height="10"/>
  <rect class="cls-3" x="11.06" y="14.92" width="8.01" height="7.07"/>
  <rect class="cls-3" x="3.88" y="20.74" width="9.1" height="15.1"/>
  <rect class="cls-3" x="5.44" y="12.92" width="11.54" height="11.54"/>
  <rect class="cls-3" x="6.94" y="31.65" width="8.95" height="18.74"/>
  <rect class="cls-3" x="6.94" y="3.82" width="40.12" height="12.63"/>
  <rect class="cls-3" x="15.89" width="23.7" height="8.91"/>
  <rect class="cls-3" x="41.1" y="8" width="12.44" height="15.01"/>
  <rect class="cls-3" y="5.9" width="14.37" height="21.1"/>
  <rect class="cls-13" x="27.74" y="14.92" width="4.44" height="7.07"/>
  <rect class="cls-13" x="32.17" y="21.53" width="7.05" height="3.52"/>
  <rect class="cls-13" x="37.53" y="25.06" width="6.9" height="2.96"/>
  <rect class="cls-13" x="43.08" y="27" width="3.2" height="6.65"/>
  <rect class="cls-13" x="32.17" y="18.68" width="3.52" height="2.85"/>
  <rect class="cls-1" x="32.24" y="28.21" width="8.02" height="2.32"/>
  <rect x="32.24" y="26.78" width="8.02" height="1.6"/>
  <rect x="36.12" y="28.29" width="4.01" height="2.32"/>
  <rect x="35.43" y="25.4" width="2.32" height="2.32"/>
  <rect class="cls-4" x="35.6" y="36.69" width="5.17" height="2.15"/>
  <rect class="cls-10" x="22.01" y="44.93" width="11.27" height="19.68"/>
  <rect class="cls-10" x="36.59" y="44.93" width="4.93" height="19.68"/>
  <rect class="cls-10" x="23.3" y="50.8" width="15.58" height="20.66" transform="translate(-30.04 92.22) rotate(-90)"/>
  <rect class="cls-5" x="20.07" y="71.99" width="13.19" height="3.27" transform="translate(15.9 -3.94) rotate(12.01)"/>
  <rect class="cls-5" x="25.44" y="72" width="17.9" height="3.27" transform="translate(-9.13 5) rotate(-7.34)"/>
  <rect class="cls-2" x="26.25" y="98.26" width="7.41" height="12.95"/>
  <rect class="cls-2" x="32.17" y="98.26" width="7.41" height="12.95"/>
  <rect class="cls-3" x="11.88" y="14.85" width="14.37" height="35.54"/>
  <rect class="cls-3" x="15.75" y="17.27" width="14.37" height="15.57"/>
  <g>
    <rect class="cls-11" x="46.7" y="41.48" width="5.31" height="60.16" transform="translate(107.59 7.02) rotate(76.65)"/>
    <rect class="cls-9" x="48.69" y="43.02" width="2.07" height="60.16" transform="translate(109.37 7.84) rotate(76.65)"/>
    <ellipse class="cls-7" cx="78.63" cy="64.62" rx="1.46" ry="2.61" transform="translate(-12.79 19.9) rotate(-13.35)"/>
    <ellipse class="cls-7" cx="20.09" cy="78.51" rx="1.46" ry="2.61" transform="translate(-17.58 6.76) rotate(-13.35)"/>
  </g>
  <g>
    <rect class="cls-6" x="25.34" y="48.17" width="7.1" height="26.56"/>
    <ellipse class="cls-12" cx="28.89" cy="77.12" rx="4.22" ry="3.93"/>
  </g>
</svg>